<?xml version="1.0" encoding="utf-8"?>
<!-- Generator: Adobe Illustrator 26.5.0, SVG Export Plug-In . SVG Version: 6.00 Build 0)  -->
<svg version="1.1" id="Layer_1" xmlns="http://www.w3.org/2000/svg" xmlns:xlink="http://www.w3.org/1999/xlink" x="0px" y="0px"
	 viewBox="0 0 32 32" style="enable-background:new 0 0 32 32;" xml:space="preserve">
<style type="text/css">
	.st0{fill:#FFFFFF;}
</style>
<path class="st0" d="M32.1,4.3v23.4c0,2.4-1.9,4.3-4.3,4.3h-6.2c-0.2-0.2-0.4-0.4-0.4-0.7v-4.5c0-1.6-0.7-3.1-1.7-4c4-0.9,7-3.1,7-7
	c0-2.1-0.9-3.8-2.1-5.2c0.2-0.3,0.3-1,0.3-2.4V5.8c-0.2-0.3-0.3-0.5-0.7-0.5h-0.2C23,5.5,21.1,6,19.5,7.6c-1-0.4-2.3-0.5-3.5-0.5
	s-2.4,0.2-3.5,0.5C11,6,9.2,5.5,8.3,5.3H8.2C8,5.3,7.7,5.5,7.7,5.8C7.3,6.5,7.3,7.4,7.3,8.1c0,1.2,0.2,2.1,0.4,2.4
	c-1.2,1.4-2.1,3.3-2.1,5.2c0,3.8,3,6.1,7,7c-1.1,0.7-1.6,1.9-1.7,3.1c-0.3,0.2-0.9,0.3-1.6,0.3c-0.5,0-1.6-0.3-2.4-1.7
	c-0.4-0.5-1.2-1.8-2.3-1.8c-0.2,0-0.7,0-0.7,0.3c0,0.2,0.2,0.2,0.7,0.4c0.5,0.5,0.9,1,1,1.7c0.2,1.2,1.2,3.3,3.7,3.3
	c0.9,0,1.6-0.2,1.6-0.2v2.8c0,0.5-0.3,0.8-0.6,0.9h-6C1.9,32,0,30.1,0,27.7V4.3C0,1.9,1.9,0,4.3,0h23.4C30.1,0,32,1.9,32.1,4.3z"/>
</svg>
