<svg viewBox="0 0 36 36" fill="none" xmlns="http://www.w3.org/2000/svg">
<path fill-rule="evenodd" clip-rule="evenodd" d="M4.6204 0H31.3787C33.9205 0 36 2.07863 36 4.6204V31.3787C36 33.9205 33.9205 36 31.3787 36H4.6204C2.07863 36 0 33.9205 0 31.3787V4.6204C0 2.07863 2.07863 0 4.6204 0ZM26.2239 3.99903C25.3327 3.99903 24.6032 4.72854 24.6032 5.61973V9.49921C24.6032 10.3904 25.3327 11.1199 26.2239 11.1199H30.2933C31.1845 11.1199 31.914 10.3905 31.914 9.49921V5.61973C31.914 4.72854 31.1845 3.99903 30.2933 3.99903H26.2239ZM31.9307 15.2236H28.7622C29.0619 16.2026 29.2236 17.2389 29.2236 18.3129C29.2236 24.3009 24.2138 29.1551 18.0334 29.1551C11.8538 29.1551 6.84402 24.3009 6.84402 18.3129C6.84402 17.2389 7.0057 16.2027 7.30546 15.2236H3.99987V30.4304C3.99987 31.2179 4.64322 31.8621 5.43079 31.8621H30.4998C31.2865 31.8621 31.9307 31.2178 31.9307 30.4304V15.2236H31.9307ZM18.0335 10.916C14.0406 10.916 10.8035 14.0528 10.8035 17.9218C10.8035 21.7908 14.0406 24.9276 18.0335 24.9276C22.0271 24.9276 25.2642 21.7908 25.2642 17.9218C25.2642 14.0528 22.0271 10.916 18.0335 10.916Z" fill="white"/>
</svg>
