<svg viewBox="0 0 36 36" fill="none" xmlns="http://www.w3.org/2000/svg">
<path fill-rule="evenodd" clip-rule="evenodd" d="M4.82227 0H31.0654C33.7568 0 35.8877 2.1377 36 4.8374V31.1626C36 33.8623 33.8691 36 31.1777 36H4.82227C2.13086 36 0 33.8623 0 31.1626V4.8374C0 2.1377 2.13086 0 4.82227 0ZM7.44873 13.3125V29.7373H11.9346V13.3125H7.44873ZM7 8.7002C7 10.1626 8.23389 11.3999 9.69141 11.3999C11.1494 11.3999 12.271 10.1626 12.271 8.7002C12.271 7.2373 11.0376 6 9.57959 6C8.12158 6 7 7.2373 7 8.7002ZM25.3926 29.7373H29.8784V19.6123C29.8784 11.7373 21.5796 12.0752 19.4487 15.8999V13.3125H14.9624V29.7373H19.4487V20.7373C19.4487 16.2373 25.3926 16.2373 25.3926 20.7373V29.7373Z" fill="white"/>
</svg>
