<?xml version="1.0" encoding="utf-8"?>
<!-- Generator: Adobe Illustrator 19.0.0, SVG Export Plug-In . SVG Version: 6.00 Build 0)  -->
<svg version="1.1" id="Layer_1" xmlns="http://www.w3.org/2000/svg" xmlns:xlink="http://www.w3.org/1999/xlink" x="0px" y="0px"
	 viewBox="0 0 32 32" style="enable-background:new 0 0 32 32;" xml:space="preserve">
<style type="text/css">
	.st0{fill:#FFFFFF;}
</style>
<path id="linkedin-3_1_" class="st0" d="M32,6.7C32,3,29,0,25.3,0H6.7C3,0,0,3,0,6.7v18.7C0,29,3,32,6.7,32h18.7
	c3.7,0,6.7-3,6.7-6.7V6.7z M10.7,25.3h-4V10.7h4V25.3z M8.7,9C7.4,9,6.3,7.9,6.3,6.6c0-1.3,1-2.4,2.3-2.4S11,5.3,11,6.6
	C11,7.9,10,9,8.7,9z M26.7,25.3h-4c0,0,0-5.3,0-8c0-4-5.3-4-5.3,0c0,2.7,0,8,0,8h-4V10.7h4V13c1.9-3.4,9.3-3.7,9.3,3.3
	C26.7,20.1,26.7,25.3,26.7,25.3z"/>
</svg>
