<?xml version="1.0" encoding="utf-8"?>
<!-- Generator: Adobe Illustrator 26.5.0, SVG Export Plug-In . SVG Version: 6.00 Build 0)  -->
<svg version="1.1" id="Layer_1" xmlns="http://www.w3.org/2000/svg" xmlns:xlink="http://www.w3.org/1999/xlink" x="0px" y="0px"
	 viewBox="0 0 32 32" style="enable-background:new 0 0 32 32;" xml:space="preserve">
<style type="text/css">
	.st0{fill:#FFFFFF;}
</style>
<path class="st0" d="M27.7,0H4.3C1.9,0,0,1.9,0,4.3v23.4C0,30.1,1.9,32,4.3,32h11.5h5.1h6.9c2.4,0,4.3-1.9,4.3-4.3V4.3
	C32,1.9,30.1,0,27.7,0z M25.3,14.1c0,0-1.3-0.1-2.2-0.3c-1.3-0.4-2.2-0.9-2.2-0.9s-0.6-0.4-0.6-0.4V20c0,0.4-0.1,1.5-0.4,2.3
	c-0.3,0.7-0.7,1.4-1.2,2c0,0-0.8,1-2.3,1.7c-1.3,0.6-2.4,0.6-2.8,0.6c0,0-2,0.1-3.8-1.1l0,0v0c-0.6-0.4-1.1-0.9-1.6-1.5
	c-0.6-0.7-0.9-1.6-1-1.8v0c-0.1-0.4-0.4-1.4-0.4-2.4c0.1-1.7,0.7-2.8,0.8-3.1C8,16,8.5,15.3,9.2,14.8c1.5-1.2,3.4-1.8,5.3-1.5l0,3.7
	c-0.3-0.1-0.6-0.2-1-0.2c-1.7,0-3.1,1.4-3.1,3.1c0,1.7,1.4,3.1,3.1,3.1c0.5,0,1.1-0.1,1.5-0.4c0.9-0.5,1.5-1.4,1.6-2.5c0,0,0,0,0,0
	c0,0,0,0,0,0c0,0,0,0,0-0.1c0-0.2,0-0.4,0-0.6V5.3h3.7c0,0,0,0.4,0,0.9h0c0.1,0.7,0.4,1.6,1.2,2.5c0.3,0.3,0.7,0.7,1.1,0.9
	c0.1,0.1,0.3,0.2,0.4,0.2c0.9,0.5,1.9,0.6,2.3,0.6V14.1z"/>
</svg>
