<svg viewBox="0 0 20 21" fill="none" xmlns="http://www.w3.org/2000/svg">
<path d="M10.0127 0C4.50616 0 0.0234867 4.70229 0.0214865 10.4836C0.0204864 12.3316 0.481516 14.1357 1.3556 15.7254L0 21L5.23293 19.7019C6.69207 20.5377 8.33467 20.9764 10.0068 20.9774H10.0107C15.5163 20.9774 19.997 16.2741 20 10.4938C20.002 7.6914 18.964 5.05652 17.0778 3.07412C15.1917 1.09277 12.685 0.00105 10.0127 0ZM10.0107 2.1C12.1469 2.10105 14.1545 2.97549 15.6636 4.55889C17.1728 6.14439 18.0018 8.2511 17.9998 10.4918C17.9978 15.116 14.4152 18.8774 10.0088 18.8774C8.67566 18.8764 7.35512 18.525 6.19201 17.8582L5.51812 17.4727L4.7739 17.6572L2.80496 18.1453L3.28548 16.2709L3.50229 15.4301L3.08819 14.6754C2.39012 13.407 2.02068 11.9567 2.02168 10.4836C2.02368 5.86149 5.60731 2.1 10.0107 2.1ZM6.47719 5.64375C6.31018 5.64375 6.04014 5.70937 5.81111 5.97187C5.58209 6.23332 4.93603 6.86656 4.93603 8.15596C4.93603 9.44536 5.83065 10.6917 5.95566 10.8671C6.07967 11.0414 7.6825 13.771 10.2197 14.821C12.328 15.6935 12.7561 15.5213 13.2142 15.4772C13.6722 15.4342 14.6919 14.8446 14.8999 14.2324C15.1079 13.6203 15.1084 13.0937 15.0464 12.9855C14.9844 12.8763 14.8179 12.8112 14.5678 12.68C14.3188 12.5487 13.0916 11.9161 12.8626 11.8289C12.6336 11.7418 12.466 11.6977 12.3 11.9602C12.134 12.2227 11.6569 12.8112 11.5109 12.9855C11.3649 13.1609 11.2198 13.1845 10.9698 13.0532C10.7198 12.9209 9.91591 12.6435 8.96181 11.751C8.21974 11.0569 7.71902 10.2006 7.573 9.93809C7.42799 9.67664 7.55933 9.53303 7.68434 9.40283C7.79635 9.28523 7.93241 9.09676 8.05743 8.94346C8.18144 8.79016 8.22444 8.68094 8.30745 8.50664C8.39046 8.33234 8.34797 8.17852 8.28596 8.04727C8.22396 7.91602 7.73838 6.62182 7.51636 6.10312C7.32934 5.66737 7.13182 5.65725 6.9538 5.6499C6.80879 5.6436 6.64321 5.64375 6.47719 5.64375Z" fill="white"/>
</svg>
