<?xml version="1.0" encoding="utf-8"?>
<!-- Generator: Adobe Illustrator 19.0.0, SVG Export Plug-In . SVG Version: 6.00 Build 0)  -->
<svg version="1.1" id="Layer_1" xmlns="http://www.w3.org/2000/svg" xmlns:xlink="http://www.w3.org/1999/xlink" x="0px" y="0px"
	 viewBox="0 0 140 46.8" style="enable-background:new 0 0 140 46.8;" xml:space="preserve">
<g id="XMLID_2_">
	<path id="XMLID_2758_" fill='#A7A6A6' d="M128.9,0H11.2c-0.4,0-0.9,0-1.3,0C9.5,0,9.2,0,8.8,0C8,0,7.2,0.1,6.5,0.2
		C5.7,0.4,4.9,0.6,4.2,1C3.5,1.3,2.9,1.8,2.3,2.3C1.8,2.9,1.3,3.5,1,4.2C0.6,4.9,0.4,5.7,0.2,6.5C0.1,7.2,0,8,0,8.8
		c0,0.4,0,0.7,0,1.1v27c0,0.4,0,0.7,0,1.1c0,0.8,0.1,1.6,0.2,2.3c0.1,0.8,0.4,1.5,0.7,2.2c0.4,0.7,0.8,1.3,1.4,1.9
		c0.6,0.6,1.2,1,1.9,1.4c0.7,0.4,1.4,0.6,2.2,0.7c0.8,0.1,1.6,0.2,2.3,0.2c0.4,0,0.7,0,1.1,0c0.4,0,0.9,0,1.3,0h117.7
		c0.4,0,0.8,0,1.3,0c0.4,0,0.7,0,1.1,0c0.8,0,1.6-0.1,2.3-0.2c0.8-0.1,1.5-0.4,2.2-0.7c0.7-0.4,1.3-0.8,1.9-1.4
		c0.6-0.6,1-1.2,1.4-1.9c0.4-0.7,0.6-1.5,0.7-2.2c0.1-0.8,0.2-1.6,0.2-2.3c0-0.4,0-0.7,0-1.1c0-0.4,0-0.8,0-1.3V11.2
		c0-0.4,0-0.9,0-1.3c0-0.4,0-0.7,0-1.1c0-0.8-0.1-1.6-0.2-2.3c-0.1-0.8-0.4-1.5-0.7-2.2c-0.7-1.4-1.9-2.6-3.3-3.3
		c-0.7-0.4-1.5-0.6-2.2-0.7C132.8,0.1,132,0,131.2,0c-0.4,0-0.7,0-1.1,0C129.7,0,129.3,0,128.9,0L128.9,0z"/>
	<path id="XMLID_2757_" fill='#000000' d="M9.9,45.8c-0.4,0-0.7,0-1.1,0c-0.7,0-1.5-0.1-2.2-0.2c-0.7-0.1-1.3-0.3-1.9-0.6
		c-0.6-0.3-1.2-0.7-1.6-1.2c-0.5-0.5-0.9-1-1.2-1.6c-0.3-0.6-0.5-1.3-0.6-1.9C1.1,39.4,1,38.7,1,38c0-0.2,0-1.1,0-1.1v-27
		c0,0,0-0.8,0-1c0-0.7,0.1-1.5,0.2-2.2C1.3,6,1.6,5.3,1.9,4.7c0.3-0.6,0.7-1.2,1.2-1.6c0.5-0.5,1-0.9,1.6-1.2C5.3,1.6,6,1.3,6.6,1.2
		C7.4,1.1,8.1,1,8.8,1l1.1,0h120.2l1.1,0c0.7,0,1.5,0.1,2.2,0.2c0.7,0.1,1.3,0.3,2,0.6c1.2,0.6,2.2,1.6,2.8,2.8
		c0.3,0.6,0.5,1.3,0.6,1.9c0.1,0.7,0.2,1.5,0.2,2.2c0,0.3,0,0.7,0,1c0,0.4,0,0.9,0,1.3v24.5c0,0.4,0,0.8,0,1.3c0,0.4,0,0.7,0,1.1
		c0,0.7-0.1,1.5-0.2,2.2c-0.1,0.7-0.3,1.3-0.6,2c-0.3,0.6-0.7,1.1-1.2,1.6c-0.5,0.5-1,0.9-1.6,1.2c-0.6,0.3-1.3,0.5-2,0.6
		c-0.7,0.1-1.5,0.2-2.2,0.2c-0.3,0-0.7,0-1,0l-1.3,0L9.9,45.8z"/>
	<path id="XMLID_1_" fill='#ffffff' d="M32.4,28.9c-0.4,1.3-1,2.5-1.8,3.6c-1,1.6-2.1,3.1-3.9,3.1c-1.7,0-2.3-1-4.2-1c-2,0-2.6,1-4.2,1
		c-1.7,0.1-2.9-1.7-4-3.2c-2.2-3.2-3.9-8.9-1.6-12.8c1.1-1.9,3-3.1,5.2-3.2c1.7,0,3.2,1.1,4.2,1.1c1,0,2.9-1.4,4.9-1.2
		c1.9,0.1,3.6,1,4.7,2.5c-1.7,1-2.7,2.9-2.8,4.9C29,26,30.3,28,32.4,28.9z M25.8,14.3c0.9-1.1,1.4-2.6,1.3-4.1
		c-1.5,0.2-2.8,0.8-3.8,1.9c-1,1.1-1.4,2.5-1.3,3.9C23.5,16.1,24.9,15.4,25.8,14.3z M50.8,35.7h2.4L48,21.2h-2.4l-5.2,14.5h2.3
		l1.3-3.9h5.5L50.8,35.7z M46.7,23.6L46.7,23.6l2.2,6.4h-4.4L46.7,23.6z M60.1,25c-1.4,0-2.7,0.7-3.4,1.9h0v-1.8h-2.1v14.1h2.2v-5.2
		h0.1c0.7,1.2,2,1.9,3.3,1.9c2.7,0,4.4-2.1,4.4-5.4C64.5,27.1,62.8,25,60.1,25z M59.5,33.9c-1.7,0-2.8-1.4-2.8-3.6
		c0-2.1,1.1-3.6,2.8-3.6c1.7,0,2.8,1.4,2.8,3.6C62.3,32.5,61.2,33.9,59.5,33.9z M71.7,25c-1.4,0-2.7,0.7-3.4,1.9h0v-1.8h-2.1v14.1
		h2.2v-5.2h0.1c0.7,1.2,2,1.9,3.3,1.9c2.7,0,4.4-2.1,4.4-5.4C76.2,27.1,74.4,25,71.7,25z M74,30.4c0,2.2-1.1,3.6-2.8,3.6
		c-1.7,0-2.8-1.4-2.8-3.6c0-2.1,1.1-3.6,2.8-3.6C72.8,26.8,74,28.2,74,30.4L74,30.4z M81.7,31.6c0.1,2.6,2.3,4.3,5.5,4.3
		c3.4,0,5.6-1.7,5.6-4.4c0-2.1-1.2-3.3-4.2-4L87,27.1c-1.9-0.5-2.6-1.1-2.6-2.1c0-1.3,1.2-2.2,2.9-2.2s2.9,0.9,3.1,2.3h2.2
		c-0.1-2.5-2.2-4.2-5.2-4.2c-3.1,0-5.3,1.7-5.3,4.2c0,2,1.2,3.3,3.9,3.9l1.9,0.5c1.9,0.5,2.7,1.1,2.7,2.3c0,1.3-1.3,2.2-3.2,2.2
		c-1.9,0-3.3-0.9-3.5-2.4L81.7,31.6z M95.3,22.6v2.5h-1.5v1.7h1.5v6.1c0,2.1,0.8,2.9,3,2.9c0.4,0,0.8,0,1.2-0.1v-1.7
		c-0.2,0-0.5,0-0.7,0.1c-0.9,0-1.3-0.4-1.3-1.3v-5.8h2v-1.7h-2v-2.5H95.3z M105.7,35.8c3.1,0,5-2.1,5-5.4c0-3.3-2-5.4-5-5.4
		c-3.1,0-5,2.1-5,5.4C100.7,33.7,102.6,35.8,105.7,35.8z M108.5,30.4c0,2.3-1,3.6-2.8,3.6s-2.8-1.3-2.8-3.6c0-2.3,1-3.6,2.8-3.6
		S108.5,28.1,108.5,30.4L108.5,30.4z M112.5,35.7h2.2v-6.3c0-0.1,0-0.2,0-0.3c0-1.2,1.1-2.1,2.3-2.1c0.3,0,0.7,0,1,0.1v-2
		c-0.2-0.1-0.5-0.1-0.7-0.1c-1.2,0-2.3,0.8-2.5,1.9h-0.1v-1.8h-2.1L112.5,35.7z M125.9,32.6c-0.4,1-1.4,1.6-2.4,1.5
		c-0.1,0-0.2,0-0.3,0c-1.5-0.1-2.6-1.5-2.5-3v-0.1h7.5v-0.7c0-3.2-1.8-5.2-4.8-5.2c-3,0-4.9,2.2-4.9,5.5c0,3.3,1.9,5.4,5,5.4
		c2.4,0,4.3-1.3,4.6-3.2L125.9,32.6z M120.6,29.4c0-1.5,1.2-2.7,2.7-2.7c0.1,0,0.1,0,0.2,0c1.4,0.1,2.5,1.3,2.4,2.7L120.6,29.4
		C120.6,29.4,120.6,29.4,120.6,29.4z M44.6,17.2c1.5,0,2.4-0.8,2.4-2c0-0.9-0.7-1.6-1.6-1.7v-0.1c0.7-0.1,1.2-0.8,1.2-1.5
		c0-1.1-0.8-1.7-2.1-1.7h-2.8v7L44.6,17.2z M42.8,11.1h1.5c0.8,0,1.3,0.4,1.3,1c0,0.7-0.5,1-1.5,1h-1.3L42.8,11.1z M42.8,16.3V14
		h1.5c1,0,1.6,0.4,1.6,1.1c0,0.7-0.5,1.1-1.5,1.1H42.8z M48.1,15.9c0.1,0.9,0.9,1.5,1.7,1.4c0.6,0,1.2-0.3,1.6-0.8h0.1v0.7h1v-3.6
		c0-1.1-0.7-1.8-2.1-1.8c-1.2,0-2,0.6-2.2,1.5h1c0.1-0.4,0.5-0.6,1.1-0.6c0.7,0,1.1,0.3,1.1,0.9v0.5l-1.4,0.1c-1.3,0.1-2,0.6-2,1.6
		C48.1,15.8,48.1,15.8,48.1,15.9z M51.5,15.3c-0.1,0.7-0.7,1.2-1.4,1.1c-0.6,0-1-0.3-1-0.8c0-0.5,0.3-0.7,1.1-0.8l1.3-0.1L51.5,15.3
		C51.5,15.3,51.5,15.3,51.5,15.3z M54,10.4c0,0.4,0.3,0.6,0.7,0.6c0,0,0,0,0,0c0.4,0,0.7-0.3,0.6-0.7c0-0.4-0.3-0.7-0.7-0.6
		C54.3,9.7,54,10,54,10.4C54,10.4,54,10.4,54,10.4z M54.2,17.2h1v-5.3h-1L54.2,17.2z M58.9,15.3l1.1,1.9h1.2l-1.8-2.7l1.7-2.6H60
		l-1.1,1.9h-0.1l-1.1-1.9h-1.2l1.8,2.6l-1.7,2.6h1.1L58.9,15.3L58.9,15.3z M62.1,15.9c0.1,0.9,0.9,1.5,1.7,1.4
		c0.6,0,1.2-0.3,1.6-0.8h0.1v0.7h1v-3.6c0-1.1-0.7-1.8-2.1-1.8c-1.2,0-2,0.6-2.2,1.5h1c0.1-0.4,0.5-0.6,1.1-0.6
		c0.7,0,1.1,0.3,1.1,0.9v0.5l-1.4,0.1c-1.3,0.1-2,0.6-2,1.6C62.1,15.8,62.1,15.8,62.1,15.9z M65.5,15.3c-0.1,0.7-0.7,1.2-1.4,1.1
		c-0.6,0-1-0.3-1-0.8c0-0.5,0.3-0.7,1.1-0.8l1.3-0.1L65.5,15.3C65.5,15.3,65.5,15.3,65.5,15.3z M68.2,17.2h1v-3.1c0,0,0-0.1,0-0.1
		c0.1-0.7,0.7-1.2,1.3-1.1c0.2,0,0.4,0,0.6,0.1v-1c-0.2,0-0.3,0-0.5,0c-0.6,0-1.2,0.3-1.4,0.9h-0.1v-0.8h-1L68.2,17.2z M75.1,17.2h1
		v-3.1c0-0.1,0-0.1,0-0.2c0-0.7,0.6-1.2,1.3-1.2c0.8,0,1.1,0.4,1.1,1.3v3.1h1v-3.4c0-0.1,0-0.3,0-0.4c-0.1-0.9-0.9-1.7-1.8-1.6
		c-0.7-0.1-1.3,0.3-1.6,0.9h-0.1v-0.8h-1L75.1,17.2z M80.9,15.9c0.1,0.9,0.9,1.5,1.7,1.4c0.6,0,1.2-0.3,1.6-0.8h0.1v0.7h1v-3.6
		c0-1.1-0.7-1.8-2.1-1.8c-1.2,0-2,0.6-2.2,1.5h1c0.1-0.4,0.5-0.6,1.1-0.6c0.7,0,1.1,0.3,1.1,0.9v0.5l-1.4,0.1c-1.3,0.1-2,0.6-2,1.6
		C80.9,15.8,80.9,15.8,80.9,15.9z M84.3,15.3c-0.1,0.7-0.7,1.2-1.4,1.1c-0.6,0-1-0.3-1-0.8c0-0.5,0.3-0.7,1.1-0.8l1.3-0.1L84.3,15.3
		C84.3,15.3,84.3,15.3,84.3,15.3z"/>
</g>
</svg>
