<?xml version="1.0" encoding="utf-8"?>
<!-- Generator: Adobe Illustrator 19.0.0, SVG Export Plug-In . SVG Version: 6.00 Build 0)  -->
<svg version="1.1" id="Layer_1" xmlns="http://www.w3.org/2000/svg" xmlns:xlink="http://www.w3.org/1999/xlink" x="0px" y="0px"
	 viewBox="0 0 32 32" style="enable-background:new 0 0 32 32;" xml:space="preserve">
<style type="text/css">
	.st0{fill:#FFFFFF;}
</style>
<path id="XMLID_433_" class="st0" d="M27.7,0H4.3C1.9,0,0,1.9,0,4.3v23.4C0,30.1,1.9,32,4.3,32h11.5l0-12h-3c-0.4,0-0.7,0-0.7-0.4
	l0-3.3c0-0.4,0.3-0.3,0.7-0.3H16v-4.1c0-4.1,2.4-6.6,6.1-6.6h3c0.4,0,0.3,0.5,0.3,0.9v3.1c0,0.4,0.1,1.3-0.3,1.3h-1.9
	c-2,0-1.9,0.3-1.9,1.7V16h3.9c0.4,0,0.7,0.1,0.7,0.5l-0.4,3.3c0,0.4-0.3,0.2-0.7,0.2h-3.9l0,12h6.9c2.4,0,4.3-1.9,4.3-4.3V4.3
	C32,1.9,30.1,0,27.7,0L27.7,0L27.7,0z"/>
</svg>
