<svg width="2246" height="552" viewBox="0 0 2246 552" fill="none" xmlns="http://www.w3.org/2000/svg">
<g clip-path="url(#clip0_3219_535)">
<path d="M1114.9 487.799L1100.6 483.299C1097.7 482.399 1095.6 481.099 1094.2 479.499C1092.8 477.899 1092.1 475.999 1092.1 473.799C1092.1 471.899 1092.6 470.199 1093.6 468.799C1094.6 467.299 1096 466.199 1097.8 465.399C1099.6 464.599 1101.7 464.199 1104.1 464.199C1108.1 464.199 1111.6 465.299 1114.7 467.399C1117.8 469.599 1120.1 472.599 1121.5 476.399L1133.3 471.199C1131.9 467.299 1129.8 463.899 1127 460.999C1124.2 458.099 1120.8 455.799 1116.9 454.199C1113 452.599 1108.7 451.699 1104 451.699C1098.9 451.699 1094.4 452.699 1090.5 454.599C1086.6 456.499 1083.5 459.199 1081.2 462.599C1079 465.999 1077.9 469.999 1077.9 474.399C1077.9 479.599 1079.4 483.999 1082.6 487.699C1085.7 491.399 1090.3 494.199 1096.3 496.099L1111.2 500.899C1113.9 501.799 1116 502.999 1117.3 504.499C1118.7 505.999 1119.3 507.799 1119.3 510.099C1119.3 512.099 1118.8 513.699 1117.8 515.099C1116.8 516.499 1115.4 517.599 1113.5 518.399C1111.6 519.199 1109.5 519.599 1107 519.599C1102.5 519.599 1098.5 518.299 1095 515.799C1091.4 513.299 1088.7 509.799 1086.8 505.299L1074.9 510.399C1076.4 514.699 1078.6 518.499 1081.6 521.699C1084.6 524.899 1088.3 527.499 1092.5 529.299C1096.7 531.099 1101.3 531.999 1106.1 531.999C1111.5 531.999 1116.3 530.999 1120.3 529.099C1124.3 527.199 1127.5 524.499 1129.8 521.099C1132.1 517.699 1133.2 513.699 1133.2 509.299C1133.2 504.099 1131.7 499.699 1128.6 496.099C1125.8 492.599 1121.1 489.799 1114.9 487.799Z" fill="white"/>
<path d="M1180.7 507.3C1180.7 509.8 1180.2 512 1179.2 513.8C1178.2 515.6 1176.9 517 1175.1 518C1173.4 519 1171.4 519.5 1169.1 519.5C1166.9 519.5 1164.9 519 1163.1 518C1161.3 517 1160 515.6 1159 513.8C1158.1 512 1157.6 510 1157.6 507.6V474H1143.8V508.8C1143.8 513.5 1144.7 517.5 1146.4 521C1148.1 524.5 1150.6 527.2 1153.8 529.2C1157 531.2 1160.8 532.1 1165.3 532.1C1169.3 532.1 1172.9 531.2 1175.9 529.5C1178.2 528.2 1180 526.3 1181.3 523.9V530.9H1194.3V474H1180.6V507.3H1180.7Z" fill="white"/>
<path d="M1243.8 475.299C1240.2 473.599 1236.1 472.699 1231.5 472.699C1227.7 472.699 1224.1 473.299 1220.8 474.599C1217.5 475.899 1214.7 477.599 1212.3 479.799C1209.9 481.999 1208.1 484.599 1207 487.599L1218.2 492.999C1219.2 490.499 1220.9 488.399 1223.2 486.799C1225.5 485.199 1228.1 484.399 1231 484.399C1234.1 484.399 1236.6 485.199 1238.5 486.899C1240.4 488.499 1241.3 490.599 1241.3 492.999V494.799L1224.5 497.599C1220 498.299 1216.3 499.499 1213.4 501.199C1210.5 502.899 1208.3 504.899 1206.9 507.399C1205.5 509.899 1204.8 512.699 1204.8 515.799C1204.8 519.099 1205.6 521.999 1207.2 524.399C1208.8 526.899 1211.1 528.799 1214 530.099C1217 531.399 1220.4 532.099 1224.4 532.099C1227.5 532.099 1230.4 531.699 1232.9 530.799C1235.4 529.999 1237.7 528.699 1239.8 526.999C1240.6 526.299 1241.4 525.499 1242.2 524.699V530.699H1255.2V492.999C1255.2 488.999 1254.2 485.499 1252.2 482.399C1250.1 479.399 1247.3 476.999 1243.8 475.299ZM1239.5 514.699C1238.3 516.899 1236.6 518.599 1234.4 519.799C1232.2 520.999 1229.7 521.599 1226.8 521.599C1224.6 521.599 1222.7 520.999 1221.2 519.899C1219.7 518.799 1219 517.199 1219 515.199C1219 513.199 1219.7 511.599 1221 510.299C1222.3 509.099 1224.3 508.199 1227.1 507.699L1241.3 505.199V507.599C1241.3 510.199 1240.7 512.599 1239.5 514.699Z" fill="white"/>
<path d="M1361.1 475.399C1357.9 473.599 1354.3 472.699 1350.3 472.699C1345.8 472.699 1341.8 473.799 1338.3 476.099C1336 477.599 1334.2 479.599 1332.6 481.999C1331.4 479.799 1329.7 477.899 1327.4 476.399C1323.8 473.999 1319.7 472.699 1315.1 472.699C1310.9 472.699 1307.2 473.699 1304 475.699C1301.9 476.999 1300.4 478.899 1299.2 481.199V473.999H1286.2V530.899H1300V497.599C1300 495.099 1300.5 492.899 1301.4 491.099C1302.3 489.299 1303.6 487.899 1305.3 486.899C1307 485.899 1308.9 485.399 1311 485.399C1313.2 485.399 1315.2 485.899 1316.8 486.899C1318.4 487.899 1319.7 489.299 1320.6 491.099C1321.5 492.899 1322 495.099 1322 497.599V530.899H1335.7V497.599C1335.7 495.099 1336.2 492.899 1337.1 491.099C1338 489.299 1339.3 487.899 1341 486.899C1342.7 485.899 1344.6 485.399 1346.7 485.399C1348.9 485.399 1350.9 485.899 1352.5 486.899C1354.1 487.899 1355.4 489.299 1356.3 491.099C1357.2 492.899 1357.7 495.099 1357.7 497.599V530.899H1371.4V494.299C1371.4 490.099 1370.5 486.299 1368.7 483.099C1366.8 479.799 1364.3 477.199 1361.1 475.399Z" fill="white"/>
<path d="M1429.2 480.999C1426.8 478.399 1424 476.399 1420.6 474.899C1417.2 473.399 1413.3 472.699 1408.8 472.699C1403.4 472.699 1398.6 473.999 1394.4 476.599C1390.1 479.199 1386.8 482.699 1384.3 487.099C1381.8 491.499 1380.5 496.599 1380.5 502.299C1380.5 507.799 1381.7 512.799 1384.2 517.299C1386.6 521.799 1390.1 525.399 1394.5 528.099C1398.9 530.699 1404.1 532.099 1409.9 532.099C1413.7 532.099 1417.3 531.499 1420.6 530.299C1423.9 529.099 1426.7 527.499 1429.1 525.399C1431.5 523.299 1433.2 520.899 1434.3 518.199L1423.2 512.799C1421.9 514.999 1420.2 516.799 1418 518.099C1415.8 519.399 1413.1 520.099 1410 520.099C1406.9 520.099 1404.1 519.399 1401.7 517.899C1399.3 516.399 1397.5 514.399 1396.3 511.699C1395.6 510.099 1395.1 508.299 1394.9 506.399H1435.8C1436.1 505.599 1436.3 504.599 1436.4 503.599C1436.5 502.599 1436.6 501.599 1436.6 500.499C1436.6 496.699 1436 493.099 1434.7 489.799C1433.4 486.499 1431.6 483.599 1429.2 480.999ZM1401.2 486.199C1403.4 484.699 1406 483.999 1408.8 483.999C1411.8 483.999 1414.4 484.699 1416.5 486.199C1418.6 487.699 1420.2 489.599 1421.1 492.199C1421.5 493.299 1421.8 494.599 1421.9 495.899H1395.2C1395.4 494.699 1395.7 493.599 1396.2 492.599C1397.3 489.799 1399 487.699 1401.2 486.199Z" fill="white"/>
<path d="M1460.6 451.699H1446.8V530.799H1460.6V451.699Z" fill="white"/>
<path d="M1513.3 475.399C1510.1 473.599 1506.3 472.699 1502.2 472.699C1498.2 472.699 1494.6 473.599 1491.6 475.399C1489.7 476.499 1488.2 477.999 1487 479.699V451.699H1473.2V530.799H1487V497.499C1487 494.999 1487.5 492.799 1488.5 490.999C1489.5 489.199 1490.8 487.799 1492.6 486.799C1494.3 485.799 1496.3 485.299 1498.6 485.299C1500.9 485.299 1502.9 485.799 1504.6 486.799C1506.3 487.799 1507.6 489.199 1508.6 490.999C1509.6 492.799 1510.1 494.999 1510.1 497.499V530.799H1523.8V494.199C1523.8 489.999 1522.9 486.199 1521.1 482.999C1519.1 479.799 1516.5 477.199 1513.3 475.399Z" fill="white"/>
<path d="M1578.1 476.599C1573.6 473.999 1568.5 472.699 1562.8 472.699C1557.2 472.699 1552.2 473.999 1547.6 476.599C1543.1 479.199 1539.4 482.699 1536.7 487.199C1534 491.699 1532.6 496.699 1532.6 502.499C1532.6 508.199 1534 513.299 1536.7 517.799C1539.4 522.299 1543.1 525.799 1547.6 528.399C1552.2 530.999 1557.2 532.299 1562.7 532.299C1568.3 532.299 1573.3 530.999 1577.9 528.399C1582.4 525.799 1586.1 522.299 1588.8 517.799C1591.5 513.299 1592.9 508.299 1592.9 502.499C1592.9 496.699 1591.6 491.599 1588.9 487.199C1586.3 482.699 1582.7 479.199 1578.1 476.599ZM1576.6 511.199C1575.2 513.799 1573.4 515.799 1571.1 517.299C1568.8 518.799 1566 519.499 1562.9 519.499C1559.8 519.499 1557.1 518.799 1554.7 517.299C1552.3 515.799 1550.5 513.799 1549.1 511.199C1547.7 508.599 1547.1 505.599 1547.1 502.399C1547.1 499.199 1547.8 496.199 1549.1 493.599C1550.5 490.999 1552.3 488.999 1554.7 487.499C1557.1 485.999 1559.8 485.299 1562.9 485.299C1566 485.299 1568.8 485.999 1571.1 487.499C1573.4 488.999 1575.3 490.999 1576.6 493.599C1578 496.199 1578.6 499.099 1578.6 502.399C1578.6 505.699 1578 508.599 1576.6 511.199Z" fill="white"/>
<path d="M1621.4 475.9C1619.2 477.2 1617.5 479.3 1616.2 482.1V474.1H1603.2V531H1617V499.3C1617 495 1618.2 491.6 1620.6 489.3C1623 486.9 1626.1 485.7 1630 485.7H1634.9V473.5H1631.6C1627.6 473.3 1624.2 474.2 1621.4 475.9Z" fill="white"/>
<path d="M1707.3 480.999C1704.9 478.399 1702.1 476.399 1698.7 474.899C1695.3 473.399 1691.4 472.699 1686.9 472.699C1681.5 472.699 1676.7 473.999 1672.5 476.599C1668.2 479.199 1664.9 482.699 1662.4 487.099C1659.9 491.499 1658.6 496.599 1658.6 502.299C1658.6 507.799 1659.8 512.799 1662.3 517.299C1664.7 521.799 1668.2 525.399 1672.6 528.099C1677 530.699 1682.2 532.099 1688 532.099C1691.8 532.099 1695.4 531.499 1698.7 530.299C1702 529.099 1704.8 527.499 1707.2 525.399C1709.6 523.299 1711.3 520.899 1712.4 518.199L1701.3 512.799C1700 514.999 1698.3 516.799 1696.1 518.099C1693.9 519.399 1691.2 520.099 1688.1 520.099C1685 520.099 1682.2 519.399 1679.8 517.899C1677.4 516.399 1675.6 514.399 1674.4 511.699C1673.7 510.099 1673.2 508.299 1673 506.399H1713.9C1714.2 505.599 1714.4 504.599 1714.5 503.599C1714.6 502.599 1714.7 501.599 1714.7 500.499C1714.7 496.699 1714.1 493.099 1712.8 489.799C1711.5 486.499 1709.7 483.599 1707.3 480.999ZM1679.3 486.199C1681.5 484.699 1684.1 483.999 1686.9 483.999C1689.9 483.999 1692.5 484.699 1694.6 486.199C1696.7 487.699 1698.3 489.599 1699.2 492.199C1699.6 493.299 1699.9 494.599 1700 495.899H1673.3C1673.5 494.699 1673.8 493.599 1674.3 492.599C1675.4 489.799 1677.1 487.699 1679.3 486.199Z" fill="white"/>
<path d="M1758.8 474L1746.8 491.6L1734.8 474H1718.7L1738.7 502.3L1718.8 530.8H1734.9L1746.8 513.2L1758.6 530.8H1774.6L1754.9 502.3L1774.7 474H1758.8Z" fill="white"/>
<path d="M1827.9 476.699C1823.6 474.099 1818.7 472.699 1813.4 472.699C1809 472.699 1805.1 473.599 1801.8 475.299C1799.1 476.699 1796.9 478.499 1795.1 480.699V473.999H1782.1V551.799H1795.9V525.399C1797.6 527.199 1799.6 528.699 1801.9 529.799C1805.3 531.399 1809.1 532.199 1813.2 532.199C1818.7 532.199 1823.6 530.899 1827.9 528.299C1832.2 525.699 1835.6 522.099 1838.1 517.599C1840.6 513.099 1841.9 508.099 1841.9 502.599C1841.9 496.999 1840.6 491.999 1838.1 487.499C1835.7 482.899 1832.3 479.299 1827.9 476.699ZM1825.7 511.299C1824.3 513.899 1822.4 515.899 1820 517.399C1817.6 518.899 1814.8 519.599 1811.7 519.599C1808.7 519.599 1806 518.899 1803.6 517.399C1801.2 515.899 1799.3 513.899 1798 511.299C1796.6 508.699 1796 505.799 1796 502.399C1796 499.099 1796.7 496.199 1798 493.599C1799.4 490.999 1801.2 488.999 1803.6 487.499C1806 485.999 1808.7 485.299 1811.7 485.299C1814.8 485.299 1817.6 485.999 1820 487.499C1822.4 488.999 1824.3 490.999 1825.7 493.599C1827.1 496.199 1827.8 499.099 1827.8 502.399C1827.8 505.699 1827.1 508.699 1825.7 511.299Z" fill="white"/>
<path d="M1898.8 480.999C1896.4 478.399 1893.6 476.399 1890.2 474.899C1886.8 473.399 1882.9 472.699 1878.4 472.699C1873 472.699 1868.2 473.999 1864 476.599C1859.7 479.199 1856.4 482.699 1853.9 487.099C1851.4 491.499 1850.1 496.599 1850.1 502.299C1850.1 507.799 1851.3 512.799 1853.8 517.299C1856.2 521.799 1859.7 525.399 1864.1 528.099C1868.5 530.699 1873.7 532.099 1879.5 532.099C1883.3 532.099 1886.9 531.499 1890.2 530.299C1893.5 529.099 1896.3 527.499 1898.7 525.399C1901.1 523.299 1902.8 520.899 1903.9 518.199L1892.8 512.799C1891.5 514.999 1889.8 516.799 1887.6 518.099C1885.4 519.399 1882.7 520.099 1879.6 520.099C1876.5 520.099 1873.7 519.399 1871.3 517.899C1868.9 516.399 1867.1 514.399 1865.9 511.699C1865.2 510.099 1864.7 508.299 1864.5 506.399H1905.4C1905.7 505.599 1905.9 504.599 1906 503.599C1906.1 502.599 1906.2 501.599 1906.2 500.499C1906.2 496.699 1905.6 493.099 1904.3 489.799C1903 486.499 1901.2 483.599 1898.8 480.999ZM1870.8 486.199C1873 484.699 1875.6 483.999 1878.4 483.999C1881.4 483.999 1884 484.699 1886.1 486.199C1888.2 487.699 1889.8 489.599 1890.7 492.199C1891.1 493.299 1891.4 494.599 1891.5 495.899H1864.8C1865 494.699 1865.3 493.599 1865.8 492.599C1866.9 489.799 1868.6 487.699 1870.8 486.199Z" fill="white"/>
<path d="M1934.5 475.9C1932.3 477.2 1930.6 479.3 1929.3 482.1V474.1H1916.3V531H1930.1V499.3C1930.1 495 1931.3 491.6 1933.7 489.3C1936.1 486.9 1939.2 485.7 1943.1 485.7H1948V473.5H1944.7C1940.7 473.3 1937.3 474.2 1934.5 475.9Z" fill="white"/>
<path d="M1969.3 453H1955.5V467.6H1969.3V453Z" fill="white"/>
<path d="M1969.3 474H1955.5V530.9H1969.3V474Z" fill="white"/>
<path d="M2007.6 454.499L2014.4 463.899H2028L2015.7 446.699H1999.5L1987.2 463.899H2000.8L2007.6 454.499Z" fill="white"/>
<path d="M2028.2 480.999C2025.8 478.399 2023 476.399 2019.6 474.899C2016.2 473.399 2012.3 472.699 2007.8 472.699C2002.4 472.699 1997.6 473.999 1993.4 476.599C1989.1 479.199 1985.8 482.699 1983.3 487.099C1980.8 491.499 1979.5 496.599 1979.5 502.299C1979.5 507.799 1980.7 512.799 1983.2 517.299C1985.6 521.799 1989.1 525.399 1993.5 528.099C1997.9 530.699 2003.1 532.099 2008.9 532.099C2012.7 532.099 2016.3 531.499 2019.6 530.299C2022.9 529.099 2025.7 527.499 2028.1 525.399C2030.5 523.299 2032.2 520.899 2033.3 518.199L2022.2 512.799C2020.9 514.999 2019.2 516.799 2017 518.099C2014.8 519.399 2012.1 520.099 2009 520.099C2005.9 520.099 2003.1 519.399 2000.7 517.899C1998.3 516.399 1996.5 514.399 1995.3 511.699C1994.6 510.099 1994.1 508.299 1993.9 506.399H2034.8C2035.1 505.599 2035.3 504.599 2035.4 503.599C2035.5 502.599 2035.6 501.599 2035.6 500.499C2035.6 496.699 2035 493.099 2033.7 489.799C2032.4 486.499 2030.6 483.599 2028.2 480.999ZM2000.2 486.199C2002.4 484.699 2005 483.999 2007.8 483.999C2010.8 483.999 2013.4 484.699 2015.5 486.199C2017.6 487.699 2019.2 489.599 2020.1 492.199C2020.5 493.299 2020.8 494.599 2020.9 495.899H1994.2C1994.4 494.699 1994.7 493.599 1995.2 492.599C1996.3 489.799 1998 487.699 2000.2 486.199Z" fill="white"/>
<path d="M2085.9 475.399C2082.7 473.599 2078.9 472.699 2074.8 472.699C2070.8 472.699 2067.2 473.599 2064.2 475.399C2061.9 476.799 2060 478.699 2058.7 480.999V473.999H2045.7V530.899H2059.5V497.599C2059.5 495.099 2060 492.899 2061 491.099C2062 489.299 2063.3 487.899 2065.1 486.899C2066.8 485.899 2068.8 485.399 2071.1 485.399C2073.3 485.399 2075.3 485.899 2077.1 486.899C2078.8 487.899 2080.2 489.299 2081.2 491.099C2082.2 492.899 2082.7 495.099 2082.7 497.599V530.899H2096.4V494.299C2096.4 490.099 2095.5 486.299 2093.7 483.099C2091.7 479.799 2089.2 477.199 2085.9 475.399Z" fill="white"/>
<path d="M2127.2 487.498C2129.5 486.098 2132.2 485.398 2135.2 485.398C2138.4 485.398 2141.2 486.298 2143.7 487.998C2146.2 489.698 2147.9 491.998 2149 494.998L2161 489.698C2159.9 486.398 2158.1 483.398 2155.5 480.898C2153 478.398 2149.9 476.398 2146.5 474.998C2143 473.598 2139.2 472.898 2135.2 472.898C2129.5 472.898 2124.4 474.198 2119.9 476.798C2115.4 479.398 2111.9 482.898 2109.3 487.398C2106.7 491.898 2105.4 496.898 2105.4 502.598C2105.4 508.198 2106.7 513.298 2109.3 517.798C2111.9 522.298 2115.4 525.798 2119.9 528.498C2124.4 531.098 2129.4 532.398 2135.2 532.398C2139.3 532.398 2143.1 531.698 2146.6 530.298C2150.1 528.898 2153.1 526.898 2155.6 524.298C2158.1 521.798 2159.9 518.898 2161 515.698L2149 510.298C2147.9 513.198 2146.1 515.598 2143.7 517.298C2141.3 518.998 2138.5 519.898 2135.2 519.898C2132.2 519.898 2129.5 519.198 2127.2 517.698C2124.9 516.198 2123 514.198 2121.7 511.598C2120.4 508.998 2119.7 506.098 2119.7 502.698C2119.7 499.398 2120.4 496.498 2121.7 493.898C2123.1 490.998 2124.9 488.898 2127.2 487.498Z" fill="white"/>
<path d="M2185.1 474H2171.3V530.9H2185.1V474Z" fill="white"/>
<path d="M2185.1 453H2171.3V467.6H2185.1V453Z" fill="white"/>
<path d="M2242.7 482.4C2240.7 479.3 2237.9 476.9 2234.4 475.2C2230.8 473.5 2226.7 472.6 2222.1 472.6C2218.3 472.6 2214.7 473.2 2211.4 474.5C2208.1 475.8 2205.3 477.5 2202.9 479.7C2200.5 481.9 2198.7 484.5 2197.6 487.5L2208.8 492.9C2209.8 490.4 2211.5 488.3 2213.8 486.7C2216.1 485.1 2218.7 484.3 2221.6 484.3C2224.7 484.3 2227.2 485.1 2229.1 486.8C2231 488.4 2231.9 490.5 2231.9 492.9V494.7L2215.1 497.5C2210.6 498.2 2206.9 499.4 2204 501.1C2201.1 502.8 2198.9 504.8 2197.5 507.3C2196.1 509.8 2195.4 512.6 2195.4 515.7C2195.4 519 2196.2 521.9 2197.8 524.3C2199.4 526.8 2201.7 528.7 2204.6 530C2207.6 531.3 2211 532 2215 532C2218.1 532 2221 531.6 2223.5 530.7C2226 529.9 2228.3 528.6 2230.4 526.9C2231.2 526.2 2232 525.4 2232.8 524.6V530.6H2245.8V493C2245.7 489 2244.7 485.5 2242.7 482.4ZM2230.1 514.7C2228.9 516.9 2227.2 518.6 2225 519.8C2222.8 521 2220.3 521.6 2217.4 521.6C2215.2 521.6 2213.3 521 2211.8 519.9C2210.3 518.8 2209.6 517.2 2209.6 515.2C2209.6 513.2 2210.3 511.6 2211.6 510.3C2212.9 509.1 2214.9 508.2 2217.7 507.7L2231.9 505.2V507.6C2231.9 510.2 2231.3 512.6 2230.1 514.7Z" fill="white"/>
<path d="M793.5 42.8984H756.7C711.7 42.8984 675.3 79.2984 675.3 124.298V135.598H647.1C643.7 135.598 641 138.298 641 141.698V180.298C641 183.698 643.7 186.398 647.1 186.398H675.3V353.398C675.3 357.098 678.3 360.098 682 360.098H727.9C731.6 360.098 734.6 357.098 734.6 353.398V186.398H793.6C797 186.398 799.7 183.698 799.7 180.298V141.698C799.7 138.298 797 135.598 793.6 135.598H734.6V124.298C734.6 112.098 744.6 102.198 756.7 102.198H793.5C796.9 102.198 799.6 99.4984 799.6 96.0984V48.9984C799.7 45.5984 796.9 42.8984 793.5 42.8984Z" fill="white"/>
<path d="M1040.8 135.599H993.7C990.3 135.599 987.6 138.299 987.6 141.699V154.299C969.5 136.199 941 128.599 900.8 137.499C873.6 143.499 849.8 160.399 835.8 184.599C785.4 271.999 848.2 363.299 932.3 363.299C956.4 363.299 974.6 355.699 987.6 342.799V359.999H1046.9V141.699C1046.9 138.299 1044.2 135.599 1040.8 135.599ZM987.6 248.799C987.6 279.099 963.1 304.099 932.3 304.099C891.3 304.099 860.7 259.799 885.5 217.599C890.1 209.799 897 203.399 905.2 199.499C947.3 179.499 987.5 209.599 987.5 248.399V248.799H987.6Z" fill="white"/>
<path d="M1455.4 143.498C1354.6 100.398 1258.4 196.598 1301.5 297.398C1311.9 321.598 1331.3 341.098 1355.6 351.498C1456.4 394.598 1552.5 298.398 1509.5 197.598C1499.1 173.298 1479.6 153.798 1455.4 143.498ZM1454 275.698C1449.8 284.298 1442.8 291.498 1434.3 295.898C1382.3 322.598 1330.4 270.698 1357.1 218.798C1361.5 210.198 1368.6 203.298 1377.3 199.098C1429.4 173.598 1479.3 223.598 1454 275.698Z" fill="white"/>
<path d="M1276.6 135.598H1229.7C1226.6 135.598 1223.8 137.598 1222.7 140.498L1179.6 260.698L1136.4 140.498C1135.3 137.598 1132.6 135.598 1129.4 135.598H1082.4C1077.3 135.598 1073.7 140.698 1075.4 145.498L1151 355.598C1152 358.298 1154.5 359.998 1157.3 359.998H1202C1204.8 359.998 1207.4 358.198 1208.3 355.598L1283.4 145.498C1285.3 140.598 1281.7 135.598 1276.6 135.598Z" fill="white"/>
<path d="M1663 134.998C1624.7 134.998 1606 167.098 1606 167.098V141.698C1606 138.298 1603.3 135.598 1599.9 135.598H1552.8C1549.4 135.598 1546.7 138.298 1546.7 141.698V353.398C1546.7 357.098 1549.7 360.098 1553.4 360.098H1599.3C1603 360.098 1606 357.098 1606 353.398V241.898C1606 218.698 1620.7 194.198 1645.7 194.198C1656.8 194.198 1667.5 195.498 1676.5 201.298C1681 204.398 1687.2 203.998 1691.2 199.998L1717.1 174.198C1722 169.298 1722 161.298 1716.7 156.798C1706.2 147.898 1687.5 134.998 1663 134.998Z" fill="white"/>
<path d="M1800.8 135.598H1754.2C1750.8 135.598 1748.1 138.298 1748.1 141.698V353.398C1748.1 357.098 1751.1 360.098 1754.8 360.098H1800.2C1803.9 360.098 1806.9 357.098 1806.9 353.398V141.698C1806.9 138.298 1804.2 135.598 1800.8 135.598Z" fill="white"/>
<path d="M1992.8 135.599H1933.8V81.7992C1933.8 78.3992 1931.1 75.6992 1927.7 75.6992H1880.6C1877.2 75.6992 1874.5 78.3992 1874.5 81.7992V135.599H1846.3C1842.9 135.599 1840.2 138.299 1840.2 141.699V180.299C1840.2 183.699 1842.9 186.399 1846.3 186.399H1874.5V291.099C1874.5 329.199 1905.4 359.999 1943.4 359.999H1992.7C1996.1 359.999 1998.8 357.299 1998.8 353.899V306.799C1998.8 303.399 1996.1 300.699 1992.7 300.699H1954.2C1943.1 300.699 1933.7 291.799 1933.7 280.199V186.299H1992.7C1996.1 186.299 1998.8 183.599 1998.8 180.199V141.599C1998.9 138.299 1996.1 135.599 1992.8 135.599Z" fill="white"/>
<path d="M2235.1 197.498C2224.7 173.298 2205.3 153.798 2181 143.398C2080.2 100.298 1984 196.498 2027.1 297.298C2037.5 321.498 2056.9 340.998 2081.2 351.398C2182.1 394.498 2278.2 298.398 2235.1 197.498ZM2179.6 275.698C2175.4 284.298 2168.4 291.498 2159.9 295.898C2107.9 322.598 2056 270.698 2082.7 218.798C2087.1 210.198 2094.2 203.298 2102.9 199.098C2155 173.598 2205 223.598 2179.6 275.698Z" fill="white"/>
<path d="M1777.5 112.498C1795.45 112.498 1810 97.9473 1810 79.998C1810 62.0488 1795.45 47.498 1777.5 47.498C1759.55 47.498 1745 62.0488 1745 79.998C1745 97.9473 1759.55 112.498 1777.5 112.498Z" fill="white"/>
<path d="M522.7 164.5L575.9 72.4C594.5 40.2 571.3 0 534.1 0H115.8C52.1 0 0.5 51.6 0.5 115.3V309.8C0.5 333.5 17.7 353.8 41.1 357.5C137.2 372.5 216 439.8 247.4 529.4C256.9 556.5 294.1 559.8 308.5 534.9L439.5 308.7C458.1 276.5 434.9 236.2 397.7 236.2H261.6C248.5 236.2 237.9 225.6 237.9 212.5C237.9 199.4 248.5 188.8 261.6 188.8H480.9C498.1 188.7 514.1 179.5 522.7 164.5Z" fill="white"/>
</g>
<defs>
<clipPath id="clip0_3219_535">
<rect width="2245.2" height="551.7" fill="white" transform="translate(0.5)"/>
</clipPath>
</defs>
</svg>
