<svg version="1.1" id="Layer_1" xmlns="http://www.w3.org/2000/svg" xmlns:xlink="http://www.w3.org/1999/xlink" x="0px" y="0px"
	 viewBox="0 0 140 46.8" style="enable-background:new 0 0 140 46.8;" xml:space="preserve">
<style type="text/css">
	.st0{fill:#A6A6A6;}
	.st1{fill:url(#XMLID_57_);}
	.st2{fill:url(#XMLID_58_);}
	.st3{fill:url(#XMLID_59_);}
	.st4{fill:url(#XMLID_60_);}
	.st5{opacity:0.2;enable-background:new    ;}
	.st6{opacity:0.12;enable-background:new    ;}
	.st7{opacity:0.25;fill:#FFFFFF;enable-background:new    ;}
	.st8{fill:#FFFFFF;}
</style>
<g id="XMLID_3_">
	<path id="XMLID_2703_" fill='#A6A6A6' d="M128.9,0H11.2c-0.4,0-0.9,0-1.3,0C9.5,0,9.2,0,8.8,0C8,0,7.2,0.1,6.5,0.2
		C5.7,0.4,4.9,0.6,4.2,1C3.5,1.3,2.9,1.8,2.3,2.3C1.8,2.9,1.3,3.5,1,4.2C0.6,4.9,0.4,5.7,0.2,6.5C0.1,7.2,0,8,0,8.8
		c0,0.4,0,0.7,0,1.1v27c0,0.4,0,0.7,0,1.1c0,0.8,0.1,1.6,0.2,2.3c0.1,0.8,0.4,1.5,0.7,2.2c0.4,0.7,0.8,1.3,1.4,1.9
		c0.6,0.6,1.2,1,1.9,1.4c0.7,0.4,1.4,0.6,2.2,0.7c0.8,0.1,1.6,0.2,2.3,0.2c0.4,0,0.7,0,1.1,0c0.4,0,0.9,0,1.3,0h117.7
		c0.4,0,0.8,0,1.3,0c0.4,0,0.7,0,1.1,0c0.8,0,1.6-0.1,2.3-0.2c0.8-0.1,1.5-0.4,2.2-0.7c0.7-0.4,1.3-0.8,1.9-1.4
		c0.6-0.6,1-1.2,1.4-1.9c0.4-0.7,0.6-1.5,0.7-2.2c0.1-0.8,0.2-1.6,0.2-2.3c0-0.4,0-0.7,0-1.1c0-0.4,0-0.8,0-1.3V11.2
		c0-0.4,0-0.9,0-1.3c0-0.4,0-0.7,0-1.1c0-0.8-0.1-1.6-0.2-2.3c-0.1-0.8-0.4-1.5-0.7-2.2c-0.7-1.4-1.9-2.6-3.3-3.3
		c-0.7-0.4-1.5-0.6-2.2-0.7C132.8,0.1,132,0,131.2,0c-0.4,0-0.7,0-1.1,0C129.7,0,129.3,0,128.9,0L128.9,0z"/>
	<path id="XMLID_2673_" d="M9.9,45.8c-0.4,0-0.7,0-1.1,0c-0.7,0-1.5-0.1-2.2-0.2c-0.7-0.1-1.3-0.3-1.9-0.6c-0.6-0.3-1.2-0.7-1.6-1.2
		c-0.5-0.5-0.9-1-1.2-1.6c-0.3-0.6-0.5-1.3-0.6-1.9C1.1,39.4,1,38.7,1,38c0-0.2,0-1.1,0-1.1v-27c0,0,0-0.8,0-1
		c0-0.7,0.1-1.5,0.2-2.2C1.3,6,1.6,5.3,1.9,4.7c0.3-0.6,0.7-1.2,1.2-1.6c0.5-0.5,1-0.9,1.6-1.2C5.3,1.6,6,1.3,6.6,1.2
		C7.4,1.1,8.1,1,8.8,1l1.1,0h120.2l1.1,0c0.7,0,1.5,0.1,2.2,0.2c0.7,0.1,1.3,0.3,2,0.6c1.2,0.6,2.2,1.6,2.8,2.8
		c0.3,0.6,0.5,1.3,0.6,1.9c0.1,0.7,0.2,1.5,0.2,2.2c0,0.3,0,0.7,0,1c0,0.4,0,0.9,0,1.3v24.5c0,0.4,0,0.8,0,1.3c0,0.4,0,0.7,0,1.1
		c0,0.7-0.1,1.5-0.2,2.2c-0.1,0.7-0.3,1.3-0.6,2c-0.3,0.6-0.7,1.1-1.2,1.6c-0.5,0.5-1,0.9-1.6,1.2c-0.6,0.3-1.3,0.5-2,0.6
		c-0.7,0.1-1.5,0.2-2.2,0.2c-0.3,0-0.7,0-1,0l-1.3,0L9.9,45.8z"/>
	<g id="XMLID_1_">
		
			<linearGradient id="XMLID_57_" gradientUnits="userSpaceOnUse" x1="22.607" y1="35.0886" x2="5.203" y2="17.6846" gradientTransform="matrix(1 0 0 -1 0 47.5559)">
			<stop  offset="0" style="stop-color:#00A0FF"/>
			<stop  offset="6.574450e-003" style="stop-color:#00A1FF"/>
			<stop  offset="0.2601" style="stop-color:#00BEFF"/>
			<stop  offset="0.5122" style="stop-color:#00D2FF"/>
			<stop  offset="0.7604" style="stop-color:#00DFFF"/>
			<stop  offset="1" style="stop-color:#00E3FF"/>
		</linearGradient>
		<path id="XMLID_2592_" class="st1" d="M10.8,11.3c-0.3,0.3-0.5,0.8-0.5,1.5v22.9c0,0.6,0.2,1.1,0.5,1.5l0.1,0.1l12.8-12.8v-0.2V24
			L10.8,11.3L10.8,11.3z"/>
		
			<linearGradient id="XMLID_58_" gradientUnits="userSpaceOnUse" x1="35.0874" y1="23.3786" x2="9.9943" y2="23.3786" gradientTransform="matrix(1 0 0 -1 0 47.5559)">
			<stop  offset="0" style="stop-color:#FFE000"/>
			<stop  offset="0.4087" style="stop-color:#FFBD00"/>
			<stop  offset="0.7754" style="stop-color:#FFA500"/>
			<stop  offset="1" style="stop-color:#FF9C00"/>
		</linearGradient>
		<path id="XMLID_2590_" class="st2" d="M28,28.6l-4.3-4.3v-0.2V24l4.3-4.3l0.1,0.1l5.1,2.9c1.4,0.8,1.4,2.2,0,3L28,28.6L28,28.6z"
			/>
		
			<linearGradient id="XMLID_59_" gradientUnits="userSpaceOnUse" x1="25.7463" y1="20.999" x2="2.1451" y2="-2.6022" gradientTransform="matrix(1 0 0 -1 0 47.5559)">
			<stop  offset="0" style="stop-color:#FF3A44"/>
			<stop  offset="1" style="stop-color:#C31162"/>
		</linearGradient>
		<path id="XMLID_2589_" class="st3" d="M28.1,28.6l-4.4-4.4L10.8,37.1c0.5,0.5,1.3,0.6,2.2,0.1L28.1,28.6"/>
		
			<linearGradient id="XMLID_60_" gradientUnits="userSpaceOnUse" x1="7.5675" y1="43.9382" x2="18.1064" y2="33.3992" gradientTransform="matrix(1 0 0 -1 0 47.5559)">
			<stop  offset="0" style="stop-color:#32A071"/>
			<stop  offset="6.850000e-002" style="stop-color:#2DA771"/>
			<stop  offset="0.4762" style="stop-color:#15CF74"/>
			<stop  offset="0.8009" style="stop-color:#06E775"/>
			<stop  offset="1" style="stop-color:#00F076"/>
		</linearGradient>
		<path id="XMLID_2587_" class="st4" d="M28.1,19.8L13,11.2c-0.9-0.5-1.7-0.4-2.2,0.1l12.9,12.9L28.1,19.8z"/>
		<path id="XMLID_2586_" class="st5" d="M28,28.5L13,37c-0.8,0.5-1.6,0.4-2.1,0l0,0l-0.1,0.1l0,0l0.1,0.1l0,0c0.5,0.4,1.2,0.5,2.1,0
			L28,28.5L28,28.5z"/>
		<path id="XMLID_2585_" class="st6" d="M10.8,37c-0.3-0.3-0.5-0.8-0.5-1.5v0.2c0,0.6,0.2,1.1,0.5,1.5V37L10.8,37z"/>
		<path id="XMLID_2584_" class="st6" d="M33.2,25.5L28,28.5l0.1,0.1l5.1-2.9c0.7-0.4,1.1-1,1.1-1.5l0,0
			C34.2,24.7,33.9,25.1,33.2,25.5z"/>
		<path id="XMLID_2583_" class="st7" d="M13,11.3l20.2,11.5c0.7,0.4,1,0.9,1.1,1.3l0,0c0-0.5-0.4-1.1-1.1-1.5L13,11.2
			c-1.4-0.8-2.6-0.1-2.6,1.5v0.2C10.3,11.2,11.5,10.5,13,11.3z"/>
	</g>
	<path id="XMLID_2_" class="st8" d="M70.7,26c-2.4,0-4.4,1.9-4.4,4.4c0,2.5,2,4.4,4.4,4.4c2.4,0,4.4-1.9,4.4-4.4
		C75.1,27.8,73.1,26,70.7,26z M70.7,33.1c-1.3,0-2.5-1.1-2.5-2.7c0-1.6,1.2-2.7,2.5-2.7c1.3,0,2.5,1.1,2.5,2.7
		C73.1,32,72,33.1,70.7,33.1z M61,26c-2.4,0-4.4,1.9-4.4,4.4c0,2.5,2,4.4,4.4,4.4c2.4,0,4.4-1.9,4.4-4.4C65.4,27.8,63.4,26,61,26z
		 M61,33.1c-1.3,0-2.5-1.1-2.5-2.7c0-1.6,1.2-2.7,2.5-2.7c1.3,0,2.5,1.1,2.5,2.7C63.5,32,62.3,33.1,61,33.1z M49.5,27.3v1.9H54
		c-0.1,1.1-0.5,1.8-1,2.4c-0.7,0.7-1.7,1.4-3.5,1.4c-2.8,0-4.9-2.2-4.9-5s2.2-5,4.9-5c1.5,0,2.6,0.6,3.4,1.3l1.3-1.3
		c-1.1-1.1-2.6-1.9-4.7-1.9c-3.8,0-7,3.1-7,6.8c0,3.8,3.2,6.8,7,6.8c2,0,3.6-0.7,4.8-1.9c1.2-1.2,1.6-3,1.6-4.4c0-0.4,0-0.8-0.1-1.2
		H49.5z M96.5,28.8c-0.4-1-1.5-2.8-3.8-2.8c-2.3,0-4.2,1.8-4.2,4.4c0,2.5,1.9,4.4,4.4,4.4c2,0,3.2-1.2,3.7-2l-1.5-1
		c-0.5,0.7-1.2,1.2-2.2,1.2c-1,0-1.7-0.5-2.1-1.3l5.9-2.4L96.5,28.8z M90.5,30.3c-0.1-1.7,1.3-2.6,2.3-2.6c0.8,0,1.4,0.4,1.6,0.9
		L90.5,30.3z M85.7,34.5h1.9v-13h-1.9V34.5z M82.5,27L82.5,27c-0.5-0.5-1.3-1-2.4-1c-2.2,0-4.2,1.9-4.2,4.4c0,2.5,2,4.4,4.2,4.4
		c1.1,0,1.9-0.5,2.3-1h0.1v0.6c0,1.7-0.9,2.6-2.4,2.6c-1.2,0-1.9-0.9-2.2-1.6l-1.7,0.7c0.5,1.2,1.8,2.6,3.9,2.6
		c2.3,0,4.2-1.3,4.2-4.6v-7.9h-1.8V27z M80.3,33.1c-1.3,0-2.5-1.1-2.5-2.7c0-1.6,1.1-2.7,2.5-2.7c1.3,0,2.4,1.1,2.4,2.7
		C82.6,32,81.6,33.1,80.3,33.1z M105.6,21.6h-4.6v13h1.9v-4.9h2.7c2.1,0,4.3-1.6,4.3-4S107.7,21.6,105.6,21.6z M105.6,27.8h-2.8
		v-4.4h2.8c1.4,0,2.3,1.2,2.3,2.2C107.9,26.6,107.1,27.8,105.6,27.8z M117.6,26c-1.4,0-2.9,0.6-3.5,2l1.7,0.7c0.4-0.7,1.1-1,1.8-1
		c1,0,2,0.6,2,1.7v0.1c-0.4-0.2-1.1-0.5-2-0.5c-1.9,0-3.7,1-3.7,2.9c0,1.7,1.5,2.9,3.2,2.9c1.3,0,2-0.6,2.5-1.3h0.1v1h1.9v-5
		C121.5,27.3,119.8,26,117.6,26z M117.4,33.1c-0.6,0-1.5-0.3-1.5-1.1c0-1,1.1-1.4,2.1-1.4c0.9,0,1.3,0.2,1.8,0.4
		C119.5,32.2,118.5,33.1,117.4,33.1z M128.3,26.3l-2.2,5.6H126l-2.3-5.6h-2.1l3.5,7.9l-2,4.4h2l5.3-12.2H128.3z M110.9,34.5h1.9v-13
		h-1.9V34.5z M42.9,16.9v-6.2h1.9c1,0,1.7,0.3,2.3,0.9c0.6,0.6,0.9,1.3,0.9,2.2c0,0.9-0.3,1.7-0.9,2.2c-0.6,0.6-1.3,0.9-2.3,0.9
		H42.9z M43.7,16.2h1.1c0.7,0,1.3-0.2,1.7-0.6c0.4-0.4,0.6-1,0.6-1.7c0-0.7-0.2-1.3-0.6-1.7c-0.4-0.4-1-0.6-1.7-0.6h-1.1V16.2z
		 M49,16.9v-6.2h0.8v6.2H49z M53,17.1c-0.5,0-0.9-0.1-1.3-0.4c-0.4-0.3-0.7-0.7-0.8-1.2l0.7-0.3c0.1,0.3,0.3,0.6,0.5,0.9
		c0.3,0.2,0.6,0.4,0.9,0.4c0.3,0,0.6-0.1,0.9-0.3c0.2-0.2,0.4-0.4,0.4-0.7c0-0.3-0.1-0.6-0.4-0.8c-0.2-0.2-0.6-0.4-1.2-0.5
		c-0.6-0.2-1-0.4-1.3-0.7c-0.3-0.3-0.4-0.6-0.4-1.1c0-0.4,0.2-0.8,0.5-1.2c0.4-0.3,0.8-0.5,1.4-0.5c0.5,0,1,0.1,1.3,0.4
		c0.3,0.3,0.5,0.6,0.6,0.9l-0.7,0.3c-0.1-0.2-0.2-0.4-0.4-0.5c-0.2-0.2-0.5-0.3-0.8-0.3c-0.3,0-0.6,0.1-0.8,0.3
		c-0.2,0.2-0.3,0.4-0.3,0.6c0,0.2,0.1,0.4,0.3,0.6c0.2,0.2,0.5,0.3,0.9,0.4c0.3,0.1,0.6,0.2,0.8,0.3c0.2,0.1,0.4,0.2,0.6,0.4
		c0.2,0.2,0.4,0.3,0.5,0.6c0.1,0.2,0.2,0.5,0.2,0.8c0,0.3-0.1,0.6-0.2,0.8c-0.1,0.2-0.3,0.4-0.5,0.6c-0.2,0.1-0.4,0.2-0.7,0.3
		C53.5,17,53.3,17.1,53,17.1z M57.1,16.9h-0.8v-6.2h2.1c0.5,0,1,0.2,1.4,0.5c0.4,0.4,0.6,0.8,0.6,1.3c0,0.5-0.2,1-0.6,1.3
		c-0.4,0.4-0.8,0.5-1.4,0.5h-1.3V16.9z M57.1,13.6h1.3c0.3,0,0.6-0.1,0.8-0.3c0.2-0.2,0.3-0.5,0.3-0.7c0-0.3-0.1-0.5-0.3-0.7
		c-0.2-0.2-0.5-0.3-0.8-0.3h-1.3V13.6z M66.4,16.1c-0.6,0.6-1.4,0.9-2.3,0.9c-0.9,0-1.7-0.3-2.3-0.9c-0.6-0.6-0.9-1.4-0.9-2.3
		c0-0.9,0.3-1.7,0.9-2.3c0.6-0.6,1.4-0.9,2.3-0.9c0.9,0,1.7,0.3,2.3,0.9c0.6,0.6,0.9,1.4,0.9,2.3C67.3,14.7,67,15.5,66.4,16.1z
		 M62.4,15.6c0.5,0.5,1,0.7,1.7,0.7c0.7,0,1.2-0.2,1.7-0.7c0.5-0.5,0.7-1.1,0.7-1.8c0-0.7-0.2-1.3-0.7-1.8c-0.5-0.5-1-0.7-1.7-0.7
		c-0.7,0-1.2,0.2-1.7,0.7c-0.5,0.5-0.7,1.1-0.7,1.8C61.8,14.5,62,15.1,62.4,15.6z M68.5,16.9v-6.2h1l3,4.8h0l0-1.2v-3.6h0.8v6.2
		h-0.8l-3.2-5.1h0l0,1.2v3.9H68.5z M74.7,16.9v-6.2h0.8v6.2H74.7z M75.4,10.2h-0.7l0.5-1.1H76L75.4,10.2z M78.4,16.9l-2.2-6.2h0.9
		l1.7,5h0l1.8-5h0.9l-2.3,6.2H78.4z M86.1,11.5h-2.8v2h2.6v0.7h-2.6v2h2.8v0.8h-3.6v-6.2h3.6V11.5z M87.3,16.9v-6.2h0.8v5.5h2.7v0.8
		H87.3z M93.9,16.9v-6.2h1l3,4.8h0l0-1.2v-3.6h0.8v6.2h-0.8l-3.2-5.1h0l0,1.2v3.9H93.9z M105.2,16.1c-0.6,0.6-1.4,0.9-2.3,0.9
		c-0.9,0-1.7-0.3-2.3-0.9c-0.6-0.6-0.9-1.4-0.9-2.3c0-0.9,0.3-1.7,0.9-2.3c0.6-0.6,1.4-0.9,2.3-0.9c0.9,0,1.7,0.3,2.3,0.9
		c0.6,0.6,0.9,1.4,0.9,2.3C106.1,14.7,105.8,15.5,105.2,16.1z M101.2,15.6c0.5,0.5,1,0.7,1.7,0.7c0.7,0,1.2-0.2,1.7-0.7
		c0.5-0.5,0.7-1.1,0.7-1.8c0-0.7-0.2-1.3-0.7-1.8c-0.5-0.5-1-0.7-1.7-0.7c-0.7,0-1.2,0.2-1.7,0.7c-0.5,0.5-0.7,1.1-0.7,1.8
		C100.6,14.5,100.8,15.1,101.2,15.6z"/>
</g>
</svg>
