<svg viewBox="0 0 176 45" fill="none" xmlns="http://www.w3.org/2000/svg">
<path d="M40.9053 18.2415L40.7576 19.6661C40.5578 21.5423 40.193 23.4012 39.5676 25.1819C36.2058 34.7023 27.4844 40.5482 17.5122 38.6719C9.10352 37.0823 3.39639 30.6023 1.99784 22.5326C1.35503 18.8148 1.78068 14.9928 3.0055 11.4226L3.3269 10.5019C3.37033 10.3629 3.44851 10.2413 3.54407 10.137C3.63962 10.0328 3.76124 9.94595 3.90023 9.89383C4.03053 9.84171 4.17819 9.80696 4.32586 9.81565C4.47354 9.81565 4.61253 9.8504 4.74283 9.9112C7.1664 11.0491 13.6119 13.8548 21.3951 15.5139C30.7506 17.5031 36.7183 17.1644 39.4199 16.7995C39.6197 16.7735 39.8195 16.7908 40.0106 16.8517C40.2017 16.9125 40.3754 17.0167 40.5144 17.1644C40.6534 17.3033 40.7663 17.4771 40.8358 17.6682C40.9053 17.8419 40.9227 18.0417 40.9053 18.2415ZM37.8476 14.7843C37.4654 13.4292 36.9355 12.1957 36.1972 11.1099C35.4588 10.0415 34.538 9.08599 33.4609 8.46057C32.4098 7.80909 31.1502 7.54849 30.0644 7.9915C28.9612 8.4432 28.1533 9.60718 27.5279 10.8493C27.5887 10.137 27.7711 9.43345 28.0838 8.79065C28.4139 8.13917 28.9091 7.51375 29.604 7.10549C30.2815 6.67117 31.1328 6.55824 31.9146 6.61036C32.7051 6.67985 33.4435 6.97519 34.1037 7.34871C35.4067 8.13917 36.4056 9.29446 37.0571 10.6061C37.7086 11.9178 38.004 13.3945 37.8476 14.7843ZM20.5612 7.97413C20.5004 8.68642 20.318 9.39002 20.0052 10.0328C20.0921 8.64298 19.9792 7.23578 19.2582 6.28896C18.5459 5.35083 17.3298 4.95125 16.0876 4.97731C14.8454 4.97731 13.5771 5.34214 12.3871 5.88939C11.2057 6.454 10.1199 7.25316 9.11221 8.23472C9.68553 6.94913 10.6758 5.8199 11.8919 5.02074C13.1081 4.22159 14.5587 3.71778 16.0789 3.70041C16.8346 3.7091 17.6164 3.8307 18.3374 4.16948C19.0497 4.51693 19.7186 5.0468 20.0921 5.75909C20.483 6.454 20.6046 7.24447 20.5612 7.97413Z" fill="#5D4989"/>
<path d="M8.62561 16.565C9.07732 16.704 9.53772 16.7822 10.0068 16.7995C10.6496 17.7377 11.5617 18.4586 12.6215 18.8582C13.6812 19.2665 14.8453 19.336 15.9485 19.058C16.6955 19.8745 17.6771 20.4478 18.7542 20.6997C19.8314 20.9516 20.9693 20.8735 22.003 20.4739C22.7761 21.4728 23.8446 22.1938 25.0521 22.5499C26.2595 22.8974 27.5538 22.8627 28.7352 22.4283C29.7168 23.1754 30.8982 23.6271 32.1317 23.7226C33.3652 23.8182 34.5987 23.5489 35.6845 22.9582C36.7703 22.3675 37.6651 21.4728 38.2557 20.387C38.8464 19.3012 39.107 18.0677 39.0115 16.8343C36.1449 17.173 30.3075 17.3902 21.395 15.4966C13.742 13.8722 7.40081 11.136 4.88168 9.96332C4.55159 11.3358 4.75138 12.7777 5.44632 14.0025C6.14125 15.236 7.27918 16.1567 8.62561 16.565Z" fill="white"/>
<path d="M23.0976 30.2375C21.4558 29.7597 19.7098 29.7684 18.0767 30.2722C17.1559 29.0735 15.9485 28.1353 14.5586 27.5447C11.0318 26.0419 7.0794 27.0322 4.63846 29.7163C7.35738 34.2593 11.8049 37.5949 17.5121 38.672C21.7685 39.4798 25.7991 38.8631 29.2824 37.1692C28.7265 33.9726 26.4159 31.2103 23.0976 30.2375Z" fill="#D35555"/>
<path d="M22.1336 0C9.91146 0 0 9.91121 0 22.133C0 34.3548 9.91146 44.266 22.1336 44.266C34.3557 44.266 44.2671 34.3635 44.2671 22.133C44.2671 9.90252 34.3557 0 22.1336 0ZM28.0926 8.79066C28.4227 8.13918 28.9178 7.51375 29.6128 7.10549C30.2903 6.67117 31.1416 6.55825 31.9234 6.61037C32.7139 6.67986 33.4523 6.9752 34.1124 7.34871C35.4154 8.13918 36.4144 9.29447 37.0659 10.6061C37.7087 11.9178 38.0041 13.3858 37.8477 14.7843C37.4655 13.4292 36.9356 12.1957 36.1972 11.1099C35.4589 10.0415 34.5381 9.086 33.4609 8.46058C32.4099 7.80909 31.1503 7.5485 30.0645 7.99151C28.9613 8.4432 28.1534 9.60718 27.528 10.8493C27.5888 10.1371 27.7799 9.44214 28.0926 8.79066ZM11.892 5.02075C13.1081 4.21291 14.5588 3.71779 16.079 3.70042C16.8347 3.7091 17.6165 3.83071 18.3375 4.16948C19.0498 4.51694 19.7187 5.04681 20.0922 5.7591C20.4831 6.45401 20.6047 7.24448 20.5613 7.97413C20.5005 8.68642 20.3181 9.39002 20.0053 10.0328C20.0922 8.64299 19.9793 7.23579 19.2583 6.28897C18.546 5.35084 17.3299 4.95126 16.0877 4.97732C14.8455 4.97732 13.5772 5.34215 12.3872 5.88939C11.2058 6.45401 10.1199 7.25316 9.1123 8.23473C9.68561 6.94914 10.6759 5.8199 11.892 5.02075ZM40.7577 19.6747C40.5579 21.551 40.1931 23.4099 39.5676 25.1906C36.2059 34.7109 27.4845 40.5569 17.5123 38.6806C9.1036 37.091 3.39648 30.6109 1.99793 22.5413C1.35512 18.8235 1.78077 15.0014 3.00559 11.4313L3.32699 10.5106C3.37042 10.3716 3.4486 10.25 3.54415 10.1457C3.63971 10.0415 3.76133 9.95464 3.90031 9.90252C4.03061 9.8504 4.17828 9.81566 4.32595 9.82434C4.47362 9.82434 4.61261 9.85909 4.74291 9.91989C7.16648 11.0578 13.612 13.8635 21.3952 15.5226C30.7507 17.5118 36.7184 17.1731 39.42 16.8082C39.6198 16.7822 39.8196 16.7995 40.0107 16.8603C40.2018 16.9211 40.3755 17.0254 40.5145 17.1644C40.6622 17.3034 40.7664 17.4771 40.8359 17.6595C40.9054 17.8506 40.9314 18.0504 40.9054 18.2502L40.7577 19.6747Z" fill="#FFCA5E"/>
<path d="M64.1421 28.6218C63.2735 29.308 62.3093 29.6554 61.2408 29.6554C59.6425 29.6554 58.27 29.0908 57.132 27.9616C56.0028 26.8237 55.4381 25.4512 55.4381 23.8529C55.4381 22.2546 56.0028 20.8822 57.132 19.7529C58.27 18.615 59.6425 18.0504 61.2408 18.0504C62.8391 18.0504 64.7763 18.8235 67.0435 20.3697V34.3027H64.1421V28.6218ZM64.1421 21.9853C63.0129 21.2991 62.0487 20.9517 61.2408 20.9517C60.4329 20.9517 59.7467 21.2383 59.1821 21.8029C58.6174 22.3675 58.3308 23.0538 58.3308 23.8616C58.3308 24.6694 58.6174 25.3557 59.1821 25.9203C59.7467 26.4849 60.4329 26.7716 61.2408 26.7716C62.0487 26.7716 62.7349 26.4849 63.2995 25.9203C63.8642 25.3557 64.1508 24.6694 64.1508 23.8616V21.9853H64.1421ZM70.6398 24.3307V24.3741C70.6398 25.1993 70.8222 25.8074 71.187 26.1896C71.5605 26.5718 72.1426 26.7542 72.9504 26.7542C73.6453 26.7542 74.4184 26.4067 75.2697 25.7205L75.2784 18.0417H78.1797L78.1884 27.3275C76.6248 28.8737 74.8788 29.6468 72.9417 29.6468C71.3434 29.6381 70.0664 29.1516 69.137 28.1961C68.1988 27.2319 67.7384 25.9377 67.7558 24.322V18.0417H70.6311V24.3307H70.6398ZM86.545 21.6639C85.9283 21.1862 85.3028 20.943 84.686 20.943C83.8782 20.943 83.192 21.2296 82.6273 21.7942C82.219 22.2112 82.0106 22.8627 82.0106 23.7574V23.8529L86.545 21.6639ZM84.6774 29.6554C83.079 29.6554 81.7239 29.0908 80.586 27.9529C79.448 26.8237 78.8747 25.4599 78.8747 23.8529C78.8747 22.2546 79.4393 20.8822 80.5686 19.7529C81.7065 18.615 83.079 18.0504 84.6774 18.0504C86.2757 18.0504 87.6482 18.615 88.7861 19.7442C89.6374 20.6042 90.1673 21.5944 90.3758 22.7063L87.57 24.0874V24.0788L83.0182 26.2591C83.3396 26.4936 83.6958 26.6499 84.0867 26.7194V26.7107C84.2778 26.7542 84.4863 26.7802 84.7121 26.7802C85.5287 26.7629 86.4929 26.4154 87.6221 25.7205L88.8296 28.3785C87.3007 29.2298 85.9109 29.6554 84.6774 29.6554ZM98.6455 19.0754C99.5141 18.3892 100.478 18.0417 101.547 18.0417C103.145 18.0417 104.518 18.6063 105.647 19.7442C106.785 20.8735 107.358 22.2372 107.358 23.8442C107.358 25.4425 106.785 26.815 105.647 27.9529C104.518 29.0821 103.154 29.6468 101.547 29.6468C99.9485 29.6468 98.0114 28.8737 95.7441 27.3275L95.7355 13.9765H98.6368L98.6455 19.0754ZM98.6455 25.7205C99.7747 26.4067 100.739 26.7542 101.547 26.7542C102.355 26.7542 103.041 26.4675 103.606 25.9029C104.17 25.3383 104.457 24.6521 104.457 23.8442C104.457 23.0364 104.17 22.3502 103.606 21.7855C103.041 21.2209 102.355 20.9343 101.547 20.9343C100.739 20.9343 100.053 21.2209 99.4881 21.7855C98.9235 22.3502 98.6368 23.0364 98.6368 23.8442V25.7205H98.6455ZM115.914 25.9029C116.479 25.3383 116.766 24.6521 116.766 23.8442V21.9767C115.637 21.2904 114.672 20.943 113.864 20.943C113.057 20.943 112.37 21.2296 111.806 21.7942C111.241 22.3589 110.954 23.0451 110.954 23.8529C110.954 24.6608 111.241 25.347 111.806 25.9116C112.37 26.4762 113.057 26.7629 113.864 26.7629C114.664 26.7542 115.35 26.4675 115.914 25.9029ZM116.757 28.6131C115.897 29.308 114.933 29.6554 113.856 29.6554C112.257 29.6554 110.885 29.0908 109.747 27.9616C108.618 26.8237 108.053 25.4512 108.053 23.8529C108.053 22.2546 108.618 20.8822 109.747 19.7529C110.885 18.615 112.257 18.0504 113.856 18.0504C115.454 18.0504 117.391 18.8235 119.658 20.3697V29.6554H116.757V28.6131ZM126.755 20.9517C125.287 20.9517 124.123 21.2991 123.272 21.9853L123.263 29.6641H120.362L120.371 20.3783C121.917 18.8322 124.045 18.0591 126.755 18.0591V20.9517ZM130.369 19.0754C131.238 18.3892 132.202 18.0417 133.27 18.0417C134.877 18.0417 136.241 18.6063 137.37 19.7442C138.508 20.8735 139.082 22.2372 139.082 23.8442C139.082 25.4425 138.508 26.815 137.37 27.9529C136.241 29.0821 134.877 29.6468 133.27 29.6468C131.672 29.6468 129.735 28.8737 127.468 27.3275L127.459 13.9765H130.36L130.369 19.0754ZM130.369 25.7205C131.498 26.4067 132.463 26.7542 133.27 26.7542C134.078 26.7542 134.764 26.4675 135.329 25.9029C135.894 25.3383 136.18 24.6521 136.18 23.8442C136.18 23.0364 135.894 22.3502 135.329 21.7855C134.764 21.2209 134.078 20.9343 133.27 20.9343C132.463 20.9343 131.776 21.2209 131.212 21.7855C130.647 22.3502 130.36 23.0364 130.36 23.8442V25.7205H130.369ZM147.638 25.9029C148.203 25.3383 148.489 24.6521 148.489 23.8442V21.9767C147.36 21.2904 146.396 20.943 145.588 20.943C144.78 20.943 144.094 21.2296 143.529 21.7942C142.965 22.3589 142.678 23.0451 142.678 23.8529C142.678 24.6608 142.965 25.347 143.529 25.9116C144.094 26.4762 144.78 26.7629 145.588 26.7629C146.387 26.7542 147.073 26.4675 147.638 25.9029ZM148.481 28.6131C147.621 29.308 146.657 29.6554 145.579 29.6554C143.981 29.6554 142.609 29.0908 141.471 27.9616C140.341 26.8237 139.777 25.4512 139.777 23.8529C139.777 22.2546 140.341 20.8822 141.471 19.7529C142.609 18.615 143.981 18.0504 145.579 18.0504C147.178 18.0504 149.115 18.8235 151.382 20.3697V29.6554H148.481V28.6131ZM163.691 27.3362C161.424 28.8824 159.487 29.6554 157.888 29.6554C156.29 29.6554 154.918 29.0908 153.78 27.9616C152.65 26.8237 152.086 25.4512 152.086 23.8529C152.086 22.2546 152.65 20.8822 153.78 19.7529C154.918 18.615 156.29 18.0504 157.888 18.0504C158.957 18.0504 159.921 18.3978 160.79 19.0841V13.9851H163.691V27.3362ZM160.79 23.8529C160.79 23.0451 160.503 22.3589 159.938 21.7942C159.374 21.2296 158.688 20.943 157.88 20.943C157.072 20.943 156.386 21.2296 155.821 21.7942C155.256 22.3589 154.97 23.0451 154.97 23.8529C154.97 24.6608 155.256 25.347 155.821 25.9116C156.386 26.4762 157.072 26.7629 157.88 26.7629C158.688 26.7629 159.652 26.4154 160.781 25.7292V23.8529H160.79ZM172.247 25.9029C172.812 25.3383 173.099 24.6521 173.099 23.8442V21.9767C171.969 21.2904 171.005 20.943 170.197 20.943C169.389 20.943 168.703 21.2296 168.139 21.7942C167.574 22.3589 167.287 23.0451 167.287 23.8529C167.287 24.6608 167.574 25.347 168.139 25.9116C168.703 26.4762 169.389 26.7629 170.197 26.7629C170.997 26.7542 171.683 26.4675 172.247 25.9029ZM173.099 28.6131C172.239 29.308 171.274 29.6554 170.197 29.6554C168.599 29.6554 167.226 29.0908 166.089 27.9616C164.959 26.8237 164.395 25.4512 164.395 23.8529C164.395 22.2546 164.959 20.8822 166.089 19.7529C167.226 18.615 168.599 18.0504 170.197 18.0504C171.796 18.0504 173.733 18.8235 176 20.3697V29.6554H173.099V28.6131Z" fill="white"/>
</svg>
