<?xml version="1.0" encoding="utf-8"?>
<!-- Generator: Adobe Illustrator 19.0.0, SVG Export Plug-In . SVG Version: 6.00 Build 0)  -->
<svg version="1.0" id="Layer_1" xmlns="http://www.w3.org/2000/svg" xmlns:xlink="http://www.w3.org/1999/xlink" x="0px" y="0px"
	 viewBox="0 0 32.7 32.7" style="enable-background:new 0 0 32.7 32.7;" xml:space="preserve">
<style type="text/css">
	.st0{fill:#FFCA60;}
	.st1{fill:#8C76B6;}
	.st2{fill:#D45556;}
	.st3{fill:#FFFFFF;}
</style>
<g id="XMLID_1378_">
	<circle id="XMLID_1640_" class="st0" cx="16.4" cy="16.4" r="16.4"/>
	<path id="XMLID_1638_" class="st1" d="M20.8,6.5C21,6,21.4,5.6,21.9,5.3c0.5-0.3,1.1-0.4,1.7-0.4c0.6,0.1,1.1,0.3,1.6,0.5
		c1,0.6,1.7,1.4,2.2,2.4c0.5,1,0.7,2.1,0.6,3.1c-0.3-1-0.7-1.9-1.2-2.7c-0.5-0.8-1.2-1.5-2-2C24,5.8,23,5.6,22.2,5.9
		c-0.8,0.3-1.4,1.2-1.9,2.1C20.4,7.5,20.5,7,20.8,6.5z"/>
	<path id="XMLID_1637_" class="st1" d="M8.8,3.7c0.9-0.6,2-1,3.1-1c0.6,0,1.1,0.1,1.7,0.3c0.5,0.3,1,0.6,1.3,1.2
		c0.3,0.5,0.4,1.1,0.3,1.6c0,0.5-0.2,1-0.4,1.5c0.1-1,0-2.1-0.6-2.8c-0.5-0.7-1.4-1-2.3-1C11,3.7,10,3.9,9.2,4.4
		c-0.9,0.4-1.7,1-2.4,1.7C7.2,5.1,7.9,4.3,8.8,3.7z"/>
	<path id="XMLID_1580_" class="st1" d="M30.1,14.5c-0.1,1.4-0.4,2.8-0.9,4.1c-2.5,7-8.9,11.4-16.3,10c-6.2-1.2-10.4-6-11.5-11.9
		C1,13.9,1.3,11.1,2.2,8.4l0.2-0.7c0-0.1,0.1-0.2,0.2-0.3c0.1-0.1,0.2-0.1,0.3-0.2c0.1,0,0.2-0.1,0.3-0.1c0.1,0,0.2,0,0.3,0.1
		c1.8,0.8,6.6,2.9,12.3,4.1c6.9,1.5,11.3,1.2,13.3,1c0.1,0,0.3,0,0.4,0c0.1,0,0.3,0.1,0.4,0.2c0.1,0.1,0.2,0.2,0.2,0.4
		c0,0.1,0.1,0.3,0.1,0.4L30.1,14.5z"/>
	<path id="XMLID_1579_" class="st2" d="M17.2,22.4L17.2,22.4c-1.3,0-2.6-0.3-3.8,0c-0.7-0.9-1.6-1.6-2.6-2C8.2,19.3,5.2,20,3.4,22
		l0,0c2,3.4,5.5,5.8,9.8,6.6c3.1,0.6,5.9,0.1,8.9-1.1c0,0,0,0,0,0C21.1,25.1,19.7,23.4,17.2,22.4z"/>
	<path id="XMLID_1388_" class="st3" d="M16.2,11.5C10.6,10.3,5.1,8.2,4.1,7.4v0c-1,1-0.4,2.1,0.2,3c0.5,0.9,1.2,1.9,2.2,1.9h0
		c0.3,0,0.6,0.1,1,0.1c0.5,0.7,1.1,1.2,1.9,1.5c0.8,0.3,1.6,0.3,2.5,0.1c0.6,0.6,1.3,1,2.1,1.2c0.8,0.2,1.6,0.1,2.4-0.2
		c0.6,0.7,1.4,1.3,2.3,1.5s1.8,0.2,2.7-0.1c0.7,0.6,1.6,0.9,2.5,1c0.9,0.1,1.8-0.1,2.6-0.6c0.8-0.4,1.5-1.2,1.9-2
		c0.4-0.8,0.6-1.7,0.6-2.7h0.1l0.2,0.1c0,0,0,0,0,0C27.1,12.7,22.8,12.9,16.2,11.5z"/>
</g>
</svg>
