<svg
  version="1.1"
  xmlns="http://www.w3.org/2000/svg"
  xmlns:xlink="http://www.w3.org/1999/xlink"
  x="0px"
  y="0px"
	viewBox="0 0 155 155"
  style="enable-background:new 0 0 155 155;"
  xml:space="preserve"
  >
<path
  fill="#ffffff"
  d="M0,10C0,4.5,4.5,0,10,0h135c5.5,0,10,4.5,10,10s-4.5,10-10,10H10C4.5,20,0,15.5,0,10z M145,67.5H10
	c-5.5,0-10,4.5-10,10s4.5,10,10,10h135c5.5,0,10-4.5,10-10S150.5,67.5,145,67.5z M145,135H10c-5.5,0-10,4.5-10,10s4.5,10,10,10h135
	c5.5,0,10-4.5,10-10S150.5,135,145,135z"/>
</svg>