<svg
  version="1.1"
  xmlns="http://www.w3.org/2000/svg"
  xmlns:xlink="http://www.w3.org/1999/xlink"
  x="0px"
  y="0px"
	viewBox="0 0 155 155"
  style="enable-background:new 0 0 155 155;"
  xml:space="preserve">
<path
  fill="#ffffff"
  d="M91.6,77.5l60.4-60.4c3.9-3.9,3.9-10.2,0-14.1c-3.9-3.9-10.2-3.9-14.1,0L77.5,63.4L17.1,2.9
	C13.2-1,6.8-1,2.9,2.9C-1,6.8-1,13.2,2.9,17.1l60.4,60.4L2.9,137.9c-3.9,3.9-3.9,10.2,0,14.1c2,2,4.5,2.9,7.1,2.9s5.1-1,7.1-2.9
	l60.4-60.4l60.4,60.4c2,2,4.5,2.9,7.1,2.9s5.1-1,7.1-2.9c3.9-3.9,3.9-10.2,0-14.1L91.6,77.5z"/>
</svg>
