<svg viewBox="0 0 78 49" fill="none" xmlns="http://www.w3.org/2000/svg">
<path d="M20.9798 3L21.6828 3.03128L22.3779 3.12513L23.0613 3.27371L23.7291 3.48486L24.3774 3.75075L25.0023 4.0753L25.5919 4.45068L26.1465 4.87298L26.6659 5.34611L27.1345 5.86225L27.5641 6.4175L27.9429 7.00402L28.2631 7.62574L28.5326 8.27092L28.7435 8.93956L28.8958 9.61993L28.9856 10.312L29.0169 11.012L28.9895 12.1381L28.9075 13.2642L28.7669 14.3825L28.5717 15.493L28.3256 16.5957L28.0249 17.6827L27.6735 18.7541L27.2634 19.806L26.8065 20.8382L26.2988 21.8471L26.0254 22.3085L25.7091 22.7464L25.4553 23.114L25.2678 23.5167L25.135 23.9429L25.0647 24.3809V24.8266L25.1311 25.2646L25.26 25.6908L25.4514 26.0935L25.7013 26.4611L25.9981 26.7895L26.3457 27.0711L26.7323 27.2979L27.1462 27.466L27.5758 27.5716L28.9466 27.8257L30.3056 28.1229L31.6529 28.467L32.9885 28.858L34.3085 29.296L35.6168 29.7808L36.0385 29.9724L36.4369 30.2149L36.804 30.5003L37.1359 30.8248L37.4249 31.1846L37.6709 31.5834L37.8701 31.9979L38.1864 32.8347L38.4559 33.6871L38.6746 34.5551L38.8425 35.4271L38.9636 36.3147L38.9597 36.5611L38.8972 36.8035L38.7722 37.0147L38.6043 37.1984L38.3934 37.3275L38.1552 37.4057L35.8901 37.8123L33.6134 38.1603L31.3288 38.4536L29.0364 38.6882L26.7401 38.8603L24.436 38.9776L22.1358 39.0362H19.8278L17.5276 38.9776L15.2274 38.8603L12.9311 38.6882L10.6348 38.4536L8.35412 38.1603L6.07344 37.8123L3.80839 37.4057L3.57407 37.3275L3.35928 37.1984L3.19136 37.0147L3.07029 36.8035L3.00391 36.5611L3 36.3147L3.12497 35.4271L3.29289 34.5551L3.51159 33.6871L3.77715 32.8347L4.09347 31.9979L4.29655 31.5834L4.54258 31.1846L4.83157 30.8248L5.16352 30.5003L5.53061 30.2149L5.92895 29.9724L6.35072 29.7808L7.65507 29.296L8.97505 28.858L10.3107 28.467L11.6619 28.1229L13.0209 27.8257L14.3877 27.5716L14.8212 27.466L15.2352 27.2979L15.6218 27.0711L15.9655 26.7895L16.2623 26.4611L16.5161 26.0935L16.7036 25.6908L16.8324 25.2646L16.8988 24.8266V24.3809L16.8285 23.9429L16.6997 23.5167L16.5083 23.114L16.2584 22.7464L15.942 22.3085L15.6687 21.8471L15.1571 20.8382L14.7002 19.806L14.294 18.7541L13.9425 17.6827L13.6418 16.5957L13.3919 15.493L13.2005 14.3825L13.06 13.2642L12.9779 12.1381L12.9467 11.012L12.9819 10.312L13.0717 9.61993L13.224 8.93956L13.4349 8.27092L13.7043 7.62574L14.0246 7.00402L14.4034 6.4175L14.829 5.86225L15.3016 5.34611L15.821 4.87298L16.3755 4.45068L16.9652 4.0753L17.5862 3.75075L18.2344 3.48486L18.9022 3.27371L19.5896 3.12513L20.2847 3.03128L20.9798 3Z" stroke="#5D4989" stroke-width="4.5"/>
<path d="M57.0163 3L57.7192 3.03128L58.4144 3.12513L59.0978 3.27371L59.7656 3.48486L60.4138 3.75075L61.0387 4.0753L61.6284 4.45068L62.1829 4.87298L62.7023 5.34611L63.171 5.86225L63.6005 6.4175L63.9794 7.00402L64.2996 7.62574L64.569 8.27092L64.7799 8.93956L64.9322 9.61993L65.0221 10.312L65.0533 11.012L65.026 12.1381L64.944 13.2642L64.8034 14.3825L64.6081 15.493L64.3621 16.5957L64.0614 17.6827L63.7099 18.7541L63.2998 19.806L62.8429 20.8382L62.3352 21.8471L62.0619 22.3085L61.7455 22.7464L61.4917 23.114L61.3042 23.5167L61.1715 23.9429L61.1012 24.3809V24.8266L61.1676 25.2646L61.2964 25.6908L61.4878 26.0935L61.7377 26.4611L62.0345 26.7895L62.3821 27.0711L62.7687 27.2979L63.1827 27.466L63.6123 27.5716L64.983 27.8257L66.342 28.1229L67.6894 28.467L69.025 28.858L70.3449 29.296L71.6532 29.7808L72.075 29.9724L72.4733 30.2149L72.8404 30.5003L73.1723 30.8248L73.4613 31.1846L73.7074 31.5834L73.9065 31.9979L74.2229 32.8347L74.4923 33.6871L74.711 34.5551L74.8789 35.4271L75 36.3147L74.9961 36.5611L74.9336 36.8035L74.8086 37.0147L74.6407 37.1984L74.4298 37.3275L74.1916 37.4057L71.9266 37.8123L69.6498 38.1603L67.3652 38.4536L65.0728 38.6882L62.7765 38.8603L60.4724 38.9776L58.1722 39.0362H55.8642L53.564 38.9776L51.2638 38.8603L48.9675 38.6882L46.6712 38.4536L44.3906 38.1603L42.1099 37.8123L39.8448 37.4057L39.6105 37.3275L39.3957 37.1984L39.2278 37.0147L39.1067 36.8035L39.0403 36.5611L39.0364 36.3147L39.1614 35.4271L39.3293 34.5551L39.548 33.6871L39.8136 32.8347L40.1299 31.9979L40.333 31.5834L40.579 31.1846L40.868 30.8248L41.2 30.5003L41.567 30.2149L41.9654 29.9724L42.3872 29.7808L43.6915 29.296L45.0115 28.858L46.3471 28.467L47.6983 28.1229L49.0573 27.8257L50.4242 27.5716L50.8577 27.466L51.2716 27.2979L51.6582 27.0711L52.0019 26.7895L52.2987 26.4611L52.5526 26.0935L52.74 25.6908L52.8689 25.2646L52.9353 24.8266V24.3809L52.865 23.9429L52.7361 23.5167L52.5447 23.114L52.2948 22.7464L51.9785 22.3085L51.7051 21.8471L51.1935 20.8382L50.7366 19.806L50.3305 18.7541L49.979 17.6827L49.6783 16.5957L49.4283 15.493L49.237 14.3825L49.0964 13.2642L49.0144 12.1381L48.9831 11.012L49.0183 10.312L49.1081 9.61993L49.2604 8.93956L49.4713 8.27092L49.7408 7.62574L50.061 7.00402L50.4398 6.4175L50.8655 5.86225L51.338 5.34611L51.8574 4.87298L52.412 4.45068L53.0017 4.0753L53.6226 3.75075L54.2709 3.48486L54.9387 3.27371L55.626 3.12513L56.3211 3.03128L57.0163 3Z" stroke="#5D4989" stroke-width="4.5"/>
<path d="M38.9981 10.5559L39.7011 10.5872L40.3962 10.681L41.0796 10.8296L41.7474 11.0408L42.3957 11.3067L43.0206 11.6312L43.6103 12.0066L44.1648 12.4289L44.6842 12.902L45.1528 13.4182L45.5824 13.9734L45.9612 14.5599L46.2815 15.1817L46.5509 15.8268L46.7618 16.4955L46.9141 17.1758L47.0039 17.8679L47.0352 18.5679L47.0078 19.694L46.9258 20.8201L46.7852 21.9384L46.59 23.0489L46.3439 24.1516L46.0432 25.2386L45.6918 26.31L45.2817 27.3619L44.8248 28.3941L44.3171 29.403L44.0437 29.8644L43.7274 30.3023L43.4736 30.6699L43.2861 31.0726L43.1533 31.4988L43.083 31.9368V32.3825L43.1494 32.8205L43.2783 33.2467L43.4697 33.6494L43.7196 34.017L44.0164 34.3454L44.364 34.627L44.7506 34.8538L45.1646 35.0219L45.5941 35.1275L46.9649 35.3816L48.3239 35.6788L49.6712 36.0229L51.0068 36.4139L52.3268 36.8519L53.6351 37.3367L54.0568 37.5283L54.4552 37.7708L54.8223 38.0562L55.1542 38.3807L55.4432 38.7405L55.6892 39.1393L55.8884 39.5538L56.2047 40.3906L56.4742 41.243L56.6929 42.1111L56.8608 42.983L56.9819 43.8706L56.978 44.117L56.9155 44.3594L56.7905 44.5706L56.6226 44.7543L56.4117 44.8834L56.1735 44.9616L53.9084 45.3682L51.6317 45.7162L49.3471 46.0095L47.0547 46.2441L44.7584 46.4162L42.4543 46.5335L40.1541 46.5921H37.8461L35.5459 46.5335L33.2457 46.4162L30.9494 46.2441L28.6531 46.0095L26.3724 45.7162L24.0918 45.3682L21.8267 44.9616L21.5924 44.8834L21.3776 44.7543L21.2097 44.5706L21.0886 44.3594L21.0222 44.117L21.0183 43.8706L21.1433 42.983L21.3112 42.1111L21.5299 41.243L21.7955 40.3906L22.1118 39.5538L22.3149 39.1393L22.5609 38.7405L22.8499 38.3807L23.1818 38.0562L23.5489 37.7708L23.9473 37.5283L24.369 37.3367L25.6734 36.8519L26.9934 36.4139L28.329 36.0229L29.6802 35.6788L31.0392 35.3816L32.4061 35.1275L32.8395 35.0219L33.2535 34.8538L33.6401 34.627L33.9838 34.3454L34.2806 34.017L34.5344 33.6494L34.7219 33.2467L34.8508 32.8205L34.9171 32.3825V31.9368L34.8468 31.4988L34.718 31.0726L34.5266 30.6699L34.2767 30.3023L33.9604 29.8644L33.687 29.403L33.1754 28.3941L32.7185 27.3619L32.3123 26.31L31.9609 25.2386L31.6602 24.1516L31.4102 23.0489L31.2189 21.9384L31.0783 20.8201L30.9963 19.694L30.965 18.5679L31.0002 17.8679L31.09 17.1758L31.2423 16.4955L31.4532 15.8268L31.7226 15.1817L32.0429 14.5599L32.4217 13.9734L32.8474 13.4182L33.3199 12.902L33.8393 12.4289L34.3938 12.0066L34.9835 11.6312L35.6045 11.3067L36.2527 11.0408L36.9205 10.8296L37.6079 10.681L38.303 10.5872L38.9981 10.5559Z" fill="white" stroke="#5D4989" stroke-width="4.5"/>
</svg>
