<svg viewBox="0 0 78 91" fill="none" xmlns="http://www.w3.org/2000/svg">
<path d="M39.0001 13.644L36.531 21.2433H28.5406L35.0049 25.94L32.5358 33.5393L39.0001 28.8426L45.4645 33.5393L42.9953 25.94L49.4597 21.2433H41.4693L39.0001 13.644Z" stroke="#5D4989" stroke-width="4.5" stroke-linejoin="round"/>
<path d="M67.7211 87.8594L67.7211 90.1094L69.9817 90.1094L69.971 87.8488L67.7211 87.8594ZM10.2793 87.8594L8.02936 87.8488L8.01873 90.1094L10.2793 90.1094L10.2793 87.8594ZM39.0002 76.9753C46.6731 76.9753 53.5118 78.4034 58.3524 80.6173C63.389 82.921 65.4607 85.6511 65.4711 87.8699L69.971 87.8488C69.9474 82.8113 65.5792 78.9744 60.2241 76.5251C54.673 73.9861 47.1684 72.4753 39.0002 72.4753L39.0002 76.9753ZM12.5293 87.8699C12.5397 85.6511 14.6114 82.921 19.648 80.6173C24.4886 78.4034 31.3273 76.9753 39.0002 76.9753L39.0002 72.4753C30.832 72.4753 23.3274 73.9861 17.7763 76.5251C12.4212 78.9744 8.05303 82.8113 8.02936 87.8488L12.5293 87.8699ZM10.2793 90.1094L67.7211 90.1094L67.7211 85.6094L10.2793 85.6094L10.2793 90.1094Z" fill="#5D4989"/>
<path d="M25.4702 77.0988C26.8592 72.6222 27.7435 65.8742 27.7435 58.3257C27.7435 57.3152 27.7276 56.3189 27.6969 55.3406M52.5296 77.0988C51.1406 72.6222 50.2563 65.8742 50.2563 58.3257C50.2563 57.3152 50.2721 56.3189 50.3029 55.3406" stroke="#5D4989" stroke-width="4.5"/>
<path d="M75 3.19995H3V21.0813C3.04269 40.9271 19.1441 57.0022 39 57.0022C58.8559 57.0022 74.9572 40.9271 74.9999 21.0813L75 3.19995Z" stroke="#5D4989" stroke-width="4.5" stroke-linejoin="round"/>
<path d="M39 48.2989C52.4845 48.2989 63.4193 37.4247 63.4483 23.9995" stroke="#5D4989" stroke-width="4.5" stroke-linecap="round" stroke-linejoin="round"/>
</svg>
