<svg width="16" height="15" viewBox="0 0 16 15" fill="none" xmlns="http://www.w3.org/2000/svg">
<path d="M8.01371 10.4459C8.10386 10.4462 8.19337 10.4301 8.27667 10.3986C8.35999 10.3671 8.43562 10.3206 8.49898 10.262L12.1614 6.91934C12.2827 6.80051 12.3487 6.64332 12.3456 6.48095C12.3424 6.31858 12.2703 6.16373 12.1445 6.04883C12.0187 5.934 11.849 5.86824 11.6711 5.8654C11.4932 5.86255 11.321 5.92281 11.1908 6.03353L8.70041 8.30655V0.626752C8.70041 0.460529 8.62807 0.301108 8.49925 0.183572C8.37052 0.0660346 8.19582 0 8.01371 0C7.83159 0 7.6569 0.0660346 7.52816 0.183572C7.39934 0.301108 7.327 0.460529 7.327 0.626752V8.30655L4.83657 6.03353C4.70639 5.92281 4.53422 5.86255 4.35631 5.8654C4.17841 5.86824 4.00867 5.934 3.88286 6.04883C3.75703 6.16373 3.68497 6.31858 3.68183 6.48095C3.6787 6.64332 3.74473 6.80051 3.86603 6.91934L7.52844 10.262C7.5918 10.3206 7.66743 10.3671 7.75075 10.3986C7.83404 10.4301 7.92355 10.4462 8.01371 10.4459Z" fill="white"/>
<path d="M13.7087 14.6242H2.31866C2.00114 14.6124 1.68929 14.5436 1.40096 14.4216C1.11263 14.2996 0.853465 14.127 0.638308 13.9136C0.42315 13.7001 0.256218 13.45 0.147069 13.1777C0.0379197 12.9052 -0.0113215 12.6159 0.00218362 12.3261V9.81912C0.00218362 9.6529 0.0745346 9.49346 0.203314 9.37596C0.332103 9.25838 0.506763 9.19236 0.688885 9.19236C0.871017 9.19236 1.04568 9.25838 1.17446 9.37596C1.30325 9.49346 1.37559 9.6529 1.37559 9.81912V12.3261C1.35196 12.5742 1.43386 12.8212 1.60434 13.0156C1.77481 13.2102 2.02077 13.3373 2.29119 13.3707H13.7087C13.9792 13.3373 14.2251 13.2102 14.3956 13.0156C14.5661 12.8212 14.648 12.5742 14.6244 12.3261V9.81912C14.6244 9.6529 14.6967 9.49346 14.8255 9.37596C14.9542 9.25838 15.1289 9.19236 15.3111 9.19236C15.4932 9.19236 15.6679 9.25838 15.7966 9.37596C15.9254 9.49346 15.9978 9.6529 15.9978 9.81912V12.3261C16.0252 12.9072 15.8001 13.4747 15.3714 13.905C14.9427 14.3355 14.3452 14.5939 13.7087 14.6242Z" fill="white"/>
</svg>
