<svg viewBox="0 0 78 74" fill="none" xmlns="http://www.w3.org/2000/svg">
<path fill-rule="evenodd" clip-rule="evenodd" d="M25.7521 3C25.7521 1.75736 26.7594 0.75 28.0021 0.75H56.2336C57.4763 0.75 58.4836 1.75736 58.4836 3V26.3754C58.4836 27.618 57.4763 28.6254 56.2336 28.6254H28.0021C26.7594 28.6254 25.7521 27.618 25.7521 26.3754V3ZM30.2521 5.25V24.1254H53.9836V5.25H30.2521Z" fill="#5D4989"/>
<path fill-rule="evenodd" clip-rule="evenodd" d="M70.8782 10.0239H56.2341V5.52393H75.0003C75.8235 5.52393 76.5809 5.97342 76.9753 6.69593C77.3696 7.41844 77.338 8.29864 76.8927 8.99097L70.18 19.429L76.9005 30.0267C77.3399 30.7196 77.3673 31.5969 76.9718 32.3159C76.5764 33.0349 75.8209 33.4816 75.0003 33.4816H54.0118C52.7692 33.4816 51.7618 32.4743 51.7618 31.2316V26.3343H56.2618V28.9816H70.9092L65.6102 20.6254C65.1409 19.8855 65.1439 18.9404 65.6179 18.2034L70.8782 10.0239Z" fill="#5D4989"/>
<path fill-rule="evenodd" clip-rule="evenodd" d="M28.0022 24.0842C29.2448 24.0842 30.2522 25.0916 30.2522 26.3342V54.9773C30.2522 56.22 29.2448 57.2273 28.0022 57.2273C26.7596 57.2273 25.7522 56.22 25.7522 54.9773V26.3342C25.7522 25.0916 26.7596 24.0842 28.0022 24.0842Z" fill="#5D4989"/>
<path fill-rule="evenodd" clip-rule="evenodd" d="M36.75 42.2629C36.75 41.0203 37.7574 40.0129 39 40.0129C42.6802 40.0129 46.2396 40.2287 49.6049 40.6319C50.8387 40.7797 51.7191 41.8998 51.5713 43.1336C51.4234 44.3674 50.3034 45.2478 49.0696 45.1C45.8864 44.7186 42.5058 44.5129 39 44.5129C37.7574 44.5129 36.75 43.5056 36.75 42.2629ZM17.2523 42.7753C17.6243 43.961 16.9647 45.2237 15.779 45.5957C14.1301 46.113 12.7479 46.6755 11.5894 47.2584C10.4793 47.8169 9.1267 47.3698 8.56819 46.2597C8.00968 45.1497 8.45679 43.797 9.56684 43.2385C10.9694 42.5328 12.5812 41.8827 14.432 41.302C15.6177 40.9301 16.8804 41.5897 17.2523 42.7753ZM67.1325 47.5743C67.7764 46.5115 69.16 46.1719 70.2228 46.8158C74.1958 49.223 77.25 52.54 77.25 56.6755C77.25 60.8109 74.1958 64.128 70.2228 66.5351C69.16 67.179 67.7764 66.8395 67.1325 65.7767C66.4886 64.7139 66.8281 63.3303 67.8909 62.6864C71.4305 60.5419 72.75 58.404 72.75 56.6755C72.75 54.947 71.4305 52.809 67.8909 50.6645C66.8281 50.0206 66.4886 48.637 67.1325 47.5743ZM4.59762 49.8103C5.75124 50.2722 6.31201 51.5818 5.85015 52.7354C5.26303 54.2019 5.25001 55.5447 5.25001 56.6755C5.25001 58.404 6.56952 60.5419 10.1091 62.6864C11.1719 63.3303 11.5114 64.7139 10.8675 65.7767C10.2236 66.8395 8.84004 67.1791 7.77725 66.5351C3.80419 64.128 0.75001 60.8109 0.75001 56.6755L0.750005 56.6281C0.749831 55.4525 0.749522 53.3683 1.67252 51.0629C2.13439 49.9092 3.444 49.3485 4.59762 49.8103ZM26.4288 70.2174C26.5766 68.9835 27.6966 68.1032 28.9304 68.251C32.1136 68.6324 35.4942 68.838 39 68.838C42.5058 68.838 45.8864 68.6324 49.0696 68.251C50.3034 68.1032 51.4234 68.9835 51.5713 70.2174C51.7191 71.4512 50.8387 72.5712 49.6049 72.719C46.2396 73.1222 42.6802 73.338 39 73.338C35.3199 73.338 31.7604 73.1222 28.3951 72.719C27.1613 72.5712 26.281 71.4512 26.4288 70.2174Z" fill="#5D4989"/>
</svg>
