<svg viewBox="0 0 216 216" fill="none" xmlns="http://www.w3.org/2000/svg">
<path d="M108 18V7" stroke="#5D4989" stroke-width="12.625" stroke-linecap="round" stroke-linejoin="round"/>
<path d="M175 41L186 30" stroke="#5D4989" stroke-width="12.625" stroke-linecap="round" stroke-linejoin="round"/>
<path d="M198 108H209" stroke="#5D4989" stroke-width="12.625" stroke-linecap="round" stroke-linejoin="round"/>
<path d="M18 108H7" stroke="#5D4989" stroke-width="12.625" stroke-linecap="round" stroke-linejoin="round"/>
<path d="M30 30L41 41" stroke="#5D4989" stroke-width="12.625" stroke-linecap="round" stroke-linejoin="round"/>
<path d="M139.26 164.111L139.818 161.319C140.897 155.915 144.061 151.228 147.912 147.29C157.796 137.178 163.889 123.337 163.889 108.071C163.889 77.1038 138.816 51.9998 107.889 51.9998C76.9609 51.9998 51.8888 77.1038 51.8888 108.071C51.8888 123.337 57.9818 137.178 67.8657 147.29C71.7156 151.228 74.8803 155.915 75.9602 161.319L76.5182 164.111H139.26Z" stroke="#FFCA5E" stroke-width="12.625"/>
<path d="M87.5444 134.22C81.1071 127.641 77.1388 118.636 77.1388 108.703C77.1388 97.0211 82.6278 86.6216 91.1666 79.9443" stroke="#FFCA5E" stroke-width="12.625" stroke-linecap="round"/>
<path d="M139.371 164.111H76.6292L81.9971 190.972C84.0919 201.455 93.2852 209 103.962 209H112.037C122.714 209 131.907 201.455 134.003 190.972L139.371 164.111Z" stroke="#5D4989" stroke-width="12.625"/>
</svg>
