<svg viewBox="0 0 78 92" fill="none" xmlns="http://www.w3.org/2000/svg">
<path d="M34.2758 8.20348C34.2758 8.20348 47.3382 -0.632883 49.5153 12.5576" stroke="#5D4989" stroke-width="4.5"/>
<path d="M48.3629 8.97193C48.3629 8.97193 50.9241 4.61778 62.1937 5.13003C62.1937 8.7158 58.864 17.8083 53.8696 19.4731C66.0356 26.6447 75 47.9032 75 60.7095C75 76.2051 61.8095 84.5292 45.5455 84.5292C41.483 84.5292 37.6122 84.0099 34.0909 82.9891M41.7036 10.1245C34.532 10.1245 28.8973 5.13003 28.8973 5.13003C28.8973 8.7158 32.2269 17.8083 37.2214 19.4731C28.1727 24.7515 20.9972 37.7303 17.8394 49.27" stroke="#5D4989" stroke-width="4.5"/>
<path d="M36.325 19.0889H55.9186" stroke="#5D4989" stroke-width="4.5"/>
<path d="M55.9186 20.7539C55.9186 20.7539 70.2617 20.3697 70.2617 28.4377" stroke="#5D4989" stroke-width="4.5"/>
<path d="M56.1747 18.3206C56.1747 18.3206 67.4443 18.961 73.9755 14.7349" stroke="#5D4989" stroke-width="4.5"/>
<path d="M40.423 61.606C40.423 64.9357 43.2404 67.4969 46.8261 67.4969C50.2838 67.4969 53.2293 64.8076 53.2293 61.606C53.2293 56.7396 46.8261 54.5626 46.8261 54.5626C46.8261 54.5626 40.423 52.1294 40.423 47.5191C40.423 44.1894 43.2404 41.6282 46.8261 41.6282C50.2838 41.6282 53.2293 44.3175 53.2293 47.5191" stroke="#5D4989" stroke-width="4.5"/>
<path d="M46.9541 35.0969V74.0282" stroke="#5D4989" stroke-width="4.5"/>
<path d="M34.0909 86.5996C34.0909 88.1211 32.8218 89.3609 31.2645 89.3609H5.82645C4.26766 89.3609 3 88.1211 3 86.5996V70.0314C3 68.5099 4.26766 67.27 5.82645 67.27H31.2645C32.8218 67.27 34.0909 68.5099 34.0909 70.0314V86.5996ZM18.5455 72.7927C16.9853 72.7927 15.719 74.0285 15.719 75.5541C15.719 76.5731 16.2914 77.4539 17.1322 77.933V82.4575C17.1322 83.2197 17.7654 83.8382 18.5455 83.8382C19.3256 83.8382 19.9587 83.2197 19.9587 82.4575V77.933C20.7995 77.4553 21.3719 76.5731 21.3719 75.5541C21.3719 74.0285 20.1071 72.7927 18.5455 72.7927Z" stroke="#5D4989" stroke-width="4.5"/>
<path d="M18.4798 49.27C12.0395 49.27 7.90906 54.265 7.90906 60.4012V67.27H29.1818V60.4012C29.1818 54.1588 24.8546 49.27 18.4798 49.27Z" stroke="#5D4989" stroke-width="4.5"/>
</svg>
