<svg viewBox="0 0 78 78" fill="none" xmlns="http://www.w3.org/2000/svg">
<path d="M16.097 3H61.9027C63.6395 3 65.3052 3.68994 66.5333 4.91803C67.7614 6.14613 68.4513 7.81178 68.4513 9.54857V48.8057H9.54846V9.54857C9.54846 7.81178 10.2384 6.14613 11.4665 4.91803C12.6946 3.68994 14.3602 3 16.097 3Z" stroke="#5D4989" stroke-width="4.5" stroke-miterlimit="10"/>
<path d="M68.4514 48.8057H9.54857L3.27429 67.5942C3.09699 68.1721 3.0046 68.7727 3 69.3771C3.00899 70.8656 3.60429 72.2906 4.65684 73.3431C5.70938 74.3957 7.13436 74.991 8.62286 75H69.3771C70.8656 74.991 72.2906 74.3957 73.3432 73.3431C74.3957 72.2906 74.991 70.8656 75 69.3771C74.9954 68.7727 74.903 68.1721 74.7257 67.5942L68.4514 48.8057Z" stroke="#5D4989" stroke-width="4.5" stroke-miterlimit="10"/>
<path d="M32.4515 65.1943H45.5487" stroke="#5D4989" stroke-width="4.5" stroke-miterlimit="10" stroke-linecap="round"/>
</svg>
