<svg viewBox="0 0 78 73" fill="none" xmlns="http://www.w3.org/2000/svg">
<path d="M6.94762 20.9384C5.35938 21.7821 4.09289 23.3139 3.45233 24.9819C2.98629 26.1955 2.85759 27.5482 3.17348 28.8085C3.49328 30.0814 4.25376 31.218 5.22094 32.1075C6.40358 33.1946 7.88067 33.9167 9.37726 34.4694L10.4936 34.882L10.9557 33.7872C12.892 29.1948 16.5346 25.2252 21.4904 22.3076L22.8739 21.4931L21.738 20.3603C19.6808 18.3089 18.5927 15.7416 18.5927 12.935C18.5927 10.1284 19.675 7.50272 21.6405 5.5408C23.6061 3.57888 26.2366 2.49866 29.0484 2.49866C31.8602 2.49866 34.4907 3.57888 36.4563 5.5408C38.4218 7.50272 39.504 10.1284 39.504 12.935C39.504 14.1184 39.2554 15.2083 39.0224 16.1367L38.6626 17.5702L40.1865 17.6802C41.998 17.8106 43.7081 17.9342 45.429 18.3021L46.3094 18.4908L46.7637 17.7143C48.8745 14.1018 52.8505 11.2319 57.2369 10.0447C56.2502 13.1501 55.7559 15.3465 55.7559 21.241V21.9437L56.3594 22.3057C61.4342 25.3449 65.0747 29.4391 66.8872 34.1434L67.1943 34.9395H69.7576C71.0153 35.0066 72.2184 35.538 73.1729 36.4518C74.181 37.4172 74.8284 38.7183 75 40.1206V44.2021C75 47.0234 72.701 49.3181 69.8746 49.3181H66.5421L66.1862 49.9565C64.3045 53.3383 61.6818 56.1625 58.3942 58.3511L57.506 58.9428L58.8739 61.8711L58.8817 61.8867C59.9756 64.0685 58.9802 66.8713 56.7075 68.006L53.296 69.7071L53.2658 69.7246C52.558 70.1295 51.9818 70.2103 51.2827 70.2103C49.4751 70.2103 47.8615 69.2342 47.0689 67.6615L45.114 63.5985L44.2024 63.7386C42.5859 63.9878 40.8563 64.1133 39.0614 64.1133C36.0799 64.1133 33.4368 63.6666 31.244 63.2297L30.1823 63.0185L28.7929 67.0027C28.0549 68.8751 26.3214 70.0837 24.3704 70.0837C23.8742 70.0837 23.3877 69.9854 22.8836 69.784L22.8612 69.7752L19.1748 68.4624C17.9902 68.0683 17.0474 67.2557 16.519 66.1764C15.9915 65.0962 15.9203 63.8418 16.3201 62.6428L18.153 57.304L17.5066 56.7561C12.3402 52.3749 9.49426 46.7207 9.49426 40.835C9.49426 38.8098 9.67268 37.3666 10.09 36.0099L10.4946 34.8859M38.6626 17.5731C38.6626 17.5731 30.9593 17.3678 22.8739 21.496" stroke="#5D4989" stroke-width="4.5" stroke-linecap="round" stroke-linejoin="round"/>
<path d="M54.8369 39.0245C56.9142 39.0245 58.5983 37.3404 58.5983 35.2631C58.5983 33.1857 56.9142 31.5017 54.8369 31.5017C52.7595 31.5017 51.0755 33.1857 51.0755 35.2631C51.0755 37.3404 52.7595 39.0245 54.8369 39.0245Z" fill="#5D4989"/>
</svg>
