<svg viewBox="0 0 202 202" fill="none" xmlns="http://www.w3.org/2000/svg">
<circle cx="101" cy="101" r="101" fill="#F0EFF4"/>
<path d="M183.572 15.8701C183.564 15.7513 183.556 15.6325 183.542 15.5152C183.527 15.3954 183.507 15.2766 183.487 15.1578C183.466 15.0315 183.446 14.9052 183.418 14.7809C183.394 14.6706 183.363 14.5624 183.333 14.4531C183.3 14.3263 183.266 14.199 183.226 14.0752C183.191 13.9659 183.148 13.8586 183.107 13.7509C183.062 13.6326 183.019 13.5138 182.968 13.3985C182.919 13.2857 182.863 13.176 182.808 13.0652C182.755 12.9594 182.704 12.8527 182.647 12.7499C182.585 12.6382 182.515 12.5304 182.448 12.4211C182.386 12.3229 182.326 12.2242 182.259 12.1289C182.189 12.0267 182.111 11.9284 182.035 11.8292C181.96 11.7309 181.884 11.6332 181.805 11.5395C181.73 11.4513 181.649 11.3666 181.57 11.2813C181.477 11.1821 181.384 11.0844 181.285 10.9896C181.252 10.9581 181.224 10.923 181.19 10.8919C181.141 10.8463 181.087 10.8082 181.037 10.7646C180.934 10.6739 180.83 10.5861 180.722 10.5009C180.631 10.4288 180.538 10.3596 180.443 10.2924C180.34 10.2182 180.234 10.1466 180.127 10.0779C180.024 10.0117 179.92 9.94859 179.814 9.88794C179.709 9.82729 179.602 9.77015 179.493 9.71452C179.383 9.65788 179.272 9.60375 179.159 9.55362C179.048 9.504 178.937 9.45789 178.824 9.41378C178.71 9.36867 178.594 9.32607 178.478 9.28697C178.363 9.24838 178.246 9.21279 178.129 9.17971C178.01 9.14613 177.89 9.11505 177.77 9.08748C177.653 9.06042 177.535 9.03686 177.416 9.01531C177.29 8.99225 177.162 8.97321 177.034 8.95666C176.92 8.94213 176.806 8.9301 176.691 8.92058C176.554 8.90955 176.416 8.90303 176.279 8.89952C176.212 8.89902 176.148 8.8905 176.081 8.8905H146.008C141.855 8.8905 138.489 12.2567 138.489 16.4089C138.489 20.561 141.855 23.9273 146.008 23.9273H158.874L113.219 73.2333L93.6827 53.6965C92.2382 52.2515 90.2724 51.4671 88.2234 51.4956C86.1804 51.5347 84.2411 52.4034 82.8517 53.902L20.1986 121.501C17.3762 124.547 17.5566 129.303 20.6021 132.126C22.0496 133.467 23.8826 134.131 25.7111 134.131C27.731 134.131 29.7459 133.321 31.2276 131.723L88.5722 69.8515L108.111 89.3908C109.557 90.8363 111.543 91.6378 113.572 91.5916C115.616 91.5526 117.556 90.6824 118.944 89.1828L168.563 35.5948V46.4824C168.563 50.6345 171.929 54.0008 176.081 54.0008C180.233 54.0008 183.6 50.6345 183.6 46.4824V16.4089C183.6 16.3618 183.593 16.3167 183.592 16.27C183.59 16.1367 183.582 16.0034 183.572 15.8701Z" fill="#FFCA5E"/>
<path d="M156.308 94.149V178.073H139.918V110.069C139.918 105.917 136.551 102.551 132.399 102.551C128.247 102.551 124.881 105.917 124.881 110.069V178.073H108.491V125.989C108.491 121.837 105.125 118.471 100.972 118.471C96.8204 118.471 93.4541 121.837 93.4541 125.989V178.073H77.0641V141.909C77.0641 137.757 73.6979 134.391 69.5457 134.391C65.3936 134.391 62.0273 137.757 62.0273 141.909V178.073H45.6373V157.83C45.6373 153.677 42.271 150.311 38.1189 150.311C33.9667 150.311 30.6005 153.677 30.6005 157.83V178.073H25.7135C21.5614 178.073 18.1952 181.439 18.1952 185.591C18.1952 189.743 21.5614 193.11 25.7135 193.11H176.081C180.233 193.11 183.599 189.743 183.599 185.591C183.599 181.439 180.233 178.073 176.081 178.073H171.345V94.149C171.345 90.0015 167.986 86.6381 163.84 86.6306H163.812C159.666 86.6381 156.308 90.0015 156.308 94.149Z" fill="#5D4989"/>
</svg>
