<svg viewBox="0 0 78 136" fill="none" xmlns="http://www.w3.org/2000/svg">
<path d="M38.9972 113.831C36.7594 113.831 35.166 110.615 34.4161 108.697L34.4059 108.668C33.5268 106.335 32.0524 101.246 32.0524 93.381C32.0524 86.8423 33.0625 82.2412 33.9111 79.5337C35.0963 75.7482 36.5264 73.5704 38.164 73.061L38.885 72.8359L39.606 73.061C41.2436 73.5704 42.6737 75.7482 43.8589 79.5337C44.7075 82.2412 45.7176 86.8423 45.7176 93.381C45.7176 97.5456 45.4268 101.003 44.8265 103.934L44.8639 104.277L44.7738 104.666C44.3062 106.709 43.6974 108.57 43.0155 110.048L42.9866 110.11C41.7605 112.579 40.4188 113.83 39.0006 113.83L38.9972 113.831Z" stroke="#5D4989" stroke-width="4.5" stroke-linecap="round" stroke-linejoin="round"/>
<path d="M33.1951 104.289C33.1951 104.289 26.9092 102.746 20.9434 97.9939C14.9775 93.2422 10.6086 57.4666 17.8072 33.1765C24.7501 9.74672 38.023 3.6354 38.9543 3.23226L39.0068 3.21033C39.0068 3.21033 53.0078 8.88644 60.2064 33.1765C67.4051 57.4666 63.0361 93.2422 57.0703 97.9939C51.1044 102.746 44.8186 104.289 44.8186 104.289" stroke="#5D4989" stroke-width="4.5" stroke-linecap="round" stroke-linejoin="round"/>
<path d="M39.2103 54.8325C42.8042 54.8325 45.7176 51.9192 45.7176 48.3253C45.7176 44.7315 42.8042 41.8181 39.2103 41.8181C35.6165 41.8181 32.7031 44.7315 32.7031 48.3253C32.7031 51.9192 35.6165 54.8325 39.2103 54.8325Z" stroke="#5D4989" stroke-width="4.5" stroke-linecap="round" stroke-linejoin="round"/>
<path d="M54.1769 18.8259C50.0375 21.6741 44.7521 23.381 38.9934 23.381C33.2348 23.381 27.9494 21.6741 23.8099 18.8259" stroke="#5D4989" stroke-width="4.5" stroke-linecap="round" stroke-linejoin="round"/>
<path d="M46.3385 103.854C46.3385 103.854 52.4192 112.234 49.4611 118.035C46.4577 123.928 39.1414 133.174 39.1414 133.174L39.0021 133.353C39.0021 133.353 31.5464 123.928 28.543 118.035C25.5396 112.142 31.6656 103.854 31.6656 103.854" stroke="#5D4989" stroke-width="4.5" stroke-linecap="round" stroke-linejoin="round"/>
<path d="M14.4956 73.7052C14.4956 73.7052 9.98303 75.6893 7.0943 81.2633C4.20557 86.8373 2.23614 90.2882 3.28628 109.929L21.4373 98.5602" stroke="#5D4989" stroke-width="4.5" stroke-linecap="round" stroke-linejoin="round"/>
<path d="M63.5045 73.7035C63.5045 73.7035 68.0171 75.6876 70.9059 81.2616C73.7946 86.8356 75.764 90.2865 74.7139 109.927L56.5629 98.5585" stroke="#5D4989" stroke-width="4.5" stroke-linecap="round" stroke-linejoin="round"/>
</svg>
