<svg viewBox="0 0 305 265" fill="none" xmlns="http://www.w3.org/2000/svg">
<mask id="mask0_265_101" style="mask-type:alpha" maskUnits="userSpaceOnUse" x="0" y="0" width="305" height="265">
<path d="M0 0H305V265H0V0Z" fill="#D9D9D9"/>
</mask>
<g mask="url(#mask0_265_101)">
<path d="M291.201 155.843C283.263 138.33 266.786 127.703 254.327 113.799C242.718 100.843 237.766 83.575 226.256 70.7257C211.864 54.6602 188.597 51.124 168.184 54.0059C161.832 54.9026 155.608 56.4161 149.762 58.4041C143.892 60.3996 138.161 62.9261 132.739 65.9368C114.771 75.9162 101.351 90.2931 93.338 109.226C86.5197 125.339 83.8712 143.113 86.6504 160.446C91.2294 189.003 109.086 214.797 133.25 230.689C157.413 246.583 187.411 252.784 216.161 249.635C239.398 247.09 262.678 238.104 278.419 220.822C294.16 203.54 300.852 177.134 291.201 155.843Z" fill="#E3E0EB"/>
<path d="M155.582 216.364L155.418 373.588H177.998L186.214 213.638L155.582 216.364Z" fill="#5D4989"/>
<path d="M212.729 215.695L222.127 373.588H197.935L180.459 211.089L212.729 215.695Z" fill="#5D4989"/>
<path d="M183.817 232.392C183.724 232.392 183.647 232.318 183.644 232.224L183.011 211.624C183.009 211.528 183.084 211.447 183.179 211.445C183.282 211.449 183.355 211.517 183.357 211.612L183.99 232.213C183.993 232.308 183.918 232.389 183.822 232.392C183.821 232.392 183.819 232.392 183.817 232.392Z" fill="white"/>
<path d="M183.714 229.048H181.061C180.968 229.048 180.892 228.976 180.888 228.883L180.286 214.788C180.282 214.692 180.356 214.611 180.452 214.607C180.548 214.609 180.628 214.678 180.632 214.773L181.227 228.703H183.714C183.81 228.703 183.887 228.78 183.887 228.875C183.887 228.971 183.81 229.048 183.714 229.048Z" fill="white"/>
<path d="M210.242 227.658C208.769 227.658 207.434 227.173 206.261 226.213C201.864 222.614 201.148 213.637 201.121 213.257C201.113 213.162 201.185 213.079 201.28 213.072C201.37 213.053 201.458 213.136 201.465 213.232C201.472 213.324 202.199 222.441 206.48 225.946C207.807 227.032 209.358 227.471 211.082 227.258C211.188 227.249 211.264 227.314 211.276 227.408C211.288 227.504 211.22 227.59 211.126 227.602C210.826 227.639 210.53 227.658 210.242 227.658Z" fill="white"/>
<path d="M156.53 228.146C156.482 228.146 156.434 228.125 156.4 228.086C156.337 228.014 156.345 227.904 156.417 227.842C156.463 227.802 161.037 223.707 160.153 214.073C160.144 213.978 160.214 213.894 160.31 213.885C160.405 213.87 160.489 213.946 160.498 214.042C161.399 223.865 156.691 228.062 156.644 228.104C156.611 228.131 156.571 228.146 156.53 228.146Z" fill="white"/>
<path d="M227.793 189.002C224.607 189.002 221.637 186.99 220.57 183.803L204.024 134.469C202.686 130.479 204.835 126.16 208.825 124.822C212.816 123.481 217.135 125.634 218.472 129.623L235.018 178.957C236.355 182.947 234.206 187.266 230.217 188.604C229.413 188.874 228.596 189.002 227.793 189.002Z" fill="#F7958F"/>
<path d="M221.053 178.039L241.362 134.22C242.504 131.757 245.426 130.686 247.889 131.827C250.183 132.891 251.269 135.499 250.485 137.841L235.218 183.661C233.885 187.66 229.563 189.821 225.564 188.489C221.566 187.157 219.404 182.834 220.736 178.836C220.827 178.564 220.935 178.293 221.053 178.039Z" fill="#9183AF"/>
<path d="M241.235 136.74C240.395 134.199 243.321 131.193 245.707 129.879C249.974 127.532 260.484 126.282 260.993 127.14C261.503 127.998 255.328 130.781 255.328 130.781C255.328 130.781 259.987 130.653 261.682 131.339C261.682 131.339 266.318 125.923 267.307 126.223C268.297 126.523 266.363 129.89 266.363 129.89C266.363 129.89 270.878 126.889 271.511 127.493C272.144 128.098 265.75 133.709 264.274 134.611C262.798 135.513 254.086 139.383 249.284 139.816C244.481 140.249 242.042 139.182 241.235 136.74Z" fill="#9183AF"/>
<path d="M258.586 136.883C258.545 136.883 258.503 136.865 258.476 136.832C258.425 136.771 258.432 136.681 258.493 136.63C259.828 135.507 261.923 133.525 261.867 132.987C261.865 132.962 261.856 132.95 261.834 132.938C261.28 132.646 258.155 134.189 256.315 135.231L256.276 135.252L256.232 135.248C256.211 135.246 254.062 135.062 252.183 135.514C252.102 135.533 252.028 135.484 252.009 135.408C251.991 135.331 252.038 135.253 252.115 135.235C253.888 134.809 255.889 134.935 256.212 134.959C257.113 134.451 261.128 132.235 261.969 132.686C262.076 132.743 262.139 132.837 262.152 132.958C262.241 133.805 259.274 136.348 258.678 136.849C258.651 136.872 258.618 136.883 258.586 136.883Z" fill="#604D8B"/>
<path d="M260.455 133.203C260.425 133.203 260.396 133.195 260.371 133.176C260.307 133.129 260.293 133.04 260.34 132.976L261.474 131.429C261.522 131.365 261.613 131.351 261.675 131.399C261.739 131.445 261.753 131.534 261.706 131.599L260.571 133.145C260.542 133.184 260.499 133.203 260.455 133.203Z" fill="#604D8B"/>
<path d="M261.023 136.046C260.973 136.046 260.925 136.02 260.899 135.975C260.859 135.906 260.882 135.819 260.951 135.779C261.733 135.325 263.824 134.065 264.11 133.695C264.463 133.234 266.109 130 266.126 129.968C266.161 129.896 266.248 129.869 266.318 129.905C266.389 129.941 266.417 130.027 266.381 130.098C266.313 130.232 264.707 133.388 264.337 133.869C263.965 134.352 261.388 135.857 261.095 136.027C261.072 136.04 261.047 136.046 261.023 136.046Z" fill="#604D8B"/>
<path d="M221.722 175.997C221.682 176.007 221.639 176.003 221.601 175.983C221.516 175.94 221.482 175.835 221.526 175.75L226.149 166.78C226.193 166.695 226.299 166.663 226.382 166.706C226.468 166.75 226.501 166.854 226.457 166.938L221.834 175.908C221.81 175.955 221.768 175.986 221.722 175.997Z" fill="#C85651"/>
<path d="M204.695 122.687C216.075 121.237 218.832 124.052 220.344 128.094C221.854 132.136 229.169 156.713 229.169 156.713C229.169 156.713 234.508 143.729 235.825 142.742C237.142 141.755 247.784 145.667 248.589 147.826C249.394 149.984 240.286 179.096 236.922 184.947C233.557 190.799 223.917 192.92 219.521 185.678C215.124 178.437 209.388 159.095 209.388 159.095L204.695 122.687Z" fill="#B1A8C6"/>
<path d="M111.321 107.244L154.971 90.1068C157.498 89.1151 160.351 90.359 161.344 92.8866C162.265 95.2348 161.256 97.8646 159.08 99.021L117.701 121.083C113.982 123.067 109.358 121.66 107.375 117.94C105.392 114.22 106.799 109.597 110.519 107.614C110.781 107.474 111.052 107.35 111.321 107.244Z" fill="#9183AF"/>
<path d="M154.136 98.2993C154.136 98.2993 162.189 109.803 163.659 109.875C165.129 109.948 161.498 101.225 161.498 101.225C161.498 101.225 183.646 97.5662 183.619 96.2771C183.592 94.9886 173.798 96.1728 173.798 96.1728C173.798 96.1728 184.488 93.4132 184.19 92.1192C183.919 90.9459 172.639 93.1583 172.639 93.1583C172.639 93.1583 183.447 89.0944 182.553 88.2667C181.659 87.4396 171.551 90.3709 171.551 90.3709C171.551 90.3709 179.757 86.0521 179.103 85.5386C178.45 85.025 169.291 87.8309 169.291 87.8309C164.756 88.4411 159.354 88.6814 157.261 89.2503C148.941 91.51 154.136 98.2993 154.136 98.2993Z" fill="#9183AF"/>
<path d="M106.105 114.677C106.068 113.741 106.205 112.782 106.536 111.845C107.937 107.877 112.291 105.797 116.258 107.198L166.339 124.888C170.307 126.289 172.388 130.644 170.986 134.61C169.584 138.578 165.231 140.658 161.263 139.257L111.183 121.568C108.152 120.497 106.222 117.704 106.105 114.677Z" fill="#F7958F"/>
<path d="M121.134 118.642C121.132 118.592 121.152 118.54 121.194 118.504L128.5 112.239C128.573 112.177 128.682 112.185 128.744 112.258C128.805 112.33 128.798 112.44 128.725 112.502L121.42 118.767C121.348 118.829 121.238 118.821 121.176 118.749C121.149 118.718 121.136 118.68 121.134 118.642Z" fill="#C85651"/>
<path d="M166.999 121.983L136.688 113.132C136.688 113.132 151.61 105.597 152.293 104.127C152.975 102.658 148.83 93.4414 145.905 92.6615C142.978 91.8811 113.306 103.838 107.454 107.782C101.603 111.728 104.529 120.114 110.233 122.687C115.939 125.26 164.215 144.79 164.215 144.79L166.999 121.983Z" fill="#B1A8C6"/>
<path d="M159.652 157.986C157.449 175.426 155.453 201.49 154.833 222.708C174.675 224.428 194.26 224.22 213.562 221.918C211.942 203.504 211.441 177.887 213.117 157.819L204.695 122.687L182.866 124.757L166.999 121.983L159.652 157.986Z" fill="#978BB3"/>
<path d="M200.933 150.775C191.283 153.156 181.149 153.61 171.328 152.046C168.514 151.597 165.73 150.985 162.984 150.224C161.561 149.829 160.953 152.039 162.375 152.434C172.254 155.173 182.677 155.931 192.845 154.609C195.774 154.228 198.675 153.692 201.542 152.985C202.974 152.632 202.367 150.421 200.933 150.775Z" fill="#7D6DA1"/>
<path d="M200.933 156.588C191.283 158.968 181.149 159.423 171.328 157.858C168.514 157.41 165.73 156.797 162.984 156.036C161.561 155.641 160.953 157.852 162.375 158.246C172.254 160.986 182.677 161.743 192.845 160.422C195.774 160.041 198.675 159.505 201.542 158.798C202.974 158.445 202.367 156.234 200.933 156.588Z" fill="#7D6DA1"/>
<path d="M200.933 162.4C191.283 164.781 181.149 165.235 171.328 163.671C168.514 163.222 165.73 162.61 162.984 161.849C161.561 161.454 160.953 163.664 162.375 164.059C172.254 166.798 182.677 167.556 192.845 166.234C195.774 165.853 198.675 165.318 201.542 164.61C202.974 164.258 202.367 162.046 200.933 162.4Z" fill="#7D6DA1"/>
<path d="M164.873 216.96C164.873 216.96 165.105 223.58 164.581 224.116C164.056 224.653 153.17 224.043 152.694 223.385C152.219 222.727 152.512 217.149 152.512 217.149L164.873 216.96Z" fill="#A499BD"/>
<path d="M173.547 123.128C167.246 161.321 166.263 216.985 165.458 217.935C164.654 218.886 153.536 219.252 152.219 217.935C150.903 216.619 158.253 150.014 160.417 142.157C162.581 134.299 166.999 121.983 166.999 121.983L173.547 123.128Z" fill="#B1A8C6"/>
<path d="M173.547 123.128C172.222 131.964 170.482 145.183 170.482 145.183C162.705 134.933 170.68 122.626 170.68 122.626L173.547 123.128Z" fill="#A499BD"/>
<path d="M217.502 216.875L195.924 217.972C195.924 217.972 196.18 223.823 196.875 224.299C197.569 224.774 216.295 224.597 217.1 223.845C217.904 223.092 217.502 216.875 217.502 216.875Z" fill="#A499BD"/>
<path d="M194.903 123.616C187.834 184.063 193.4 217.424 194.863 218.448C196.326 219.472 217.245 219.545 218.343 217.79C219.44 216.034 214.393 190.871 214.028 183.777C213.662 176.681 213.562 156.29 213.562 156.29L205.266 122.618L194.903 123.616Z" fill="#B1A8C6"/>
<path d="M205.41 151.799C204.688 152.25 203.867 152.453 203.017 152.382C202.101 152.307 201.368 151.845 200.643 151.318C199.421 150.428 197.589 149.517 196.304 150.849C195.791 151.38 196.6 152.191 197.113 151.659C197.598 151.157 198.385 151.293 198.952 151.578C199.746 151.978 200.382 152.631 201.179 153.027C202.702 153.783 204.547 153.688 205.988 152.789C206.612 152.399 206.037 151.407 205.41 151.799Z" fill="white"/>
<path d="M205.41 154.555C204.688 155.005 203.867 155.208 203.017 155.138C202.101 155.062 201.368 154.601 200.643 154.074C199.421 153.184 197.589 152.272 196.304 153.604C195.791 154.135 196.6 154.946 197.113 154.414C197.598 153.913 198.385 154.048 198.952 154.333C199.746 154.733 200.382 155.386 201.179 155.782C202.702 156.539 204.547 156.444 205.988 155.545C206.612 155.155 206.037 154.163 205.41 154.555Z" fill="white"/>
<path d="M198.326 123.287L194.903 123.616C194.505 127.702 192.798 145.183 192.798 145.183C192.798 145.183 202.812 135.281 198.326 123.287Z" fill="#A499BD"/>
<path d="M160.265 142.35C160.188 142.35 160.124 142.288 160.122 142.209C159.958 135.642 161.734 128.926 165.123 123.297C165.163 123.229 165.251 123.208 165.319 123.248C165.387 123.29 165.409 123.377 165.368 123.445C162.008 129.028 160.246 135.689 160.408 142.203C160.41 142.282 160.348 142.347 160.269 142.35C160.267 142.35 160.266 142.35 160.265 142.35Z" fill="#5D4989"/>
<path d="M212.68 170.111C212.617 170.111 212.56 170.07 212.542 170.007C208.574 156.202 207.269 141.355 208.767 127.069C208.775 126.991 208.845 126.931 208.924 126.941C209.003 126.949 209.06 127.02 209.052 127.099C207.557 141.348 208.859 156.158 212.817 169.927C212.839 170.004 212.796 170.083 212.719 170.105C212.706 170.109 212.693 170.111 212.68 170.111Z" fill="#5D4989"/>
<path d="M230.309 170.242C230.309 170.242 230.309 170.242 230.309 170.242C230.229 170.242 230.166 170.176 230.166 170.098C230.183 165.852 229.832 161.577 229.121 157.392C229.108 157.313 229.16 157.24 229.238 157.227C229.315 157.212 229.39 157.265 229.403 157.343C230.117 161.546 230.47 165.837 230.453 170.099C230.452 170.177 230.388 170.242 230.309 170.242Z" fill="#5D4989"/>
<path d="M135.705 113.101C135.695 113.101 135.685 113.1 135.675 113.097C131.661 112.21 127.553 111.566 123.465 111.184C123.386 111.176 123.328 111.107 123.336 111.028C123.343 110.949 123.414 110.888 123.492 110.899C127.592 111.282 131.711 111.928 135.736 112.817C135.814 112.835 135.863 112.911 135.845 112.988C135.831 113.056 135.771 113.101 135.705 113.101Z" fill="#5D4989"/>
<path d="M130.73 112.066C130.704 112.066 130.678 112.059 130.655 112.044L127.006 109.804C126.938 109.762 126.917 109.674 126.959 109.607C126.999 109.539 127.088 109.517 127.156 109.56L130.805 111.8C130.872 111.842 130.893 111.929 130.852 111.997C130.825 112.041 130.778 112.066 130.73 112.066Z" fill="#5D4989"/>
<path d="M232.303 168.844C232.242 168.844 232.185 168.804 232.166 168.742C231.594 166.828 230.849 164.95 229.953 163.16C229.918 163.089 229.946 163.003 230.017 162.968C230.087 162.933 230.173 162.962 230.209 163.031C231.113 164.837 231.864 166.73 232.441 168.66C232.464 168.735 232.421 168.815 232.345 168.838C232.331 168.842 232.317 168.844 232.303 168.844Z" fill="#5D4989"/>
<path d="M191.334 110.303L192.457 126.37C192.457 126.37 183.289 130.937 177.216 127.38L177.428 115.186L191.334 110.303Z" fill="#7D6DA1"/>
<path d="M177.29 123.128C185.35 122.444 188.183 118.045 188.183 118.045L177.365 118.807L177.29 123.128Z" fill="#6A5892"/>
<path d="M193.875 123.713L182.867 124.757L175.774 123.517C175.604 133.796 190.73 134.037 193.875 123.713Z" fill="#7D6DA1"/>
<path d="M192.138 114.295C195.084 112.833 197.46 110.259 198.682 107.206C199.853 104.28 200.093 101.211 200.191 98.0602C200.976 97.7635 201.386 96.8533 201.363 96.0147C201.34 95.1762 200.975 94.3898 200.618 93.6311C201.607 93.6121 202.424 92.7219 202.622 91.753C202.82 90.7835 202.517 89.7765 202.071 88.8939C201.034 86.8429 199.187 85.2164 197.021 84.4496C197.133 81.2514 195.6 78.0244 193.265 75.8364C192.24 74.8762 190.994 74.0952 189.607 73.8746C188.22 73.6539 186.685 74.0713 185.788 75.1522C183.884 73.404 181.205 72.5328 178.636 72.8268C176.068 73.1208 173.655 74.5745 172.195 76.7081C170.917 76.5407 169.78 76.8076 168.584 77.2891C167.388 77.7706 166.338 78.6808 165.838 79.8694C165.338 81.0579 165.45 82.5214 166.25 83.5333C164.734 84.7729 163.653 86.8543 163.486 88.8048C163.318 90.7557 163.972 92.7638 165.254 94.2431C165.834 97.576 167.024 100.727 168.511 103.766C172.306 111.526 183.565 113.23 192.138 114.295Z" fill="#604D8B"/>
<path d="M175.073 83.5277C190.075 81.6669 197.951 88.8834 196.681 102.897C195.67 114.053 189.192 120.994 178.646 121.028C168.931 121.059 167.353 113.13 167.222 104.812C167.035 92.9538 166.165 84.6331 175.073 83.5277Z" fill="#9183AF"/>
<path d="M167.13 90.0187C167.222 90.4089 167.565 90.7024 167.943 90.8361C168.32 90.9697 168.731 90.9687 169.131 90.9485C171.736 90.8176 174.297 89.9247 176.419 88.4085C176.032 89.0166 176.377 89.8769 176.975 90.2801C177.572 90.6833 178.332 90.7415 179.052 90.7518C181.354 90.7855 183.661 90.4622 185.864 89.797C185.489 90.5752 186.046 91.5485 186.826 91.9202C187.607 92.292 188.518 92.2191 189.375 92.105C188.951 93.5283 189.173 95.1576 189.742 96.5298C190.311 97.902 191.362 99.0682 192.669 99.7747C192.275 101.254 192.497 102.888 193.272 104.208C194.047 105.529 195.364 106.519 196.848 106.897C197.277 102.932 197.675 98.9329 196.82 95.0358C195.966 91.1393 193.981 87.3737 190.76 85.0206C187.919 82.9452 184.336 82.1093 180.822 81.9387C177.876 81.7958 174.835 82.1088 172.205 83.4408C169.573 84.7733 166.451 87.1493 167.13 90.0187Z" fill="#604D8B"/>
<path d="M167.883 99.897C167.883 99.897 171.318 98.252 173.66 98.0134C171.963 96.6782 168.975 98.4123 167.883 99.897Z" fill="#604D8B"/>
<path d="M185.44 99.9992C185.44 99.9992 182.069 98.2265 179.738 97.8998C181.484 96.6298 184.405 98.4748 185.44 99.9992Z" fill="#604D8B"/>
<path d="M172.493 104.617C172.493 105.361 172.004 105.964 171.4 105.964C170.796 105.964 170.307 105.361 170.307 104.617C170.307 103.873 170.796 103.27 171.4 103.27C172.004 103.27 172.493 103.873 172.493 104.617Z" fill="#604D8B"/>
<path d="M171.4 104.127C171.4 104.367 171.247 104.561 171.057 104.561C170.867 104.561 170.714 104.367 170.714 104.127C170.714 103.888 170.867 103.693 171.057 103.693C171.247 103.693 171.4 103.888 171.4 104.127Z" fill="white"/>
<path d="M183.072 104.617C183.072 105.361 182.582 105.964 181.978 105.964C181.374 105.964 180.885 105.361 180.885 104.617C180.885 103.873 181.374 103.27 181.978 103.27C182.582 103.27 183.072 103.873 183.072 104.617Z" fill="#604D8B"/>
<path d="M181.978 104.127C181.978 104.367 181.825 104.561 181.635 104.561C181.446 104.561 181.292 104.367 181.292 104.127C181.292 103.888 181.446 103.693 181.635 103.693C181.825 103.693 181.978 103.888 181.978 104.127Z" fill="white"/>
<path d="M175.537 109.578C175.515 109.578 175.494 109.576 175.473 109.572C174.83 109.453 174.375 109.185 174.157 108.798C174.035 108.58 173.93 108.213 174.122 107.706C174.231 107.418 174.452 107.049 174.687 106.658C174.901 106.301 175.123 105.932 175.212 105.691C175.279 105.513 175.477 105.421 175.657 105.488C175.837 105.555 175.928 105.754 175.861 105.934C175.749 106.233 175.521 106.613 175.281 107.015C175.072 107.361 174.857 107.721 174.77 107.952C174.69 108.161 174.688 108.327 174.762 108.459C174.873 108.658 175.171 108.811 175.6 108.891C175.788 108.925 175.912 109.107 175.876 109.295C175.846 109.461 175.7 109.578 175.537 109.578Z" fill="#6A5892"/>
<path d="M179.913 111.891C178.496 111.437 176.973 111.382 175.511 111.735C175.295 111.787 175.223 111.984 175.263 112.152C175.306 112.331 175.468 112.48 175.697 112.427C177.018 112.108 178.408 112.16 179.717 112.579C179.756 112.592 179.793 112.598 179.83 112.598C179.909 112.598 179.981 112.571 180.04 112.516C180.136 112.429 180.182 112.282 180.153 112.15C180.126 112.025 180.039 111.931 179.913 111.891Z" fill="#6A5892"/>
<path d="M194.187 104.974C193.297 107.172 193.937 109.292 195.528 109.937C197.119 110.581 199.13 109.322 200.019 107.123C200.909 104.926 200.339 102.621 198.748 101.977C197.157 101.333 195.075 102.776 194.187 104.974Z" fill="#9183AF"/>
<path d="M195.721 107.808C195.579 107.808 195.445 107.721 195.394 107.578C195.33 107.398 195.424 107.2 195.604 107.136C195.958 107.009 196.35 106.674 196.373 106.236C196.382 106.064 196.318 105.896 196.242 105.701C196.168 105.508 196.085 105.29 196.069 105.04C196.04 104.582 196.219 104.103 196.549 103.76C196.97 103.323 197.52 103.109 198.021 103.192C198.857 103.327 199.293 104.14 199.293 104.873C199.293 105.064 199.138 105.22 198.946 105.22C198.755 105.22 198.6 105.064 198.6 104.873C198.6 104.444 198.358 103.948 197.911 103.875C197.581 103.821 197.242 104.039 197.049 104.24C196.851 104.446 196.744 104.728 196.761 104.997C196.769 105.141 196.827 105.292 196.889 105.453C196.979 105.687 197.081 105.953 197.064 106.273C197.024 107.031 196.419 107.58 195.837 107.788C195.799 107.801 195.759 107.808 195.721 107.808Z" fill="#6A5892"/>
<path d="M177.936 62.6325C171.701 61.3459 166.859 56.0973 166.462 49.5399L172.34 49.1843C172.346 49.3579 172.354 49.5313 172.365 49.7059C172.715 55.4909 174.961 60.3821 177.936 62.6325Z" fill="#FFE6B3"/>
<path d="M216.02 36.6467L212.524 9.76791C211.901 4.96538 207.664 1.46451 202.829 1.75698L97.3022 8.14027C91.9735 8.46261 88.0328 13.2307 88.7194 18.525L92.8455 50.33C93.4901 55.3002 97.9896 58.8448 102.972 58.3074L207.867 46.9979C213.006 46.4436 216.685 41.7721 216.02 36.6467ZM207.847 11.3277L208.259 35.0071C208.316 38.2417 205.928 41.0006 202.717 41.4072L103.587 53.9629C99.8949 54.4309 96.5971 51.6345 96.4542 47.9171L95.3711 19.7857C95.2403 16.3917 97.8089 13.4976 101.194 13.2233L200.994 5.11839C204.643 4.82193 207.783 7.6675 207.847 11.3277Z" fill="#FFE6B3"/>
<path d="M174.133 61.3719C167.899 60.0853 163.056 54.8367 162.66 48.2793L168.537 47.9237C168.544 48.0973 168.552 48.2707 168.563 48.4453C168.912 54.2303 171.159 59.1215 174.133 61.3719Z" fill="#FFCA5E"/>
<path d="M212.217 35.3863L208.722 8.50753C208.099 3.705 203.861 0.204135 199.026 0.496602L93.4999 6.8799C88.1711 7.20223 84.2304 11.9703 84.9171 17.2646L89.0431 49.0697C89.6878 54.0398 94.1872 57.5844 99.1701 57.047L204.065 45.7375C209.204 45.1832 212.882 40.5117 212.217 35.3863ZM204.044 10.0673L204.457 33.7467C204.514 36.9813 202.126 39.7402 198.915 40.1469L99.7842 52.7025C96.0926 53.1705 92.7947 50.3742 92.6518 46.6567L91.5687 18.5254C91.4379 15.1313 94.0065 12.2372 97.3919 11.9629L197.192 3.85802C200.84 3.56155 203.981 6.40713 204.044 10.0673Z" fill="#FFCA5E"/>
<path d="M110.959 23.0565C111.724 22.965 112.358 23.1242 112.863 23.5341C113.374 23.943 113.679 24.5595 113.778 25.3835L114.208 28.9811L112.332 29.2053L111.932 25.8615C111.884 25.4643 111.741 25.1717 111.502 24.9838C111.27 24.7878 110.97 24.7117 110.602 24.7557C110.234 24.7996 109.957 24.9447 109.77 25.1909C109.589 25.4289 109.523 25.7465 109.57 26.1438L109.97 29.4875L108.094 29.7117L107.694 26.368C107.647 25.9707 107.504 25.6782 107.265 25.4903C107.032 25.2942 106.732 25.2182 106.364 25.2621C105.997 25.3061 105.719 25.4512 105.532 25.6974C105.352 25.9354 105.285 26.253 105.333 26.6503L105.732 29.994L103.845 30.2195L103.109 24.0617L104.996 23.8362L105.089 24.6087C105.249 24.3283 105.475 24.0961 105.767 23.9121C106.057 23.7206 106.397 23.6016 106.787 23.555C107.251 23.4996 107.675 23.5497 108.059 23.7053C108.45 23.8599 108.771 24.1089 109.021 24.4521C109.194 24.0882 109.452 23.7776 109.794 23.5203C110.136 23.2629 110.525 23.1083 110.959 23.0565Z" fill="#6A5892"/>
<path d="M114.783 25.7782C114.707 25.1455 114.759 24.576 114.937 24.0697C115.122 23.5625 115.406 23.1555 115.787 22.8488C116.168 22.542 116.613 22.3583 117.12 22.2976C117.554 22.2458 117.944 22.2888 118.289 22.4266C118.641 22.5636 118.922 22.7651 119.133 23.0309L119.029 22.1591L120.916 21.9335L121.652 28.0913L119.765 28.3169L119.661 27.4451C119.511 27.754 119.281 28.0165 118.971 28.2326C118.669 28.4479 118.3 28.5814 117.866 28.6333C117.366 28.6931 116.895 28.6189 116.452 28.4106C116.008 28.195 115.636 27.8626 115.336 27.4134C115.043 26.956 114.858 26.4109 114.783 25.7782ZM119.397 25.238C119.341 24.7671 119.164 24.4114 118.866 24.1709C118.576 23.9294 118.244 23.8311 117.869 23.876C117.493 23.9208 117.19 24.0952 116.957 24.399C116.732 24.6947 116.647 25.0779 116.703 25.5487C116.759 26.0196 116.933 26.3794 117.224 26.6282C117.521 26.8688 117.857 26.9666 118.233 26.9218C118.608 26.8769 118.908 26.703 119.133 26.4C119.365 26.0962 119.453 25.7088 119.397 25.238Z" fill="#6A5892"/>
<path d="M125.533 27.717C124.996 27.7812 124.507 27.7464 124.065 27.6126C123.624 27.4788 123.263 27.2682 122.982 26.9809C122.701 26.6862 122.522 26.342 122.445 25.9482L124.31 25.7253C124.357 25.936 124.477 26.0971 124.67 26.2084C124.862 26.3197 125.087 26.36 125.345 26.3292C125.58 26.3011 125.755 26.2354 125.869 26.1322C125.99 26.0207 126.042 25.8914 126.025 25.7442C126.003 25.5677 125.896 25.4499 125.703 25.391C125.508 25.3247 125.199 25.2646 124.774 25.2109C124.321 25.1607 123.94 25.0979 123.633 25.0228C123.324 24.9402 123.049 24.7903 122.807 24.573C122.563 24.3484 122.417 24.0264 122.366 23.607C122.324 23.2539 122.382 22.9225 122.539 22.6127C122.702 22.2947 122.961 22.0286 123.316 21.8146C123.679 21.5996 124.121 21.4609 124.643 21.3985C125.416 21.3062 126.046 21.4249 126.533 21.7547C127.027 22.0837 127.345 22.5605 127.487 23.1853L125.744 23.3937C125.689 23.1839 125.573 23.0261 125.396 22.9204C125.227 22.8138 125.013 22.7758 124.756 22.8066C124.535 22.833 124.371 22.8974 124.264 22.9997C124.156 23.0947 124.111 23.2158 124.128 23.3629C124.149 23.5395 124.257 23.6609 124.452 23.7272C124.653 23.7926 124.958 23.8458 125.366 23.8866C125.836 23.9497 126.222 24.0231 126.523 24.1065C126.823 24.1825 127.095 24.3366 127.339 24.5686C127.59 24.7923 127.744 25.1171 127.803 25.5429C127.846 25.9034 127.781 26.2394 127.61 26.551C127.444 26.8543 127.18 27.1097 126.817 27.3173C126.461 27.524 126.033 27.6572 125.533 27.717Z" fill="#6A5892"/>
<path d="M134.75 24.9029L134.941 26.503L133.981 26.6178C133.297 26.6995 132.744 26.5977 132.322 26.3124C131.899 26.0197 131.642 25.4945 131.551 24.7367L131.259 22.2868L130.508 22.3765L130.321 20.8095L131.071 20.7198L130.892 19.219L132.779 18.9934L132.958 20.4943L134.194 20.3465L134.382 21.9136L133.146 22.0613L133.441 24.5332C133.463 24.7172 133.523 24.8443 133.621 24.9147C133.719 24.9851 133.871 25.0079 134.077 24.9833L134.75 24.9029Z" fill="#6A5892"/>
<path d="M141.417 22.5054C141.438 22.682 141.449 22.8672 141.45 23.0611L137.179 23.5716C137.255 23.9506 137.411 24.2304 137.649 24.4109C137.894 24.5831 138.174 24.6504 138.49 24.6126C138.961 24.5563 139.265 24.3185 139.401 23.8993L141.41 23.6592C141.355 24.0762 141.211 24.4628 140.977 24.819C140.751 25.1744 140.447 25.4682 140.064 25.7005C139.682 25.9327 139.24 26.0788 138.74 26.1386C138.137 26.2107 137.584 26.1461 137.082 25.9449C136.581 25.7437 136.169 25.4198 135.847 24.9732C135.525 24.5267 135.326 23.9834 135.249 23.3433C135.173 22.7033 135.235 22.1288 135.435 21.6198C135.643 21.1099 135.967 20.6981 136.407 20.3843C136.847 20.0706 137.372 19.8772 137.983 19.8042C138.579 19.733 139.123 19.7948 139.617 19.9895C140.11 20.1842 140.513 20.498 140.826 20.9307C141.146 21.3625 141.343 21.8874 141.417 22.5054ZM139.427 22.2396C139.388 21.9159 139.247 21.6716 139.003 21.5067C138.76 21.3418 138.472 21.2792 138.141 21.3187C137.825 21.3565 137.568 21.4806 137.369 21.6909C137.177 21.9003 137.076 22.1773 137.065 22.5219L139.427 22.2396Z" fill="#6A5892"/>
<path d="M149.906 18.4016C150.671 18.3101 151.306 18.4693 151.81 18.8792C152.321 19.2882 152.627 19.9046 152.725 20.7286L153.155 24.3262L151.279 24.5504L150.879 21.2066C150.832 20.8094 150.689 20.5168 150.45 20.329C150.217 20.1329 149.917 20.0568 149.549 20.1008C149.182 20.1447 148.904 20.2898 148.717 20.536C148.537 20.774 148.47 21.0916 148.518 21.4889L148.917 24.8326L147.041 25.0569L146.642 21.7131C146.594 21.3158 146.451 21.0233 146.212 20.8354C145.98 20.6393 145.68 20.5633 145.312 20.6072C144.944 20.6512 144.667 20.7963 144.48 21.0425C144.299 21.2805 144.233 21.5981 144.28 21.9954L144.68 25.3391L142.793 25.5646L142.057 19.4069L143.944 19.1813L144.036 19.9538C144.197 19.6735 144.423 19.4412 144.714 19.2572C145.004 19.0657 145.345 18.9467 145.735 18.9001C146.198 18.8447 146.622 18.8948 147.006 19.0504C147.398 19.205 147.719 19.454 147.969 19.7972C148.141 19.4333 148.399 19.1227 148.741 18.8654C149.084 18.6081 149.472 18.4535 149.906 18.4016Z" fill="#6A5892"/>
<path d="M163.927 16.7259C164.692 16.6344 165.326 16.7936 165.831 17.2035C166.342 17.6125 166.647 18.2289 166.746 19.0529L167.176 22.6505L165.3 22.8747L164.9 19.5309C164.852 19.1337 164.709 18.8411 164.47 18.6533C164.238 18.4572 163.938 18.3811 163.57 18.4251C163.202 18.469 162.925 18.6141 162.738 18.8603C162.557 19.0983 162.491 19.4159 162.538 19.8132L162.938 23.1569L161.062 23.3812L160.662 20.0374C160.615 19.6401 160.472 19.3476 160.233 19.1597C160 18.9636 159.7 18.8876 159.332 18.9315C158.965 18.9755 158.687 19.1206 158.5 19.3668C158.32 19.6048 158.253 19.9224 158.301 20.3197L158.7 23.6634L156.813 23.8889L156.077 17.7312L157.964 17.5056L158.057 18.2781C158.217 17.9977 158.443 17.7655 158.735 17.5815C159.025 17.39 159.365 17.271 159.755 17.2244C160.219 17.169 160.643 17.2191 161.027 17.3747C161.418 17.5293 161.739 17.7783 161.989 18.1215C162.162 17.7576 162.42 17.447 162.762 17.1897C163.104 16.9323 163.493 16.7777 163.927 16.7259Z" fill="#6A5892"/>
<path d="M173.84 15.6082L174.576 21.766L172.689 21.9915L172.589 21.1528C172.43 21.4479 172.195 21.6998 171.884 21.9086C171.58 22.1092 171.229 22.2332 170.832 22.2807C170.361 22.3369 169.933 22.2836 169.548 22.1207C169.162 21.9504 168.846 21.6785 168.6 21.305C168.354 20.9315 168.198 20.4762 168.134 19.9391L167.704 16.3415L169.58 16.1173L169.98 19.4611C170.029 19.8731 170.174 20.1803 170.415 20.3829C170.655 20.5855 170.956 20.6652 171.316 20.6221C171.684 20.5782 171.961 20.4294 172.147 20.1758C172.333 19.9223 172.402 19.5895 172.352 19.1775L171.953 15.8338L173.84 15.6082ZM171.902 14.284L169.376 15.7164L169.22 14.4143L171.727 12.8163L171.902 14.284Z" fill="#6A5892"/>
<path d="M178.447 21.3929C177.91 21.4571 177.421 21.4223 176.979 21.2885C176.538 21.1547 176.177 20.9441 175.896 20.6568C175.615 20.3621 175.436 20.0178 175.359 19.6241L177.224 19.4012C177.271 19.6119 177.391 19.7729 177.584 19.8842C177.776 19.9956 178.001 20.0358 178.259 20.0051C178.494 19.9769 178.669 19.9112 178.784 19.808C178.905 19.6965 178.956 19.5672 178.939 19.4201C178.918 19.2435 178.81 19.1258 178.617 19.0668C178.422 19.0005 178.113 18.9405 177.688 18.8867C177.235 18.8365 176.854 18.7738 176.547 18.6986C176.238 18.6161 175.963 18.4662 175.721 18.2489C175.477 18.0242 175.331 17.7022 175.281 17.2829C175.238 16.9298 175.296 16.5983 175.453 16.2885C175.616 15.9705 175.875 15.7045 176.23 15.4904C176.593 15.2755 177.035 15.1368 177.557 15.0744C178.33 14.982 178.96 15.1008 179.447 15.4306C179.941 15.7595 180.26 16.2364 180.401 16.8612L178.658 17.0695C178.603 16.8597 178.487 16.7019 178.31 16.5962C178.141 16.4896 177.927 16.4517 177.67 16.4825C177.449 16.5088 177.285 16.5732 177.178 16.6756C177.07 16.7706 177.025 16.8916 177.042 17.0388C177.063 17.2153 177.171 17.3368 177.366 17.4031C177.567 17.4685 177.872 17.5216 178.28 17.5624C178.75 17.6256 179.136 17.6989 179.437 17.7823C179.737 17.8584 180.009 18.0124 180.253 18.2444C180.504 18.4682 180.658 18.793 180.717 19.2188C180.76 19.5793 180.696 19.9153 180.524 20.2268C180.359 20.5301 180.094 20.7856 179.731 20.9932C179.375 21.1999 178.947 21.3331 178.447 21.3929Z" fill="#6A5892"/>
<path d="M182.221 13.9573C181.89 13.9968 181.607 13.9337 181.371 13.768C181.141 13.5939 181.009 13.3635 180.975 13.0766C180.939 12.7823 181.013 12.5272 181.196 12.3113C181.386 12.0871 181.646 11.9553 181.977 11.9157C182.301 11.877 182.578 11.9447 182.808 12.1187C183.044 12.2845 183.18 12.5145 183.215 12.8088C183.249 13.0957 183.171 13.3513 182.982 13.5754C182.799 13.7913 182.545 13.9186 182.221 13.9573ZM183.236 14.4852L183.972 20.643L182.085 20.8685L181.349 14.7108L183.236 14.4852Z" fill="#6A5892"/>
<path d="M184.596 17.4455C184.52 16.8055 184.582 16.2309 184.782 15.722C184.99 15.2121 185.31 14.8007 185.743 14.4878C186.183 14.1741 186.704 13.9811 187.308 13.909C188.08 13.8167 188.748 13.9421 189.311 14.2852C189.882 14.6274 190.292 15.1567 190.542 15.873L188.534 16.1131C188.308 15.6624 187.953 15.4661 187.467 15.5242C187.121 15.5655 186.862 15.7346 186.688 16.0314C186.514 16.3209 186.457 16.7158 186.516 17.216C186.576 17.7163 186.725 18.0902 186.964 18.3378C187.202 18.578 187.493 18.6775 187.839 18.6362C188.325 18.5781 188.624 18.3036 188.737 17.8125L190.745 17.5725C190.67 18.3128 190.395 18.9202 189.922 19.3946C189.449 19.869 188.83 20.1519 188.065 20.2434C187.461 20.3155 186.909 20.2509 186.407 20.0497C185.913 19.8476 185.505 19.5233 185.183 19.0767C184.868 18.6293 184.673 18.0856 184.596 17.4455Z" fill="#6A5892"/>
<path d="M191.277 16.6359C191.201 16.0032 191.252 15.4337 191.431 14.9274C191.616 14.4201 191.9 14.0132 192.281 13.7064C192.662 13.3997 193.106 13.216 193.614 13.1553C194.048 13.1034 194.438 13.1464 194.782 13.2843C195.135 13.4213 195.416 13.6227 195.627 13.8885L195.523 13.0167L197.41 12.7912L198.146 18.949L196.259 19.1745L196.155 18.3027C196.005 18.6116 195.775 18.8742 195.465 19.0903C195.163 19.3055 194.794 19.4391 194.36 19.491C193.86 19.5508 193.388 19.4765 192.946 19.2683C192.502 19.0527 192.13 18.7203 191.83 18.2711C191.537 17.8137 191.352 17.2686 191.277 16.6359ZM195.891 16.0956C195.834 15.6248 195.658 15.2691 195.36 15.0285C195.07 14.7871 194.738 14.6888 194.362 14.7337C193.987 14.7785 193.683 14.9529 193.451 15.2567C193.225 15.5523 193.141 15.9356 193.197 16.4064C193.253 16.8773 193.427 17.2371 193.718 17.4859C194.015 17.7264 194.351 17.8243 194.726 17.7794C195.102 17.7346 195.402 17.5607 195.627 17.2577C195.859 16.9538 195.947 16.5665 195.891 16.0956Z" fill="#6A5892"/>
<path d="M104.644 40.0826C104.568 39.4499 104.619 38.8804 104.797 38.374C104.983 37.8668 105.267 37.4598 105.648 37.1531C106.029 36.8464 106.473 36.6627 106.981 36.602C107.415 36.5501 107.805 36.5931 108.149 36.731C108.502 36.868 108.783 37.0694 108.994 37.3352L108.89 36.4634L110.777 36.2379L111.513 42.3957L109.626 42.6212L109.521 41.7494C109.372 42.0583 109.142 42.3208 108.832 42.537C108.529 42.7522 108.161 42.8858 107.727 42.9377C107.227 42.9974 106.755 42.9232 106.312 42.715C105.869 42.4994 105.497 42.167 105.197 41.7178C104.904 41.2603 104.719 40.7153 104.644 40.0826ZM109.258 39.5423C109.201 39.0715 109.025 38.7158 108.727 38.4752C108.437 38.2338 108.105 38.1355 107.729 38.1803C107.354 38.2252 107.05 38.3995 106.818 38.7034C106.592 38.999 106.507 39.3822 106.564 39.8531C106.62 40.3239 106.794 40.6838 107.084 40.9325C107.382 41.1731 107.718 41.271 108.093 41.2261C108.469 41.1813 108.769 41.0074 108.994 40.7044C109.226 40.4005 109.314 40.0132 109.258 39.5423Z" fill="#6A5892"/>
<path d="M115.691 41.9858C115.088 42.0579 114.528 41.9942 114.012 41.7947C113.503 41.5944 113.08 41.2718 112.744 40.827C112.414 40.3814 112.211 39.8385 112.135 39.1984C112.059 38.5657 112.132 37.9936 112.355 37.482C112.576 36.963 112.915 36.5458 113.369 36.2302C113.824 35.9147 114.353 35.7209 114.956 35.6488C115.56 35.5767 116.12 35.6404 116.636 35.8398C117.152 36.0393 117.579 36.3651 117.917 36.8172C118.253 37.262 118.46 37.8008 118.535 38.4335C118.611 39.0662 118.534 39.6424 118.305 40.1623C118.083 40.6739 117.741 41.0879 117.279 41.4043C116.824 41.7199 116.295 41.9137 115.691 41.9858ZM115.496 40.3525C115.857 40.3094 116.146 40.1405 116.365 39.8458C116.591 39.5502 116.674 39.1559 116.615 38.663C116.556 38.17 116.386 37.8061 116.104 37.5712C115.83 37.3353 115.512 37.2389 115.152 37.282C114.784 37.326 114.494 37.4949 114.283 37.7888C114.071 38.0753 113.995 38.4687 114.055 38.969C114.114 39.4619 114.277 39.8267 114.544 40.0634C114.818 40.2992 115.136 40.3956 115.496 40.3525Z" fill="#6A5892"/>
<path d="M124.802 39.0165L125.612 34.4648L127.621 34.2247L126.172 40.6437L123.843 40.922L120.922 35.0253L122.942 34.784L124.802 39.0165Z" fill="#6A5892"/>
<path d="M129.287 33.3763C128.956 33.4159 128.673 33.3528 128.437 33.187C128.207 33.013 128.075 32.7825 128.041 32.4956C128.005 32.2013 128.079 31.9462 128.262 31.7303C128.452 31.5062 128.712 31.3743 129.043 31.3348C129.367 31.2961 129.644 31.3637 129.874 31.5378C130.11 31.7035 130.246 31.9336 130.281 32.2279C130.315 32.5148 130.237 32.7703 130.048 32.9944C129.865 33.2103 129.611 33.3376 129.287 33.3763ZM130.302 33.9043L131.038 40.0621L129.151 40.2876L128.415 34.1298L130.302 33.9043Z" fill="#6A5892"/>
<path d="M134.964 37.8019L135.775 33.2502L137.783 33.0101L136.334 39.4291L134.006 39.7074L131.085 33.8107L133.104 33.5694L134.964 37.8019Z" fill="#6A5892"/>
<path d="M142.127 38.8263C141.524 38.8984 140.964 38.8347 140.448 38.6352C139.939 38.4349 139.516 38.1123 139.179 37.6675C138.85 37.2219 138.647 36.679 138.57 36.0389C138.495 35.4062 138.568 34.8341 138.79 34.3225C139.012 33.8035 139.35 33.3863 139.805 33.0707C140.26 32.7552 140.789 32.5614 141.392 32.4893C141.995 32.4172 142.555 32.4809 143.071 32.6803C143.588 32.8798 144.015 33.2056 144.352 33.6577C144.689 34.1025 144.895 34.6413 144.971 35.274C145.046 35.9067 144.97 36.4829 144.741 37.0028C144.518 37.5144 144.176 37.9284 143.714 38.2448C143.259 38.5604 142.73 38.7542 142.127 38.8263ZM141.932 37.193C142.292 37.1499 142.582 36.981 142.8 36.6863C143.026 36.3907 143.11 35.9964 143.051 35.5035C142.992 35.0105 142.821 34.6466 142.54 34.4117C142.265 34.1758 141.948 34.0794 141.587 34.1225C141.219 34.1665 140.93 34.3354 140.719 34.6293C140.507 34.9158 140.431 35.3092 140.49 35.8095C140.549 36.3024 140.712 36.6672 140.979 36.9039C141.254 37.1397 141.571 37.2361 141.932 37.193Z" fill="#6A5892"/>
<path d="M149.59 29.5619L150.566 37.7282L148.678 37.9537L147.702 29.7875L149.59 29.5619Z" fill="#6A5892"/>
<path d="M151.189 34.5196C151.113 33.8869 151.164 33.3174 151.343 32.8111C151.528 32.3039 151.812 31.8969 152.193 31.5902C152.574 31.2834 153.018 31.0997 153.526 31.0391C153.96 30.9872 154.35 31.0302 154.694 31.1681C155.047 31.3051 155.328 31.5065 155.539 31.7723L155.435 30.9005L157.322 30.6749L158.058 36.8327L156.171 37.0583L156.066 36.1865C155.917 36.4954 155.687 36.7579 155.377 36.974C155.074 37.1893 154.706 37.3228 154.272 37.3747C153.772 37.4345 153.3 37.3603 152.858 37.152C152.414 36.9364 152.042 36.604 151.742 36.1548C151.449 35.6974 151.264 35.1523 151.189 34.5196ZM155.803 33.9794C155.746 33.5085 155.57 33.1528 155.272 32.9123C154.982 32.6708 154.65 32.5725 154.274 32.6174C153.899 32.6622 153.595 32.8366 153.363 33.1404C153.137 33.4361 153.052 33.8193 153.109 34.2902C153.165 34.761 153.339 35.1208 153.629 35.3696C153.927 35.6102 154.263 35.708 154.638 35.6632C155.014 35.6183 155.314 35.4444 155.539 35.1414C155.771 34.8376 155.859 34.4502 155.803 33.9794ZM155.395 29.3494L152.869 30.7818L152.713 29.4797L155.219 27.8817L155.395 29.3494Z" fill="#6A5892"/>
<path d="M160.708 28.2219C161.495 28.1278 162.149 28.2586 162.669 28.6144C163.196 28.9692 163.505 29.5218 163.594 30.2722C163.677 30.9638 163.514 31.5318 163.104 31.9762C162.701 32.4124 162.129 32.6786 161.386 32.7748L161.43 33.609L159.775 33.8069L159.474 31.7609L160.136 31.6817C160.703 31.614 161.125 31.4927 161.402 31.3177C161.687 31.1419 161.808 30.8701 161.764 30.5022C161.733 30.2447 161.639 30.0508 161.482 29.9203C161.324 29.7899 161.121 29.7396 160.87 29.7695C160.606 29.8012 160.409 29.903 160.28 30.0751C160.151 30.2398 160.101 30.451 160.132 30.7084L158.355 30.9208C158.287 30.4738 158.331 30.0582 158.486 29.6739C158.649 29.2888 158.917 28.9695 159.289 28.716C159.669 28.4543 160.141 28.2896 160.708 28.2219ZM160.967 36.5745C160.636 36.6141 160.353 36.551 160.116 36.3852C159.887 36.2112 159.755 35.9807 159.72 35.6938C159.685 35.3995 159.759 35.1407 159.941 34.9175C160.131 34.6933 160.391 34.5615 160.722 34.5219C161.046 34.4832 161.323 34.5509 161.552 34.7249C161.789 34.8981 161.925 35.1318 161.961 35.426C161.995 35.713 161.917 35.9685 161.728 36.1926C161.545 36.4085 161.291 36.5358 160.967 36.5745Z" fill="#6A5892"/>
<path d="M28.5325 82.8454C28.5607 83.021 28.5792 83.2056 28.5879 83.3994L24.3414 84.0829C24.4319 84.4586 24.5997 84.7318 24.8448 84.9024C25.0961 85.0646 25.379 85.1204 25.6935 85.0698C26.1617 84.9944 26.4554 84.7445 26.5747 84.32L28.5718 83.9986C28.5341 84.4174 28.4059 84.8095 28.187 85.175C27.9755 85.5392 27.6833 85.8452 27.3104 86.0928C26.9375 86.3405 26.5023 86.5043 26.0049 86.5844C25.405 86.6809 24.8504 86.6389 24.3411 86.4582C23.8317 86.2775 23.407 85.9707 23.0671 85.5376C22.7273 85.1045 22.5061 84.5697 22.4037 83.9333C22.3012 83.2969 22.3397 82.7203 22.5192 82.2036C22.706 81.6858 23.0129 81.2611 23.4399 80.9297C23.8668 80.5983 24.3839 80.3838 24.991 80.286C25.5836 80.1907 26.1303 80.2302 26.6312 80.4048C27.1321 80.5793 27.5476 80.8764 27.8778 81.296C28.2154 81.7145 28.4336 82.2309 28.5325 82.8454ZM26.5328 82.6608C26.481 82.3389 26.33 82.1005 26.08 81.9456C25.8299 81.7908 25.5403 81.7398 25.2111 81.7928C24.8965 81.8435 24.6442 81.9779 24.4542 82.1961C24.2715 82.4131 24.1816 82.694 24.1846 83.0387L26.5328 82.6608Z" fill="#6A5892"/>
<path d="M34.8613 85.1588C34.3273 85.2447 33.837 85.2298 33.3906 85.1141C32.9442 84.9983 32.575 84.8026 32.283 84.5269C31.9898 84.2439 31.7967 83.9072 31.7039 83.5169L33.5583 83.2184C33.6144 83.427 33.7408 83.583 33.9376 83.6864C34.1343 83.7898 34.3607 83.8209 34.6168 83.7797C34.8508 83.742 35.023 83.6693 35.1332 83.5615C35.2496 83.4452 35.296 83.3139 35.2724 83.1676C35.2442 82.992 35.1321 82.8788 34.9363 82.8277C34.7393 82.7694 34.4277 82.722 34.0016 82.6855C33.5462 82.6537 33.1634 82.6065 32.8531 82.5439C32.5417 82.474 32.2604 82.3354 32.0094 82.1281C31.7573 81.9136 31.5976 81.5978 31.5305 81.1808C31.474 80.8297 31.5178 80.4962 31.6621 80.1803C31.8125 79.8559 32.0607 79.5795 32.4067 79.3512C32.76 79.1218 33.1964 78.9652 33.7157 78.8816C34.4838 78.758 35.1179 78.851 35.6181 79.1607C36.1255 79.4693 36.4628 79.9328 36.6299 80.5513L34.8962 80.8304C34.8328 80.623 34.7106 80.47 34.5297 80.3716C34.356 80.272 34.1412 80.2428 33.8852 80.284C33.6657 80.3193 33.5045 80.3903 33.4016 80.4969C33.2975 80.5962 33.2573 80.719 33.2808 80.8653C33.3091 81.0409 33.4217 81.1578 33.6187 81.2162C33.8231 81.2733 34.1298 81.314 34.5389 81.3382C35.0113 81.3822 35.3996 81.4398 35.7037 81.5109C36.0067 81.5747 36.2848 81.7176 36.5382 81.9395C36.7977 82.1529 36.9652 82.4711 37.0408 82.8942C37.0985 83.2527 37.0479 83.591 36.889 83.9093C36.7363 84.219 36.4826 84.485 36.1282 84.7072C35.781 84.9282 35.3587 85.0787 34.8613 85.1588Z" fill="#6A5892"/>
<path d="M43.7379 80.3978C43.7661 80.5733 43.7846 80.758 43.7933 80.9517L39.5468 81.6353C39.6373 82.011 39.8051 82.2841 40.0502 82.4548C40.3015 82.617 40.5844 82.6728 40.8989 82.6221C41.3671 82.5468 41.6608 82.2969 41.7801 81.8724L43.7771 81.5509C43.7395 81.9698 43.6113 82.3619 43.3924 82.7273C43.1809 83.0916 42.8887 83.3975 42.5158 83.6452C42.1429 83.8928 41.7077 84.0567 41.2103 84.1367C40.6104 84.2333 40.0558 84.1912 39.5464 84.0106C39.037 83.8299 38.6124 83.523 38.2725 83.0899C37.9326 82.6568 37.7115 82.1221 37.609 81.4857C37.5066 80.8492 37.5451 80.2727 37.7246 79.756C37.9114 79.2381 38.2183 78.8135 38.6452 78.4821C39.0722 78.1507 39.5893 77.9361 40.1964 77.8384C40.7889 77.743 41.3356 77.7826 41.8365 77.9571C42.3374 78.1317 42.753 78.4287 43.0832 78.8484C43.4207 79.2668 43.6389 79.7833 43.7379 80.3978ZM41.7382 80.2131C41.6863 79.8912 41.5354 79.6529 41.2853 79.498C41.0353 79.3431 40.7456 79.2922 40.4164 79.3452C40.1019 79.3958 39.8496 79.5302 39.6596 79.7485C39.4769 79.9655 39.387 80.2464 39.39 80.5911L41.7382 80.2131Z" fill="#6A5892"/>
<path d="M46.2914 77.9942C46.4567 77.6224 46.6886 77.3149 46.9872 77.0717C47.2846 76.8212 47.6345 76.6636 48.0368 76.5988L48.3565 78.5849L47.8408 78.6679C47.3726 78.7433 47.038 78.9022 46.8368 79.1447C46.6346 79.3799 46.574 79.7499 46.6553 80.2546L47.1128 83.0966L45.2364 83.3986L44.2508 77.2758L46.1272 76.9738L46.2914 77.9942Z" fill="#6A5892"/>
<path d="M49.0622 79.6308C48.9609 79.0017 48.9891 78.4305 49.1466 77.9174C49.3115 77.403 49.5781 76.9849 49.9466 76.6629C50.315 76.3409 50.7516 76.1393 51.2563 76.0581C51.6879 75.9886 52.0788 76.0157 52.4289 76.1395C52.7864 76.2621 53.0758 76.4519 53.2973 76.7089L53.1578 75.842L55.0341 75.54L56.0197 81.6628L54.1434 81.9648L54.0038 81.098C53.8669 81.4127 53.6479 81.6844 53.347 81.9129C53.0534 82.1403 52.6908 82.2887 52.2592 82.3582C51.7618 82.4383 51.2876 82.3832 50.8368 82.1932C50.3847 81.9958 49.9997 81.6787 49.6818 81.2421C49.37 80.797 49.1635 80.2599 49.0622 79.6308ZM53.6506 78.9034C53.5752 78.4353 53.3841 78.087 53.0771 77.8588C52.7775 77.6293 52.4412 77.5446 52.0681 77.6047C51.6951 77.6647 51.3986 77.8513 51.1789 78.1643C50.9652 78.4689 50.8961 78.8553 50.9715 79.3234C51.0468 79.7916 51.2349 80.1441 51.5357 80.3808C51.8426 80.6091 52.1826 80.6932 52.5556 80.6332C52.9287 80.5731 53.2215 80.3871 53.4339 80.0753C53.6537 79.7622 53.7259 79.3716 53.6506 78.9034ZM53.0549 74.2939L50.5889 75.8278L50.3804 74.533L52.82 72.8345L53.0549 74.2939Z" fill="#6A5892"/>
<path d="M33.7726 95.2818C33.6748 94.6747 33.712 94.1133 33.8842 93.5978C34.0637 93.0811 34.3444 92.6569 34.7263 92.3253C35.1143 91.9852 35.5607 91.7745 36.0654 91.6932C36.4531 91.6308 36.8118 91.6444 37.1414 91.7339C37.4698 91.8161 37.7486 91.9626 37.9776 92.1734L37.8646 91.4712L39.7409 91.1691L41.1964 100.211L39.32 100.513L38.7266 96.8259C38.5556 97.116 38.3289 97.3627 38.0464 97.5657C37.7712 97.7676 37.4398 97.8998 37.0521 97.9622C36.5546 98.0423 36.0726 97.9848 35.6059 97.7897C35.1392 97.5947 34.7396 97.28 34.407 96.8457C34.0818 96.4103 33.8703 95.889 33.7726 95.2818ZM38.3574 94.5326C38.3044 94.2034 38.1944 93.9396 38.0274 93.7414C37.8666 93.5346 37.6749 93.3929 37.4524 93.3161C37.2287 93.2321 37.0035 93.2083 36.7767 93.2448C36.5573 93.2801 36.3546 93.3728 36.1686 93.5228C35.9814 93.6655 35.8403 93.8608 35.7451 94.1088C35.6499 94.3567 35.6288 94.6453 35.6818 94.9745C35.7348 95.3037 35.8454 95.5711 36.0136 95.7766C36.1806 95.9749 36.3759 96.1161 36.5996 96.2001C36.822 96.2769 37.043 96.2976 37.2625 96.2623C37.4819 96.227 37.6852 96.1379 37.8724 95.9952C38.0657 95.8441 38.2063 95.6451 38.2941 95.3983C38.3893 95.1503 38.4104 94.8617 38.3574 94.5326Z" fill="#6A5892"/>
<path d="M47.1444 89.9774L48.13 96.1002L46.2536 96.4022L46.1194 95.5683C45.9728 95.8696 45.7484 96.1308 45.4463 96.352C45.1503 96.5648 44.8048 96.703 44.4098 96.7665C43.9417 96.8419 43.5119 96.806 43.1204 96.6589C42.7279 96.5045 42.401 96.2456 42.1399 95.8824C41.8788 95.5192 41.7053 95.0706 41.6193 94.5366L41.0435 90.9594L42.9089 90.6592L43.4441 93.9839C43.51 94.3936 43.6673 94.6947 43.9159 94.8873C44.1646 95.0799 44.4681 95.1474 44.8266 95.0897C45.1923 95.0308 45.463 94.8709 45.6387 94.61C45.8143 94.3491 45.8692 94.0138 45.8032 93.6042L45.268 90.2794L47.1444 89.9774Z" fill="#6A5892"/>
<path d="M54.7407 91.794C54.7689 91.9696 54.7874 92.1542 54.7961 92.3479L50.5496 93.0315C50.6401 93.4072 50.8079 93.6803 51.053 93.851C51.3043 94.0132 51.5872 94.069 51.9017 94.0183C52.3699 93.943 52.6636 93.6931 52.7829 93.2686L54.78 92.9471C54.7423 93.366 54.6141 93.7581 54.3952 94.1235C54.1837 94.4878 53.8915 94.7937 53.5186 95.0414C53.1457 95.289 52.7105 95.4529 52.2131 95.533C51.6132 95.6295 51.0586 95.5875 50.5492 95.4068C50.0399 95.2261 49.6152 94.9192 49.2753 94.4861C48.9355 94.0531 48.7143 93.5183 48.6118 92.8819C48.5094 92.2455 48.5479 91.6689 48.7274 91.1522C48.9142 90.6343 49.2211 90.2097 49.6481 89.8783C50.075 89.5469 50.5921 89.3323 51.1992 89.2346C51.7918 89.1392 52.3385 89.1788 52.8394 89.3533C53.3402 89.5279 53.7558 89.8249 54.086 90.2446C54.4235 90.6631 54.6418 91.1795 54.7407 91.794ZM52.741 91.6093C52.6892 91.2875 52.5382 91.0491 52.2881 90.8942C52.0381 90.7394 51.7484 90.6884 51.4193 90.7414C51.1047 90.792 50.8524 90.9265 50.6624 91.1447C50.4797 91.3617 50.3898 91.6426 50.3928 91.9873L52.741 91.6093Z" fill="#6A5892"/>
<path d="M61.7209 92.2801L61.977 93.8712L61.0224 94.0248C60.3421 94.1344 59.7852 94.0551 59.3519 93.7872C58.9173 93.5119 58.6394 92.9976 58.5181 92.2441L58.126 89.8081L57.3798 89.9283L57.129 88.3701L57.8752 88.25L57.635 86.7577L59.5113 86.4557L59.7515 87.948L60.9805 87.7502L61.2313 89.3083L60.0023 89.5061L60.398 91.964C60.4274 92.1469 60.4925 92.2715 60.5932 92.3378C60.694 92.4042 60.8468 92.4208 61.0516 92.3879L61.7209 92.2801Z" fill="#6A5892"/>
<path d="M62.1545 90.6906C62.0533 90.0615 62.0814 89.4904 62.239 88.9772C62.4038 88.4629 62.6705 88.0447 63.0389 87.7227C63.4073 87.4008 63.8439 87.1992 64.3487 87.1179C64.7803 87.0484 65.1711 87.0756 65.5213 87.1993C65.8787 87.3219 66.1682 87.5117 66.3896 87.7687L66.2501 86.9019L68.1265 86.5999L69.112 92.7226L67.2357 93.0247L67.0962 92.1578C66.9592 92.4726 66.7403 92.7442 66.4394 92.9728C66.1458 93.2001 65.7832 93.3486 65.3516 93.418C64.8541 93.4981 64.38 93.4431 63.9291 93.253C63.4771 93.0556 63.0921 92.7386 62.7741 92.302C62.4623 91.8568 62.2558 91.3197 62.1545 90.6906ZM66.7429 89.9633C66.6675 89.4951 66.4764 89.1469 66.1695 88.9186C65.8699 88.6892 65.5336 88.6045 65.1605 88.6645C64.7874 88.7246 64.491 88.9111 64.2712 89.2242C64.0576 89.5288 63.9884 89.9151 64.0638 90.3833C64.1392 90.8515 64.3272 91.2039 64.628 91.4407C64.9349 91.669 65.2749 91.7531 65.648 91.693C66.0211 91.633 66.3138 91.447 66.5263 91.1351C66.7461 90.8221 66.8183 90.4315 66.7429 89.9633ZM66.1472 85.3537L63.6812 86.8876L63.4728 85.5929L65.9123 83.8943L66.1472 85.3537Z" fill="#6A5892"/>
<path d="M45.1362 106.597C45.0349 105.968 45.063 105.397 45.2206 104.884C45.3854 104.37 45.6521 103.952 46.0205 103.63C46.389 103.308 46.8256 103.106 47.3303 103.025C47.7619 102.955 48.1528 102.982 48.5029 103.106C48.8603 103.229 49.1498 103.419 49.3713 103.676L49.2317 102.809L51.1081 102.507L52.0937 108.629L50.2173 108.932L50.0778 108.065C49.9408 108.379 49.7219 108.651 49.421 108.88C49.1274 109.107 48.7648 109.255 48.3332 109.325C47.8358 109.405 47.3616 109.35 46.9107 109.16C46.4587 108.962 46.0737 108.645 45.7558 108.209C45.444 107.764 45.2374 107.227 45.1362 106.597ZM49.7245 105.87C49.6492 105.402 49.458 105.054 49.1511 104.825C48.8515 104.596 48.5152 104.511 48.1421 104.571C47.769 104.631 47.4726 104.818 47.2528 105.131C47.0392 105.436 46.9701 105.822 47.0454 106.29C47.1208 106.758 47.3089 107.111 47.6096 107.348C47.9165 107.576 48.2565 107.66 48.6296 107.6C49.0027 107.54 49.2955 107.354 49.5079 107.042C49.7277 106.729 49.7999 106.338 49.7245 105.87Z" fill="#6A5892"/>
<path d="M54.4814 102.853C54.611 102.539 54.8263 102.268 55.1272 102.04C55.4282 101.811 55.7908 101.663 56.215 101.595C56.7198 101.513 57.1976 101.568 57.6484 101.758C58.0993 101.948 58.4801 102.262 58.7907 102.7C59.1086 103.136 59.3182 103.669 59.4195 104.298C59.5208 104.927 59.4896 105.503 59.3259 106.024C59.1683 106.538 58.9059 106.959 58.5387 107.288C58.1702 107.61 57.7336 107.812 57.2289 107.893C56.7973 107.962 56.407 107.939 56.0581 107.822C55.708 107.699 55.4185 107.509 55.1897 107.253L55.3275 108.109L53.4511 108.411L52.1441 100.291L54.0204 99.9891L54.4814 102.853ZM57.5102 104.606C57.4349 104.137 57.2443 103.793 56.9386 103.572C56.639 103.342 56.299 103.258 55.9186 103.32C55.5455 103.38 55.2491 103.566 55.0293 103.879C54.8169 104.191 54.7483 104.581 54.8237 105.049C54.899 105.517 55.0865 105.866 55.3861 106.096C55.693 106.324 56.033 106.408 56.4061 106.348C56.7792 106.288 57.0756 106.101 57.2954 105.788C57.514 105.468 57.5856 105.074 57.5102 104.606Z" fill="#6A5892"/>
<path d="M66.1614 103.123C66.1897 103.298 66.2081 103.483 66.2168 103.677L61.9703 104.36C62.0608 104.736 62.2286 105.009 62.4737 105.18C62.725 105.342 63.0079 105.398 63.3224 105.347C63.7906 105.272 64.0844 105.022 64.2036 104.598L66.2007 104.276C66.163 104.695 66.0348 105.087 65.8159 105.452C65.6044 105.817 65.3122 106.123 64.9393 106.37C64.5664 106.618 64.1312 106.782 63.6338 106.862C63.034 106.958 62.4793 106.916 61.97 106.736C61.4606 106.555 61.0359 106.248 60.6961 105.815C60.3562 105.382 60.135 104.847 60.0326 104.211C59.9301 103.574 59.9686 102.998 60.1481 102.481C60.3349 101.963 60.6418 101.539 61.0688 101.207C61.4957 100.876 62.0128 100.661 62.6199 100.564C63.2125 100.468 63.7592 100.508 64.2601 100.682C64.761 100.857 65.1765 101.154 65.5067 101.574C65.8443 101.992 66.0625 102.508 66.1614 103.123ZM64.1617 102.938C64.1099 102.616 63.9589 102.378 63.7089 102.223C63.4588 102.068 63.1692 102.017 62.84 102.07C62.5254 102.121 62.2731 102.255 62.0831 102.474C61.9004 102.691 61.8106 102.972 61.8135 103.316L64.1617 102.938Z" fill="#6A5892"/>
<path d="M68.715 100.719C68.8802 100.348 69.1122 100.04 69.4107 99.7969C69.7081 99.5464 70.058 99.3887 70.4603 99.324L70.78 101.31L70.2643 101.393C69.7961 101.468 69.4615 101.627 69.2604 101.87C69.0581 102.105 68.9976 102.475 69.0788 102.98L69.5363 105.822L67.6599 106.124L66.6744 100.001L68.5507 99.6989L68.715 100.719Z" fill="#6A5892"/>
<path d="M75.5098 103.228L75.7659 104.819L74.8113 104.973C74.1309 105.082 73.5741 105.003 73.1407 104.735C72.7062 104.46 72.4282 103.945 72.307 103.192L71.9148 100.756L71.1687 100.876L70.9179 99.3179L71.664 99.1978L71.4238 97.7055L73.3002 97.4034L73.5404 98.8957L74.7693 98.6979L75.0201 100.256L73.7912 100.454L74.1868 102.912C74.2163 103.095 74.2814 103.219 74.3821 103.286C74.4828 103.352 74.6356 103.369 74.8404 103.336L75.5098 103.228Z" fill="#6A5892"/>
<path d="M79.6122 104.29C79.0124 104.386 78.4505 104.345 77.9265 104.167C77.4098 103.988 76.9741 103.683 76.6196 103.252C76.2724 102.82 76.0476 102.286 75.9452 101.649C75.8439 101.02 75.894 100.446 76.0954 99.9253C76.2957 99.3978 76.6166 98.9671 77.0582 98.6334C77.4998 98.2996 78.0205 98.0845 78.6203 97.9879C79.2202 97.8914 79.7821 97.9323 80.3061 98.1106C80.8301 98.2889 81.27 98.5971 81.6257 99.0351C81.9802 99.4659 82.2081 99.9958 82.3094 100.625C82.4106 101.254 82.3575 101.833 82.1499 102.362C81.9485 102.882 81.6233 103.309 81.1744 103.644C80.7328 103.978 80.2121 104.193 79.6122 104.29ZM79.3508 102.666C79.7093 102.608 79.9917 102.428 80.198 102.124C80.4116 101.82 80.479 101.422 80.4001 100.932C80.3212 100.442 80.1362 100.085 79.8451 99.8621C79.5613 99.6376 79.2402 99.5542 78.8817 99.6119C78.516 99.6708 78.2336 99.8513 78.0346 100.154C77.8344 100.448 77.7743 100.845 77.8544 101.342C77.9333 101.832 78.111 102.19 78.3875 102.416C78.6713 102.64 78.9924 102.724 79.3508 102.666Z" fill="#6A5892"/>
<path d="M84.7382 95.0331C85.5209 94.9072 86.1793 95.0113 86.7134 95.3456C87.2548 95.6787 87.5856 96.2183 87.7057 96.9645C87.8164 97.6521 87.6762 98.2263 87.2851 98.687C86.9001 99.1392 86.3387 99.4284 85.6011 99.5547L85.6787 100.386L84.0328 100.651L83.6494 98.6193L84.3078 98.5133C84.871 98.4227 85.2878 98.2843 85.558 98.0982C85.8356 97.9109 85.9449 97.6344 85.886 97.2686C85.8448 97.0126 85.7429 96.8226 85.5804 96.6987C85.4178 96.5748 85.2122 96.5328 84.9635 96.5729C84.7002 96.6153 84.5077 96.725 84.3861 96.9022C84.2634 97.0721 84.2226 97.285 84.2638 97.541L82.4972 97.8254C82.4107 97.3815 82.4374 96.9645 82.5772 96.5742C82.7244 96.1828 82.9789 95.8529 83.341 95.5845C83.7092 95.3076 84.1749 95.1238 84.7382 95.0331ZM85.3369 103.368C85.0077 103.421 84.7218 103.37 84.479 103.214C84.2424 103.049 84.1011 102.824 84.0552 102.539C84.0081 102.246 84.0711 101.985 84.2441 101.754C84.4244 101.523 84.6792 101.38 85.0084 101.327C85.3303 101.276 85.6095 101.332 85.8461 101.496C86.0901 101.66 86.2356 101.888 86.2827 102.18C86.3286 102.466 86.2614 102.724 86.081 102.956C85.9068 103.179 85.6588 103.316 85.3369 103.368Z" fill="#6A5892"/>
<path d="M126.543 146.205C120.289 145.759 114.392 149.783 112.697 156.065L119.559 157.917C120.911 152.906 123.501 148.765 126.543 146.205Z" fill="#FFE6B3"/>
<path d="M132.858 193.848L124.076 160.357C123.021 156.327 119.138 153.878 115.306 154.824L44.0433 172.411C40.2846 173.338 37.894 177.211 38.5936 181.245L43.7376 210.853C44.4674 215.056 48.2744 217.873 52.2426 217.147L105.93 207.324C105.93 207.324 105.954 207.32 105.999 207.312C106.018 207.31 106.038 207.304 106.06 207.301C106.075 207.297 106.09 207.294 106.107 207.292C106.135 207.286 106.167 207.281 106.201 207.274C106.236 207.267 106.271 207.262 106.312 207.254C106.337 207.25 106.364 207.244 106.393 207.239C106.435 207.232 106.478 207.224 106.524 207.216C106.652 207.192 106.796 207.166 106.958 207.135C107.022 207.124 107.087 207.112 107.156 207.1L107.163 207.099C107.265 207.078 107.375 207.059 107.489 207.039C107.567 207.024 107.646 207.009 107.728 206.995C107.809 206.98 107.893 206.965 107.979 206.949C108.108 206.924 108.241 206.9 108.379 206.876C108.426 206.866 108.473 206.858 108.519 206.85C108.754 206.807 109.002 206.761 109.257 206.715C109.462 206.677 109.674 206.638 109.891 206.599C112.874 206.054 116.876 205.321 119.446 204.851C119.54 204.833 119.631 204.817 119.722 204.8C119.946 204.759 120.157 204.72 120.354 204.685C120.433 204.67 120.509 204.655 120.583 204.643C120.694 204.623 120.8 204.603 120.899 204.585C120.967 204.573 121.031 204.561 121.091 204.55C121.214 204.527 121.327 204.507 121.426 204.488C121.55 204.465 121.656 204.446 121.744 204.43C121.762 204.427 121.781 204.423 121.799 204.421C121.826 204.415 121.851 204.411 121.873 204.407C121.936 204.395 121.976 204.388 121.993 204.384L127.142 203.443C131.362 202.671 134.01 198.231 132.858 193.848ZM119.741 199.55L55.9755 207.859C53.3126 208.205 50.7828 206.023 50.2317 202.902L46.5653 182.167C45.9952 178.94 47.7452 175.909 50.4759 175.398L113.436 163.607C116.15 163.099 118.813 165.27 119.404 168.474L123.874 192.691C124.494 196.042 122.603 199.176 119.741 199.55Z" fill="#FFE6B3"/>
<path d="M124.657 144.759C118.403 144.313 112.506 148.337 110.811 154.619L117.673 156.471C119.025 151.46 121.615 147.319 124.657 144.759Z" fill="#FFCA5E"/>
<path d="M129.621 191.297L120.839 157.806C119.784 153.777 115.901 151.327 112.069 152.274L40.8063 169.861C37.0476 170.787 34.6569 174.661 35.3566 178.694L40.5005 208.303C41.2303 212.505 45.0374 215.323 49.0056 214.597L102.693 204.773C102.693 204.773 102.716 204.769 102.762 204.761C102.781 204.759 102.801 204.754 102.822 204.75C102.838 204.747 102.853 204.743 102.87 204.742C102.898 204.735 102.93 204.73 102.964 204.724C102.999 204.717 103.034 204.711 103.075 204.704C103.1 204.699 103.127 204.693 103.155 204.689C103.198 204.681 103.241 204.673 103.287 204.665C103.415 204.642 103.559 204.615 103.721 204.585C103.785 204.573 103.85 204.561 103.919 204.549L103.926 204.549C104.028 204.528 104.138 204.508 104.252 204.488C104.33 204.473 104.409 204.458 104.491 204.445C104.572 204.43 104.656 204.414 104.742 204.399C104.871 204.374 105.004 204.35 105.142 204.326C105.189 204.316 105.236 204.307 105.282 204.299C105.517 204.257 105.764 204.211 106.02 204.164C106.225 204.126 106.437 204.088 106.654 204.048C109.637 203.503 113.639 202.771 116.209 202.3C116.303 202.282 116.394 202.266 116.485 202.25C116.708 202.208 116.92 202.17 117.117 202.134C117.196 202.119 117.272 202.105 117.346 202.092C117.457 202.072 117.563 202.053 117.662 202.034C117.73 202.022 117.794 202.011 117.854 201.999C117.977 201.976 118.09 201.956 118.189 201.938C118.313 201.915 118.419 201.896 118.507 201.88C118.525 201.876 118.544 201.873 118.562 201.871C118.589 201.865 118.614 201.86 118.636 201.856C118.699 201.845 118.739 201.837 118.756 201.834L123.905 200.892C128.125 200.12 130.773 195.68 129.621 191.297ZM116.504 197L52.7385 205.309C50.0756 205.654 47.5457 203.472 46.9946 200.351L43.3282 179.616C42.7582 176.389 44.5082 173.359 47.2388 172.847L110.199 161.057C112.913 160.549 115.575 162.72 116.167 165.923L120.637 190.14C121.257 193.491 119.366 196.626 116.504 197Z" fill="#FFCA5E"/>
<path d="M61.84 186.311C61.2607 186.398 60.7194 186.352 60.2162 186.175C59.72 185.996 59.3033 185.697 58.9662 185.278C58.6362 184.858 58.4252 184.341 58.3333 183.726C58.2425 183.119 58.297 182.565 58.4968 182.066C58.6955 181.559 59.0095 181.148 59.4388 180.831C59.8681 180.514 60.3724 180.312 60.9517 180.225C61.531 180.139 62.0723 180.184 62.5755 180.362C63.0788 180.539 63.4995 180.841 63.8376 181.267C64.1747 181.686 64.3887 182.2 64.4796 182.807C64.5704 183.415 64.5129 183.972 64.3071 184.48C64.1073 184.979 63.7892 185.388 63.3529 185.706C62.9236 186.023 62.4193 186.225 61.84 186.311ZM61.6055 184.743C61.9516 184.691 62.2258 184.52 62.428 184.23C62.6372 183.939 62.7065 183.556 62.6357 183.083C62.5649 182.61 62.3904 182.264 62.1122 182.045C61.841 181.826 61.5324 181.742 61.1862 181.794C60.833 181.847 60.5588 182.018 60.3637 182.307C60.1675 182.589 60.1054 182.97 60.1772 183.451C60.248 183.924 60.4154 184.271 60.6795 184.491C60.9506 184.711 61.2593 184.795 61.6055 184.743Z" fill="#6A5892"/>
<path d="M68.5923 179.105C69.2846 179.001 69.8695 179.145 70.3468 179.536C70.8302 179.919 71.1305 180.502 71.2477 181.286L71.7643 184.741L69.9628 185.01L69.4827 181.799C69.4235 181.404 69.2752 181.112 69.0375 180.923C68.7999 180.735 68.508 180.667 68.1619 180.718C67.8157 180.77 67.5565 180.921 67.3844 181.17C67.2123 181.42 67.1558 181.743 67.215 182.138L67.695 185.349L65.8829 185.62L64.9988 179.707L66.8109 179.436L66.9282 180.22C67.0728 179.931 67.2894 179.69 67.5781 179.495C67.8657 179.293 68.2038 179.163 68.5923 179.105Z" fill="#6A5892"/>
<path d="M72.2195 181.639C72.1287 181.032 72.162 180.481 72.3194 179.988C72.4839 179.494 72.7454 179.094 73.1041 178.788C73.4627 178.481 73.8858 178.292 74.3733 178.219C74.7618 178.161 75.1272 178.189 75.4694 178.304C75.8187 178.418 76.1057 178.599 76.3306 178.847L75.9202 176.102L77.7323 175.831L78.9048 183.673L77.0927 183.944L76.966 183.096C76.8387 183.404 76.6287 183.667 76.3362 183.884C76.0507 184.1 75.6995 184.239 75.2827 184.301C74.7952 184.374 74.3352 184.317 73.9026 184.129C73.469 183.933 73.1013 183.624 72.7995 183.199C72.5037 182.767 72.3104 182.247 72.2195 181.639ZM76.6507 180.988C76.5831 180.535 76.4026 180.198 76.1091 179.974C75.8228 179.75 75.4995 179.665 75.1392 179.718C74.7789 179.772 74.4911 179.949 74.2759 180.248C74.0666 180.54 73.9958 180.911 74.0634 181.364C74.131 181.816 74.3085 182.157 74.5959 182.389C74.8893 182.612 75.2162 182.697 75.5765 182.643C75.9368 182.589 76.221 182.413 76.4292 182.115C76.6444 181.815 76.7183 181.44 76.6507 180.988Z" fill="#6A5892"/>
<path d="M85.3334 179.592C85.3588 179.761 85.3746 179.94 85.3809 180.126L81.2798 180.74C81.363 181.103 81.5218 181.368 81.7563 181.535C81.9968 181.694 82.2689 181.751 82.5727 181.705C83.0248 181.638 83.3107 181.4 83.4302 180.992L85.3589 180.704C85.3181 181.107 85.1902 181.484 84.9753 181.834C84.7674 182.183 84.4824 182.474 84.1203 182.709C83.7581 182.944 83.3369 183.097 82.8565 183.169C82.2772 183.256 81.743 183.209 81.2539 183.029C80.7648 182.85 80.3587 182.549 80.0357 182.128C79.7127 181.707 79.5053 181.189 79.4134 180.574C79.3215 179.96 79.3649 179.404 79.5435 178.908C79.7291 178.411 80.0296 178.005 80.4447 177.69C80.8599 177.375 81.3607 177.174 81.947 177.086C82.5193 177.001 83.0459 177.045 83.5269 177.218C84.0078 177.392 84.4052 177.683 84.719 178.091C85.0399 178.498 85.2447 178.998 85.3334 179.592ZM83.4077 179.392C83.3612 179.081 83.2183 178.85 82.9789 178.698C82.7395 178.546 82.4608 178.494 82.1429 178.541C81.8391 178.587 81.5945 178.714 81.4089 178.922C81.2305 179.129 81.1408 179.399 81.1399 179.731L83.4077 179.392Z" fill="#6A5892"/>
<path d="M92.0573 180.136L92.287 181.672L91.3651 181.81C90.7081 181.908 90.1721 181.826 89.7572 181.563C89.3413 181.293 89.0789 180.794 88.9701 180.066L88.6184 177.714L87.8978 177.822L87.6728 176.317L88.3934 176.209L88.1779 174.768L89.99 174.497L90.2055 175.938L91.3923 175.761L91.6173 177.266L90.4304 177.443L90.7853 179.817C90.8118 179.993 90.8732 180.114 90.9695 180.179C91.0659 180.244 91.213 180.262 91.4109 180.232L92.0573 180.136Z" fill="#6A5892"/>
<path d="M98.4141 177.636C98.4394 177.806 98.4552 177.984 98.4615 178.171L94.3605 178.784C94.4437 179.147 94.6025 179.412 94.8369 179.579C95.0774 179.738 95.3495 179.795 95.6533 179.75C96.1054 179.682 96.3913 179.444 96.5109 179.037L98.4395 178.748C98.3987 179.151 98.2708 179.528 98.0559 179.878C97.8481 180.227 97.5631 180.519 97.2009 180.753C96.8388 180.988 96.4175 181.141 95.9371 181.213C95.3578 181.3 94.8236 181.253 94.3345 181.074C93.8454 180.894 93.4393 180.594 93.1163 180.172C92.7934 179.751 92.5859 179.233 92.494 178.619C92.4021 178.004 92.4455 177.449 92.6241 176.953C92.8098 176.455 93.1102 176.049 93.5253 175.734C93.9405 175.42 94.4413 175.218 95.0276 175.131C95.5999 175.045 96.1265 175.089 96.6075 175.263C97.0885 175.436 97.4859 175.727 97.7997 176.135C98.1205 176.542 98.3253 177.043 98.4141 177.636ZM96.4883 177.436C96.4418 177.126 96.2989 176.894 96.0595 176.742C95.8201 176.59 95.5414 176.538 95.2235 176.586C94.9197 176.631 94.6751 176.758 94.4895 176.966C94.3111 177.173 94.2214 177.443 94.2205 177.776L96.4883 177.436Z" fill="#6A5892"/>
<path d="M106.478 173.44C107.212 173.33 107.829 173.466 108.326 173.846C108.831 174.226 109.142 174.811 109.26 175.603L109.777 179.057L107.975 179.327L107.495 176.116C107.438 175.734 107.292 175.456 107.057 175.282C106.827 175.1 106.536 175.035 106.182 175.088C105.829 175.141 105.566 175.288 105.393 175.531C105.226 175.765 105.171 176.073 105.228 176.455L105.708 179.666L103.906 179.935L103.426 176.724C103.369 176.343 103.223 176.065 102.987 175.891C102.758 175.708 102.466 175.643 102.113 175.696C101.76 175.749 101.497 175.897 101.324 176.139C101.156 176.374 101.101 176.682 101.158 177.063L101.638 180.274L99.8263 180.545L98.9422 174.632L100.754 174.361L100.865 175.103C101.012 174.828 101.223 174.598 101.499 174.412C101.773 174.22 102.098 174.095 102.472 174.039C102.917 173.973 103.327 174.009 103.702 174.148C104.084 174.286 104.4 174.517 104.65 174.84C104.807 174.485 105.046 174.178 105.369 173.92C105.691 173.663 106.061 173.503 106.478 173.44Z" fill="#6A5892"/>
<path d="M62.1111 194.139C62.2466 193.837 62.457 193.578 62.7425 193.362C63.028 193.146 63.3792 193.007 63.796 192.945C64.2834 192.872 64.7435 192.929 65.176 193.118C65.6086 193.306 65.9723 193.612 66.267 194.038C66.5688 194.462 66.7651 194.978 66.856 195.586C66.9468 196.193 66.9105 196.748 66.7471 197.249C66.5897 197.742 66.3322 198.145 65.9746 198.458C65.6159 198.765 65.1929 198.954 64.7054 199.027C64.2957 199.089 63.9192 199.058 63.5759 198.936C63.2397 198.813 62.9632 198.631 62.7465 198.389L63.2915 202.034L61.4794 202.305L60.1739 193.573L61.986 193.302L62.1111 194.139ZM65.0121 195.861C64.9445 195.409 64.7645 195.075 64.4722 194.859C64.1858 194.634 63.859 194.549 63.4916 194.604C63.1313 194.658 62.8435 194.835 62.6283 195.134C62.4201 195.433 62.3498 195.808 62.4174 196.26C62.485 196.712 62.662 197.051 62.9483 197.275C63.2417 197.498 63.5686 197.583 63.9289 197.529C64.2892 197.475 64.577 197.299 64.7922 196.999C65.0064 196.693 65.0797 196.313 65.0121 195.861Z" fill="#6A5892"/>
<path d="M69.3256 193.212C69.4889 192.855 69.7158 192.562 70.0063 192.33C70.2957 192.092 70.6346 191.944 71.0232 191.886L71.31 193.804L70.8119 193.878C70.3598 193.946 70.0355 194.095 69.839 194.327C69.6414 194.552 69.5791 194.908 69.652 195.395L70.0623 198.14L68.2503 198.411L67.3662 192.498L69.1782 192.227L69.3256 193.212Z" fill="#6A5892"/>
<path d="M75.4872 197.415C74.9079 197.502 74.3667 197.456 73.8634 197.279C73.3673 197.1 72.9506 196.801 72.6135 196.382C72.2835 195.962 72.0725 195.445 71.9806 194.83C71.8898 194.223 71.9442 193.669 72.144 193.17C72.3428 192.664 72.6568 192.252 73.0861 191.935C73.5154 191.618 74.0197 191.416 74.599 191.329C75.1783 191.243 75.7196 191.288 76.2228 191.466C76.726 191.643 77.1467 191.945 77.4849 192.371C77.822 192.79 78.036 193.304 78.1268 193.911C78.2177 194.519 78.1602 195.076 77.9544 195.584C77.7546 196.083 77.4365 196.492 77.0001 196.81C76.5708 197.127 76.0665 197.329 75.4872 197.415ZM75.2528 195.847C75.5989 195.795 75.8731 195.624 76.0753 195.334C76.2845 195.043 76.3537 194.66 76.283 194.187C76.2122 193.714 76.0377 193.368 75.7595 193.149C75.4883 192.93 75.1797 192.846 74.8335 192.898C74.4803 192.951 74.2061 193.122 74.011 193.411C73.8148 193.693 73.7526 194.074 73.8245 194.555C73.8952 195.028 74.0627 195.375 74.3268 195.595C74.5979 195.815 74.9066 195.899 75.2528 195.847Z" fill="#6A5892"/>
<path d="M86.1817 189.619C86.9164 189.509 87.5325 189.645 88.03 190.026C88.5345 190.405 88.846 190.991 88.9643 191.782L89.4808 195.236L87.6793 195.506L87.1992 192.295C87.1422 191.913 86.9959 191.635 86.7604 191.461C86.5309 191.279 86.2395 191.214 85.8863 191.267C85.5331 191.32 85.2699 191.467 85.0967 191.71C84.9295 191.944 84.8744 192.252 84.9315 192.634L85.4115 195.845L83.6101 196.114L83.13 192.903C83.0729 192.522 82.9267 192.244 82.6912 192.07C82.4617 191.887 82.1703 191.823 81.8171 191.875C81.4638 191.928 81.2006 192.076 81.0274 192.318C80.8603 192.553 80.8052 192.861 80.8622 193.242L81.3423 196.453L79.5302 196.724L78.6461 190.811L80.4582 190.54L80.5691 191.282C80.7158 191.007 80.927 190.777 81.2026 190.591C81.4771 190.399 81.8016 190.274 82.176 190.218C82.6211 190.152 83.031 190.188 83.4056 190.327C83.7874 190.465 84.1036 190.696 84.3542 191.019C84.5105 190.664 84.7499 190.357 85.0725 190.099C85.3951 189.842 85.7648 189.682 86.1817 189.619Z" fill="#6A5892"/>
<path d="M93.4524 194.729C92.8731 194.816 92.3318 194.77 91.8286 194.593C91.3324 194.414 90.9158 194.115 90.5787 193.696C90.2486 193.276 90.0377 192.759 89.9458 192.144C89.8549 191.537 89.9094 190.983 90.1092 190.484C90.3079 189.977 90.622 189.566 91.0513 189.249C91.4806 188.932 91.9849 188.73 92.5642 188.643C93.1435 188.557 93.6847 188.602 94.188 188.78C94.6912 188.957 95.1119 189.259 95.4501 189.685C95.7872 190.104 96.0012 190.618 96.092 191.225C96.1828 191.833 96.1254 192.39 95.9195 192.898C95.7197 193.397 95.4017 193.806 94.9653 194.124C94.536 194.441 94.0317 194.643 93.4524 194.729ZM93.2179 193.161C93.5641 193.109 93.8382 192.938 94.0404 192.648C94.2497 192.357 94.3189 191.974 94.2481 191.501C94.1774 191.028 94.0029 190.682 93.7246 190.463C93.4535 190.244 93.1448 190.16 92.7986 190.212C92.4454 190.265 92.1712 190.436 91.9761 190.725C91.78 191.007 91.7178 191.388 91.7896 191.869C91.8604 192.342 92.0278 192.689 92.2919 192.909C92.5631 193.129 92.8717 193.213 93.2179 193.161Z" fill="#6A5892"/>
<path d="M98.4937 185.861C99.2496 185.748 99.8832 185.855 100.395 186.183C100.913 186.51 101.226 187.034 101.334 187.755C101.433 188.419 101.292 188.971 100.91 189.411C100.534 189.843 99.9893 190.115 99.2768 190.229L99.3427 191.032L97.7531 191.269L97.4054 189.306L98.0413 189.211C98.5852 189.13 98.9885 189.001 99.251 188.825C99.5206 188.647 99.629 188.382 99.5762 188.028C99.5392 187.781 99.443 187.597 99.2877 187.476C99.1323 187.354 98.9345 187.312 98.6943 187.348C98.44 187.386 98.2533 187.489 98.1342 187.659C98.014 187.821 97.9724 188.026 98.0094 188.273L96.3033 188.529C96.2247 188.1 96.2549 187.698 96.3939 187.323C96.54 186.948 96.789 186.632 97.1409 186.377C97.4988 186.114 97.9497 185.942 98.4937 185.861ZM98.981 193.903C98.6631 193.95 98.388 193.897 98.1557 193.744C97.9293 193.583 97.7956 193.365 97.7544 193.089C97.7121 192.807 97.7757 192.555 97.9449 192.335C98.1213 192.114 98.3684 191.979 98.6863 191.932C98.9972 191.885 99.2658 191.942 99.4921 192.104C99.7255 192.264 99.8633 192.485 99.9056 192.768C99.9468 193.043 99.8792 193.292 99.7028 193.513C99.5325 193.726 99.2919 193.856 98.981 193.903Z" fill="#6A5892"/>
<path d="M225.517 108.753C233.321 108.746 239.942 104.817 241.514 98.6082L233.956 96.6943C233.925 96.8145 233.892 96.9354 233.86 97.0551C232.393 102.493 229.188 106.763 225.517 108.753Z" fill="#FFE6B3"/>
<path d="M300.142 31.9067L245.309 24.8626C242.152 24.4571 239.188 26.473 238.407 29.5594L223.76 87.4056C222.959 90.5713 224.712 93.8237 227.798 94.8954L279.842 112.957C283.326 114.166 287.1 112.133 288.005 108.556L305.441 39.6928C306.368 36.0343 303.887 32.3879 300.142 31.9067ZM297.31 43.7445L279.723 99.7398C278.843 102.541 275.93 104.168 273.084 103.447L231.222 92.8477C228.048 92.0441 226.261 88.6758 227.376 85.5982L244.464 38.393C245.286 36.1201 247.489 34.6431 249.904 34.7469L292.265 36.556C295.901 36.7119 298.401 40.2736 297.31 43.7445Z" fill="#FFE6B3"/>
<path d="M223.387 107.063C231.191 107.056 237.812 103.127 239.384 96.9179L231.826 95.0041C231.795 95.1243 231.762 95.2452 231.73 95.3649C230.263 100.803 227.058 105.073 223.387 107.063Z" fill="#FFCA5E"/>
<path d="M298.012 30.2163L243.179 23.1722C240.022 22.7667 237.058 24.7826 236.277 27.869L221.631 85.7152C220.829 88.8809 222.582 92.1333 225.668 93.205L277.712 111.266C281.196 112.476 284.97 110.443 285.875 106.866L303.311 38.0024C304.238 34.3439 301.757 30.6975 298.012 30.2163ZM295.18 42.0541L277.593 98.0494C276.713 100.85 273.8 102.477 270.954 101.757L229.092 91.1573C225.918 90.3537 224.131 86.9854 225.246 83.9078L242.334 36.7026C243.156 34.4297 245.359 32.9527 247.774 33.0565L290.135 34.8656C293.771 35.0215 296.271 38.5832 295.18 42.0541Z" fill="#FFCA5E"/>
<path d="M248.586 56.3017C248 56.3021 247.471 56.1775 247 55.9279C246.535 55.6783 246.167 55.3214 245.895 54.8573C245.63 54.3932 245.498 53.8504 245.497 53.229C245.497 52.6147 245.632 52.0753 245.903 51.6107C246.174 51.1391 246.545 50.778 247.017 50.5277C247.488 50.2773 248.016 50.1518 248.602 50.1514C249.188 50.1509 249.717 50.2755 250.188 50.5251C250.66 50.7748 251.032 51.1352 251.303 51.6064C251.575 52.0705 251.711 52.6097 251.712 53.224C251.712 53.8383 251.573 54.3813 251.295 54.853C251.024 55.3175 250.649 55.675 250.171 55.9254C249.7 56.1758 249.171 56.3012 248.586 56.3017ZM248.584 54.7159C248.934 54.7156 249.231 54.5868 249.473 54.3294C249.723 54.0721 249.848 53.7041 249.847 53.2255C249.847 52.7469 249.725 52.3792 249.482 52.1222C249.246 51.8652 248.953 51.7369 248.603 51.7372C248.246 51.7374 247.95 51.8663 247.714 52.1236C247.479 52.3738 247.361 52.7418 247.362 53.2275C247.362 53.7061 247.477 54.0739 247.705 54.3308C247.941 54.5878 248.234 54.7162 248.584 54.7159Z" fill="#6A5892"/>
<path d="M254.59 53.2325C254.59 52.6396 254.711 52.1109 254.953 51.6464C255.203 51.1819 255.535 50.8209 255.949 50.5634C256.37 50.2988 256.827 50.1662 257.32 50.1659C257.699 50.1655 258.038 50.2331 258.338 50.3686C258.638 50.497 258.881 50.6789 259.067 50.9145L259.067 50.2287L260.899 50.2273L260.906 59.0562L259.074 59.0577L259.071 55.4575C258.864 55.7077 258.61 55.9079 258.31 56.0582C258.018 56.2084 257.682 56.2837 257.303 56.284C256.818 56.2844 256.368 56.1562 255.953 55.8993C255.539 55.6425 255.206 55.282 254.956 54.8179C254.713 54.3538 254.591 53.8253 254.59 53.2325ZM259.069 53.2182C259.069 52.8967 259.004 52.6289 258.875 52.4147C258.754 52.1934 258.593 52.0292 258.393 51.9222C258.193 51.8081 257.982 51.7511 257.761 51.7513C257.546 51.7515 257.339 51.8088 257.139 51.9232C256.939 52.0305 256.775 52.1949 256.647 52.4165C256.518 52.638 256.454 52.9095 256.455 53.231C256.455 53.5524 256.519 53.8238 256.648 54.0451C256.777 54.2593 256.941 54.4235 257.141 54.5376C257.341 54.6446 257.549 54.698 257.763 54.6978C257.977 54.6977 258.184 54.6439 258.384 54.5366C258.591 54.4222 258.755 54.2542 258.877 54.0326C259.005 53.8111 259.069 53.5396 259.069 53.2182Z" fill="#6A5892"/>
<path d="M268.128 50.2215L268.133 56.2003L266.301 56.2018L266.3 55.3875C266.115 55.6519 265.861 55.8664 265.54 56.031C265.226 56.1884 264.876 56.2672 264.49 56.2675C264.033 56.2679 263.629 56.1682 263.279 55.9685C262.929 55.7616 262.657 55.4654 262.464 55.0798C262.271 54.6942 262.174 54.2407 262.174 53.7193L262.171 50.2263L263.992 50.2248L263.995 53.4714C263.995 53.8714 264.099 54.182 264.306 54.4033C264.514 54.6246 264.792 54.7351 265.142 54.7348C265.499 54.7345 265.782 54.6236 265.989 54.402C266.196 54.1804 266.299 53.8696 266.299 53.4695L266.296 50.223L268.128 50.2215Z" fill="#6A5892"/>
<path d="M275.082 53.109C275.083 53.2804 275.072 53.459 275.051 53.6447L270.904 53.648C270.933 54.0194 271.051 54.3051 271.258 54.5049C271.473 54.6976 271.734 54.7938 272.041 54.7936C272.498 54.7932 272.816 54.6001 272.994 54.2142L274.944 54.2127C274.844 54.6056 274.663 54.9594 274.398 55.2739C274.142 55.5884 273.817 55.8351 273.424 56.014C273.031 56.1929 272.592 56.2825 272.106 56.2829C271.521 56.2834 270.999 56.1588 270.542 55.9091C270.084 55.6595 269.727 55.3026 269.469 54.8385C269.212 54.3744 269.083 53.8316 269.082 53.2102C269.082 52.5887 269.206 52.0457 269.456 51.5812C269.713 51.1167 270.07 50.7593 270.527 50.5089C270.984 50.2585 271.509 50.1331 272.101 50.1326C272.68 50.1322 273.194 50.2532 273.645 50.4957C274.095 50.7382 274.445 51.0844 274.696 51.5342C274.953 51.984 275.082 52.5089 275.082 53.109ZM273.207 52.6283C273.207 52.314 273.099 52.0641 272.885 51.8785C272.671 51.693 272.403 51.6003 272.081 51.6006C271.774 51.6008 271.513 51.6903 271.299 51.8691C271.092 52.0478 270.964 52.3015 270.914 52.6301L273.207 52.6283Z" fill="#6A5892"/>
<path d="M244.664 67.6654L244.665 69.2191L243.733 69.2198C243.069 69.2204 242.551 69.06 242.179 68.7389C241.808 68.4106 241.621 67.8786 241.621 67.1428L241.619 64.7642L240.89 64.7647L240.889 63.2433L241.618 63.2427L241.617 61.7855L243.449 61.784L243.45 63.2412L244.65 63.2403L244.651 64.7617L243.451 64.7627L243.453 67.1628C243.453 67.3414 243.496 67.4699 243.582 67.5484C243.668 67.6269 243.811 67.6661 244.011 67.666L244.664 67.6654Z" fill="#6A5892"/>
<path d="M251.32 66.1279C251.32 66.2994 251.309 66.4779 251.288 66.6637L247.141 66.667C247.17 67.0384 247.288 67.324 247.495 67.5239C247.71 67.7166 247.971 67.8128 248.278 67.8126C248.735 67.8122 249.053 67.6191 249.231 67.2332L251.181 67.2316C251.081 67.6246 250.9 67.9783 250.635 68.2928C250.379 68.6073 250.054 68.854 249.661 69.0329C249.268 69.2118 248.829 69.3015 248.343 69.3019C247.758 69.3023 247.236 69.1777 246.779 68.9281C246.321 68.6784 245.964 68.3216 245.706 67.8575C245.449 67.3934 245.32 66.8506 245.319 66.2291C245.319 65.6077 245.443 65.0647 245.693 64.6002C245.95 64.1357 246.307 63.7782 246.764 63.5279C247.221 63.2775 247.746 63.1521 248.338 63.1516C248.917 63.1511 249.431 63.2722 249.882 63.5147C250.332 63.7572 250.682 64.1033 250.933 64.5532C251.19 65.003 251.319 65.5279 251.32 66.1279ZM249.444 65.6472C249.444 65.3329 249.336 65.083 249.122 64.8975C248.908 64.7119 248.64 64.6193 248.318 64.6195C248.011 64.6198 247.75 64.7093 247.536 64.888C247.329 65.0668 247.201 65.3205 247.151 65.6491L249.444 65.6472Z" fill="#6A5892"/>
<path d="M259.913 63.1638C260.656 63.1632 261.245 63.3877 261.681 63.8374C262.124 64.2871 262.346 64.9119 262.347 65.712L262.35 69.205L260.528 69.2064L260.526 65.9599C260.525 65.5741 260.421 65.2778 260.214 65.0708C260.014 64.8566 259.735 64.7497 259.378 64.75C259.021 64.7503 258.739 64.8577 258.532 65.0721C258.332 65.2794 258.232 65.5759 258.233 65.9617L258.235 69.2083L256.414 69.2097L256.411 65.9631C256.411 65.5774 256.307 65.281 256.1 65.0741C255.9 64.8599 255.621 64.753 255.264 64.7533C254.907 64.7536 254.624 64.8609 254.417 65.0754C254.218 65.2827 254.118 65.5792 254.118 65.965L254.121 69.2115L252.289 69.213L252.284 63.2342L254.116 63.2327L254.117 63.9827C254.302 63.7326 254.545 63.5359 254.845 63.3928C255.145 63.2426 255.484 63.1673 255.862 63.167C256.312 63.1667 256.713 63.2628 257.063 63.4554C257.42 63.6479 257.699 63.9227 257.899 64.2797C258.106 63.951 258.388 63.6829 258.745 63.4754C259.102 63.268 259.491 63.1641 259.913 63.1638Z" fill="#6A5892"/>
<path d="M267.73 64.0683C267.908 63.7896 268.154 63.5644 268.469 63.3927C268.783 63.221 269.151 63.135 269.572 63.1347C270.065 63.1343 270.511 63.2589 270.912 63.5086C271.312 63.7583 271.626 64.1152 271.855 64.5793C272.092 65.0434 272.21 65.5827 272.21 66.197C272.211 66.8113 272.093 67.3543 271.858 67.8259C271.63 68.2904 271.316 68.6514 270.916 68.9088C270.516 69.1592 270.07 69.2845 269.577 69.2849C269.163 69.2853 268.795 69.1998 268.473 69.0286C268.159 68.8575 267.912 68.6362 267.733 68.3649L267.736 72.0508L265.904 72.0523L265.897 63.2233L267.729 63.2218L267.73 64.0683ZM270.346 66.1985C270.346 65.7413 270.217 65.3842 269.959 65.1273C269.709 64.8632 269.398 64.7313 269.027 64.7316C268.663 64.7319 268.352 64.8643 268.095 65.1288C267.845 65.3933 267.72 65.7541 267.721 66.2113C267.721 66.6684 267.847 67.0291 268.097 67.2932C268.354 67.5572 268.665 67.6891 269.029 67.6889C269.394 67.6886 269.704 67.5562 269.961 67.2917C270.218 67.02 270.346 66.6556 270.346 66.1985Z" fill="#6A5892"/>
<path d="M275.002 64.2125C275.216 63.8838 275.484 63.6264 275.805 63.4404C276.126 63.2473 276.484 63.1506 276.876 63.1503L276.878 65.0896L276.374 65.09C275.917 65.0904 275.574 65.1907 275.346 65.3909C275.118 65.5839 275.004 65.9269 275.004 66.4197L275.006 69.1949L273.174 69.1963L273.169 63.2175L275.001 63.216L275.002 64.2125Z" fill="#6A5892"/>
<path d="M277.39 66.1928C277.39 65.5785 277.504 65.0391 277.732 64.5746C277.967 64.1101 278.285 63.7527 278.685 63.5024C279.084 63.2521 279.531 63.1267 280.024 63.1263C280.445 63.126 280.813 63.2114 281.128 63.3826C281.449 63.5538 281.696 63.7786 281.867 64.057L281.867 63.2106L283.699 63.2091L283.704 69.1879L281.871 69.1894L281.871 68.3429C281.692 68.6217 281.443 68.8469 281.121 69.0186C280.807 69.1902 280.439 69.2763 280.018 69.2766C279.532 69.277 279.089 69.1523 278.689 68.9026C278.289 68.6458 277.971 68.2853 277.734 67.8212C277.506 67.3499 277.391 66.8071 277.39 66.1928ZM281.869 66.2C281.869 65.7428 281.74 65.3822 281.483 65.1181C281.232 64.854 280.925 64.7221 280.561 64.7224C280.196 64.7227 279.886 64.8551 279.629 65.1196C279.379 65.3769 279.254 65.7342 279.255 66.1913C279.255 66.6485 279.38 67.0127 279.631 67.284C279.888 67.548 280.199 67.6799 280.563 67.6797C280.927 67.6794 281.234 67.547 281.484 67.2825C281.741 67.018 281.869 66.6571 281.869 66.2Z" fill="#6A5892"/>
<path d="M236.435 78.2362C236.434 77.6148 236.559 77.0718 236.809 76.6073C237.065 76.1428 237.419 75.7853 237.868 75.535C238.325 75.2846 238.847 75.1592 239.432 75.1587C240.183 75.1581 240.808 75.354 241.308 75.7465C241.816 76.139 242.148 76.6923 242.306 77.4065L240.356 77.4081C240.191 76.951 239.873 76.7227 239.402 76.7231C239.066 76.7234 238.798 76.8557 238.598 77.1202C238.399 77.3775 238.299 77.749 238.299 78.2347C238.3 78.7205 238.4 79.0954 238.6 79.3596C238.8 79.6165 239.068 79.7449 239.404 79.7446C239.875 79.7443 240.193 79.5154 240.357 79.0581L242.307 79.0566C242.151 79.7567 241.819 80.307 241.312 80.7074C240.805 81.1079 240.18 81.3084 239.437 81.309C238.852 81.3094 238.33 81.1848 237.873 80.9352C237.423 80.6855 237.069 80.3287 236.811 79.8646C236.561 79.4005 236.435 78.8577 236.435 78.2362Z" fill="#6A5892"/>
<path d="M246.011 81.3037C245.425 81.3042 244.896 81.1796 244.424 80.93C243.96 80.6803 243.592 80.3235 243.32 79.8594C243.055 79.3953 242.923 78.8525 242.922 78.2311C242.922 77.6167 243.057 77.0773 243.328 76.6128C243.599 76.1411 243.97 75.7801 244.442 75.5297C244.913 75.2793 245.441 75.1539 246.027 75.1534C246.613 75.153 247.142 75.2776 247.613 75.5272C248.085 75.7768 248.457 76.1373 248.728 76.6085C249 77.0726 249.136 77.6118 249.137 78.2261C249.137 78.8404 248.998 79.3834 248.72 79.8551C248.449 80.3196 248.074 80.6771 247.596 80.9274C247.125 81.1778 246.596 81.3033 246.011 81.3037ZM246.009 79.7179C246.359 79.7177 246.656 79.5889 246.898 79.3315C247.148 79.0741 247.273 78.7062 247.272 78.2276C247.272 77.749 247.15 77.3812 246.907 77.1243C246.671 76.8673 246.378 76.7389 246.028 76.7392C245.671 76.7395 245.375 76.8683 245.139 77.1257C244.904 77.3759 244.786 77.7438 244.787 78.2296C244.787 78.7082 244.902 79.0759 245.13 79.3329C245.366 79.5899 245.659 79.7182 246.009 79.7179Z" fill="#6A5892"/>
<path d="M257.735 75.1655C258.478 75.1649 259.068 75.3895 259.504 75.8391C259.947 76.2888 260.169 76.9137 260.17 77.7137L260.172 81.2067L258.351 81.2082L258.348 77.9616C258.348 77.5759 258.244 77.2795 258.037 77.0725C257.837 76.8584 257.558 76.7515 257.201 76.7517C256.844 76.752 256.562 76.8594 256.355 77.0739C256.155 77.2812 256.055 77.5777 256.055 77.9634L256.058 81.21L254.236 81.2114L254.234 77.9649C254.234 77.5791 254.13 77.2828 253.922 77.0758C253.722 76.8617 253.444 76.7547 253.086 76.755C252.729 76.7553 252.447 76.8627 252.24 77.0771C252.04 77.2845 251.941 77.581 251.941 77.9667L251.943 81.2133L250.111 81.2147L250.106 75.2359L251.939 75.2344L251.939 75.9845C252.125 75.7343 252.368 75.5377 252.667 75.3946C252.967 75.2443 253.307 75.1691 253.685 75.1688C254.135 75.1684 254.535 75.2645 254.885 75.4571C255.243 75.6497 255.522 75.9245 255.722 76.2815C255.929 75.9527 256.211 75.6846 256.568 75.4772C256.925 75.2698 257.314 75.1659 257.735 75.1655Z" fill="#6A5892"/>
<path d="M267.087 78.1153C267.087 78.2868 267.077 78.4654 267.056 78.6511L262.909 78.6544C262.938 79.0258 263.056 79.3115 263.263 79.5113C263.478 79.704 263.738 79.8002 264.046 79.8C264.503 79.7996 264.821 79.6065 264.999 79.2206L266.949 79.2191C266.849 79.612 266.667 79.9658 266.403 80.2803C266.146 80.5948 265.822 80.8415 265.429 81.0204C265.036 81.1993 264.597 81.2889 264.111 81.2893C263.525 81.2897 263.004 81.1652 262.546 80.9155C262.089 80.6659 261.732 80.309 261.474 79.8449C261.217 79.3808 261.088 78.838 261.087 78.2166C261.087 77.5951 261.211 77.0521 261.461 76.5876C261.718 76.1231 262.074 75.7657 262.531 75.5153C262.988 75.2649 263.513 75.1395 264.106 75.139C264.685 75.1386 265.199 75.2596 265.649 75.5021C266.1 75.7446 266.45 76.0908 266.7 76.5406C266.958 76.9904 267.087 77.5153 267.087 78.1153ZM265.212 77.6347C265.212 77.3204 265.104 77.0704 264.89 76.8849C264.675 76.6993 264.407 76.6067 264.086 76.607C263.779 76.6072 263.518 76.6967 263.304 76.8754C263.097 77.0542 262.969 77.3079 262.919 77.6365L265.212 77.6347Z" fill="#6A5892"/>
<path d="M269.885 76.2166C270.099 75.8878 270.366 75.6305 270.688 75.4445C271.009 75.2514 271.366 75.1547 271.759 75.1543L271.76 77.0937L271.257 77.0941C270.8 77.0945 270.457 77.1948 270.228 77.3949C270 77.588 269.886 77.931 269.886 78.4238L269.889 81.199L268.056 81.2004L268.052 75.2216L269.884 75.2201L269.885 76.2166Z" fill="#6A5892"/>
<path d="M274.83 73.2554C275.594 73.2548 276.205 73.4543 276.662 73.8539C277.127 74.2536 277.36 74.8177 277.36 75.5463C277.361 76.2178 277.14 76.743 276.697 77.1219C276.262 77.4937 275.683 77.6835 274.962 77.6912L274.909 78.4948L273.302 78.4961L273.246 76.5032L273.889 76.5027C274.439 76.5023 274.857 76.4341 275.143 76.2981C275.436 76.1622 275.582 75.9156 275.581 75.5585C275.581 75.3084 275.513 75.1121 275.377 74.9693C275.242 74.8265 275.052 74.7553 274.809 74.7555C274.552 74.7557 274.352 74.8308 274.21 74.9809C274.067 75.1239 273.995 75.3204 273.996 75.5704L272.271 75.5718C272.256 75.1361 272.345 74.7431 272.538 74.393C272.737 74.0428 273.03 73.7676 273.416 73.5672C273.808 73.3598 274.28 73.2558 274.83 73.2554ZM274.129 81.2813C273.807 81.2815 273.543 81.1889 273.336 81.0033C273.136 80.8106 273.035 80.575 273.035 80.2964C273.035 80.0107 273.135 79.7713 273.335 79.5783C273.542 79.3852 273.806 79.2886 274.127 79.2883C274.442 79.2881 274.699 79.3843 274.899 79.577C275.106 79.7697 275.21 80.0089 275.21 80.2947C275.21 80.5733 275.107 80.8091 274.9 81.0021C274.7 81.188 274.443 81.281 274.129 81.2813Z" fill="#6A5892"/>
<path d="M105.858 126.231C97.2707 127.936 89.2183 125.534 86.2751 119.79L94.2166 116.255C94.2736 116.366 94.3334 116.478 94.3925 116.588C97.0695 121.6 101.431 125.084 105.858 126.231Z" fill="#FFE6B3"/>
<path d="M8.73541 67.2332L67.6829 48.2994C71.077 47.2093 74.7313 48.5365 76.1944 51.3919L103.617 104.91C105.117 107.839 103.824 111.413 100.639 113.14L46.9142 142.267C43.3174 144.218 38.7685 143.051 37.0729 139.742L4.4278 76.0312C2.6935 72.6465 4.71026 68.5263 8.73541 67.2332ZM14.1657 78.2214L44.4615 129.279C45.9764 131.833 49.4997 132.79 52.4898 131.459L96.4715 111.883C99.8063 110.399 101.114 106.704 99.286 103.93L71.2577 61.3834C69.9087 59.3347 67.1966 58.3693 64.5599 59.0008L18.3106 70.0652C14.3408 71.0155 12.2867 75.0568 14.1657 78.2214Z" fill="#FFE6B3"/>
<path d="M102.209 124.895C93.6222 126.6 85.5697 124.198 82.6265 118.454L90.568 114.919C90.625 115.03 90.6848 115.142 90.744 115.252C93.4209 120.264 97.782 123.748 102.209 124.895Z" fill="#FFCA5E"/>
<path d="M5.08703 65.897L64.0345 46.9633C67.4286 45.8732 71.0829 47.2003 72.546 50.0558L99.9683 103.574C101.469 106.502 100.176 110.077 96.9905 111.804L43.2658 140.931C39.669 142.882 35.1201 141.715 33.4245 138.406L0.779423 74.6951C-0.954874 71.3104 1.06188 67.1902 5.08703 65.897ZM10.5173 76.8853L40.8132 127.943C42.328 130.497 45.8513 131.453 48.8414 130.123L92.8231 110.547C96.158 109.063 97.4652 105.368 95.6376 102.594L67.6094 60.0472C66.2604 57.9986 63.5482 57.0332 60.9115 57.6647L14.6622 68.7291C10.6925 69.6794 8.63836 73.7206 10.5173 76.8853Z" fill="#FFCA5E"/>
</g>
</svg>
