<svg viewBox="0 0 175 141" fill="none" xmlns="http://www.w3.org/2000/svg">
<path d="M67.08 140.18L66.72 140.19L64.78 139.08L64.58 138.62L65.1 134.35L64.64 130.1L64.79 129.03L65.42 127.79L68.26 125.41L69.09 123.85L71.39 121.29L69.93 119.64L68.86 119.02L66.61 118.42L64.29 116.17L63.08 114.55L62.98 112.96L62.55 111.78L61.32 109.75L59.26 107.51L58.59 106.92L56.2 105.71L54.75 105.92L52.85 104.41L51.33 102.78L50.08 102L49.94 100.3L48.04 98.1401L44.72 97.6801L43.8 97.2101L42.07 95.5501L40.31 95.6801L38.14 94.3001L36.23 90.5901L35.12 89.1001L32.59 86.9801L31.89 87.0601L31.22 88.8501L28.63 91.0901L25.96 91.2101L26.06 88.3501L26.46 87.0701L26.07 86.0701L22.42 81.7802L20.05 80.0101L17.87 77.9501L16.12 75.8401L13.43 73.6301L11.53 73.4901L9.38 73.7001L8.23999 75.0601L8.17999 76.0201L7.14999 76.9901L6.03998 77.0101L5.45999 76.5302L2.29999 76.6701L1.64999 76.1901L1.48999 75.2802L1 75.0601L1.85001 74.8401L2.88998 74.1201L5.41 71.3501L5.51999 69.5101L6.12 68.2601L6.94 67.8101L8.22998 67.7401L8.87 67.4801L9.78998 66.4801L15.24 60.0001L15.87 58.5801L16.04 57.4702L16.86 56.4001L18.06 55.5501L19.43 55.1401L21.39 50.9201L21.49 50.3101L21.8 49.9401L23.44 49.0801L25.07 47.2802L25.92 46.1301L26.43 44.8401L27.77 42.7401L28.7 42.4501L30.27 42.6301L30.82 43.4201L31.29 42.1401L31.08 41.5601L29.73 40.7401L29.68 40.3801L30.03 40.0501L31.11 39.6701L31.93 38.7101L34.72 37.7601L35.77 36.6901L35.87 35.7701L36.69 34.8601L38.9 33.7101L41.37 33.3101L43.14 31.5001L43.29 30.4401L44.61 28.0801L44.94 28.0401L44.99 28.4001L45.28 28.6001L46.61 28.4301L49.05 27.3001L51.73 26.7101L52.94 26.1401L55.04 23.7901L55.54 23.8001L56.21 23.4102L57.22 22.0601L59.53 21.3301L59.83 21.7101L63.35 22.1001L66.61 20.9501L67.17 20.1401L68.52 20.7202L68.37 21.6401L71.45 21.6101L73.08 22.6001L75.64 22.2301L77.56 23.3801L80.14 22.9702L81.68 23.1501L84.48 22.9901L86.74 23.9102L89.22 25.3101L90.22 27.7501L91.81 27.9401L91.9 27.4601L93.71 27.1101L99.27 30.6501L100.64 32.2001L101.35 32.1701L102.91 33.1501L105.94 36.6401L107.58 38.8501L108.06 40.3301L110.23 42.9901L111.4 43.5401L118.09 44.6001L120.2 44.2001L123.55 44.5401L124.43 46.8801L122.35 48.4601L121.08 48.8701L120.35 50.7301L120.57 52.9201L120.19 54.4801L119.67 55.7802L118.49 55.9801L117.2 57.6701L117.17 59.0801L118.97 60.2501L119.24 60.0501L118.96 59.0801L118.97 58.1201L120.46 57.3001L122.04 57.9401L122.77 58.8501L123.94 59.7001L124.39 59.6701L122.99 61.4001L119.09 68.4401L114.88 80.0401L108.58 90.5201L103.14 97.1801L96.63 103.14L90.54 106.82L87.44 111.13L87.26 110.7L87.91 109.12L88.25 106.94L87.07 105.23L87.17 104.81L88.1 104.64L89.11 105.04L89.67 105.62L90.69 105.66L93.27 104.25L94.09 103.57L96.94 99.8601L97.69 99.1701L98.14 99.3601L99.16 99.1701L100.21 98.3301L101.14 97.0601L101.51 95.5801L101.69 94.6501L101.46 92.5501L101.66 91.1801L103.23 91.1101L103.97 91.4102L104.24 92.2401L104.59 91.9801L104.3 90.5801L104.81 88.5101L105.29 87.9401L108.03 86.3501L108.76 85.2701L109.23 82.5201L109.02 80.2401L109.58 79.5601L110.08 80.3601L110.45 80.3901L110.88 79.9702L111.35 76.8901L111.25 76.4501L110.3 75.2301L109.63 75.2001L109.37 75.8901L109.54 76.2802L109.4 76.8501L109.05 77.0501L107.54 77.0302L105.53 77.4301L105.19 79.0401L104.66 79.0901L103.85 78.6501L103.95 76.9401L103.13 76.0501L102.09 76.3801L101.49 75.9001L100.76 74.6401L100.36 73.1901L100.48 72.6201L99.84 71.9301L99.23 74.6401L99.67 76.8901L100.92 79.0001L100.35 79.8101L99.61 82.3501L99.99 85.3801L99.81 86.1501L99.33 85.7802L99.59 85.5401L99.56 84.8301L99.09 83.5501L98.64 83.1602L98.11 83.8201L98.08 85.1901L96.67 88.4601L96.62 90.3501L96.84 90.8701L96.12 91.5701L94.51 92.2101L93.9 93.7901L89.81 95.3601L89.09 95.8901L88.56 97.4801L88.46 99.7501L87.49 102.02L85.13 103.32L85.02 105.08L85.5 105.91L85.75 106.93L84.8 107.49L84.55 109L84.98 109.6L85.66 109.46L86.96 110.09L87.11 111L84.98 112.65L82.66 117.17L80.73 124.05L78.72 128.54L77.04 131.06L69.25 138.59L67.08 140.18Z" fill="#5D4989" stroke="white" stroke-width="0.7" stroke-linejoin="round"/>
<path d="M124.39 59.67L123.94 59.7L122.77 58.85L122.04 57.93L120.45 57.3L118.97 58.12L118.96 59.08L119.24 60.05L118.97 60.25L117.17 59.08L117.21 57.67L118.49 55.98L119.67 55.78L120.2 54.47L120.57 52.92L120.35 50.73L121.08 48.87L122.35 48.45L124.43 46.87L123.55 44.53L120.2 44.19L118.09 44.59L111.4 43.53L110.24 42.99L108.07 40.33L107.58 38.85L105.95 36.64L102.92 33.15L101.35 32.16L100.64 32.19L99.2703 30.64L93.7103 27.1L91.9003 27.44L91.8103 27.92L90.2103 27.73L89.2103 25.29L86.7403 23.9L84.4703 22.97L81.6803 23.13L80.1403 22.95L77.5503 23.36L75.6403 22.21L73.0703 22.57L71.4403 21.59L68.3603 21.62L68.5103 20.69L67.1603 20.11L66.6003 20.92L63.3403 22.08L59.8203 21.69L61.2703 18.76L62.0003 16.67L61.4203 13.42L61.8303 10.21L61.7903 7.66L62.7503 5.91L66.3803 5.92999L67.0903 5.55002L67.6203 5.56L68.6803 5.80002L68.9903 6.31L71.0203 7.72L73.7003 7.75L76.0403 7.17001L81.3303 8.85001L85.5903 9.20999L86.6103 9.84L86.7803 10.25L88.3503 11.43L92.1203 11.85L96.3703 11.72L97.7003 13.62L97.8803 13.12L98.6203 12.74L99.5403 12.72L100.41 11.86L99.5603 8.87L100.25 7.29001L100.97 6.51001L102.97 5.37L106.54 5.77002L108.41 4.80002L109.14 3.92999L109.73 2.45001L111.26 1.80002L112.37 1.66L113.79 2.42001L114.6 2.45001L116.93 2.28L119.77 1.55002L120.52 1.56L121.56 1.95999L124.68 4.56L125.91 5.17999L127.35 5.34L130.7 3.20999L132.05 1.78L133.61 1.20999L133.73 1.60001L134.49 1.67001L136.23 1.44L136.56 1L141.8 1.03L141.41 2.35001L141.92 4L141.85 4.39001L140.35 5.53L139.37 5.05002L138.55 2.52002L138.53 3.64001L139.12 6.36002L140.83 8.02002L141.39 8.97L140.38 11.26L140.22 13.58L140.32 14.01L141.08 14.74L141.34 20.6L141.65 21.15L142.08 21.35L142.85 20.84L143.2 21.56L143.3 22.43L142.83 22.49L142.4 22.21L141.21 22.84L140.87 26.68L141.44 29.27L140.87 30.02L141.18 31.95L142.09 33.83L141.23 36.17L140.71 40.18L139 44.86L138.66 44.76L138.3 44L138.51 43.03L137.59 41.85L137.33 42.18L137.51 44.61L138.67 45.44L137.75 47.1L136.11 47.75L131.98 50.79L129.18 53.35L125.43 57.79L124.39 59.67ZM142.27 33.12L142.12 32.65L142.37 30.9L143.13 28.5L142.73 27.32L142.89 26.3L144.29 25.54L144.51 25.6L145.17 26.54L144.63 29.1L143.81 29.96L143.22 31.18L143.42 32.35L142.27 33.12ZM141.82 8.75L139.95 6.73001L142.5 4.29001L142.75 4.33002L143.4 5.38L142.54 6.70001L141.82 8.75Z" fill="#5D4989" stroke="white" stroke-width="0.7" stroke-linejoin="round"/>
<path d="M174.5 15.0001L169.5 12.1133V17.8869L174.5 15.0001ZM119 15.5001H119.991V14.5001H119V15.5001ZM121.973 15.5001H123.955V14.5001H121.973V15.5001ZM125.938 15.5001H127.92V14.5001H125.938V15.5001ZM129.902 15.5001H131.884V14.5001H129.902V15.5001ZM133.866 15.5001H135.848V14.5001H133.866V15.5001ZM137.83 15.5001H139.812V14.5001H137.83V15.5001ZM141.795 15.5001H143.777V14.5001H141.795V15.5001ZM145.759 15.5001H147.741V14.5001H145.759V15.5001ZM149.723 15.5001H151.705V14.5001H149.723V15.5001ZM153.688 15.5001H155.67V14.5001H153.688V15.5001ZM157.652 15.5001H159.634V14.5001H157.652V15.5001ZM161.616 15.5001H163.598V14.5001H161.616V15.5001ZM165.58 15.5001H167.563V14.5001H165.58V15.5001ZM169.545 15.5001H171.527V14.5001H169.545V15.5001Z" fill="#D35555"/>
<path d="M174 101.887L169 99V104.774L174 101.887ZM71 102.387H71.9904V101.387H71V102.387ZM73.9712 102.387H75.9519V101.387H73.9712V102.387ZM77.9327 102.387H79.9135V101.387H77.9327V102.387ZM81.8942 102.387H83.875V101.387H81.8942V102.387ZM85.8558 102.387H87.8365V101.387H85.8558V102.387ZM89.8173 102.387H91.7981V101.387H89.8173V102.387ZM93.7788 102.387H95.7596V101.387H93.7788V102.387ZM97.7404 102.387H99.7212V101.387H97.7404V102.387ZM101.702 102.387H103.683V101.387H101.702V102.387ZM105.663 102.387H107.644V101.387H105.663V102.387ZM109.625 102.387H111.606V101.387H109.625V102.387ZM113.587 102.387H115.567V101.387H113.587V102.387ZM117.548 102.387H119.529V101.387H117.548V102.387ZM121.51 102.387H123.49V101.387H121.51V102.387ZM125.471 102.387H127.452V101.387H125.471V102.387ZM129.433 102.387H131.413V101.387H129.433V102.387ZM133.394 102.387H135.375V101.387H133.394V102.387ZM137.356 102.387H139.337V101.387H137.356V102.387ZM141.317 102.387H143.298V101.387H141.317V102.387ZM145.279 102.387H147.26V101.387H145.279V102.387ZM149.24 102.387H151.221V101.387H149.24V102.387ZM153.202 102.387H155.183V101.387H153.202V102.387ZM157.163 102.387H159.144V101.387H157.163V102.387ZM161.125 102.387H163.106V101.387H161.125V102.387ZM165.087 102.387H167.067V101.387H165.087V102.387ZM169.048 102.387H171.029V101.387H169.048V102.387Z" fill="#D35555"/>
</svg>
