<svg viewBox="0 0 311 222">
<path d="M310.013 213.237C310.013 208.902 243.413 205.453 161.213 205.453C79.013 205.453 12.413 209 12.413 213.237C12.413 217.573 79.013 221.022 161.213 221.022C243.413 221.121 310.013 217.573 310.013 213.237Z" fill="#F9F8FA"/>
<path d="M30.9129 209.592C13.6129 209.493 -0.4871 195.5 0.0129003 178.552C0.3129 169.289 3.8129 160.42 14.5129 155.493C42.7129 142.683 3.3129 59.2205 53.2129 50.9432C103.113 42.5673 101.113 -20.9906 159.513 26.5054C190.713 51.83 208.213 45.425 223.513 38.9214C236.913 33.3046 248.713 27.5893 266.413 43.1586C304.413 76.5634 241.513 118.935 288.713 140.713C319.813 155.099 309.613 180.917 299.113 196.88C293.413 205.551 283.513 210.675 273.013 210.577L30.9129 209.592Z" fill="#F0EFF4"/>
<path d="M283.713 208.803C289.913 206.635 295.213 202.497 298.913 197.077C295.313 202.595 289.913 206.635 283.713 208.803ZM200.613 44.7353C209.213 44.7353 216.313 41.9762 223.013 39.1185C216.313 41.9762 209.113 44.7353 200.613 44.7353ZM223.713 38.8229C230.513 35.9653 236.913 33.1076 243.913 33.1076C237.013 33.1076 230.613 35.9653 223.713 38.8229ZM159.413 26.5055C157.713 25.1259 156.113 23.9435 154.613 22.761C156.113 23.8449 157.813 25.1259 159.413 26.5055Z" fill="#F7F6F9"/>
<path d="M273.113 210.676C276.813 210.676 280.413 210.084 283.713 208.803C280.313 209.986 276.713 210.676 273.113 210.676Z" fill="#F0EFF4"/>
<path d="M273.113 210.676C273.013 210.676 273.013 210.676 273.113 210.676C273.013 210.676 273.013 210.676 273.013 210.676L230.613 210.478C243.113 191.46 248.013 167.121 240.013 153.72C241.813 153.523 243.613 153.03 245.313 152.439L247.313 151.65C246.713 150.172 243.713 136.278 246.313 127.508C248.113 121.497 244.813 119.724 243.113 119.231C239.113 116.965 232.713 117.162 230.613 117.162C230.113 117.162 229.613 116.866 229.413 116.472L222.413 102.775C228.613 82.9685 235.113 63.7534 215.313 63.7534C214.413 63.7534 213.413 63.7534 212.313 63.8519C208.913 64.1475 205.713 64.2461 202.713 64.2461C197.013 64.2461 191.913 63.7534 187.313 62.8665C186.713 57.2498 181.913 52.914 176.013 52.717C176.013 52.717 176.013 52.717 175.913 52.717C175.913 52.717 175.913 52.717 175.813 52.717C175.813 52.717 175.813 52.717 175.713 52.717H164.413C153.113 44.2426 144.613 31.7281 134.013 17.2428C131.513 13.7939 128.713 11.2319 125.813 9.26111C133.513 9.85234 142.713 13.7939 154.613 22.6625C156.213 23.8449 157.813 25.1259 159.413 26.407C159.413 26.407 159.413 26.407 159.513 26.5055C159.613 26.5055 159.613 26.604 159.713 26.604C176.613 40.301 189.513 44.6367 200.213 44.6367H200.313C200.413 44.6367 200.413 44.6367 200.513 44.6367C209.113 44.6367 216.213 41.8776 222.913 39.02C223.013 38.9215 223.213 38.9215 223.313 38.8229C223.313 38.8229 223.313 38.8229 223.413 38.8229C223.413 38.8229 223.413 38.8229 223.513 38.8229C223.513 38.8229 223.613 38.8229 223.613 38.7244C230.413 35.8667 236.813 33.0091 243.813 33.0091C250.413 33.0091 257.513 35.5711 266.013 42.9616L266.113 43.0601C275.913 51.633 279.013 60.8957 279.013 70.1584C279.013 86.0233 269.913 102.184 269.913 116.078C269.913 125.538 274.113 134.012 288.413 140.614C304.013 147.807 309.213 157.858 309.213 168.205C309.213 178.453 304.013 188.8 298.713 196.782L298.613 196.88C294.913 202.398 289.513 206.438 283.413 208.606C280.313 209.986 276.713 210.676 273.113 210.676ZM229.213 145.048C228.613 144.851 227.913 144.654 227.213 144.457C218.813 142.388 216.213 136.377 216.313 128.592C218.213 131.056 220.013 132.928 221.013 133.224C221.113 133.224 221.213 133.224 221.413 133.224C222.413 133.224 224.713 132.632 227.213 131.844C227.413 132.829 227.813 133.815 228.413 134.8C230.213 137.658 229.913 141.599 229.213 145.048ZM220.813 124.946C220.813 124.946 219.313 123.37 217.213 121.3C218.013 116.669 219.413 111.742 221.013 106.815L224.913 120.808C225.213 121.892 225.813 122.877 227.313 122.877C227.513 122.877 227.613 122.877 227.813 122.877L220.813 124.946Z" fill="#E8E6EE"/>
<path d="M118.813 63.6548C118.813 63.6548 113.513 63.2606 108.713 60.9942C103.913 58.8264 99.6129 54.6877 102.013 50.5491C105.613 44.9323 95.4129 40.1039 98.8129 36.9506C102.313 34.1915 103.113 36.4579 101.713 30.25C100.613 23.9434 105.013 22.3668 107.613 16.6515C110.513 10.9362 117.113 15.1734 115.413 22.6624C114.713 27.0967 115.413 26.3084 116.513 25.5201C117.313 24.9288 118.413 24.3376 119.413 25.8157C121.313 28.6733 113.813 40.9908 117.113 39.9068C120.213 38.5273 122.813 40.3995 122.413 43.8484C121.313 51.9286 118.713 63.4577 118.813 63.6548Z" fill="#D3CEDF"/>
<path d="M121.313 66.9066C117.113 62.1767 112.413 54.8848 110.113 46.5089V46.4104H110.013C107.913 45.1294 105.913 43.3557 104.113 41.582C103.513 40.9907 102.913 40.3995 102.313 39.7097V39.6112L102.513 39.5126C103.113 40.1039 103.713 40.6951 104.213 41.2864C105.913 42.9615 107.713 44.6367 109.613 45.8192C109.713 45.9177 109.813 45.9177 109.913 46.0162C109.913 45.9177 109.813 45.7206 109.813 45.6221C108.913 42.0747 108.313 38.3302 108.213 34.2901V34.1915H108.113C106.613 31.9251 105.313 29.3631 104.513 26.5055V26.4069H104.613V26.5055C105.413 29.0675 106.513 31.4324 107.813 33.6003C107.913 33.7974 108.013 33.8959 108.113 33.9944C108.113 33.7974 108.113 33.6003 108.113 33.5017C108.113 29.6587 108.413 25.6186 109.313 21.3814V21.2829H109.413V21.3814C108.213 27.1952 108.013 32.6149 108.413 37.6404C108.413 37.7389 108.413 37.8375 108.413 37.936C108.513 37.8375 108.513 37.8375 108.613 37.7389C111.113 35.374 113.213 32.812 115.013 30.1514H115.113L115.213 30.2499V30.3485C113.313 33.2061 111.113 35.8667 108.513 38.2316L108.413 38.3302V38.4287C108.713 41.2864 109.213 43.8484 109.913 46.3119V46.4104C110.513 48.5783 111.313 50.8447 112.413 53.2096C112.513 53.3082 112.513 53.5052 112.613 53.6038C112.613 53.5052 112.713 53.3082 112.713 53.2096C113.813 49.3666 115.313 45.9177 117.313 42.7644H117.413L117.513 42.863V42.9615C115.413 46.2133 113.813 49.9578 112.713 53.9979V54.0965V54.195C114.613 58.3337 117.213 62.4723 121.013 66.9066V67.0051L121.313 66.9066Z" fill="#B4ABC9"/>
<path d="M106.413 83.067C106.413 83.067 106.913 77.4503 105.413 72.0306C104.013 66.611 100.513 61.4869 96.0129 63.3591C92.9129 64.8372 90.5129 62.6694 88.5129 60.6001C86.4129 58.4322 84.7129 56.3629 82.8129 57.9395C79.4129 61.2898 81.6129 62.3738 75.5129 60.0088C69.3129 57.8409 67.0129 62.2752 60.8129 64.0489C54.5129 66.2168 57.7129 73.8043 65.5129 73.2131C73.5129 73.016 64.9129 74.9868 68.1129 77.943C69.3129 79.1255 73.1129 78.3371 76.5129 77.6474C80.3129 76.859 83.6129 75.9722 82.7129 77.7459C80.8129 80.8006 82.3129 83.8553 85.8129 83.9539C94.1129 83.9539 106.213 82.8699 106.413 83.067Z" fill="#D3CEDF"/>
<path d="M109.213 86.1217V86.0232C105.113 80.8991 98.6129 74.8882 90.5129 71.1437H90.4129V71.0452C89.5129 68.5817 88.0129 66.2167 86.5129 64.0489C86.0129 63.3591 85.5129 62.5708 84.9129 61.881H84.8129C84.7129 61.881 84.7129 61.9796 84.7129 62.0781C85.2129 62.7679 85.7129 63.4576 86.2129 64.1474C87.6129 66.2167 89.0129 68.2861 89.9129 70.5525C90.0129 70.651 90.0129 70.8481 90.1129 70.9466C90.0129 70.8481 89.9129 70.8481 89.7129 70.7496C86.3129 69.1729 82.6129 68.089 78.5129 67.3007H78.4129V67.2021C76.4129 65.2313 74.0129 63.5562 71.3129 62.1766H71.2129V62.2752L71.3129 62.3737C73.7129 63.5562 76.0129 65.1328 77.9129 66.9065C78.0129 67.0051 78.2129 67.2021 78.3129 67.3007C78.1129 67.3007 77.9129 67.2021 77.8129 67.2021C73.9129 66.5124 69.8129 66.3153 65.3129 66.6109H65.2129V66.7094L65.3129 66.808C71.4129 66.4138 76.9129 67.0051 81.9129 68.2861C82.0129 68.2861 82.1129 68.3846 82.2129 68.3846C82.1129 68.4832 82.0129 68.4831 82.0129 68.5817C79.2129 70.8481 76.3129 72.7203 73.2129 74.1984V74.297L73.3129 74.3955H73.4129C76.6129 72.9174 79.6129 70.9466 82.5129 68.5817L82.6129 68.4831H82.7129C85.5129 69.2715 88.0129 70.1583 90.4129 71.2422H90.5129C92.6129 72.2276 94.7129 73.4101 96.9129 74.8882C97.0129 74.9867 97.1129 75.0853 97.3129 75.0853C97.2129 75.0853 97.0129 75.0853 96.9129 75.1838C92.9129 75.6765 89.0129 76.859 85.6129 78.4356L85.5129 78.5342L85.6129 78.6327H85.7129C89.3129 76.9575 93.4129 75.7751 97.6129 75.2824H97.7129H97.8129C101.613 77.9429 105.413 81.2933 109.213 86.0232H109.313L109.213 86.1217Z" fill="#B4ABC9"/>
<path d="M102.813 71.9321C102.713 71.9321 106.613 66.808 108.213 60.6001C109.913 54.4906 109.413 47.1987 103.513 46.2133C95.2129 45.0308 98.8129 31.8266 93.1129 32.5163C87.6129 33.5017 89.2129 36.0638 84.4129 29.8558C79.2129 23.7463 74.2129 26.604 66.8129 24.4361C59.1129 22.5639 57.9129 31.9251 66.3129 36.3594C74.7129 41.2863 64.7129 37.7389 66.2129 42.5674C67.4129 46.6075 85.2129 49.5636 81.5129 51.7315C77.8129 53.5052 77.5129 57.3483 81.1129 59.7132C89.6129 64.9358 102.813 71.735 102.813 71.9321Z" fill="#B4ABC9"/>
<path d="M104.013 76.7605V76.6619C102.813 69.1729 99.6129 59.1219 93.4129 50.2534V50.1548V50.0563C93.9129 47.1001 93.8129 43.9469 93.5129 40.7936C93.4129 39.8082 93.3129 38.7243 93.2129 37.7389H93.0129C92.9129 37.7389 92.8129 37.7389 92.8129 37.8374V37.936C92.9129 38.9214 93.0129 39.9067 93.1129 40.9907C93.4129 43.8483 93.5129 46.8045 93.1129 49.5636C93.1129 49.7607 93.1129 49.8592 93.0129 50.0563C92.9129 49.9578 92.8129 49.7607 92.7129 49.6621C90.1129 46.0162 86.9129 42.4688 83.1129 39.1184L83.0129 39.0199V38.9214V38.8228C82.0129 35.571 80.6129 32.4178 78.6129 29.4616L78.5129 29.363C78.4129 29.363 78.4129 29.4616 78.4129 29.4616V29.5601C80.2129 32.3192 81.6129 35.1769 82.6129 38.133C82.7129 38.3301 82.7129 38.5272 82.8129 38.7243C82.6129 38.6257 82.5129 38.4287 82.3129 38.3301C78.6129 35.2754 74.5129 32.3192 69.7129 29.7572H69.6129L69.5129 29.8557C69.5129 29.9543 69.5129 29.9543 69.6129 29.9543C76.2129 33.5017 81.6129 37.5418 86.0129 41.9761C86.1129 42.0746 86.2129 42.1732 86.3129 42.2717C86.2129 42.2717 86.0129 42.2717 85.9129 42.2717C81.7129 42.6658 77.5129 42.6658 73.5129 42.0746L73.4129 42.1732V42.2717L73.5129 42.3702C77.7129 42.9615 82.0129 42.9615 86.4129 42.4688H86.5129L86.6129 42.5673C89.1129 45.1293 91.1129 47.5928 93.0129 50.1548V50.2534L93.1129 50.3519H93.2129C94.8129 52.6183 96.3129 55.1803 97.7129 57.9395C97.8129 58.1365 97.9129 58.2351 97.9129 58.4321C97.7129 58.3336 97.6129 58.3336 97.4129 58.2351C92.9129 56.1657 88.3129 54.7862 83.8129 54.195C83.7129 54.195 83.7129 54.195 83.7129 54.2935V54.392H83.8129C88.6129 55.0818 93.4129 56.5599 98.1129 58.8263H98.2129V58.9248C100.613 63.9504 102.613 69.6656 103.813 76.6619C103.813 76.7605 103.813 76.7605 103.913 76.7605H104.013Z" fill="#A69BBE"/>
<path d="M175.613 52.6184H109.413C103.013 52.6184 97.813 57.7425 97.813 63.9504V199.146C97.813 205.453 103.013 210.478 109.413 210.478H175.613C182.013 210.478 187.213 205.354 187.213 199.146V64.049C187.213 57.7425 182.013 52.6184 175.613 52.6184Z" fill="#8778A8"/>
<path d="M175.613 52.6184H109.413C103.013 52.6184 97.813 57.7425 97.813 63.9504V199.146C97.813 202.792 99.613 206.044 102.313 208.114L186.313 59.4176C184.513 55.4761 180.413 52.6184 175.613 52.6184Z" fill="#7C6C9F"/>
<path d="M155.413 58.2351H130.813C130.113 58.2351 129.613 58.7278 129.613 59.4176C129.613 60.1074 130.213 60.6001 130.813 60.6001H155.413C156.113 60.6001 156.613 60.1074 156.613 59.4176C156.713 58.7278 156.113 58.2351 155.413 58.2351Z" fill="white"/>
<path d="M175.613 56.954H165.913L162.413 63.4576C161.113 65.9211 158.513 67.3992 155.713 67.3992H129.313C126.513 67.3992 123.913 65.9211 122.613 63.4576L119.113 56.954H109.413C105.413 56.954 102.113 60.1073 102.113 64.0489V199.245C102.113 203.186 105.413 206.34 109.413 206.34H175.613C179.613 206.34 182.913 203.186 182.913 199.245V64.0489C182.913 60.1073 179.613 56.954 175.613 56.954Z" fill="#F0EFF4"/>
<path d="M104.413 204.467C104.113 204.27 103.913 203.975 103.713 203.679C103.913 203.975 104.213 204.172 104.413 204.467ZM102.313 200.723C102.213 200.23 102.213 199.836 102.213 199.343V64.0489C102.213 63.4577 102.313 62.7679 102.413 62.1767C102.213 62.7679 102.213 63.3591 102.213 64.0489V199.245C102.213 199.738 102.213 200.23 102.313 200.723ZM103.413 60.0088C104.713 58.1365 106.913 56.8555 109.413 56.8555C106.913 56.9541 104.713 58.1365 103.413 60.0088ZM180.513 58.7278C179.213 57.5453 177.513 56.8555 175.613 56.8555C177.513 56.9541 179.213 57.6438 180.513 58.7278Z" fill="#7A6A9E"/>
<path d="M104.413 204.467C104.113 204.27 103.913 203.975 103.713 203.679C103.013 202.792 102.513 201.807 102.313 200.723C102.213 200.23 102.213 199.836 102.213 199.343V64.0489C102.213 63.4577 102.313 62.7679 102.413 62.1767C102.613 61.3883 103.013 60.6986 103.413 60.0088C104.713 58.1365 106.913 56.8555 109.413 56.8555H119.113L119.413 57.3482L122.613 63.3591C123.913 65.8226 126.513 67.3007 129.313 67.3007H155.713C158.513 67.3007 161.113 65.8226 162.413 63.3591L165.013 58.5307L165.913 56.8555H175.613C177.513 56.8555 179.213 57.5453 180.513 58.7278C182.013 60.0088 182.913 61.881 182.913 63.9504V65.4285L176.313 77.1546H114.813C112.013 77.1546 109.713 79.421 109.713 82.1801V106.519C109.713 109.278 112.013 111.545 114.813 111.545H156.913L104.413 204.467Z" fill="#E2DEEA"/>
<path d="M215.313 77.2532H114.813C112.013 77.2532 109.713 79.5196 109.713 82.2787V106.618C109.713 109.377 112.013 111.643 114.813 111.643H215.313C218.113 111.643 220.413 109.377 220.413 106.618V82.2787C220.413 79.5196 218.113 77.2532 215.313 77.2532Z" fill="white"/>
<path d="M158.613 88.6838L159.313 90.7531C159.313 90.8517 159.513 90.9502 159.613 90.9502H161.813C162.113 90.9502 162.313 91.3444 162.013 91.5415L160.213 92.8225C160.113 92.921 160.013 93.0195 160.113 93.2166L160.813 95.2859C160.913 95.5816 160.513 95.8772 160.313 95.6801L158.513 94.3991C158.413 94.3005 158.213 94.3005 158.113 94.3991L156.313 95.6801C156.013 95.8772 155.613 95.5816 155.813 95.2859L156.513 93.2166C156.513 93.1181 156.513 92.921 156.413 92.8225L154.613 91.5415C154.313 91.3444 154.513 90.9502 154.813 90.9502H157.013C157.213 90.9502 157.313 90.8517 157.313 90.7531L158.013 88.6838C158.013 88.3882 158.513 88.3882 158.613 88.6838Z" fill="#FFCA5E"/>
<path d="M170.813 88.6838L171.513 90.7531C171.513 90.8517 171.713 90.9502 171.813 90.9502H174.013C174.313 90.9502 174.513 91.3444 174.213 91.5415L172.413 92.8225C172.313 92.921 172.213 93.0195 172.313 93.2166L173.013 95.2859C173.113 95.5816 172.713 95.8772 172.513 95.6801L170.713 94.3991C170.613 94.3005 170.413 94.3005 170.313 94.3991L168.513 95.6801C168.213 95.8772 167.813 95.5816 168.013 95.2859L168.713 93.2166C168.713 93.1181 168.713 92.921 168.613 92.8225L166.813 91.5415C166.513 91.3444 166.713 90.9502 167.013 90.9502H169.213C169.413 90.9502 169.513 90.8517 169.513 90.7531L170.213 88.6838C170.213 88.3882 170.713 88.3882 170.813 88.6838Z" fill="#FFCA5E"/>
<path d="M183.113 88.6838L183.813 90.7531C183.813 90.8517 184.013 90.9502 184.113 90.9502H186.313C186.613 90.9502 186.813 91.3444 186.513 91.5415L184.713 92.8225C184.613 92.921 184.513 93.0195 184.613 93.2166L185.313 95.2859C185.413 95.5816 185.013 95.8772 184.813 95.6801L183.013 94.3991C182.913 94.3005 182.713 94.3005 182.613 94.3991L180.813 95.6801C180.513 95.8772 180.113 95.5816 180.313 95.2859L181.013 93.2166C181.013 93.1181 181.013 92.921 180.913 92.8225L179.113 91.5415C178.813 91.3444 179.013 90.9502 179.313 90.9502H181.513C181.713 90.9502 181.813 90.8517 181.813 90.7531L182.513 88.6838C182.513 88.3882 183.013 88.3882 183.113 88.6838Z" fill="#FFCA5E"/>
<path d="M195.313 88.6838L196.013 90.7531C196.013 90.8517 196.213 90.9502 196.313 90.9502H198.513C198.813 90.9502 199.013 91.3444 198.713 91.5415L196.913 92.8225C196.813 92.921 196.713 93.0195 196.813 93.2166L197.513 95.2859C197.613 95.5816 197.213 95.8772 197.013 95.6801L195.213 94.3991C195.113 94.3005 194.913 94.3005 194.813 94.3991L193.013 95.6801C192.713 95.8772 192.313 95.5816 192.513 95.2859L193.213 93.2166C193.213 93.1181 193.213 92.921 193.113 92.8225L191.313 91.5415C191.013 91.3444 191.213 90.9502 191.513 90.9502H193.713C193.913 90.9502 194.013 90.8517 194.013 90.7531L194.713 88.6838C194.713 88.3882 195.213 88.3882 195.313 88.6838Z" fill="#FFCA5E"/>
<path d="M207.513 88.6838L208.213 90.7531C208.213 90.8517 208.413 90.9502 208.513 90.9502H210.713C211.013 90.9502 211.213 91.3444 210.913 91.5415L209.113 92.8225C209.013 92.921 208.913 93.0195 209.013 93.2166L209.713 95.2859C209.813 95.5816 209.413 95.8772 209.213 95.6801L207.413 94.3991C207.313 94.3005 207.113 94.3005 207.013 94.3991L205.213 95.6801C204.913 95.8772 204.513 95.5816 204.713 95.2859L205.413 93.2166C205.413 93.1181 205.413 92.921 205.313 92.8225L203.513 91.5415C203.213 91.3444 203.413 90.9502 203.713 90.9502H205.913C206.113 90.9502 206.213 90.8517 206.213 90.7531L206.913 88.6838C207.013 88.3882 207.413 88.3882 207.513 88.6838Z" fill="#FFCA5E"/>
<path d="M189.913 99.2276H154.313V100.213H189.913V99.2276Z" fill="#E2DEEA"/>
<path d="M189.913 83.2642H154.313V85.1364H189.913V83.2642Z" fill="#B4ABC9"/>
<path d="M189.913 102.873H154.313V103.859H189.913V102.873Z" fill="#E2DEEA"/>
<path d="M170.613 106.322H154.313V107.308H170.613V106.322Z" fill="#E2DEEA"/>
<path d="M146.513 94.9902C146.513 87.3042 140.113 81.0962 132.313 81.0962C124.513 81.0962 118.113 87.3042 118.113 94.9902C118.113 102.676 124.513 108.884 132.313 108.884C140.113 108.884 146.513 102.676 146.513 94.9902Z" fill="#D3CEDF"/>
<path d="M146.513 94.9902C146.513 87.3042 140.113 81.0962 132.313 81.0962C124.513 81.0962 118.113 87.3042 118.113 94.9902C118.113 102.676 124.513 108.884 132.313 108.884C140.113 108.884 146.513 102.676 146.513 94.9902Z" fill="#5D4989"/>
<path d="M139.413 103.366L138.213 90.556C138.213 87.3042 136.913 84.2495 133.313 85.1363C131.713 84.348 129.713 84.5451 128.413 85.7276C127.013 87.0086 126.213 88.9793 126.213 90.9501L124.813 103.465L139.413 103.366Z" fill="#8778A8"/>
<path d="M134.413 96.7641V99.6217C134.413 99.6217 134.013 101.79 132.113 102.184C130.113 101.691 129.813 99.6217 129.813 99.6217V96.7641H134.413Z" fill="#CDC7DA"/>
<path d="M134.413 96.3698V98.1435C133.713 98.5377 132.913 98.7348 132.113 98.7348C131.313 98.7348 130.513 98.5377 129.813 98.1435V96.3698H134.413Z" fill="#B4ABC9"/>
<path d="M136.813 90.6545C134.713 90.556 133.313 88.9794 133.313 88.9794C132.013 90.0633 127.513 90.6545 127.513 90.6545V92.4282C127.513 93.7093 128.113 95.3844 129.013 96.5669C129.713 97.5523 130.913 98.1435 132.213 98.1435C133.513 98.1435 134.713 97.5523 135.413 96.5669C136.313 95.3844 136.913 93.7093 136.913 92.4282L136.813 90.6545Z" fill="#CDC7DA"/>
<path d="M143.513 104.352C141.713 101.297 134.113 99.6216 134.113 99.6216L132.113 100.41L130.113 99.6216C130.113 99.6216 122.513 101.297 120.713 104.352L118.513 120.709L122.013 120.611L124.113 107.012C124.113 107.012 125.413 111.446 125.313 114.008C125.213 116.57 124.413 120.808 124.413 120.808H131.913H132.313H139.813C139.813 120.808 139.013 116.57 138.913 114.008C138.813 111.446 140.113 107.012 140.113 107.012L142.213 120.611L145.713 120.709L143.513 104.352Z" fill="#CDC7DA"/>
<path d="M138.213 100.903C137.613 102.578 136.013 105.238 132.013 105.436C128.013 105.238 126.413 102.578 125.813 100.903C124.613 101.297 123.413 101.888 122.413 102.578L123.813 107.012L123.913 107.111V107.012C123.913 107.012 124.013 107.209 124.013 107.505V107.702C124.413 108.983 125.113 112.038 125.013 114.008C124.913 116.57 124.113 120.808 124.113 120.808H131.613H132.013H139.513C139.513 120.808 138.713 116.57 138.613 114.008C138.513 111.446 139.813 107.012 139.813 107.012V107.209C139.813 107.111 139.913 107.111 139.913 107.012L141.313 102.578C140.613 101.888 139.413 101.297 138.213 100.903Z" fill="#B4ABC9"/>
<path d="M230.413 117.063C229.913 117.063 229.413 116.768 229.213 116.373L221.913 102.184C221.913 102.184 221.013 98.7349 220.013 98.7349L219.913 103.268L224.813 120.709C225.113 121.793 225.713 122.778 227.213 122.778C230.213 122.877 235.813 123.764 239.413 124.749C243.113 125.735 246.213 124.749 246.213 124.749C246.413 116.768 233.613 117.162 230.413 117.063Z" fill="#CDC7DA"/>
<path d="M241.313 115.29V119.33H235.013V117.063C235.013 117.063 230.913 116.078 231.113 112.432C231.313 108.786 233.013 107.012 234.013 106.717C234.913 106.421 239.513 108.195 239.613 108.49C239.713 108.687 240.213 112.53 240.213 112.53L241.313 115.29Z" fill="#CDC7DA"/>
<path d="M234.813 109.771C234.813 109.771 235.913 108.194 236.913 108.983C237.913 109.771 237.413 111.249 236.113 112.038C236.113 112.038 237.413 116.373 240.013 116.078C242.613 115.782 245.913 113.121 245.613 108.983C245.313 104.844 239.813 101.888 236.713 102.479C233.713 103.07 230.713 106.421 234.813 109.771Z" fill="#8F81AE"/>
<path d="M245.613 106.421C245.613 106.421 249.013 102.184 252.313 105.83C255.713 109.476 257.813 113.516 259.313 114.304C260.813 115.092 258.013 116.965 254.313 115.782C250.613 114.698 245.813 110.165 245.613 106.421Z" fill="#8F81AE"/>
<path d="M235.113 119.33V117.063C235.113 117.063 237.713 117.162 238.713 116.176C238.713 116.176 237.913 117.95 236.313 117.95V119.33H235.113Z" fill="#B6ADCA"/>
<path d="M232.313 151.65C232.313 151.65 233.813 174.216 235.713 178.946C237.613 183.676 249.413 205.157 249.413 205.157L255.513 203.876L246.713 178.256C246.613 179.833 245.513 172.442 247.613 164.953C248.913 160.519 248.413 155.789 246.513 151.946L231.113 151.749H232.313V151.65Z" fill="#9B8EB6"/>
<path d="M246.513 150.665C246.513 150.665 245.913 156.971 238.613 164.066C231.213 171.26 228.213 176.088 228.213 176.088L227.113 207.128H221.013C221.013 207.128 217.413 174.413 217.513 173.23C217.613 172.048 227.813 150.665 229.013 148.793C230.113 146.92 246.513 150.665 246.513 150.665Z" fill="#B4ABC9"/>
<path d="M242.013 119.034C242.013 119.034 248.613 119.527 246.213 127.508C243.613 136.278 246.613 150.172 247.213 151.65L245.213 152.439C239.313 154.607 232.813 154.508 226.913 152.045C226.913 152.045 232.113 140.811 228.413 134.899C226.013 131.056 226.713 127.311 229.513 123.862C231.313 121.694 233.613 119.329 234.513 119.329L242.013 119.034Z" fill="#CBC5D9"/>
<path d="M221.013 207.128H222.313L219.713 173.428C220.113 172.738 221.613 170.077 226.213 161.504C227.813 158.548 228.913 155.69 229.713 153.03C228.913 152.833 228.113 152.537 227.313 152.242C224.113 158.745 217.713 172.344 217.613 173.329C217.413 174.413 221.013 207.128 221.013 207.128Z" fill="#A69BBE"/>
<path d="M233.713 132.731C230.613 133.815 232.913 141.797 229.613 152.932C228.713 152.636 227.813 152.34 226.913 151.946C226.913 151.946 232.113 140.713 228.413 134.8C227.213 132.928 226.813 131.056 227.013 129.184L240.013 126.326C240.113 126.326 237.913 131.154 233.713 132.731Z" fill="#C0B8D1"/>
<path d="M205.613 112.727C205.613 112.727 217.513 132.14 221.013 133.224C222.513 133.716 232.213 130.07 236.313 129.38C238.513 128.986 240.013 127.114 239.813 124.848C239.613 122.384 236.613 120.216 234.213 120.808L220.813 124.848C220.813 124.848 209.513 113.417 206.913 110.757C206.913 110.757 205.913 107.505 204.313 107.505C202.913 107.603 205.113 111.643 205.613 112.727Z" fill="#CDC7DA"/>
<path d="M215.113 209.099C216.813 208.606 220.013 207.916 221.113 207.128H227.113C227.013 208.311 227.013 209.395 227.013 210.183C227.013 210.676 226.613 211.07 226.013 211.07H214.113C213.313 211.07 213.013 210.084 213.713 209.69C214.113 209.493 214.613 209.296 215.113 209.099Z" fill="#8F81AE"/>
<path d="M244.213 208.409C245.713 207.522 248.713 206.143 249.613 205.157L255.413 203.876C255.613 205.059 255.813 206.143 256.013 206.833C256.113 207.325 255.813 207.818 255.313 207.916L243.813 210.577C243.013 210.774 242.513 209.887 243.113 209.296C243.313 209 243.713 208.705 244.213 208.409Z" fill="#8F81AE"/>
<path d="M234.213 120.808C234.413 120.808 234.613 120.709 234.913 120.709C234.613 120.808 234.413 120.808 234.213 120.808Z" fill="#BEB6D0"/>
<path d="M221.113 126.621C218.013 126.523 206.913 110.855 206.913 110.855C209.413 113.516 220.813 124.946 220.813 124.946L234.213 120.906C234.413 120.906 234.613 120.808 234.913 120.808H235.013C237.113 120.808 239.213 122.384 239.713 124.355C239.113 123.961 238.113 123.764 236.913 123.764C234.413 123.764 231.113 124.453 228.013 125.242C225.013 125.932 222.313 126.621 221.113 126.621Z" fill="#C0B8D1"/>
<path d="M245.513 106.125L244.613 106.322C244.613 106.322 245.713 108.096 245.513 109.771L246.613 109.574C246.713 109.574 246.613 106.52 245.513 106.125Z" fill="white"/>
<path d="M166.913 119.527H66.413C63.613 119.527 61.313 121.793 61.313 124.552V148.891C61.313 151.65 63.613 153.917 66.413 153.917H166.913C169.713 153.917 172.013 151.65 172.013 148.891V124.552C172.013 121.793 169.713 119.527 166.913 119.527Z" fill="white"/>
<path d="M110.213 130.957L110.913 133.026C110.913 133.125 111.113 133.224 111.213 133.224H113.413C113.713 133.224 113.913 133.618 113.613 133.815L111.813 135.096C111.713 135.194 111.613 135.293 111.713 135.49L112.413 137.559C112.513 137.855 112.113 138.15 111.913 137.953L110.113 136.672C110.013 136.574 109.813 136.574 109.713 136.672L107.913 137.953C107.613 138.15 107.213 137.855 107.413 137.559L108.113 135.49C108.113 135.391 108.113 135.194 108.013 135.096L106.213 133.815C105.913 133.618 106.113 133.224 106.413 133.224H108.613C108.813 133.224 108.913 133.125 108.913 133.026L109.613 130.957C109.613 130.662 110.113 130.662 110.213 130.957Z" fill="#FFCA5E"/>
<path d="M122.413 130.957L123.113 133.026C123.113 133.125 123.313 133.224 123.413 133.224H125.613C125.913 133.224 126.113 133.618 125.813 133.815L124.013 135.096C123.913 135.194 123.813 135.293 123.913 135.49L124.613 137.559C124.713 137.855 124.313 138.15 124.113 137.953L122.313 136.672C122.213 136.574 122.013 136.574 121.913 136.672L120.113 137.953C119.813 138.15 119.413 137.855 119.613 137.559L120.313 135.49C120.313 135.391 120.313 135.194 120.213 135.096L118.413 133.815C118.113 133.618 118.313 133.224 118.613 133.224H120.813C121.013 133.224 121.113 133.125 121.113 133.026L121.813 130.957C121.913 130.662 122.313 130.662 122.413 130.957Z" fill="#FFCA5E"/>
<path d="M134.713 130.957L135.413 133.026C135.413 133.125 135.613 133.224 135.713 133.224H137.913C138.213 133.224 138.413 133.618 138.113 133.815L136.313 135.096C136.213 135.194 136.113 135.293 136.213 135.49L136.913 137.559C137.013 137.855 136.613 138.15 136.413 137.953L134.613 136.672C134.513 136.574 134.313 136.574 134.213 136.672L132.413 137.953C132.113 138.15 131.713 137.855 131.913 137.559L132.613 135.49C132.613 135.391 132.613 135.194 132.513 135.096L130.713 133.815C130.413 133.618 130.613 133.224 130.913 133.224H133.113C133.313 133.224 133.413 133.125 133.413 133.026L134.113 130.957C134.113 130.662 134.613 130.662 134.713 130.957Z" fill="#FFCA5E"/>
<path d="M146.913 130.957L147.613 133.026C147.613 133.125 147.813 133.224 147.913 133.224H150.113C150.413 133.224 150.613 133.618 150.313 133.815L148.513 135.096C148.413 135.194 148.313 135.293 148.413 135.49L149.113 137.559C149.213 137.855 148.813 138.15 148.613 137.953L146.813 136.672C146.713 136.574 146.513 136.574 146.413 136.672L144.613 137.953C144.313 138.15 143.913 137.855 144.113 137.559L144.813 135.49C144.813 135.391 144.813 135.194 144.713 135.096L142.913 133.815C142.613 133.618 142.813 133.224 143.113 133.224H145.313C145.513 133.224 145.613 133.125 145.613 133.026L146.313 130.957C146.313 130.662 146.813 130.662 146.913 130.957Z" fill="#FFCA5E"/>
<path d="M159.213 130.957L159.913 133.026C159.913 133.125 160.113 133.224 160.213 133.224H162.413C162.713 133.224 162.913 133.618 162.613 133.815L160.813 135.096C160.713 135.194 160.613 135.293 160.713 135.49L161.413 137.559C161.513 137.855 161.113 138.15 160.913 137.953L159.113 136.672C159.013 136.574 158.813 136.574 158.713 136.672L156.913 137.953C156.613 138.15 156.213 137.855 156.413 137.559L157.113 135.49C157.113 135.391 157.113 135.194 157.013 135.096L155.213 133.815C154.913 133.618 155.113 133.224 155.413 133.224H157.613C157.813 133.224 157.913 133.125 157.913 133.026L158.613 130.957C158.613 130.662 159.113 130.662 159.213 130.957Z" fill="#FFCA5E"/>
<path d="M141.513 141.402H105.913V142.388H141.513V141.402Z" fill="#E2DEEA"/>
<path d="M141.513 125.538H105.913V127.41H141.513V125.538Z" fill="#8778A8"/>
<path d="M141.513 145.147H105.913V146.132H141.513V145.147Z" fill="#E2DEEA"/>
<path d="M122.213 148.497H105.913V149.483H122.213V148.497Z" fill="#E2DEEA"/>
<path d="M98.1129 137.165C98.1129 129.479 91.7129 123.271 83.9129 123.271C76.0129 123.271 69.7129 129.479 69.7129 137.165C69.7129 144.851 76.1129 151.059 83.9129 151.059C91.8129 151.158 98.1129 144.851 98.1129 137.165Z" fill="#D3CEDF"/>
<path d="M53.6129 190.376C53.6129 190.376 77.7129 170.57 81.9129 177.566C86.1129 184.563 79.9129 207.128 79.9129 207.128L53.6129 190.376Z" fill="#A89DBF"/>
<path d="M66.2129 198.457L79.9129 207.227C79.9129 207.227 85.6129 186.533 82.4129 178.65C83.9129 188.997 72.6129 195.599 66.2129 198.457Z" fill="#9B8EB6"/>
<path d="M65.9129 188.209C65.9129 188.209 80.8129 199.935 82.0129 204.172C84.0129 210.971 72.3129 210.281 67.2129 210.281C62.1129 210.281 30.0129 209.394 30.0129 209.394L30.3129 204.566L60.0129 203.187C60.0129 203.187 43.6129 200.822 44.2129 191.559C44.8129 182.198 65.9129 188.209 65.9129 188.209Z" fill="#B4ABC9"/>
<path d="M81.3129 208.015C78.6129 210.675 71.1129 210.183 67.3129 210.183C62.2129 210.183 30.1129 209.296 30.1129 209.296L30.4129 204.467L60.1129 203.088C60.1129 203.088 71.9129 208.705 81.1129 208.015C81.1129 208.015 81.2129 208.015 81.3129 208.015Z" fill="#A89DBF"/>
<path d="M30.213 209.296C30.213 209.296 28.913 212.153 29.913 214.124C30.913 215.997 26.613 214.617 25.913 210.872C25.213 207.128 25.513 202.595 30.413 204.664L30.213 209.296Z" fill="#8F81AE"/>
<path d="M46.913 159.139C46.913 159.139 57.713 128.494 58.113 128.592C59.413 129.183 61.613 129.676 61.613 129.676L57.113 163.278L46.913 159.139Z" fill="#8778A8"/>
<path d="M58.113 155.691C55.613 154.508 52.613 153.227 48.913 153.424C47.413 157.563 46.913 159.14 46.913 159.14L57.113 163.278L58.113 155.691Z" fill="#7C6C9F"/>
<path d="M60.5129 151.059C59.7129 153.917 56.5129 153.424 56.5129 153.424V156.183H51.0129V152.439C53.8129 153.03 56.9129 151.059 55.6129 150.074C54.2129 149.088 53.9129 147.413 54.7129 146.625C55.4129 145.836 57.1129 146.428 57.1129 146.428C58.7129 146.428 59.9129 146.231 60.6129 145.836C60.9129 147.512 60.9129 149.482 60.5129 151.059Z" fill="#CDC7DA"/>
<path d="M57.1129 146.428C57.1129 146.428 55.4129 145.837 54.7129 146.625C54.0129 147.413 54.3129 149.089 55.6129 150.074C57.0129 151.059 53.9129 153.129 51.0129 152.439C48.2129 151.749 46.6129 146.034 49.0129 142.191C51.2129 138.742 59.1129 137.165 60.7129 140.811C62.4129 144.556 62.5129 146.329 57.1129 146.428Z" fill="#8F81AE"/>
<path d="M56.513 156.183V153.424C56.513 153.424 54.713 153.227 53.913 152.833C53.913 152.833 54.913 154.015 55.513 154.212V156.183H56.513Z" fill="#B4ABC9"/>
<path d="M58.0129 156.183C58.0129 156.183 49.0129 153.128 46.4129 160.026C43.9129 166.924 48.2129 183.479 43.6129 189.194C50.7129 192.446 58.9129 192.741 66.3129 189.982L67.3129 189.588C67.3129 189.588 64.1129 168.501 64.0129 169.19C63.9129 169.782 74.7129 173.132 76.8129 172.048C79.0129 170.866 92.0129 156.479 92.0129 156.479L87.6129 155.888L75.8129 163.475C75.8129 163.475 61.0129 156.38 58.0129 156.183Z" fill="#8778A8"/>
<path d="M92.0129 156.577C92.0129 156.577 96.5129 154.705 96.8129 153.818H90.3129C89.6129 153.818 89.0129 154.114 88.6129 154.705L87.6129 155.986L92.0129 156.577Z" fill="#CDC7DA"/>
<path d="M67.2129 189.588C67.2129 189.588 64.4129 171.063 63.9129 169.289C64.0129 169.388 64.0129 169.388 64.2129 169.486C64.0129 169.289 63.9129 169.19 63.9129 169.19C63.9129 169.19 57.0129 167.515 54.5129 164.756C54.5129 164.756 56.8129 169.486 59.9129 170.57C62.6129 171.555 61.6129 185.745 63.7129 190.771C64.5129 190.574 65.4129 190.278 66.2129 189.982L67.2129 189.588Z" fill="#7C6C9F"/>
<path d="M58.413 128.789C58.413 128.789 59.513 124.749 61.313 124.453V129.676L58.413 128.789Z" fill="#CDC7DA"/>
<path d="M98.1129 137.165C98.1129 129.479 91.7129 123.271 83.9129 123.271C76.0129 123.271 69.7129 129.479 69.7129 137.165C69.7129 144.851 76.1129 151.059 83.9129 151.059C91.8129 151.158 98.1129 144.851 98.1129 137.165Z" fill="#5D4989"/>
<path d="M99.5129 157.563L98.6129 149.581C98.4129 148.3 97.7129 147.118 96.6129 146.428L93.8129 144.654L91.5129 143.767L89.1129 142.88L87.1129 142.092L86.2129 141.797L84.0129 142.88L81.8129 141.797L81.0129 141.994L79.1129 142.683L76.6129 143.669L74.2129 144.556L71.4129 146.329C70.3129 147.019 69.5129 148.202 69.4129 149.483L68.5129 157.464H74.3129V164.165H93.7129V157.464H99.5129V157.563Z" fill="#D3CEDF"/>
<path d="M84.0129 127.607C80.8129 127.607 78.2129 130.169 78.2129 133.322V135.983H89.8129V133.322C89.8129 130.169 87.3129 127.607 84.0129 127.607Z" fill="#8778A8"/>
<path d="M86.313 140.22V142.191C86.313 142.191 86.313 142.289 86.313 142.388C86.013 143.57 85.013 145.837 84.013 145.837C83.013 145.837 82.013 143.472 81.813 142.289V142.191V140.22H86.313Z" fill="#CDC7DA"/>
<path d="M86.3129 139.826V141.599C85.6129 141.994 84.8129 142.191 84.0129 142.191C83.2129 142.191 82.4129 141.994 81.7129 141.599V139.826H86.3129Z" fill="#B4ABC9"/>
<path d="M81.0129 135.983C81.0129 135.194 80.4129 134.603 79.6129 134.603C78.8129 134.603 78.2129 135.194 78.2129 135.983C78.2129 136.771 78.8129 137.362 79.6129 137.362C80.4129 137.362 81.0129 136.771 81.0129 135.983Z" fill="#CDC7DA"/>
<path d="M89.8129 135.983C89.8129 135.194 89.2129 134.603 88.4129 134.603C87.6129 134.603 87.0129 135.194 87.0129 135.983C87.0129 136.771 87.6129 137.362 88.4129 137.362C89.2129 137.362 89.8129 136.771 89.8129 135.983Z" fill="#CDC7DA"/>
<path d="M88.7129 133.618C87.0129 132.731 86.4129 131.943 86.4129 131.943H81.8129C81.4129 132.928 79.5129 133.618 79.5129 133.618V135.884C79.5129 137.165 80.1129 138.742 81.0129 140.023C81.4129 140.516 81.8129 140.91 82.4129 141.205C82.9129 141.501 83.5129 141.599 84.2129 141.599C85.4129 141.599 86.6129 141.008 87.4129 140.023C88.3129 138.84 88.9129 137.264 88.9129 135.884L88.7129 133.618Z" fill="#CDC7DA"/>
<path d="M215.313 161.504H114.813C112.013 161.504 109.713 163.771 109.713 166.53V190.869C109.713 193.628 112.013 195.895 114.813 195.895H215.313C218.113 195.895 220.413 193.628 220.413 190.869V166.53C220.413 163.771 218.113 161.504 215.313 161.504Z" fill="white"/>
<path d="M158.613 172.935L159.313 175.004C159.313 175.103 159.513 175.201 159.613 175.201H161.813C162.113 175.201 162.313 175.596 162.013 175.793L160.213 177.074C160.113 177.172 160.013 177.271 160.113 177.468L160.813 179.537C160.913 179.833 160.513 180.128 160.313 179.931L158.513 178.65C158.413 178.552 158.213 178.552 158.113 178.65L156.313 179.931C156.013 180.128 155.613 179.833 155.813 179.537L156.513 177.468C156.513 177.369 156.513 177.172 156.413 177.074L154.613 175.793C154.313 175.596 154.513 175.201 154.813 175.201H157.013C157.213 175.201 157.313 175.103 157.313 175.004L158.013 172.935C158.013 172.639 158.513 172.639 158.613 172.935Z" fill="#FFCA5E"/>
<path d="M170.813 172.935L171.513 175.004C171.513 175.103 171.713 175.201 171.813 175.201H174.013C174.313 175.201 174.513 175.596 174.213 175.793L172.413 177.074C172.313 177.172 172.213 177.271 172.313 177.468L173.013 179.537C173.113 179.833 172.713 180.128 172.513 179.931L170.713 178.65C170.613 178.552 170.413 178.552 170.313 178.65L168.513 179.931C168.213 180.128 167.813 179.833 168.013 179.537L168.713 177.468C168.713 177.369 168.713 177.172 168.613 177.074L166.813 175.793C166.513 175.596 166.713 175.201 167.013 175.201H169.213C169.413 175.201 169.513 175.103 169.513 175.004L170.213 172.935C170.213 172.639 170.713 172.639 170.813 172.935Z" fill="#FFCA5E"/>
<path d="M183.113 172.935L183.813 175.004C183.813 175.103 184.013 175.201 184.113 175.201H186.313C186.613 175.201 186.813 175.596 186.513 175.793L184.713 177.074C184.613 177.172 184.513 177.271 184.613 177.468L185.313 179.537C185.413 179.833 185.013 180.128 184.813 179.931L183.013 178.65C182.913 178.552 182.713 178.552 182.613 178.65L180.813 179.931C180.513 180.128 180.113 179.833 180.313 179.537L181.013 177.468C181.013 177.369 181.013 177.172 180.913 177.074L179.113 175.793C178.813 175.596 179.013 175.201 179.313 175.201H181.513C181.713 175.201 181.813 175.103 181.813 175.004L182.513 172.935C182.513 172.639 183.013 172.639 183.113 172.935Z" fill="#FFCA5E"/>
<path d="M182.713 172.738C182.613 172.738 182.513 172.836 182.413 172.935L181.713 175.004C181.713 175.103 181.513 175.201 181.413 175.201H179.213C178.913 175.201 178.713 175.595 179.013 175.793L180.813 177.074C180.913 177.172 181.013 177.271 180.913 177.468L180.213 179.537C180.113 179.833 180.513 180.128 180.713 179.931L182.513 178.65H182.713V172.738Z" fill="#FFCA5E"/>
<path d="M195.313 172.935L196.013 175.004C196.013 175.103 196.213 175.201 196.313 175.201H198.513C198.813 175.201 199.013 175.596 198.713 175.793L196.913 177.074C196.813 177.172 196.713 177.271 196.813 177.468L197.513 179.537C197.613 179.833 197.213 180.128 197.013 179.931L195.213 178.65C195.113 178.552 194.913 178.552 194.813 178.65L193.013 179.931C192.713 180.128 192.313 179.833 192.513 179.537L193.213 177.468C193.213 177.369 193.213 177.172 193.113 177.074L191.313 175.793C191.013 175.596 191.213 175.201 191.513 175.201H193.713C193.913 175.201 194.013 175.103 194.013 175.004L194.713 172.935C194.713 172.639 195.213 172.639 195.313 172.935Z" fill="#FFCA5E"/>
<path d="M207.513 172.935L208.213 175.004C208.213 175.103 208.413 175.201 208.513 175.201H210.713C211.013 175.201 211.213 175.596 210.913 175.793L209.113 177.074C209.013 177.172 208.913 177.271 209.013 177.468L209.713 179.537C209.813 179.833 209.413 180.128 209.213 179.931L207.413 178.65C207.313 178.552 207.113 178.552 207.013 178.65L205.213 179.931C204.913 180.128 204.513 179.833 204.713 179.537L205.413 177.468C205.413 177.369 205.413 177.172 205.313 177.074L203.513 175.793C203.213 175.596 203.413 175.201 203.713 175.201H205.913C206.113 175.201 206.213 175.103 206.213 175.004L206.913 172.935C207.013 172.639 207.413 172.639 207.513 172.935Z" fill="#FFCA5E"/>
<path d="M189.913 183.479H154.313V184.464H189.913V183.479Z" fill="#E2DEEA"/>
<path d="M189.913 167.515H154.313V169.387H189.913V167.515Z" fill="#A89DBF"/>
<path d="M189.913 187.125H154.313V188.11H189.913V187.125Z" fill="#E2DEEA"/>
<path d="M170.613 190.573H154.313V191.559H170.613V190.573Z" fill="#E2DEEA"/>
<path d="M146.513 178.847C146.513 171.161 140.113 164.953 132.313 164.953C124.513 164.953 118.113 171.161 118.113 178.847C118.113 186.533 124.513 192.741 132.313 192.741C140.113 192.741 146.513 186.533 146.513 178.847Z" fill="#D3CEDF"/>
<path d="M146.513 178.847C146.513 171.161 140.113 164.953 132.313 164.953C124.513 164.953 118.113 171.161 118.113 178.847C118.113 186.533 124.513 192.741 132.313 192.741C140.113 192.741 146.513 186.533 146.513 178.847Z" fill="#5D4989"/>
<path d="M126.613 175.793C126.613 175.793 125.813 172.639 127.013 171.26C128.313 169.88 130.813 168.402 132.813 169.191C132.813 169.191 134.413 168.205 135.913 168.993C137.413 169.782 139.513 170.472 139.713 169.486C139.713 169.486 139.813 173.132 138.213 173.723L137.513 176.482H126.913L126.613 175.793Z" fill="#8778A8"/>
<path d="M143.513 188.209C141.713 185.154 134.113 183.479 134.113 183.479L132.113 184.267L130.113 183.479C130.113 183.479 122.513 185.154 120.713 188.209L118.513 204.566L122.013 204.468L124.113 190.869C124.113 190.869 125.413 195.303 125.313 197.865C125.213 200.428 124.413 204.665 124.413 204.665H131.913H132.313H139.813C139.813 204.665 139.013 200.428 138.913 197.865C138.813 195.303 140.113 190.869 140.113 190.869L142.213 204.468L145.713 204.566L143.513 188.209Z" fill="#8778A8"/>
<path d="M134.413 180.621V183.479C134.413 183.479 134.013 185.646 132.113 186.041C130.113 185.548 129.813 183.479 129.813 183.479V180.621H134.413Z" fill="#CDC7DA"/>
<path d="M134.413 180.227V182.001C133.713 182.395 132.913 182.592 132.113 182.592C131.313 182.592 130.513 182.395 129.813 182.001V180.227H134.413Z" fill="#B4ABC9"/>
<path d="M136.813 174.512C134.713 174.413 133.313 172.836 133.313 172.836C132.013 173.92 127.513 174.512 127.513 174.512V176.285C127.513 177.566 128.113 179.241 129.013 180.424C129.713 181.409 130.913 182.001 132.213 182.001C133.513 182.001 134.713 181.409 135.413 180.424C136.313 179.241 136.913 177.566 136.913 176.285L136.813 174.512Z" fill="#CDC7DA"/>
<path d="M128.713 176.482C128.713 177.172 128.113 177.763 127.413 177.763C126.713 177.763 126.113 177.172 126.113 176.482C126.113 175.793 126.713 175.201 127.413 175.201C128.113 175.201 128.713 175.793 128.713 176.482Z" fill="#CDC7DA"/>
<path d="M138.113 176.482C138.113 177.172 137.513 177.763 136.813 177.763C136.113 177.763 135.513 177.172 135.513 176.482C135.513 175.793 136.113 175.201 136.813 175.201C137.513 175.201 138.113 175.793 138.113 176.482Z" fill="#CDC7DA"/>
<path d="M217.413 20.4945C217.413 9.26105 208.113 0.0968933 196.613 0.0968933C185.113 0.0968933 175.813 9.26105 175.813 20.4945C175.813 31.728 185.113 40.8922 196.613 40.8922C208.113 40.8922 217.413 31.728 217.413 20.4945Z" fill="#D3CEDF"/>
<path d="M196.613 0.0968933C196.513 0.0968933 196.313 0.0968933 196.213 0.0968933C202.013 3.44723 205.813 9.55667 205.813 16.553C205.813 27.0967 197.113 35.6696 186.313 35.6696C184.913 35.6696 183.513 35.4725 182.213 35.2754C185.913 38.8229 191.013 40.9907 196.613 40.9907C208.113 40.9907 217.413 31.8266 217.413 20.5931C217.413 9.26105 208.113 0.0968933 196.613 0.0968933Z" fill="#CAC3D8"/>
<path d="M50.013 84.9393C54.413 84.9393 54.613 78.6328 50.213 78.3372H50.113V78.2386C50.113 73.7058 46.313 70.0599 41.713 70.0599C40.213 70.0599 38.913 70.454 37.713 71.0453C36.213 68.3847 33.313 66.5125 30.013 66.5125C25.213 66.5125 21.313 70.3555 21.313 75.0854C21.313 75.381 21.313 75.5781 21.313 75.8737C20.413 75.5781 19.513 75.4795 18.513 75.4795C15.013 75.4795 11.913 77.2532 10.113 79.9138C8.613 82.0817 10.313 85.0378 12.913 85.0378H50.013V84.9393Z" fill="#D3CEDF"/>
<path d="M184.013 33.1076C189.713 33.1076 190.013 24.8303 184.313 24.4361H184.113V24.3376C184.113 18.4252 179.213 13.5968 173.113 13.5968C171.213 13.5968 169.413 14.0895 167.813 14.8778C165.913 11.3304 162.113 8.96542 157.713 8.96542C151.413 8.96542 146.313 13.9909 146.313 20.1989C146.313 20.4945 146.313 20.8887 146.313 21.1843C145.113 20.8887 143.913 20.6916 142.613 20.6916C138.013 20.6916 133.913 22.958 131.513 26.5054C129.513 29.3631 131.713 33.2061 135.213 33.2061H184.013V33.1076Z" fill="#D3CEDF"/>
<path d="M252.813 52.7169C247.513 52.7169 247.313 45.0309 252.513 44.7353H252.613V44.6367C252.613 39.2171 257.113 34.7828 262.713 34.7828C264.513 34.7828 266.113 35.1769 267.613 35.9653C269.413 32.7135 272.913 30.5456 276.913 30.5456C282.713 30.5456 287.413 35.1769 287.413 40.7937C287.413 41.0893 287.413 41.3849 287.413 41.6805C288.513 41.3849 289.613 41.1878 290.813 41.1878C295.013 41.1878 298.813 43.2572 301.013 46.509C302.813 49.1695 300.813 52.7169 297.613 52.7169H252.813Z" fill="#D3CEDF"/>
<path d="M271.313 195.895L272.313 195.599C272.413 193.825 271.713 190.869 267.613 186.336C260.113 177.961 253.713 165.939 255.313 161.307C255.313 161.307 248.013 172.147 252.913 179.242C257.613 185.844 270.013 187.322 271.313 195.895Z" fill="#B4ABC9"/>
<path d="M271.713 195.698L272.313 195.5C272.413 193.727 271.713 190.771 267.613 186.238C260.113 177.862 253.713 165.84 255.313 161.209C255.313 161.209 251.413 171.161 256.513 177.763C261.513 184.365 270.413 185.745 271.713 195.698Z" fill="#9B8EB6"/>
<path d="M274.313 188.701C273.913 190.475 273.413 191.854 272.913 192.84L273.413 192.938C275.613 190.081 279.213 184.267 280.013 176.975C281.213 166.333 282.713 153.03 282.713 153.03C282.713 153.03 271.613 161.997 274.113 174.413C275.413 180.621 275.113 185.351 274.313 188.701Z" fill="#B4ABC9"/>
<path d="M278.213 169.388C277.613 178.256 275.913 188.011 273.713 191.953C274.013 191.756 274.413 191.46 274.713 191.165C276.813 188.011 279.413 183.085 280.013 177.074C281.213 166.431 282.713 153.129 282.713 153.129C282.713 153.129 279.013 157.76 278.213 169.388Z" fill="#9B8EB6"/>
<path d="M276.313 192.84C275.413 193.924 274.513 194.614 273.813 195.106L274.113 195.303C276.713 194.121 281.313 191.559 284.613 186.928C289.413 180.227 295.513 171.752 295.513 171.752C295.513 171.752 284.713 173.822 281.613 182.986C280.113 187.814 278.113 190.869 276.313 192.84Z" fill="#B4ABC9"/>
<path d="M286.213 181.212C282.413 186.928 277.613 192.938 274.613 194.712C274.913 194.712 275.213 194.614 275.613 194.614C278.213 193.234 281.813 190.869 284.513 187.026C289.313 180.325 295.413 171.851 295.413 171.851C295.413 171.851 291.113 173.723 286.213 181.212Z" fill="#9B8EB6"/>
<path d="M272.213 192.446C272.913 194.318 273.413 195.599 273.713 196.584L274.113 196.486C273.513 193.136 272.413 187.42 271.313 183.676C269.813 178.158 271.013 175.398 269.713 165.742C268.513 156.085 262.613 143.275 262.613 143.275C262.613 143.275 258.813 156.775 264.213 169.585C269.613 182.493 269.213 184.168 272.213 192.446Z" fill="#B4ABC9"/>
<path d="M273.613 196.584L273.713 195.205C273.013 191.855 272.113 186.928 271.213 183.676C269.713 178.158 270.913 175.398 269.613 165.742C268.413 156.085 262.513 143.275 262.513 143.275C262.513 143.275 264.313 162.49 267.013 170.866C269.613 178.65 273.113 194.318 273.613 196.584Z" fill="#9B8EB6"/>
<path d="M262.413 194.614L264.813 208.311C265.013 209.592 266.213 210.478 267.513 210.478H281.213C282.513 210.478 283.713 209.493 283.913 208.311L286.313 194.614C286.513 193.333 285.513 192.249 284.213 192.249H264.513C263.213 192.249 262.213 193.431 262.413 194.614Z" fill="white"/>
<path d="M286.313 193.924C286.313 193.825 286.213 193.628 286.213 193.53C286.213 193.431 286.113 193.333 286.013 193.234V193.135C285.913 193.037 285.913 192.938 285.813 192.84L285.713 192.741C285.613 192.643 285.613 192.643 285.513 192.544L285.313 192.446C285.213 192.446 285.213 192.347 285.113 192.347C285.013 192.347 284.913 192.249 284.913 192.249L284.713 192.15C284.613 192.15 284.413 192.15 284.313 192.15H278.013H264.513C263.313 192.15 262.413 193.135 262.413 194.219H280.013C280.013 194.318 280.013 194.416 280.013 194.515L277.613 208.212C277.413 209.493 276.213 210.38 274.913 210.38H281.113C282.413 210.38 283.613 209.394 283.813 208.212L286.213 194.515C286.313 194.416 286.313 194.121 286.313 193.924Z" fill="#F0EFF4"/>
<path d="M81.413 94.4976H50.413C48.213 94.4976 46.413 96.2713 46.413 98.4392V114.403V122.286L54.313 115.289C54.913 114.698 55.813 114.403 56.613 114.403H81.413C82.913 114.403 84.213 113.22 84.213 111.742V97.1582C84.113 95.6801 82.913 94.4976 81.413 94.4976Z" fill="#8778A8"/>
<path d="M70.8129 100.607C69.5129 99.326 67.3129 99.326 66.0129 100.607L65.5129 101.1L65.0129 100.607C64.3129 99.9173 63.5129 99.6216 62.6129 99.6216C61.7129 99.6216 60.8129 99.9173 60.2129 100.607C58.9129 101.888 58.9129 104.056 60.2129 105.337L60.7129 105.83L65.5129 110.56L70.3129 105.83L70.8129 105.337C71.5129 104.647 71.8129 103.859 71.8129 102.972C71.8129 102.085 71.4129 101.198 70.8129 100.607Z" fill="#A89DBF"/>
<path d="M265.513 62.3737H234.413C232.213 62.3737 230.413 64.1474 230.413 66.3153V82.3772V90.2604L238.313 83.2641C238.913 82.6728 239.813 82.3772 240.613 82.3772H265.513C267.013 82.3772 268.313 81.1947 268.313 79.6181V65.0343C268.213 63.5562 267.013 62.3737 265.513 62.3737Z" fill="#8778A8"/>
<path d="M258.113 73.2131C258.713 73.2131 259.113 72.7204 259.113 72.1292C259.113 71.538 258.613 71.0453 258.013 71.0453H255.913C255.813 71.0453 255.713 71.0453 255.613 71.0453C254.513 71.0453 254.413 71.0453 254.013 70.9467C253.113 70.7497 254.213 69.6657 253.613 67.6949C253.013 65.7241 251.013 65.8227 251.113 66.7095C251.213 67.6949 251.313 69.8628 250.813 70.5526C249.613 72.1292 247.613 72.3263 247.613 72.3263V77.6474H249.713C250.713 78.7313 252.513 78.9284 252.713 78.9284H255.113H255.213H256.713C257.213 78.9284 257.713 78.5343 257.713 77.943C257.713 77.6474 257.613 77.3518 257.313 77.1547C257.913 77.1547 258.313 76.662 258.313 76.0708C258.313 75.5781 258.013 75.1839 257.613 75.0854H257.813C258.413 75.0854 258.913 74.5927 258.913 74.0015C258.813 73.7058 258.513 73.3117 258.113 73.2131Z" fill="#B4ABC9"/>
<path d="M241.613 78.7313H245.313V70.9467H241.613V78.7313Z" fill="#B4ABC9"/>
<path d="M194.313 149.285C193.413 147.807 192.913 146.034 193.013 144.26C193.113 138.84 197.713 134.505 203.313 134.603C209.013 134.702 213.513 139.432 213.213 145.048C212.913 149.975 208.913 153.917 203.913 154.311C202.413 154.409 200.913 154.212 199.613 153.72C199.013 153.523 198.313 153.424 197.613 153.621L193.713 154.804L194.713 151.65C194.813 150.764 194.813 149.975 194.313 149.285Z" fill="#8778A8"/>
<path d="M202.913 139.037L201.913 142.191C201.813 142.388 201.713 142.486 201.513 142.486H198.113C197.713 142.486 197.513 142.979 197.813 143.275L200.513 145.245C200.713 145.344 200.713 145.541 200.713 145.738L199.713 148.891C199.613 149.285 200.013 149.581 200.413 149.384L203.113 147.413C203.313 147.315 203.513 147.315 203.613 147.413L206.313 149.384C206.613 149.581 207.113 149.285 207.013 148.891L206.013 145.738C205.913 145.541 206.013 145.344 206.213 145.245L208.913 143.275C209.213 143.077 209.113 142.486 208.613 142.486H205.213C205.013 142.486 204.813 142.388 204.813 142.191L203.813 139.037C203.613 138.643 203.013 138.643 202.913 139.037Z" fill="#D3CEDF"/>
</svg>
