<svg viewBox="0 0 293 257">
<path d="M268.4 235.829H292.8V236.026H268.4V235.829Z" fill="#F4F2F7"/>
<path d="M199 237.8H205.4V237.997H199V237.8Z" fill="#F4F2F7"/>
<path d="M253.5 229.03H267.6V229.227H253.5V229.03Z" fill="#F4F2F7"/>
<path d="M0 230.311H31.8V230.508H0V230.311Z" fill="#F4F2F7"/>
<path d="M38.4 230.311H43V230.508H38.3V230.311H38.4Z" fill="#F4F2F7"/>
<path d="M58.2 233.563H127.2V233.365H58.2V233.563Z" fill="#F4F2F7"/>
<path d="M244.3 87.9213C244.3 85.852 246 84.0783 248.2 84.0783C248.6 84.0783 249 84.1768 249.3 84.2754C249.2 83.8812 249.2 83.487 249.2 83.0929C249.2 78.6586 252.9 75.0127 257.4 75.0127C257.9 75.0127 258.4 75.1112 258.9 75.1112C260.2 73.0419 262.4 71.7609 265 71.7609C268.9 71.7609 272.1 74.9141 272.2 78.7572H272.3C275.9 78.7572 278.9 81.7133 278.9 85.2608C278.9 88.8082 275.9 91.7643 272.3 91.7643H248C246 91.6658 244.3 89.9906 244.3 87.9213Z" fill="#F7F6F9"/>
<path d="M27.2 70.6769C27.2 68.6076 28.9 66.8339 31.1 66.8339C31.5 66.8339 31.9 66.9324 32.2 67.031C32.1 66.6368 32.1 66.2427 32.1 65.8485C32.1 61.4142 35.8 57.7683 40.3 57.7683C40.8 57.7683 41.3 57.8668 41.8 57.8668C43.1 55.7975 45.3 54.5165 47.9 54.5165C51.8 54.5165 55 57.6697 55.1 61.5128H55.2C58.8 61.5128 61.8 64.469 61.8 68.0164C61.8 71.5638 58.8 74.52 55.2 74.52H31C28.9 74.4214 27.2 72.7463 27.2 70.6769Z" fill="#F7F6F9"/>
<path d="M126.9 15.4948H112.8C112.8 15.1992 112.9 14.8051 112.9 14.5095C112.9 9.48395 108.7 5.3453 103.6 5.3453C103.5 5.3453 103.4 5.3453 103.3 5.3453C102 2.19204 99 0.0241699 95.5 0.0241699C91 0.0241699 87.3 3.67013 87.3 8.1044C83.3 8.30148 80 11.4547 79.8 15.3963H79.4C77.1 15.3963 75.3 17.2686 75.3 19.4364C75.3 21.7028 77.2 23.4765 79.4 23.4765H126.9C129.2 23.4765 131 21.6043 131 19.4364C131 17.2686 129.1 15.4948 126.9 15.4948Z" fill="#F7F6F9"/>
<path d="M231.5 21.3086C229.3 17.8598 225.4 15.4948 220.9 15.4948C216.4 15.4948 212.4 17.8598 210.2 21.4072C209.6 21.2101 209 21.1116 208.4 21.1116C204.7 21.1116 201.7 24.0677 201.7 27.7137H198.2C196.4 27.7137 194.9 29.1918 194.9 30.9655C194.9 32.7392 196.4 34.2173 198.2 34.2173H210.4C212.6 37.6662 216.5 39.9326 220.9 39.9326C224.4 39.9326 227.5 38.553 229.8 36.1881C230 36.1881 230.2 36.1881 230.4 36.1881C234.7 36.1881 238.1 32.7392 238.1 28.6005C238.2 24.9546 235.3 21.8013 231.5 21.3086Z" fill="#F7F6F9"/>
<path d="M157.2 67.8193C155 64.3704 151.1 62.0054 146.6 62.0054C142.1 62.0054 138.1 64.3704 135.9 67.9178C135.3 67.7207 134.7 67.6222 134.1 67.6222C130.4 67.6222 127.4 70.5784 127.4 74.2243H123.9C122.1 74.2243 120.6 75.7024 120.6 77.4761C120.6 79.2498 122.1 80.7279 123.9 80.7279H136.1C138.3 84.1768 142.2 86.4432 146.6 86.4432C150.1 86.4432 153.2 85.0636 155.5 82.6987C155.7 82.6987 155.9 82.6987 156.1 82.6987C160.4 82.6987 163.8 79.2498 163.8 75.1112C163.9 71.4652 161 68.312 157.2 67.8193Z" fill="#F7F6F9"/>
<path d="M2.90002 224.004V189.318H5.90002V172.764H10.3V115.315H16.7V107.925L30.3 101.717V94.2278H32.2V115.315H34.8V172.764H37.4V142.512H44.6V126.943H46.6V172.764H52V155.322H55.6V150.888H63.9V135.713H68.4V124.972H74V109.304H76V124.972H81.6V135.713H86.1V150.888H94.4V155.322H98V172.764H102.2V150.888H110.5V103.786H113.1V98.5635H130.8V103.786H134.6V137.881H149.7V141.231H155.3V143.793H149.7V157.096H165.5V112.556H168.9V103.096H176.2V69.6915H178.3V103.293H183.6V112.753H214.5V109.6H216.4V130.687H219V131.081H220.6V152.267H223.2V157.983H228.8V142.414H230.8V179.464H233V163.895H235V188.234H236.2V170.793H239.8V166.359H248.1V151.184H252.6V140.443H258.2V124.775H260.2V140.443H265.8V151.184H270.3V166.359H278.6V170.793H282.2V187.84H282.8V188.234H284.6V224.004H2.90002Z" fill="#F0EFF4"/>
<path d="M197.1 116.892H195V114.823H197.1V116.892Z" fill="#F7F6F9"/>
<path d="M197.1 120.439H195V118.271H197.1V120.439Z" fill="#F7F6F9"/>
<path d="M195 134.53H197.1V132.461H195V134.53Z" fill="#F7F6F9"/>
<path d="M195 137.979H197.1V135.91H195V137.979Z" fill="#F7F6F9"/>
<path d="M195 141.527H197.1V139.457H195V141.527Z" fill="#F7F6F9"/>
<path d="M195 152.07H197.1V150.001H195V152.07Z" fill="#F7F6F9"/>
<path d="M195 155.618H197.1V153.549H195V155.618Z" fill="#F7F6F9"/>
<path d="M191.6 130.983H193.7V128.914H191.6V130.983Z" fill="#F7F6F9"/>
<path d="M191.6 134.53H193.7V132.461H191.6V134.53Z" fill="#F7F6F9"/>
<path d="M191.6 137.979H193.7V135.91H191.6V137.979Z" fill="#F7F6F9"/>
<path d="M191.6 141.527H193.7V139.457H191.6V141.527Z" fill="#F7F6F9"/>
<path d="M191.6 145.074H193.7V143.005H191.6V145.074Z" fill="#F7F6F9"/>
<path d="M191.6 152.07H193.7V150.001H191.6V152.07Z" fill="#F7F6F9"/>
<path d="M191.6 155.618H193.7V153.549H191.6V155.618Z" fill="#F7F6F9"/>
<path d="M190.3 116.892H188.2V114.823H190.3V116.892Z" fill="#F7F6F9"/>
<path d="M190.3 120.439H188.2V118.271H190.3V120.439Z" fill="#F7F6F9"/>
<path d="M188.2 123.888H190.3V121.819H188.2V123.888Z" fill="#F7F6F9"/>
<path d="M188.2 127.436H190.3V125.366H188.2V127.436Z" fill="#F7F6F9"/>
<path d="M188.2 130.983H190.3V128.914H188.2V130.983Z" fill="#F7F6F9"/>
<path d="M188.2 134.53H190.3V132.461H188.2V134.53Z" fill="#F7F6F9"/>
<path d="M188.2 137.979H190.3V135.91H188.2V137.979Z" fill="#F7F6F9"/>
<path d="M188.2 141.527H190.3V139.457H188.2V141.527Z" fill="#F7F6F9"/>
<path d="M188.2 145.074H190.3V143.005H188.2V145.074Z" fill="#F7F6F9"/>
<path d="M188.2 148.621H190.3V146.552H188.2V148.621Z" fill="#F7F6F9"/>
<path d="M188.2 155.618H190.3V153.549H188.2V155.618Z" fill="#F7F6F9"/>
<path d="M186.9 116.892H184.8V114.823H186.9V116.892Z" fill="#F7F6F9"/>
<path d="M186.9 120.439H184.8V118.271H186.9V120.439Z" fill="#F7F6F9"/>
<path d="M184.8 123.888H186.9V121.819H184.8V123.888Z" fill="#F7F6F9"/>
<path d="M184.8 127.436H186.9V125.366H184.8V127.436Z" fill="#F7F6F9"/>
<path d="M184.8 130.983H186.9V128.914H184.8V130.983Z" fill="#F7F6F9"/>
<path d="M184.8 134.53H186.9V132.461H184.8V134.53Z" fill="#F7F6F9"/>
<path d="M184.8 137.979H186.9V135.91H184.8V137.979Z" fill="#F7F6F9"/>
<path d="M184.8 169.709H186.9V167.64H184.8V169.709Z" fill="#F7F6F9"/>
<path d="M183.6 116.892H181.5V114.823H183.6V116.892Z" fill="#F7F6F9"/>
<path d="M183.6 120.439H181.5V118.271H183.6V120.439Z" fill="#F7F6F9"/>
<path d="M181.4 123.888H183.5V121.819H181.4V123.888Z" fill="#F7F6F9"/>
<path d="M181.4 127.436H183.5V125.366H181.4V127.436Z" fill="#F7F6F9"/>
<path d="M181.4 130.983H183.5V128.914H181.4V130.983Z" fill="#F7F6F9"/>
<path d="M181.4 134.53H183.5V132.461H181.4V134.53Z" fill="#F7F6F9"/>
<path d="M181.4 137.979H183.5V135.91H181.4V137.979Z" fill="#F7F6F9"/>
<path d="M181.4 141.527H183.5V139.457H181.4V141.527Z" fill="#F7F6F9"/>
<path d="M181.4 162.713H183.5V160.643H181.4V162.713Z" fill="#F7F6F9"/>
<path d="M181.4 166.161H183.5V164.092H181.4V166.161Z" fill="#F7F6F9"/>
<path d="M181.4 169.709H183.5V167.64H181.4V169.709Z" fill="#F7F6F9"/>
<path d="M181.4 173.256H183.5V171.187H181.4V173.256Z" fill="#F7F6F9"/>
<path d="M181.4 187.347H183.5V185.278H181.4V187.347Z" fill="#F7F6F9"/>
<path d="M180.2 116.892H178V114.823H180.1L180.2 116.892Z" fill="#F7F6F9"/>
<path d="M180.2 120.439H178V118.271H180.1L180.2 120.439Z" fill="#F7F6F9"/>
<path d="M178 123.888H180.1V121.819H178V123.888Z" fill="#F7F6F9"/>
<path d="M178 127.436H180.1V125.366H178V127.436Z" fill="#F7F6F9"/>
<path d="M178 130.983H180.1V128.914H178V130.983Z" fill="#F7F6F9"/>
<path d="M178 134.53H180.1V132.461H178V134.53Z" fill="#F7F6F9"/>
<path d="M178 137.979H180.1V135.91H178V137.979Z" fill="#F7F6F9"/>
<path d="M178 141.527H180.1V139.457H178V141.527Z" fill="#F7F6F9"/>
<path d="M178 145.074H180.1V143.005H178V145.074Z" fill="#F7F6F9"/>
<path d="M178 148.621H180.1V146.552H178V148.621Z" fill="#F7F6F9"/>
<path d="M178 159.165H180.1V157.096H178V159.165Z" fill="#F7F6F9"/>
<path d="M178 162.713H180.1V160.643H178V162.713Z" fill="#F7F6F9"/>
<path d="M178 166.161H180.1V164.092H178V166.161Z" fill="#F7F6F9"/>
<path d="M178 169.709H180.1V167.64H178V169.709Z" fill="#F7F6F9"/>
<path d="M178 173.256H180.1V171.187H178V173.256Z" fill="#F7F6F9"/>
<path d="M178 187.347H180.1V185.278H178V187.347Z" fill="#F7F6F9"/>
<path d="M176.8 116.892H174.7V114.823H176.8V116.892Z" fill="#F7F6F9"/>
<path d="M176.8 120.439H174.7V118.271H176.8V120.439Z" fill="#F7F6F9"/>
<path d="M174.7 123.888H176.8V121.819H174.7V123.888Z" fill="#F7F6F9"/>
<path d="M174.7 127.436H176.8V125.366H174.7V127.436Z" fill="#F7F6F9"/>
<path d="M174.7 130.983H176.8V128.914H174.7V130.983Z" fill="#F7F6F9"/>
<path d="M174.7 134.53H176.8V132.461H174.7V134.53Z" fill="#F7F6F9"/>
<path d="M174.7 137.979H176.8V135.91H174.7V137.979Z" fill="#F7F6F9"/>
<path d="M174.7 141.527H176.8V139.457H174.7V141.527Z" fill="#F7F6F9"/>
<path d="M174.7 145.074H176.8V143.005H174.7V145.074Z" fill="#F7F6F9"/>
<path d="M174.7 148.621H176.8V146.552H174.7V148.621Z" fill="#F7F6F9"/>
<path d="M174.7 152.07H176.8V150.001H174.7V152.07Z" fill="#F7F6F9"/>
<path d="M174.7 155.618H176.8V153.549H174.7V155.618Z" fill="#F7F6F9"/>
<path d="M174.7 159.165H176.8V157.096H174.7V159.165Z" fill="#F7F6F9"/>
<path d="M174.7 162.713H176.8V160.643H174.7V162.713Z" fill="#F7F6F9"/>
<path d="M174.7 166.161H176.8V164.092H174.7V166.161Z" fill="#F7F6F9"/>
<path d="M174.7 169.709H176.8V167.64H174.7V169.709Z" fill="#F7F6F9"/>
<path d="M174.7 173.256H176.8V171.187H174.7V173.256Z" fill="#F7F6F9"/>
<path d="M174.7 176.804H176.8V174.734H174.7V176.804Z" fill="#F7F6F9"/>
<path d="M173.4 116.892H171.3V114.823H173.4V116.892Z" fill="#F7F6F9"/>
<path d="M173.4 120.439H171.3V118.271H173.4V120.439Z" fill="#F7F6F9"/>
<path d="M171.3 123.888H173.4V121.819H171.3V123.888Z" fill="#F7F6F9"/>
<path d="M171.3 127.436H173.4V125.366H171.3V127.436Z" fill="#F7F6F9"/>
<path d="M171.3 130.983H173.4V128.914H171.3V130.983Z" fill="#F7F6F9"/>
<path d="M171.3 134.53H173.4V132.461H171.3V134.53Z" fill="#F7F6F9"/>
<path d="M171.3 137.979H173.4V135.91H171.3V137.979Z" fill="#F7F6F9"/>
<path d="M171.3 141.527H173.4V139.457H171.3V141.527Z" fill="#F7F6F9"/>
<path d="M171.3 145.074H173.4V143.005H171.3V145.074Z" fill="#F7F6F9"/>
<path d="M171.3 148.621H173.4V146.552H171.3V148.621Z" fill="#F7F6F9"/>
<path d="M171.3 159.165H173.4V157.096H171.3V159.165Z" fill="#F7F6F9"/>
<path d="M171.3 162.713H173.4V160.643H171.3V162.713Z" fill="#F7F6F9"/>
<path d="M171.3 166.161H173.4V164.092H171.3V166.161Z" fill="#F7F6F9"/>
<path d="M171.3 169.709H173.4V167.64H171.3V169.709Z" fill="#F7F6F9"/>
<path d="M170 116.892H167.9V114.823H170V116.892Z" fill="#F7F6F9"/>
<path d="M170 120.439H167.9V118.271H170V120.439Z" fill="#F7F6F9"/>
<path d="M167.9 123.888H170V121.819H167.9V123.888Z" fill="#F7F6F9"/>
<path d="M167.9 127.436H170V125.366H167.9V127.436Z" fill="#F7F6F9"/>
<path d="M170 130.983H167.9V128.914H170V130.983Z" fill="#F7F6F9"/>
<path d="M170 134.53H167.9V132.461H170V134.53Z" fill="#F7F6F9"/>
<path d="M167.9 137.979H170V135.91H167.9V137.979Z" fill="#F7F6F9"/>
<path d="M167.9 141.527H170V139.457H167.9V141.527Z" fill="#F7F6F9"/>
<path d="M167.9 145.074H170V143.005H167.9V145.074Z" fill="#F7F6F9"/>
<path d="M167.9 148.621H170V146.552H167.9V148.621Z" fill="#F7F6F9"/>
<path d="M167.9 159.165H170V157.096H167.9V159.165Z" fill="#F7F6F9"/>
<path d="M167.9 162.713H170V160.643H167.9V162.713Z" fill="#F7F6F9"/>
<path d="M167.9 166.161H170V164.092H167.9V166.161Z" fill="#F7F6F9"/>
<path d="M131.9 107.728H129.8V105.658H131.9V107.728Z" fill="#F7F6F9"/>
<path d="M131.9 111.275H129.8V109.206H131.9V111.275Z" fill="#F7F6F9"/>
<path d="M131.9 114.823H129.8V112.753H131.9V114.823Z" fill="#F7F6F9"/>
<path d="M131.9 118.271H129.8V116.202H131.9V118.271Z" fill="#F7F6F9"/>
<path d="M131.9 121.819H129.8V119.75H131.9V121.819Z" fill="#F7F6F9"/>
<path d="M131.9 125.366H129.8V123.198H131.9V125.366Z" fill="#F7F6F9"/>
<path d="M129.7 128.914H131.8V126.844H129.7V128.914Z" fill="#F7F6F9"/>
<path d="M129.7 132.362H131.8V130.293H129.7V132.362Z" fill="#F7F6F9"/>
<path d="M129.7 143.005H131.8V140.935H129.7V143.005Z" fill="#F7F6F9"/>
<path d="M131.9 146.454H129.8V144.384H131.9V146.454Z" fill="#F7F6F9"/>
<path d="M128.5 107.728H126.4V105.658H128.5V107.728Z" fill="#F7F6F9"/>
<path d="M128.5 111.275H126.4V109.206H128.5V111.275Z" fill="#F7F6F9"/>
<path d="M128.5 114.823H126.4V112.753H128.5V114.823Z" fill="#F7F6F9"/>
<path d="M128.5 118.271H126.4V116.202H128.5V118.271Z" fill="#F7F6F9"/>
<path d="M128.5 121.819H126.4V119.75H128.5V121.819Z" fill="#F7F6F9"/>
<path d="M128.5 125.366H126.4V123.198H128.5V125.366Z" fill="#F7F6F9"/>
<path d="M128.5 128.914H126.4V126.844H128.5V128.914Z" fill="#F7F6F9"/>
<path d="M126.4 132.362H128.5V130.293H126.4V132.362Z" fill="#F7F6F9"/>
<path d="M128.5 146.454H126.4V144.384H128.5V146.454Z" fill="#F7F6F9"/>
<path d="M125.1 107.728H123V105.658H125.1V107.728Z" fill="#F7F6F9"/>
<path d="M125.1 111.275H123V109.206H125.1V111.275Z" fill="#F7F6F9"/>
<path d="M125.1 114.823H123V112.753H125.1V114.823Z" fill="#F7F6F9"/>
<path d="M125.1 118.271H123V116.202H125.1V118.271Z" fill="#F7F6F9"/>
<path d="M125.1 121.819H123V119.75H125.1V121.819Z" fill="#F7F6F9"/>
<path d="M125.1 125.366H123V123.198H125.1V125.366Z" fill="#F7F6F9"/>
<path d="M125.1 128.914H123V126.844H125.1V128.914Z" fill="#F7F6F9"/>
<path d="M125.1 132.362H123V130.293H125.1V132.362Z" fill="#F7F6F9"/>
<path d="M121.7 107.728H119.6V105.658H121.7V107.728Z" fill="#F7F6F9"/>
<path d="M121.7 111.275H119.6V109.206H121.7V111.275Z" fill="#F7F6F9"/>
<path d="M121.7 114.823H119.6V112.753H121.7V114.823Z" fill="#F7F6F9"/>
<path d="M121.7 118.271H119.6V116.202H121.7V118.271Z" fill="#F7F6F9"/>
<path d="M121.7 121.819H119.6V119.75H121.7V121.819Z" fill="#F7F6F9"/>
<path d="M121.7 125.366H119.6V123.198H121.7V125.366Z" fill="#F7F6F9"/>
<path d="M121.7 132.362H119.6V130.293H121.7V132.362Z" fill="#F7F6F9"/>
<path d="M119.6 135.91H121.7V133.841H119.6V135.91Z" fill="#F7F6F9"/>
<path d="M119.6 146.454H121.7V144.384H119.6V146.454Z" fill="#F7F6F9"/>
<path d="M119.6 150.001H121.7V147.932H119.6V150.001Z" fill="#F7F6F9"/>
<path d="M121.7 153.548H119.6V151.479H121.7V153.548Z" fill="#F7F6F9"/>
<path d="M121.7 157.096H119.6V155.027H121.7V157.096Z" fill="#F7F6F9"/>
<path d="M121.7 160.545H119.6V158.476H121.7V160.545Z" fill="#F7F6F9"/>
<path d="M121.7 164.092H119.6V162.023H121.7V164.092Z" fill="#F7F6F9"/>
<path d="M121.7 167.64H119.6V165.57H121.7V167.64Z" fill="#F7F6F9"/>
<path d="M116.2 107.728H118.3V105.658H116.2V107.728Z" fill="#F7F6F9"/>
<path d="M116.2 111.275H118.3V109.206H116.2V111.275Z" fill="#F7F6F9"/>
<path d="M116.2 114.823H118.3V112.753H116.2V114.823Z" fill="#F7F6F9"/>
<path d="M116.2 118.271H118.3V116.202H116.2V118.271Z" fill="#F7F6F9"/>
<path d="M118.3 121.819H116.2V119.75H118.3V121.819Z" fill="#F7F6F9"/>
<path d="M118.3 125.366H116.2V123.198H118.3V125.366Z" fill="#F7F6F9"/>
<path d="M118.3 135.91H116.2V133.841H118.3V135.91Z" fill="#F7F6F9"/>
<path d="M116.2 139.457H118.3V137.388H116.2V139.457Z" fill="#F7F6F9"/>
<path d="M116.2 143.005H118.3V140.935H116.2V143.005Z" fill="#F7F6F9"/>
<path d="M116.2 146.454H118.3V144.384H116.2V146.454Z" fill="#F7F6F9"/>
<path d="M116.2 150.001H118.3V147.932H116.2V150.001Z" fill="#F7F6F9"/>
<path d="M116.2 153.548H118.3V151.479H116.2V153.548Z" fill="#F7F6F9"/>
<path d="M118.3 157.096H116.2V155.027H118.3V157.096Z" fill="#F7F6F9"/>
<path d="M118.3 160.545H116.2V158.476H118.3V160.545Z" fill="#F7F6F9"/>
<path d="M118.3 164.092H116.2V162.023H118.3V164.092Z" fill="#F7F6F9"/>
<path d="M118.3 167.64H116.2V165.57H118.3V167.64Z" fill="#F7F6F9"/>
<path d="M118.3 171.187H116.2V169.118H118.3V171.187Z" fill="#F7F6F9"/>
<path d="M116.2 178.183H118.3V176.114H116.2V178.183Z" fill="#F7F6F9"/>
<path d="M112.8 107.728H114.9V105.658H112.8V107.728Z" fill="#F7F6F9"/>
<path d="M112.8 111.275H114.9V109.206H112.8V111.275Z" fill="#F7F6F9"/>
<path d="M112.8 114.823H114.9V112.753H112.8V114.823Z" fill="#F7F6F9"/>
<path d="M112.8 118.271H114.9V116.202H112.8V118.271Z" fill="#F7F6F9"/>
<path d="M112.8 121.819H114.9V119.75H112.8V121.819Z" fill="#F7F6F9"/>
<path d="M112.8 125.366H114.9V123.198H112.8V125.366Z" fill="#F7F6F9"/>
<path d="M112.8 135.91H114.9V133.841H112.8V135.91Z" fill="#F7F6F9"/>
<path d="M114.9 139.457H112.8V137.388H114.9V139.457Z" fill="#F7F6F9"/>
<path d="M112.8 143.005H114.9V140.935H112.8V143.005Z" fill="#F7F6F9"/>
<path d="M112.8 146.454H114.9V144.384H112.8V146.454Z" fill="#F7F6F9"/>
<path d="M114.9 157.096H112.8V155.027H114.9V157.096Z" fill="#F7F6F9"/>
<path d="M114.9 160.545H112.8V158.476H114.9V160.545Z" fill="#F7F6F9"/>
<path d="M114.9 164.092H112.8V162.023H114.9V164.092Z" fill="#F7F6F9"/>
<path d="M114.9 167.64H112.8V165.57H114.9V167.64Z" fill="#F7F6F9"/>
<path d="M114.9 171.187H112.8V169.118H114.9V171.187Z" fill="#F7F6F9"/>
<path d="M114.9 178.183H112.8V176.114H114.9V178.183Z" fill="#F7F6F9"/>
<path d="M112.8 181.731H114.9V179.661H112.8V181.731Z" fill="#F7F6F9"/>
<path d="M84.2 140.443H82.1V138.373H84.2V140.443Z" fill="#F7F6F9"/>
<path d="M84.2 143.99H82.1V141.921H84.2V143.99Z" fill="#F7F6F9"/>
<path d="M84.2 147.538H82.1V145.468H84.2V147.538Z" fill="#F7F6F9"/>
<path d="M84.2 151.085H82.1V149.016H84.2V151.085Z" fill="#F7F6F9"/>
<path d="M84.2 154.534H82.1V152.464H84.2V154.534Z" fill="#F7F6F9"/>
<path d="M84.2 158.081H82.1V156.012H84.2V158.081Z" fill="#F7F6F9"/>
<path d="M84.2 161.629H82.1V159.559H84.2V161.629Z" fill="#F7F6F9"/>
<path d="M82.1 172.173H84.2V170.103H82.1V172.173Z" fill="#F7F6F9"/>
<path d="M82.1 175.72H84.2V173.65H82.1V175.72Z" fill="#F7F6F9"/>
<path d="M82.1 179.267H84.2V177.198H82.1V179.267Z" fill="#F7F6F9"/>
<path d="M80.8 140.443H78.7V138.373H80.8V140.443Z" fill="#F7F6F9"/>
<path d="M80.8 143.99H78.7V141.921H80.8V143.99Z" fill="#F7F6F9"/>
<path d="M80.8 147.538H78.7V145.468H80.8V147.538Z" fill="#F7F6F9"/>
<path d="M80.8 151.085H78.7V149.016H80.8V151.085Z" fill="#F7F6F9"/>
<path d="M80.8 154.534H78.7V152.464H80.8V154.534Z" fill="#F7F6F9"/>
<path d="M80.8 158.081H78.7V156.012H80.8V158.081Z" fill="#F7F6F9"/>
<path d="M80.8 161.629H78.7V159.559H80.8V161.629Z" fill="#F7F6F9"/>
<path d="M77.4 140.443H75.3V138.373H77.4V140.443Z" fill="#F7F6F9"/>
<path d="M77.4 143.99H75.3V141.921H77.4V143.99Z" fill="#F7F6F9"/>
<path d="M77.4 147.538H75.3V145.468H77.4V147.538Z" fill="#F7F6F9"/>
<path d="M77.4 151.085H75.3V149.016H77.4V151.085Z" fill="#F7F6F9"/>
<path d="M77.4 154.534H75.3V152.464H77.4V154.534Z" fill="#F7F6F9"/>
<path d="M77.4 158.081H75.3V156.012H77.4V158.081Z" fill="#F7F6F9"/>
<path d="M77.4 161.629H75.3V159.559H77.4V161.629Z" fill="#F7F6F9"/>
<path d="M74 140.443H71.9V138.373H74V140.443Z" fill="#F7F6F9"/>
<path d="M74 143.99H71.9V141.921H74V143.99Z" fill="#F7F6F9"/>
<path d="M74 147.538H71.9V145.468H74V147.538Z" fill="#F7F6F9"/>
<path d="M74 151.085H71.9V149.016H74V151.085Z" fill="#F7F6F9"/>
<path d="M74 154.534H71.9V152.464H74V154.534Z" fill="#F7F6F9"/>
<path d="M74 158.081H71.9V156.012H74V158.081Z" fill="#F7F6F9"/>
<path d="M74 161.629H71.9V159.559H74V161.629Z" fill="#F7F6F9"/>
<path d="M74 165.176H71.9V163.107H74V165.176Z" fill="#F7F6F9"/>
<path d="M74 168.625H71.9V166.556H74V168.625Z" fill="#F7F6F9"/>
<path d="M74 172.173H71.9V170.103H74V172.173Z" fill="#F7F6F9"/>
<path d="M71.9 175.72H74V173.65H71.9V175.72Z" fill="#F7F6F9"/>
<path d="M70.7 140.443H68.6V138.373H70.7V140.443Z" fill="#F7F6F9"/>
<path d="M70.7 143.99H68.6V141.921H70.7V143.99Z" fill="#F7F6F9"/>
<path d="M70.7 147.538H68.6V145.468H70.7V147.538Z" fill="#F7F6F9"/>
<path d="M70.7 151.085H68.6V149.016H70.7V151.085Z" fill="#F7F6F9"/>
<path d="M70.7 154.534H68.6V152.464H70.7V154.534Z" fill="#F7F6F9"/>
<path d="M70.7 158.081H68.6V156.012H70.7V158.081Z" fill="#F7F6F9"/>
<path d="M70.7 161.629H68.6V159.559H70.7V161.629Z" fill="#F7F6F9"/>
<path d="M70.7 165.176H68.6V163.107H70.7V165.176Z" fill="#F7F6F9"/>
<path d="M70.7 168.625H68.6V166.556H70.7V168.625Z" fill="#F7F6F9"/>
<path d="M70.7 172.173H68.6V170.103H70.7V172.173Z" fill="#F7F6F9"/>
<path d="M68.5 175.72H70.6V173.65H68.5V175.72Z" fill="#F7F6F9"/>
<path d="M68.5 179.267H70.6V177.198H68.5V179.267Z" fill="#F7F6F9"/>
<path d="M68.5 189.811H70.6V187.742H68.5V189.811Z" fill="#F7F6F9"/>
<path d="M70.7 193.358H68.6V191.191H70.7V193.358Z" fill="#F7F6F9"/>
<path d="M67.3 140.443H65.2V138.373H67.3V140.443Z" fill="#F7F6F9"/>
<path d="M67.3 143.99H65.2V141.921H67.3V143.99Z" fill="#F7F6F9"/>
<path d="M67.3 147.538H65.2V145.468H67.3V147.538Z" fill="#F7F6F9"/>
<path d="M67.3 158.081H65.2V156.012H67.3V158.081Z" fill="#F7F6F9"/>
<path d="M67.3 161.629H65.2V159.559H67.3V161.629Z" fill="#F7F6F9"/>
<path d="M67.3 165.176H65.2V163.107H67.3V165.176Z" fill="#F7F6F9"/>
<path d="M67.3 168.625H65.2V166.556H67.3V168.625Z" fill="#F7F6F9"/>
<path d="M67.3 172.173H65.2V170.103H67.3V172.173Z" fill="#F7F6F9"/>
<path d="M67.3 175.72H65.2V173.65H67.3V175.72Z" fill="#F7F6F9"/>
<path d="M65.1 179.267H67.2V177.198H65.1V179.267Z" fill="#F7F6F9"/>
<path d="M65.1 189.811H67.2V187.742H65.1V189.811Z" fill="#F7F6F9"/>
<path d="M65.1 193.358H67.2V191.191H65.1V193.358Z" fill="#F7F6F9"/>
<path d="M67.3 196.807H65.2V194.738H67.3V196.807Z" fill="#F7F6F9"/>
<path d="M31.8 119.355H29.7V117.286H31.8V119.355Z" fill="#F7F6F9"/>
<path d="M31.8 122.903H29.7V120.833H31.8V122.903Z" fill="#F7F6F9"/>
<path d="M31.8 126.352H29.7V124.282H31.8V126.352Z" fill="#F7F6F9"/>
<path d="M31.8 129.899H29.7V127.83H31.8V129.899Z" fill="#F7F6F9"/>
<path d="M31.8 133.447H29.7V131.377H31.8V133.447Z" fill="#F7F6F9"/>
<path d="M31.8 136.994H29.7V134.924H31.8V136.994Z" fill="#F7F6F9"/>
<path d="M31.8 140.443H29.7V138.373H31.8V140.443Z" fill="#F7F6F9"/>
<path d="M31.8 143.99H29.7V141.921H31.8V143.99Z" fill="#F7F6F9"/>
<path d="M31.8 147.538H29.7V145.468H31.8V147.538Z" fill="#F7F6F9"/>
<path d="M31.8 151.085H29.7V149.016H31.8V151.085Z" fill="#F7F6F9"/>
<path d="M31.8 154.534H29.7V152.464H31.8V154.534Z" fill="#F7F6F9"/>
<path d="M31.8 158.081H29.7V156.012H31.8V158.081Z" fill="#F7F6F9"/>
<path d="M31.8 161.629H29.7V159.559H31.8V161.629Z" fill="#F7F6F9"/>
<path d="M31.8 165.176H29.7V163.107H31.8V165.176Z" fill="#F7F6F9"/>
<path d="M31.8 168.625H29.7V166.556H31.8V168.625Z" fill="#F7F6F9"/>
<path d="M31.8 172.173H29.7V170.103H31.8V172.173Z" fill="#F7F6F9"/>
<path d="M31.8 175.72H29.7V173.65H31.8V175.72Z" fill="#F7F6F9"/>
<path d="M31.8 179.267H29.7V177.198H31.8V179.267Z" fill="#F7F6F9"/>
<path d="M31.8 182.716H29.7V180.647H31.8V182.716Z" fill="#F7F6F9"/>
<path d="M31.8 186.263H29.7V184.194H31.8V186.263Z" fill="#F7F6F9"/>
<path d="M31.8 189.811H29.7V187.742H31.8V189.811Z" fill="#F7F6F9"/>
<path d="M31.8 193.358H29.7V191.191H31.8V193.358Z" fill="#F7F6F9"/>
<path d="M31.8 196.807H29.7V194.738H31.8V196.807Z" fill="#F7F6F9"/>
<path d="M28.4 119.355H26.3V117.286H28.4V119.355Z" fill="#F7F6F9"/>
<path d="M28.4 122.903H26.3V120.833H28.4V122.903Z" fill="#F7F6F9"/>
<path d="M28.4 126.352H26.3V124.282H28.4V126.352Z" fill="#F7F6F9"/>
<path d="M28.4 129.899H26.3V127.83H28.4V129.899Z" fill="#F7F6F9"/>
<path d="M28.4 133.447H26.3V131.377H28.4V133.447Z" fill="#F7F6F9"/>
<path d="M28.4 136.994H26.3V134.924H28.4V136.994Z" fill="#F7F6F9"/>
<path d="M28.4 140.443H26.3V138.373H28.4V140.443Z" fill="#F7F6F9"/>
<path d="M28.4 143.99H26.3V141.921H28.4V143.99Z" fill="#F7F6F9"/>
<path d="M28.4 147.538H26.3V145.468H28.4V147.538Z" fill="#F7F6F9"/>
<path d="M28.4 151.085H26.3V149.016H28.4V151.085Z" fill="#F7F6F9"/>
<path d="M28.4 154.534H26.3V152.464H28.4V154.534Z" fill="#F7F6F9"/>
<path d="M28.4 158.081H26.3V156.012H28.4V158.081Z" fill="#F7F6F9"/>
<path d="M28.4 161.629H26.3V159.559H28.4V161.629Z" fill="#F7F6F9"/>
<path d="M28.4 165.176H26.3V163.107H28.4V165.176Z" fill="#F7F6F9"/>
<path d="M28.4 168.625H26.3V166.556H28.4V168.625Z" fill="#F7F6F9"/>
<path d="M28.4 172.173H26.3V170.103H28.4V172.173Z" fill="#F7F6F9"/>
<path d="M28.4 175.72H26.3V173.65H28.4V175.72Z" fill="#F7F6F9"/>
<path d="M28.4 179.267H26.3V177.198H28.4V179.267Z" fill="#F7F6F9"/>
<path d="M28.4 182.716H26.3V180.647H28.4V182.716Z" fill="#F7F6F9"/>
<path d="M25 119.355H22.9V117.286H25V119.355Z" fill="#F7F6F9"/>
<path d="M25 122.903H22.9V120.833H25V122.903Z" fill="#F7F6F9"/>
<path d="M25 126.352H22.9V124.282H25V126.352Z" fill="#F7F6F9"/>
<path d="M25 129.899H22.9V127.83H25V129.899Z" fill="#F7F6F9"/>
<path d="M25 133.447H22.9V131.377H25V133.447Z" fill="#F7F6F9"/>
<path d="M25 136.994H22.9V134.924H25V136.994Z" fill="#F7F6F9"/>
<path d="M25 140.443H22.9V138.373H25V140.443Z" fill="#F7F6F9"/>
<path d="M25 143.99H22.9V141.921H25V143.99Z" fill="#F7F6F9"/>
<path d="M25 147.538H22.9V145.468H25V147.538Z" fill="#F7F6F9"/>
<path d="M25 151.085H22.9V149.016H25V151.085Z" fill="#F7F6F9"/>
<path d="M25 154.534H22.9V152.464H25V154.534Z" fill="#F7F6F9"/>
<path d="M25 158.081H22.9V156.012H25V158.081Z" fill="#F7F6F9"/>
<path d="M25 161.629H22.9V159.559H25V161.629Z" fill="#F7F6F9"/>
<path d="M25 165.176H22.9V163.107H25V165.176Z" fill="#F7F6F9"/>
<path d="M25 168.625H22.9V166.556H25V168.625Z" fill="#F7F6F9"/>
<path d="M25 172.173H22.9V170.103H25V172.173Z" fill="#F7F6F9"/>
<path d="M25 175.72H22.9V173.65H25V175.72Z" fill="#F7F6F9"/>
<path d="M25 179.267H22.9V177.198H25V179.267Z" fill="#F7F6F9"/>
<path d="M25 182.716H22.9V180.647H25V182.716Z" fill="#F7F6F9"/>
<path d="M21.6 119.355H19.5V117.286H21.6V119.355Z" fill="#F7F6F9"/>
<path d="M21.6 122.903H19.5V120.833H21.6V122.903Z" fill="#F7F6F9"/>
<path d="M21.6 126.352H19.5V124.282H21.6V126.352Z" fill="#F7F6F9"/>
<path d="M21.6 129.899H19.5V127.83H21.6V129.899Z" fill="#F7F6F9"/>
<path d="M21.6 133.447H19.5V131.377H21.6V133.447Z" fill="#F7F6F9"/>
<path d="M21.6 136.994H19.5V134.924H21.6V136.994Z" fill="#F7F6F9"/>
<path d="M21.6 140.443H19.5V138.373H21.6V140.443Z" fill="#F7F6F9"/>
<path d="M21.6 143.99H19.5V141.921H21.6V143.99Z" fill="#F7F6F9"/>
<path d="M21.6 147.538H19.5V145.468H21.6V147.538Z" fill="#F7F6F9"/>
<path d="M21.6 151.085H19.5V149.016H21.6V151.085Z" fill="#F7F6F9"/>
<path d="M21.6 154.534H19.5V152.464H21.6V154.534Z" fill="#F7F6F9"/>
<path d="M21.6 158.081H19.5V156.012H21.6V158.081Z" fill="#F7F6F9"/>
<path d="M21.6 161.629H19.5V159.559H21.6V161.629Z" fill="#F7F6F9"/>
<path d="M21.6 165.176H19.5V163.107H21.6V165.176Z" fill="#F7F6F9"/>
<path d="M21.6 168.625H19.5V166.556H21.6V168.625Z" fill="#F7F6F9"/>
<path d="M18.2 119.355H16.1V117.286H18.2V119.355Z" fill="#F7F6F9"/>
<path d="M18.2 122.903H16.1V120.833H18.2V122.903Z" fill="#F7F6F9"/>
<path d="M18.2 126.352H16.1V124.282H18.2V126.352Z" fill="#F7F6F9"/>
<path d="M18.2 129.899H16.1V127.83H18.2V129.899Z" fill="#F7F6F9"/>
<path d="M18.2 133.447H16.1V131.377H18.2V133.447Z" fill="#F7F6F9"/>
<path d="M18.2 136.994H16.1V134.924H18.2V136.994Z" fill="#F7F6F9"/>
<path d="M18.2 140.443H16.1V138.373H18.2V140.443Z" fill="#F7F6F9"/>
<path d="M18.2 143.99H16.1V141.921H18.2V143.99Z" fill="#F7F6F9"/>
<path d="M18.2 147.538H16.1V145.468H18.2V147.538Z" fill="#F7F6F9"/>
<path d="M18.2 151.085H16.1V149.016H18.2V151.085Z" fill="#F7F6F9"/>
<path d="M18.2 154.534H16.1V152.464H18.2V154.534Z" fill="#F7F6F9"/>
<path d="M18.2 158.081H16.1V156.012H18.2V158.081Z" fill="#F7F6F9"/>
<path d="M18.2 161.629H16.1V159.559H18.2V161.629Z" fill="#F7F6F9"/>
<path d="M14.8 117.286V119.355H12.7V117.286H14.8Z" fill="#F7F6F9"/>
<path d="M14.8 122.903H12.7V120.833H14.8V122.903Z" fill="#F7F6F9"/>
<path d="M14.8 126.352H12.7V124.282H14.8V126.352Z" fill="#F7F6F9"/>
<path d="M14.8 129.899H12.7V127.83H14.8V129.899Z" fill="#F7F6F9"/>
<path d="M14.8 133.447H12.7V131.377H14.8V133.447Z" fill="#F7F6F9"/>
<path d="M14.8 136.994H12.7V134.924H14.8V136.994Z" fill="#F7F6F9"/>
<path d="M14.8 140.443H12.7V138.373H14.8V140.443Z" fill="#F7F6F9"/>
<path d="M14.8 143.99H12.7V141.921H14.8V143.99Z" fill="#F7F6F9"/>
<path d="M14.8 147.538H12.7V145.468H14.8V147.538Z" fill="#F7F6F9"/>
<path d="M14.8 151.085H12.7V149.016H14.8V151.085Z" fill="#F7F6F9"/>
<path d="M14.8 154.534H12.7V152.464H14.8V154.534Z" fill="#F7F6F9"/>
<path d="M14.8 158.081H12.7V156.012H14.8V158.081Z" fill="#F7F6F9"/>
<path d="M263.7 145.074H261.6V143.005H263.7V145.074Z" fill="#F7F6F9"/>
<path d="M263.7 148.621H261.6V146.552H263.7V148.621Z" fill="#F7F6F9"/>
<path d="M263.7 152.07H261.6V150.001H263.7V152.07Z" fill="#F7F6F9"/>
<path d="M263.7 155.618H261.6V153.549H263.7V155.618Z" fill="#F7F6F9"/>
<path d="M263.7 159.165H261.6V157.096H263.7V159.165Z" fill="#F7F6F9"/>
<path d="M263.7 162.713H261.6V160.643H263.7V162.713Z" fill="#F7F6F9"/>
<path d="M263.7 166.161H261.6V164.092H263.7V166.161Z" fill="#F7F6F9"/>
<path d="M263.7 169.709H261.6V167.64H263.7V169.709Z" fill="#F7F6F9"/>
<path d="M263.7 173.256H261.6V171.187H263.7V173.256Z" fill="#F7F6F9"/>
<path d="M261.6 176.804H263.7V174.734H261.6V176.804Z" fill="#F7F6F9"/>
<path d="M261.6 180.253H263.7V178.183H261.6V180.253Z" fill="#F7F6F9"/>
<path d="M261.6 183.8H263.7V181.731H261.6V183.8Z" fill="#F7F6F9"/>
<path d="M261.6 187.347H263.7V185.278H261.6V187.347Z" fill="#F7F6F9"/>
<path d="M261.6 190.895H263.7V188.826H261.6V190.895Z" fill="#F7F6F9"/>
<path d="M261.6 194.344H263.7V192.275H261.6V194.344Z" fill="#F7F6F9"/>
<path d="M261.6 197.891H263.7V195.822H261.6V197.891Z" fill="#F7F6F9"/>
<path d="M261.6 201.439H263.7V199.369H261.6V201.439Z" fill="#F7F6F9"/>
<path d="M261.6 204.986H263.7V202.917H261.6V204.986Z" fill="#F7F6F9"/>
<path d="M263.7 208.435H261.6V206.365H263.7V208.435Z" fill="#F7F6F9"/>
<path d="M263.7 211.982H261.6V209.913H263.7V211.982Z" fill="#F7F6F9"/>
<path d="M260.3 145.074H258.2V143.005H260.3V145.074Z" fill="#F7F6F9"/>
<path d="M260.3 148.621H258.2V146.552H260.3V148.621Z" fill="#F7F6F9"/>
<path d="M260.3 152.07H258.2V150.001H260.3V152.07Z" fill="#F7F6F9"/>
<path d="M260.3 155.618H258.2V153.549H260.3V155.618Z" fill="#F7F6F9"/>
<path d="M260.3 159.165H258.2V157.096H260.3V159.165Z" fill="#F7F6F9"/>
<path d="M260.3 162.713H258.2V160.643H260.3V162.713Z" fill="#F7F6F9"/>
<path d="M260.3 166.161H258.2V164.092H260.3V166.161Z" fill="#F7F6F9"/>
<path d="M260.3 169.709H258.2V167.64H260.3V169.709Z" fill="#F7F6F9"/>
<path d="M260.3 173.256H258.2V171.187H260.3V173.256Z" fill="#F7F6F9"/>
<path d="M258.2 176.804H260.3V174.734H258.2V176.804Z" fill="#F7F6F9"/>
<path d="M258.2 180.253H260.3V178.183H258.2V180.253Z" fill="#F7F6F9"/>
<path d="M258.2 183.8H260.3V181.731H258.2V183.8Z" fill="#F7F6F9"/>
<path d="M258.2 187.347H260.3V185.278H258.2V187.347Z" fill="#F7F6F9"/>
<path d="M258.2 190.895H260.3V188.826H258.2V190.895Z" fill="#F7F6F9"/>
<path d="M258.2 194.344H260.3V192.275H258.2V194.344Z" fill="#F7F6F9"/>
<path d="M258.2 197.891H260.3V195.822H258.2V197.891Z" fill="#F7F6F9"/>
<path d="M258.2 201.439H260.3V199.369H258.2V201.439Z" fill="#F7F6F9"/>
<path d="M258.2 204.986H260.3V202.917H258.2V204.986Z" fill="#F7F6F9"/>
<path d="M256.9 145.074H254.8V143.005H256.9V145.074Z" fill="#F7F6F9"/>
<path d="M256.9 148.621H254.8V146.552H256.9V148.621Z" fill="#F7F6F9"/>
<path d="M256.9 152.07H254.8V150.001H256.9V152.07Z" fill="#F7F6F9"/>
<path d="M256.9 155.618H254.8V153.549H256.9V155.618Z" fill="#F7F6F9"/>
<path d="M256.9 159.165H254.8V157.096H256.9V159.165Z" fill="#F7F6F9"/>
<path d="M256.9 162.713H254.8V160.643H256.9V162.713Z" fill="#F7F6F9"/>
<path d="M256.9 166.161H254.8V164.092H256.9V166.161Z" fill="#F7F6F9"/>
<path d="M256.9 169.709H254.8V167.64H256.9V169.709Z" fill="#F7F6F9"/>
<path d="M256.9 173.256H254.8V171.187H256.9V173.256Z" fill="#F7F6F9"/>
<path d="M254.8 176.804H256.9V174.734H254.8V176.804Z" fill="#F7F6F9"/>
<path d="M254.8 180.253H256.9V178.183H254.8V180.253Z" fill="#F7F6F9"/>
<path d="M254.8 183.8H256.9V181.731H254.8V183.8Z" fill="#F7F6F9"/>
<path d="M254.8 187.347H256.9V185.278H254.8V187.347Z" fill="#F7F6F9"/>
<path d="M254.8 190.895H256.9V188.826H254.8V190.895Z" fill="#F7F6F9"/>
<path d="M254.8 194.344H256.9V192.275H254.8V194.344Z" fill="#F7F6F9"/>
<path d="M254.8 197.891H256.9V195.822H254.8V197.891Z" fill="#F7F6F9"/>
<path d="M254.8 201.439H256.9V199.369H254.8V201.439Z" fill="#F7F6F9"/>
<path d="M254.8 204.986H256.9V202.917H254.8V204.986Z" fill="#F7F6F9"/>
<path d="M276.4 170.793H274.3V168.724H276.4V170.793Z" fill="#F7F6F9"/>
<path d="M276.4 174.34H274.3V172.271H276.4V174.34Z" fill="#F7F6F9"/>
<path d="M274.3 177.789H276.4V175.72H274.3V177.789Z" fill="#F7F6F9"/>
<path d="M274.3 181.336H276.4V179.267H274.3V181.336Z" fill="#F7F6F9"/>
<path d="M274.3 184.884H276.4V182.815H274.3V184.884Z" fill="#F7F6F9"/>
<path d="M274.3 188.431H276.4V186.264H274.3V188.431Z" fill="#F7F6F9"/>
<path d="M274.3 191.88H276.4V189.811H274.3V191.88Z" fill="#F7F6F9"/>
<path d="M274.3 195.428H276.4V193.358H274.3V195.428Z" fill="#F7F6F9"/>
<path d="M274.3 198.975H276.4V196.906H274.3V198.975Z" fill="#F7F6F9"/>
<path d="M276.4 202.522H274.3V200.453H276.4V202.522Z" fill="#F7F6F9"/>
<path d="M276.4 205.971H274.3V203.902H276.4V205.971Z" fill="#F7F6F9"/>
<path d="M276.4 209.519H274.3V207.45H276.4V209.519Z" fill="#F7F6F9"/>
<path d="M276.4 213.066H274.3V210.898H276.4V213.066Z" fill="#F7F6F9"/>
<path d="M273 170.793H270.9V168.724H273V170.793Z" fill="#F7F6F9"/>
<path d="M273 174.34H270.9V172.271H273V174.34Z" fill="#F7F6F9"/>
<path d="M270.9 177.789H273V175.72H270.9V177.789Z" fill="#F7F6F9"/>
<path d="M270.9 181.336H273V179.267H270.9V181.336Z" fill="#F7F6F9"/>
<path d="M270.9 184.884H273V182.815H270.9V184.884Z" fill="#F7F6F9"/>
<path d="M270.9 188.431H273V186.264H270.9V188.431Z" fill="#F7F6F9"/>
<path d="M270.9 191.88H273V189.811H270.9V191.88Z" fill="#F7F6F9"/>
<path d="M270.9 195.428H273V193.358H270.9V195.428Z" fill="#F7F6F9"/>
<path d="M270.9 198.975H273V196.906H270.9V198.975Z" fill="#F7F6F9"/>
<path d="M273 202.522H270.9V200.453H273V202.522Z" fill="#F7F6F9"/>
<path d="M273 205.971H270.9V203.902H273V205.971Z" fill="#F7F6F9"/>
<path d="M273 209.519H270.9V207.45H273V209.519Z" fill="#F7F6F9"/>
<path d="M273 213.066H270.9V210.898H273V213.066Z" fill="#F7F6F9"/>
<path d="M269.6 170.793H267.5V168.724H269.6V170.793Z" fill="#F7F6F9"/>
<path d="M269.6 174.34H267.5V172.271H269.6V174.34Z" fill="#F7F6F9"/>
<path d="M267.5 177.789H269.6V175.72H267.5V177.789Z" fill="#F7F6F9"/>
<path d="M267.5 181.336H269.6V179.267H267.5V181.336Z" fill="#F7F6F9"/>
<path d="M267.5 184.884H269.6V182.815H267.5V184.884Z" fill="#F7F6F9"/>
<path d="M267.5 188.431H269.6V186.264H267.5V188.431Z" fill="#F7F6F9"/>
<path d="M267.5 191.88H269.6V189.811H267.5V191.88Z" fill="#F7F6F9"/>
<path d="M267.5 195.428H269.6V193.358H267.5V195.428Z" fill="#F7F6F9"/>
<path d="M267.5 198.975H269.6V196.906H267.5V198.975Z" fill="#F7F6F9"/>
<path d="M269.6 202.522H267.5V200.453H269.6V202.522Z" fill="#F7F6F9"/>
<path d="M269.6 205.971H267.5V203.902H269.6V205.971Z" fill="#F7F6F9"/>
<path d="M269.6 209.519H267.5V207.45H269.6V209.519Z" fill="#F7F6F9"/>
<path d="M269.6 213.066H267.5V210.898H269.6V213.066Z" fill="#F7F6F9"/>
<path d="M269.6 216.614H267.5V214.544H269.6V216.614Z" fill="#F7F6F9"/>
<path d="M250.8 171.778H248.7V169.709H250.8V171.778Z" fill="#F7F6F9"/>
<path d="M250.8 175.326H248.7V173.256H250.8V175.326Z" fill="#F7F6F9"/>
<path d="M250.8 178.873H248.7V176.804H250.8V178.873Z" fill="#F7F6F9"/>
<path d="M250.8 182.421H248.7V180.351H250.8V182.421Z" fill="#F7F6F9"/>
<path d="M248.7 185.869H250.8V183.8H248.7V185.869Z" fill="#F7F6F9"/>
<path d="M248.7 189.417H250.8V187.348H248.7V189.417Z" fill="#F7F6F9"/>
<path d="M248.7 192.964H250.8V190.895H248.7V192.964Z" fill="#F7F6F9"/>
<path d="M248.7 196.512H250.8V194.442H248.7V196.512Z" fill="#F7F6F9"/>
<path d="M248.7 199.961H250.8V197.891H248.7V199.961Z" fill="#F7F6F9"/>
<path d="M248.7 203.508H250.8V201.439H248.7V203.508Z" fill="#F7F6F9"/>
<path d="M248.7 214.052H250.8V211.982H248.7V214.052Z" fill="#F7F6F9"/>
<path d="M247.4 171.778H245.3V169.709H247.4V171.778Z" fill="#F7F6F9"/>
<path d="M247.4 175.326H245.3V173.256H247.4V175.326Z" fill="#F7F6F9"/>
<path d="M247.4 178.873H245.3V176.804H247.4V178.873Z" fill="#F7F6F9"/>
<path d="M247.4 182.421H245.3V180.351H247.4V182.421Z" fill="#F7F6F9"/>
<path d="M247.4 185.869H245.3V183.8H247.4V185.869Z" fill="#F7F6F9"/>
<path d="M245.3 189.417H247.4V187.348H245.3V189.417Z" fill="#F7F6F9"/>
<path d="M245.3 192.964H247.4V190.895H245.3V192.964Z" fill="#F7F6F9"/>
<path d="M245.3 196.512H247.4V194.442H245.3V196.512Z" fill="#F7F6F9"/>
<path d="M245.3 199.961H247.4V197.891H245.3V199.961Z" fill="#F7F6F9"/>
<path d="M245.3 210.603H247.4V208.534H245.3V210.603Z" fill="#F7F6F9"/>
<path d="M245.3 214.052H247.4V211.982H245.3V214.052Z" fill="#F7F6F9"/>
<path d="M244 171.778H241.9V169.709H244V171.778Z" fill="#F7F6F9"/>
<path d="M244 175.326H241.9V173.256H244V175.326Z" fill="#F7F6F9"/>
<path d="M244 178.873H241.9V176.804H244V178.873Z" fill="#F7F6F9"/>
<path d="M244 182.421H241.9V180.351H244V182.421Z" fill="#F7F6F9"/>
<path d="M244 185.869H241.9V183.8H244V185.869Z" fill="#F7F6F9"/>
<path d="M244 189.417H241.9V187.348H244V189.417Z" fill="#F7F6F9"/>
<path d="M241.9 192.964H244V190.895H241.9V192.964Z" fill="#F7F6F9"/>
<path d="M241.9 196.512H244V194.442H241.9V196.512Z" fill="#F7F6F9"/>
<path d="M241.9 207.055H244V204.986H241.9V207.055Z" fill="#F7F6F9"/>
<path d="M241.9 210.603H244V208.534H241.9V210.603Z" fill="#F7F6F9"/>
<path d="M241.9 214.052H244V211.982H241.9V214.052Z" fill="#F7F6F9"/>
<path d="M212.5 118.271H210.4V116.202H212.5V118.271Z" fill="#F7F6F9"/>
<path d="M210.4 121.819H212.5V119.75H210.4V121.819Z" fill="#F7F6F9"/>
<path d="M210.4 125.366H212.5V123.198H210.4V125.366Z" fill="#F7F6F9"/>
<path d="M210.4 128.914H212.5V126.844H210.4V128.914Z" fill="#F7F6F9"/>
<path d="M210.4 132.362H212.5V130.293H210.4V132.362Z" fill="#F7F6F9"/>
<path d="M210.4 135.91H212.5V133.841H210.4V135.91Z" fill="#F7F6F9"/>
<path d="M210.4 139.457H212.5V137.388H210.4V139.457Z" fill="#F7F6F9"/>
<path d="M210.4 143.005H212.5V140.935H210.4V143.005Z" fill="#F7F6F9"/>
<path d="M210.4 146.454H212.5V144.384H210.4V146.454Z" fill="#F7F6F9"/>
<path d="M210.4 150.001H212.5V147.932H210.4V150.001Z" fill="#F7F6F9"/>
<path d="M210.4 153.548H212.5V151.479H210.4V153.548Z" fill="#F7F6F9"/>
<path d="M210.4 157.096H212.5V155.027H210.4V157.096Z" fill="#F7F6F9"/>
<path d="M210.4 160.545H212.5V158.476H210.4V160.545Z" fill="#F7F6F9"/>
<path d="M210.4 164.092H212.5V162.023H210.4V164.092Z" fill="#F7F6F9"/>
<path d="M210.4 167.64H212.5V165.57H210.4V167.64Z" fill="#F7F6F9"/>
<path d="M210.4 171.187H212.5V169.118H210.4V171.187Z" fill="#F7F6F9"/>
<path d="M210.4 174.636H212.5V172.567H210.4V174.636Z" fill="#F7F6F9"/>
<path d="M210.4 181.731H212.5V179.661H210.4V181.731Z" fill="#F7F6F9"/>
<path d="M210.4 185.278H212.5V183.209H210.4V185.278Z" fill="#F7F6F9"/>
<path d="M210.4 188.727H212.5V186.658H210.4V188.727Z" fill="#F7F6F9"/>
<path d="M210.4 192.274H212.5V190.205H210.4V192.274Z" fill="#F7F6F9"/>
<path d="M212.5 195.822H210.4V193.753H212.5V195.822Z" fill="#F7F6F9"/>
<path d="M209.1 118.271H207V116.202H209.1V118.271Z" fill="#F7F6F9"/>
<path d="M207 121.819H209.1V119.75H207V121.819Z" fill="#F7F6F9"/>
<path d="M207 125.366H209.1V123.198H207V125.366Z" fill="#F7F6F9"/>
<path d="M207 128.914H209.1V126.844H207V128.914Z" fill="#F7F6F9"/>
<path d="M207 132.362H209.1V130.293H207V132.362Z" fill="#F7F6F9"/>
<path d="M207 135.91H209.1V133.841H207V135.91Z" fill="#F7F6F9"/>
<path d="M207 139.457H209.1V137.388H207V139.457Z" fill="#F7F6F9"/>
<path d="M207 143.005H209.1V140.935H207V143.005Z" fill="#F7F6F9"/>
<path d="M207 146.454H209.1V144.384H207V146.454Z" fill="#F7F6F9"/>
<path d="M207 150.001H209.1V147.932H207V150.001Z" fill="#F7F6F9"/>
<path d="M207 153.548H209.1V151.479H207V153.548Z" fill="#F7F6F9"/>
<path d="M207 157.096H209.1V155.027H207V157.096Z" fill="#F7F6F9"/>
<path d="M207 160.545H209.1V158.476H207V160.545Z" fill="#F7F6F9"/>
<path d="M207 164.092H209.1V162.023H207V164.092Z" fill="#F7F6F9"/>
<path d="M207 167.64H209.1V165.57H207V167.64Z" fill="#F7F6F9"/>
<path d="M207 171.187H209.1V169.118H207V171.187Z" fill="#F7F6F9"/>
<path d="M207 192.274H209.1V190.205H207V192.274Z" fill="#F7F6F9"/>
<path d="M207 195.822H209.1V193.753H207V195.822Z" fill="#F7F6F9"/>
<path d="M205.8 118.271H203.7V116.202H205.8V118.271Z" fill="#F7F6F9"/>
<path d="M203.6 121.819H205.7V119.75H203.6V121.819Z" fill="#F7F6F9"/>
<path d="M203.6 125.366H205.7V123.198H203.6V125.366Z" fill="#F7F6F9"/>
<path d="M203.6 128.914H205.7V126.844H203.6V128.914Z" fill="#F7F6F9"/>
<path d="M203.6 132.362H205.7V130.293H203.6V132.362Z" fill="#F7F6F9"/>
<path d="M203.6 135.91H205.7V133.841H203.6V135.91Z" fill="#F7F6F9"/>
<path d="M203.6 139.457H205.7V137.388H203.6V139.457Z" fill="#F7F6F9"/>
<path d="M203.6 143.005H205.7V140.935H203.6V143.005Z" fill="#F7F6F9"/>
<path d="M203.6 146.454H205.7V144.384H203.6V146.454Z" fill="#F7F6F9"/>
<path d="M203.6 150.001H205.7V147.932H203.6V150.001Z" fill="#F7F6F9"/>
<path d="M203.6 153.548H205.7V151.479H203.6V153.548Z" fill="#F7F6F9"/>
<path d="M203.6 157.096H205.7V155.027H203.6V157.096Z" fill="#F7F6F9"/>
<path d="M203.6 160.545H205.7V158.476H203.6V160.545Z" fill="#F7F6F9"/>
<path d="M203.6 164.092H205.7V162.023H203.6V164.092Z" fill="#F7F6F9"/>
<path d="M203.6 167.64H205.7V165.57H203.6V167.64Z" fill="#F7F6F9"/>
<path d="M203.6 171.187H205.7V169.118H203.6V171.187Z" fill="#F7F6F9"/>
<path d="M203.6 178.183H205.7V176.114H203.6V178.183Z" fill="#F7F6F9"/>
<path d="M203.6 181.731H205.7V179.661H203.6V181.731Z" fill="#F7F6F9"/>
<path d="M203.6 185.278H205.7V183.209H203.6V185.278Z" fill="#F7F6F9"/>
<path d="M203.6 188.727H205.7V186.658H203.6V188.727Z" fill="#F7F6F9"/>
<path d="M203.6 195.822H205.7V193.753H203.6V195.822Z" fill="#F7F6F9"/>
<path d="M222.7 162.713H224.8V160.643H222.7V162.713Z" fill="#F7F6F9"/>
<path d="M222.7 166.161H224.8V164.092H222.7V166.161Z" fill="#F7F6F9"/>
<path d="M222.7 169.709H224.8V167.64H222.7V169.709Z" fill="#F7F6F9"/>
<path d="M222.7 173.256H224.8V171.187H222.7V173.256Z" fill="#F7F6F9"/>
<path d="M222.7 176.804H224.8V174.734H222.7V176.804Z" fill="#F7F6F9"/>
<path d="M222.7 180.253H224.8V178.183H222.7V180.253Z" fill="#F7F6F9"/>
<path d="M222.7 183.8H224.8V181.731H222.7V183.8Z" fill="#F7F6F9"/>
<path d="M222.7 190.895H224.8V188.826H222.7V190.895Z" fill="#F7F6F9"/>
<path d="M222.7 194.344H224.8V192.275H222.7V194.344Z" fill="#F7F6F9"/>
<path d="M224.8 197.891H222.7V195.822H224.8V197.891Z" fill="#F7F6F9"/>
<path d="M224.8 201.439H222.7V199.369H224.8V201.439Z" fill="#F7F6F9"/>
<path d="M222.7 204.986H224.8V202.917H222.7V204.986Z" fill="#F7F6F9"/>
<path d="M222.7 208.435H224.8V206.365H222.7V208.435Z" fill="#F7F6F9"/>
<path d="M222.7 211.982H224.8V209.913H222.7V211.982Z" fill="#F7F6F9"/>
<path d="M222.7 215.53H224.8V213.461H222.7V215.53Z" fill="#F7F6F9"/>
<path d="M219.3 162.713H221.4V160.643H219.3V162.713Z" fill="#F7F6F9"/>
<path d="M219.3 166.161H221.4V164.092H219.3V166.161Z" fill="#F7F6F9"/>
<path d="M219.3 169.709H221.4V167.64H219.3V169.709Z" fill="#F7F6F9"/>
<path d="M219.3 173.256H221.4V171.187H219.3V173.256Z" fill="#F7F6F9"/>
<path d="M219.3 176.804H221.4V174.734H219.3V176.804Z" fill="#F7F6F9"/>
<path d="M219.3 180.253H221.4V178.183H219.3V180.253Z" fill="#F7F6F9"/>
<path d="M219.3 190.895H221.4V188.826H219.3V190.895Z" fill="#F7F6F9"/>
<path d="M221.4 194.344H219.3V192.275H221.4V194.344Z" fill="#F7F6F9"/>
<path d="M221.4 197.891H219.3V195.822H221.4V197.891Z" fill="#F7F6F9"/>
<path d="M221.4 201.439H219.3V199.369H221.4V201.439Z" fill="#F7F6F9"/>
<path d="M221.4 204.986H219.3V202.917H221.4V204.986Z" fill="#F7F6F9"/>
<path d="M219.3 208.435H221.4V206.365H219.3V208.435Z" fill="#F7F6F9"/>
<path d="M219.3 211.982H221.4V209.913H219.3V211.982Z" fill="#F7F6F9"/>
<path d="M219.3 215.53H221.4V213.461H219.3V215.53Z" fill="#F7F6F9"/>
<path d="M215.9 162.713H218V160.643H215.9V162.713Z" fill="#F7F6F9"/>
<path d="M215.9 166.161H218V164.092H215.9V166.161Z" fill="#F7F6F9"/>
<path d="M215.9 169.709H218V167.64H215.9V169.709Z" fill="#F7F6F9"/>
<path d="M215.9 173.256H218V171.187H215.9V173.256Z" fill="#F7F6F9"/>
<path d="M215.9 176.804H218V174.734H215.9V176.804Z" fill="#F7F6F9"/>
<path d="M215.9 180.253H218V178.183H215.9V180.253Z" fill="#F7F6F9"/>
<path d="M215.9 187.347H218V185.278H215.9V187.347Z" fill="#F7F6F9"/>
<path d="M218.1 190.895H216V188.826H218.1V190.895Z" fill="#F7F6F9"/>
<path d="M218.1 194.344H216V192.275H218.1V194.344Z" fill="#F7F6F9"/>
<path d="M218.1 197.891H216V195.822H218.1V197.891Z" fill="#F7F6F9"/>
<path d="M218.1 201.439H216V199.369H218.1V201.439Z" fill="#F7F6F9"/>
<path d="M218.1 204.986H216V202.917H218.1V204.986Z" fill="#F7F6F9"/>
<path d="M218.1 208.435H216V206.365H218.1V208.435Z" fill="#F7F6F9"/>
<path d="M215.9 211.982H218V209.913H215.9V211.982Z" fill="#F7F6F9"/>
<path d="M215.9 215.53H218V213.461H215.9V215.53Z" fill="#F7F6F9"/>
<path d="M146.7 143.005H144.6V140.935H146.7V143.005Z" fill="#F7F6F9"/>
<path d="M146.7 146.454H144.6V144.384H146.7V146.454Z" fill="#F7F6F9"/>
<path d="M146.7 150.001H144.6V147.932H146.7V150.001Z" fill="#F7F6F9"/>
<path d="M146.7 153.548H144.6V151.479H146.7V153.548Z" fill="#F7F6F9"/>
<path d="M144.5 157.096H146.6V155.027H144.5V157.096Z" fill="#F7F6F9"/>
<path d="M144.5 160.545H146.6V158.476H144.5V160.545Z" fill="#F7F6F9"/>
<path d="M144.5 164.092H146.6V162.023H144.5V164.092Z" fill="#F7F6F9"/>
<path d="M144.5 167.64H146.6V165.57H144.5V167.64Z" fill="#F7F6F9"/>
<path d="M144.5 171.187H146.6V169.118H144.5V171.187Z" fill="#F7F6F9"/>
<path d="M144.5 174.636H146.6V172.567H144.5V174.636Z" fill="#F7F6F9"/>
<path d="M144.5 178.183H146.6V176.114H144.5V178.183Z" fill="#F7F6F9"/>
<path d="M144.5 181.731H146.6V179.661H144.5V181.731Z" fill="#F7F6F9"/>
<path d="M144.5 185.278H146.6V183.209H144.5V185.278Z" fill="#F7F6F9"/>
<path d="M144.5 192.274H146.6V190.205H144.5V192.274Z" fill="#F7F6F9"/>
<path d="M144.5 195.822H146.6V193.753H144.5V195.822Z" fill="#F7F6F9"/>
<path d="M144.5 199.369H146.6V197.3H144.5V199.369Z" fill="#F7F6F9"/>
<path d="M144.5 202.818H146.6V200.749H144.5V202.818Z" fill="#F7F6F9"/>
<path d="M144.5 209.913H146.6V207.844H144.5V209.913Z" fill="#F7F6F9"/>
<path d="M144.5 213.46H146.6V211.391H144.5V213.46Z" fill="#F7F6F9"/>
<path d="M144.5 216.909H146.6V214.84H144.5V216.909Z" fill="#F7F6F9"/>
<path d="M143.3 143.005H141.2V140.935H143.3V143.005Z" fill="#F7F6F9"/>
<path d="M143.3 146.454H141.2V144.384H143.3V146.454Z" fill="#F7F6F9"/>
<path d="M143.3 150.001H141.2V147.932H143.3V150.001Z" fill="#F7F6F9"/>
<path d="M143.3 153.548H141.2V151.479H143.3V153.548Z" fill="#F7F6F9"/>
<path d="M143.3 157.096H141.2V155.027H143.3V157.096Z" fill="#F7F6F9"/>
<path d="M141.2 160.545H143.3V158.476H141.2V160.545Z" fill="#F7F6F9"/>
<path d="M141.2 164.092H143.3V162.023H141.2V164.092Z" fill="#F7F6F9"/>
<path d="M141.2 167.64H143.3V165.57H141.2V167.64Z" fill="#F7F6F9"/>
<path d="M141.2 171.187H143.3V169.118H141.2V171.187Z" fill="#F7F6F9"/>
<path d="M141.2 174.636H143.3V172.567H141.2V174.636Z" fill="#F7F6F9"/>
<path d="M141.2 178.183H143.3V176.114H141.2V178.183Z" fill="#F7F6F9"/>
<path d="M141.2 181.731H143.3V179.661H141.2V181.731Z" fill="#F7F6F9"/>
<path d="M141.2 185.278H143.3V183.209H141.2V185.278Z" fill="#F7F6F9"/>
<path d="M141.2 195.822H143.3V193.753H141.2V195.822Z" fill="#F7F6F9"/>
<path d="M141.2 199.369H143.3V197.3H141.2V199.369Z" fill="#F7F6F9"/>
<path d="M141.2 206.366H143.3V204.296H141.2V206.366Z" fill="#F7F6F9"/>
<path d="M141.2 209.913H143.3V207.844H141.2V209.913Z" fill="#F7F6F9"/>
<path d="M141.2 213.46H143.3V211.391H141.2V213.46Z" fill="#F7F6F9"/>
<path d="M141.2 216.909H143.3V214.84H141.2V216.909Z" fill="#F7F6F9"/>
<path d="M139.9 143.005H137.8V140.935H139.9V143.005Z" fill="#F7F6F9"/>
<path d="M139.9 146.454H137.8V144.384H139.9V146.454Z" fill="#F7F6F9"/>
<path d="M139.9 150.001H137.8V147.932H139.9V150.001Z" fill="#F7F6F9"/>
<path d="M139.9 153.548H137.8V151.479H139.9V153.548Z" fill="#F7F6F9"/>
<path d="M139.9 157.096H137.8V155.027H139.9V157.096Z" fill="#F7F6F9"/>
<path d="M139.9 160.545H137.8V158.476H139.9V160.545Z" fill="#F7F6F9"/>
<path d="M137.8 164.092H139.9V162.023H137.8V164.092Z" fill="#F7F6F9"/>
<path d="M137.8 167.64H139.9V165.57H137.8V167.64Z" fill="#F7F6F9"/>
<path d="M137.8 171.187H139.9V169.118H137.8V171.187Z" fill="#F7F6F9"/>
<path d="M137.8 174.636H139.9V172.567H137.8V174.636Z" fill="#F7F6F9"/>
<path d="M137.8 178.183H139.9V176.114H137.8V178.183Z" fill="#F7F6F9"/>
<path d="M137.8 181.731H139.9V179.661H137.8V181.731Z" fill="#F7F6F9"/>
<path d="M137.8 185.278H139.9V183.209H137.8V185.278Z" fill="#F7F6F9"/>
<path d="M137.8 188.727H139.9V186.658H137.8V188.727Z" fill="#F7F6F9"/>
<path d="M137.8 195.822H139.9V193.753H137.8V195.822Z" fill="#F7F6F9"/>
<path d="M137.8 202.818H139.9V200.749H137.8V202.818Z" fill="#F7F6F9"/>
<path d="M137.8 206.366H139.9V204.296H137.8V206.366Z" fill="#F7F6F9"/>
<path d="M137.8 209.913H139.9V207.844H137.8V209.913Z" fill="#F7F6F9"/>
<path d="M137.8 213.46H139.9V211.391H137.8V213.46Z" fill="#F7F6F9"/>
<path d="M137.8 216.909H139.9V214.84H137.8V216.909Z" fill="#F7F6F9"/>
<path d="M158.3 163.008H160.4V160.939H158.3V163.008Z" fill="#F7F6F9"/>
<path d="M158.3 166.556H160.4V164.486H158.3V166.556Z" fill="#F7F6F9"/>
<path d="M158.3 170.103H160.4V168.034H158.3V170.103Z" fill="#F7F6F9"/>
<path d="M158.3 173.651H160.4V171.483H158.3V173.651Z" fill="#F7F6F9"/>
<path d="M158.3 177.099H160.4V175.03H158.3V177.099Z" fill="#F7F6F9"/>
<path d="M158.3 180.647H160.4V178.577H158.3V180.647Z" fill="#F7F6F9"/>
<path d="M158.3 191.19H160.4V189.121H158.3V191.19Z" fill="#F7F6F9"/>
<path d="M158.3 194.738H160.4V192.669H158.3V194.738Z" fill="#F7F6F9"/>
<path d="M158.3 198.285H160.4V196.216H158.3V198.285Z" fill="#F7F6F9"/>
<path d="M158.3 201.833H160.4V199.763H158.3V201.833Z" fill="#F7F6F9"/>
<path d="M158.3 205.282H160.4V203.212H158.3V205.282Z" fill="#F7F6F9"/>
<path d="M158.3 208.829H160.4V206.76H158.3V208.829Z" fill="#F7F6F9"/>
<path d="M158.3 212.376H160.4V210.307H158.3V212.376Z" fill="#F7F6F9"/>
<path d="M155 163.008H157.1V160.939H155V163.008Z" fill="#F7F6F9"/>
<path d="M155 166.556H157.1V164.486H155V166.556Z" fill="#F7F6F9"/>
<path d="M155 170.103H157.1V168.034H155V170.103Z" fill="#F7F6F9"/>
<path d="M155 173.651H157.1V171.483H155V173.651Z" fill="#F7F6F9"/>
<path d="M155 177.099H157.1V175.03H155V177.099Z" fill="#F7F6F9"/>
<path d="M155 180.647H157.1V178.577H155V180.647Z" fill="#F7F6F9"/>
<path d="M155 191.19H157.1V189.121H155V191.19Z" fill="#F7F6F9"/>
<path d="M155 194.738H157.1V192.669H155V194.738Z" fill="#F7F6F9"/>
<path d="M155 198.285H157.1V196.216H155V198.285Z" fill="#F7F6F9"/>
<path d="M155 201.833H157.1V199.763H155V201.833Z" fill="#F7F6F9"/>
<path d="M155 205.282H157.1V203.212H155V205.282Z" fill="#F7F6F9"/>
<path d="M155 208.829H157.1V206.76H155V208.829Z" fill="#F7F6F9"/>
<path d="M155 215.924H157.1V213.855H155V215.924Z" fill="#F7F6F9"/>
<path d="M44.6 147.538H42.5V145.468H44.6V147.538Z" fill="#F7F6F9"/>
<path d="M44.6 151.085H42.5V149.016H44.6V151.085Z" fill="#F7F6F9"/>
<path d="M44.6 154.534H42.5V152.464H44.6V154.534Z" fill="#F7F6F9"/>
<path d="M44.6 158.081H42.5V156.012H44.6V158.081Z" fill="#F7F6F9"/>
<path d="M44.6 161.629H42.5V159.559H44.6V161.629Z" fill="#F7F6F9"/>
<path d="M44.6 165.176H42.5V163.107H44.6V165.176Z" fill="#F7F6F9"/>
<path d="M44.6 168.625H42.5V166.556H44.6V168.625Z" fill="#F7F6F9"/>
<path d="M44.6 172.173H42.5V170.103H44.6V172.173Z" fill="#F7F6F9"/>
<path d="M44.6 175.72H42.5V173.65H44.6V175.72Z" fill="#F7F6F9"/>
<path d="M44.6 179.267H42.5V177.198H44.6V179.267Z" fill="#F7F6F9"/>
<path d="M44.6 182.716H42.5V180.647H44.6V182.716Z" fill="#F7F6F9"/>
<path d="M44.6 189.811H42.5V187.742H44.6V189.811Z" fill="#F7F6F9"/>
<path d="M44.6 193.358H42.5V191.191H44.6V193.358Z" fill="#F7F6F9"/>
<path d="M42.4 196.807H44.5V194.738H42.4V196.807Z" fill="#F7F6F9"/>
<path d="M42.4 200.355H44.5V198.285H42.4V200.355Z" fill="#F7F6F9"/>
<path d="M42.4 203.902H44.5V201.833H42.4V203.902Z" fill="#F7F6F9"/>
<path d="M42.4 207.449H44.5V205.38H42.4V207.449Z" fill="#F7F6F9"/>
<path d="M42.4 210.898H44.5V208.829H42.4V210.898Z" fill="#F7F6F9"/>
<path d="M42.4 214.446H44.5V212.376H42.4V214.446Z" fill="#F7F6F9"/>
<path d="M41.2 147.538H39V145.468H41.1V147.538H41.2Z" fill="#F7F6F9"/>
<path d="M41.2 151.085H39V149.016H41.1V151.085H41.2Z" fill="#F7F6F9"/>
<path d="M41.2 154.534H39V152.464H41.1V154.534H41.2Z" fill="#F7F6F9"/>
<path d="M41.2 158.081H39V156.012H41.1V158.081H41.2Z" fill="#F7F6F9"/>
<path d="M41.2 161.629H39V159.559H41.1V161.629H41.2Z" fill="#F7F6F9"/>
<path d="M41.2 165.176H39V163.107H41.1V165.176H41.2Z" fill="#F7F6F9"/>
<path d="M41.2 168.625H39V166.556H41.1V168.625H41.2Z" fill="#F7F6F9"/>
<path d="M41.2 172.173H39V170.103H41.1V172.173H41.2Z" fill="#F7F6F9"/>
<path d="M41.2 175.72H39V173.65H41.1V175.72H41.2Z" fill="#F7F6F9"/>
<path d="M41.2 179.267H39V177.198H41.1V179.267H41.2Z" fill="#F7F6F9"/>
<path d="M41.2 182.716H39V180.647H41.1V182.716H41.2Z" fill="#F7F6F9"/>
<path d="M41.2 186.263H39V184.194H41.1V186.263H41.2Z" fill="#F7F6F9"/>
<path d="M41.2 189.811H39V187.742H41.1V189.811H41.2Z" fill="#F7F6F9"/>
<path d="M41.2 193.358H39V191.191H41.1V193.358H41.2Z" fill="#F7F6F9"/>
<path d="M41.2 196.807H39V194.738H41.1V196.807H41.2Z" fill="#F7F6F9"/>
<path d="M39 200.355H41.1V198.285H39V200.355Z" fill="#F7F6F9"/>
<path d="M39 203.902H41.1V201.833H39V203.902Z" fill="#F7F6F9"/>
<path d="M39 207.449H41.1V205.38H39V207.449Z" fill="#F7F6F9"/>
<path d="M39 210.898H41.1V208.829H39V210.898Z" fill="#F7F6F9"/>
<path d="M39 214.446H41.1V212.376H39V214.446Z" fill="#F7F6F9"/>
<path d="M61.3 161.235H59.2V159.165H61.3V161.235Z" fill="#F7F6F9"/>
<path d="M61.3 164.782H59.2V162.713H61.3V164.782Z" fill="#F7F6F9"/>
<path d="M61.3 168.329H59.2V166.26H61.3V168.329Z" fill="#F7F6F9"/>
<path d="M61.3 171.778H59.2V169.709H61.3V171.778Z" fill="#F7F6F9"/>
<path d="M61.3 175.326H59.2V173.256H61.3V175.326Z" fill="#F7F6F9"/>
<path d="M61.3 178.873H59.2V176.804H61.3V178.873Z" fill="#F7F6F9"/>
<path d="M61.3 182.421H59.2V180.351H61.3V182.421Z" fill="#F7F6F9"/>
<path d="M59.1 185.869H61.2V183.8H59.1V185.869Z" fill="#F7F6F9"/>
<path d="M59.1 189.417H61.2V187.348H59.1V189.417Z" fill="#F7F6F9"/>
<path d="M59.1 192.964H61.2V190.895H59.1V192.964Z" fill="#F7F6F9"/>
<path d="M57.9 161.235H55.8V159.165H57.9V161.235Z" fill="#F7F6F9"/>
<path d="M57.9 164.782H55.8V162.713H57.9V164.782Z" fill="#F7F6F9"/>
<path d="M57.9 168.329H55.8V166.26H57.9V168.329Z" fill="#F7F6F9"/>
<path d="M57.9 171.778H55.8V169.709H57.9V171.778Z" fill="#F7F6F9"/>
<path d="M57.9 175.326H55.8V173.256H57.9V175.326Z" fill="#F7F6F9"/>
<path d="M57.9 178.873H55.8V176.804H57.9V178.873Z" fill="#F7F6F9"/>
<path d="M57.9 182.421H55.8V180.351H57.9V182.421Z" fill="#F7F6F9"/>
<path d="M55.7 185.869H57.8V183.8H55.7V185.869Z" fill="#F7F6F9"/>
<path d="M55.7 189.417H57.8V187.348H55.7V189.417Z" fill="#F7F6F9"/>
<path d="M288.4 248.639C288.4 253.172 224.5 256.818 145.6 256.818C66.7 256.818 2.79999 253.172 2.79999 248.639C2.79999 244.106 66.7 240.46 145.6 240.46C224.4 240.46 288.4 244.106 288.4 248.639Z" fill="#FAFAFB"/>
<path d="M142.2 117.188L143.4 118.666L25.8 211.096L30.8 217.205L31.5 218.092L149.2 125.76L150.4 127.239L152.6 117.286L142.2 117.188Z" fill="#9C90B7"/>
<path d="M41.2 210.307C40 209.026 38.3 208.336 36.4 208.336H36.3C36.3 206.661 35.7 205.183 34.7 204.001L87.4 162.614C87.1 163.402 86.8 164.092 86.6 164.881C84.4 170.694 82.2 176.114 80.2 179.76L70.1 187.742L68.6 188.924L65.6 191.289L65.2 191.585L43.2 208.829L42.5 209.42L41.2 210.307ZM102 162.614C103.3 159.658 104.5 156.603 105.6 153.844C106.4 151.972 107.1 150.198 107.7 148.622L117.9 150.1L116.2 151.479L116.1 151.578L102 162.614ZM132.7 138.571C129 137.487 124.9 136.6 121.5 135.91L143.5 118.666L142.3 117.188H152.7L150.5 127.14L149.3 125.662L149.2 125.76L149 125.859L140.3 132.658L140.1 132.757L132.7 138.571Z" fill="#E3E0EB"/>
<path d="M8.40002 217.501C8.40002 215.431 10.1 213.658 12.3 213.658C12.7 213.658 13.1 213.756 13.4 213.855C13.3 213.46 13.3 213.066 13.3 212.672C13.3 208.238 17 204.592 21.5 204.592C22 204.592 22.5 204.69 23 204.69C24.3 202.621 26.5 201.34 29.1 201.34C33 201.34 36.2 204.493 36.3 208.336H36.4C40.1 208.336 43 211.293 43 214.84C43 218.387 40 221.344 36.4 221.344H12.2C10.1 221.245 8.40002 219.57 8.40002 217.501Z" fill="#9C90B7"/>
<path d="M36.5 221.344H12.2C10.1 221.245 8.40002 219.57 8.40002 217.501C8.40002 215.431 10.1 213.658 12.3 213.658C12.7 213.658 13.1 213.756 13.4 213.855C13.3 213.46 13.3 213.066 13.3 212.672C13.3 208.238 17 204.592 21.5 204.592C22 204.592 22.5 204.69 23 204.69C24.3 202.621 26.5 201.34 29.1 201.34C33 201.34 36.2 204.493 36.3 208.336H36.4C40.1 208.336 43 211.293 43 214.84C43 218.387 40.1 221.344 36.5 221.344Z" fill="#EFEDF3"/>
<path d="M255.1 175.72L258 179.267L203.3 222.822L215.2 237.307L216.8 239.278L271.5 195.723L274.4 199.271L279.6 175.523L255.1 175.72Z" fill="#9C90B7"/>
<path d="M232.1 227.157C231.4 224.004 228.8 221.639 225.6 221.245C223.4 217.796 219.5 215.431 215 215.431C214.1 215.431 213.1 215.53 212.2 215.727L236.8 196.216H244L245.5 189.22L258 179.267L255.1 175.72H279.7L276.4 190.796L276.2 191.979L275.9 193.358L275.4 195.428L275.1 196.807L274.6 198.877L274.5 199.271L273 197.497L272.4 196.807L271.5 195.723L269.6 197.3L267.5 198.975L262.6 202.917L261.5 203.804L260.2 204.789L260 204.986L250.8 212.377L248.7 214.052L236.1 224.103L236 224.201L235.8 224.398L232.1 227.157Z" fill="#D0CADD"/>
<path d="M225.5 221.245C223.3 217.796 219.4 215.431 214.9 215.431C210.4 215.431 206.4 217.796 204.2 221.344C203.6 221.147 203 221.048 202.4 221.048C198.7 221.048 195.7 224.004 195.7 227.65H192.2C190.4 227.65 188.9 229.128 188.9 230.902C188.9 232.676 190.4 234.154 192.2 234.154H204.4C206.6 237.603 210.5 239.869 214.9 239.869C218.4 239.869 221.6 238.489 223.8 236.125C224 236.125 224.2 236.125 224.4 236.125C228.7 236.125 232.1 232.676 232.1 228.537C232.2 224.891 229.3 221.738 225.5 221.245Z" fill="#9C90B7"/>
<path d="M215 240.066C210.6 240.066 206.7 237.8 204.5 234.351H192.3C190.5 234.351 189 232.873 189 231.099C189 229.325 190.5 227.847 192.3 227.847H195.8C195.8 224.201 198.8 221.245 202.5 221.245C203.1 221.245 203.7 221.344 204.3 221.541C206.5 217.993 210.4 215.628 215 215.628C219.5 215.628 223.4 217.993 225.6 221.442C229.4 221.935 232.3 225.088 232.3 229.03C232.3 233.267 228.8 236.617 224.6 236.617C224.4 236.617 224.2 236.617 224 236.617C221.6 238.687 218.5 240.066 215 240.066Z" fill="#EFEDF3"/>
<path d="M143.4 73.9287L142.3 72.8447C142 72.5491 141.6 72.4506 141.2 72.4506L139.6 72.7462C139.1 72.8447 138.7 73.2389 138.6 73.7316L137.8 80.3337L140.3 81.2206C143.3 79.9396 143.1 75.998 143.1 75.998L143.5 75.2097C143.9 74.914 143.8 74.3228 143.4 73.9287Z" fill="#CEC8DC"/>
<path d="M113.7 93.6365C113.7 93.6365 116.1 93.7351 117.4 93.7351C118.8 93.7351 120.2 93.7351 121.6 93.6365C123 93.538 124.3 93.4395 125.6 93.2424C126.2 93.1438 126.8 93.0453 127.3 92.9468C127.5 92.8482 127.7 92.8482 127.8 92.7497C127.9 92.7497 127.9 92.7497 127.9 92.7497C128.1 92.5526 128.6 92.0599 129 91.5672C129.4 91.0745 129.8 90.4833 130.2 89.9906C131 88.9067 131.8 87.7242 132.6 86.5417L137.4 79.5454L141.2 81.5162C140.6 82.8957 140 84.1768 139.4 85.4578C138.8 86.7388 138.1 88.1183 137.5 89.3993C136.8 90.6804 136.1 91.9614 135.4 93.2424C135 93.9322 134.6 94.5234 134.2 95.2132C133.8 95.9029 133.3 96.4942 132.6 97.381C132.2 97.8737 131.4 98.3664 130.9 98.662C130.4 98.9577 129.9 99.1547 129.4 99.3518C128.5 99.6474 127.7 99.8445 126.9 100.042C125.3 100.436 123.8 100.633 122.2 100.731C119.1 101.027 116.2 101.126 113.2 101.027L113.7 93.6365Z" fill="#9C90B7"/>
<path d="M120.2 100.83C120.8 100.83 121.5 100.731 122.1 100.633C121.5 100.731 120.8 100.731 120.2 100.83ZM129.4 99.2533C129.6 99.1548 129.9 99.0562 130.1 98.9577C129.8 99.0562 129.6 99.1548 129.4 99.2533Z" fill="#FCFBFD"/>
<path d="M132.1 97.6767C132.2 97.5782 132.3 97.4796 132.4 97.3811C132.6 97.184 132.8 96.9869 132.9 96.7899C132.7 96.9869 132.6 97.184 132.4 97.3811C132.4 97.4796 132.3 97.5782 132.1 97.6767ZM134.8 94.2278C134.9 94.1293 134.9 94.0308 135 93.8337C134.9 93.9322 134.8 94.0308 134.8 94.2278ZM117.4 93.7351C118.8 93.7351 120.2 93.7351 121.6 93.6366C121.9 93.6366 122.2 93.6366 122.4 93.5381C122.1 93.5381 121.8 93.5381 121.6 93.6366C120.2 93.7351 118.8 93.7351 117.4 93.7351ZM126.9 93.0454C127 93.0454 127.1 93.0454 127.2 92.9468C127.1 92.9468 127 92.9468 126.9 93.0454ZM129.5 90.779C129.7 90.4833 129.9 90.1877 130.1 89.9906C129.9 90.2863 129.7 90.4833 129.5 90.779Z" fill="white"/>
<path d="M139.7 84.5709C139.7 84.4724 139.8 84.3738 139.8 84.3738C139.8 84.3738 139.8 84.4724 139.7 84.5709Z" fill="#FDFDFE"/>
<path d="M120.2 100.83C118.7 99.1547 116.7 98.5635 115.3 98.2679C114.5 95.2132 113.7 93.6365 113.6 93.538C113.6 93.538 114.2 93.538 114.9 93.6365C115.5 93.6365 116.2 93.6365 116.8 93.6365C116.9 93.6365 117 93.6365 117.1 93.6365C117.2 93.6365 117.3 93.6365 117.3 93.6365C118.7 93.6365 120.1 93.6365 121.5 93.538C121.8 93.538 122.1 93.538 122.3 93.4395C123.2 93.3409 124 93.3409 124.8 93.2424C125 93.2424 125.2 93.2424 125.4 93.1438C125.5 93.1438 125.6 93.1438 125.7 93.1438C126.1 93.0453 126.5 93.0453 126.8 92.9468C126.9 92.9468 127 92.9468 127.1 92.8482H127.2C127.4 92.8482 127.5 92.7497 127.6 92.7497H127.7C127.9 92.5526 128.4 92.0599 128.8 91.5672C129 91.2716 129.2 91.0745 129.4 90.7789C129.6 90.4833 129.8 90.1877 130 89.9906C130.6 89.2023 131.2 88.3154 131.8 87.4286C132 87.1329 132.2 86.8373 132.4 86.5417L137.2 79.5454L141 81.5162C140.6 82.5016 140.2 83.3884 139.8 84.3738C139.8 84.4724 139.7 84.5709 139.7 84.5709C139.6 84.8665 139.4 85.1622 139.3 85.4578C139.2 85.7534 139 86.049 138.9 86.3446C138.4 87.33 137.9 88.414 137.4 89.3993C136.7 90.6804 136.1 91.9614 135.3 93.2424C135.2 93.4395 135.1 93.6365 135 93.8336C134.9 93.9322 134.9 94.0307 134.8 94.2278C134.6 94.5234 134.4 94.9176 134.2 95.2132C133.9 95.7059 133.6 96.1986 133.1 96.7898C132.9 96.9869 132.8 97.184 132.6 97.381C132.5 97.4796 132.4 97.5781 132.3 97.6767C131.9 98.0708 131.3 98.3664 131 98.5635C130.7 98.662 130.5 98.8591 130.3 98.9577C130 99.0562 129.8 99.1547 129.6 99.2533C129.2 99.4504 128.7 99.5489 128.3 99.6474C127.9 99.746 127.4 99.8445 127 99.9431C126.4 100.042 125.8 100.14 125.2 100.239C124.2 100.436 123.3 100.534 122.3 100.633C121.5 100.731 120.8 100.731 120.2 100.83Z" fill="#E3E0EB"/>
<path d="M115.9 101.027C115.7 100.042 115.5 99.1548 115.3 98.3665C116.7 98.6621 118.6 99.2534 120.2 100.929C119.6 100.929 118.9 101.027 118.3 101.027C117.5 100.929 116.7 101.027 115.9 101.027Z" fill="#D5D0E0"/>
<path d="M74.3 223.807C74.3 223.807 67.6 219.274 68 216.219C68 215.924 67.9 215.628 67.5 215.628L61.8 214.741C61.5 214.741 61.3 214.84 61.1 215.037L57.8 219.668L59.3 220.161L60.1 219.57L60.5 220.555C68.6 223.413 72.2 224.595 74 224.694C74.5 224.201 74.3 223.807 74.3 223.807Z" fill="#5D4989"/>
<path d="M111.8 138.472C111.8 138.472 111.5 139.359 110.9 140.837C110.3 142.512 109.3 144.877 108.2 147.636C107.4 149.508 106.6 151.578 105.7 153.844C101.5 163.994 96.2 176.607 92.6 183.012C85.8 195.231 68 218.289 68 218.289L60.9 215.727C60.9 215.727 73.7 191.88 80.1 179.859C82.1 176.213 84.3 170.793 86.6 164.881C87.7 162.023 88.7 159.165 89.8 156.209C90.3 154.928 90.7 153.549 91.2 152.268C92.4 148.917 93.5 145.567 94.4 142.709C94.5 142.315 94.6 142.019 94.8 141.625C95.2 140.443 95.6 139.26 95.9 138.275C97.3 133.939 98.1 131.18 98.2 131.082L104.5 134.432L111.8 138.472Z" fill="#6D5B95"/>
<path d="M89.8 156.209C90.3 154.928 90.7 153.549 91.2 152.268C92 149.903 92.8 147.538 93.5 145.37C96.8 147.242 100.5 147.636 101.8 147.735C102.1 147.735 102.3 147.735 102.3 147.735L107.8 148.523C107.1 150.198 106.4 151.873 105.7 153.746C99.9 155.027 94 155.815 89.8 156.209Z" fill="#65528F"/>
<path d="M89.2 97.4797C90.2 100.83 90.8 104.772 91.2 108.713C91.5 111.768 91.6 114.724 91.6 117.385C91.6 120.045 91.5 122.41 91.4 124.282C91.3 126.647 91.1 128.027 91.1 128.027L113.5 129.111C120.2 105.166 113.7 93.6366 113.7 93.6366C113.7 93.6366 110.9 93.341 107.7 93.5381C107.3 93.5381 106.9 93.5381 106.4 93.6366C103.7 93.8337 99.3 94.7206 96.4 95.4103C95.8 95.5089 95.2 95.7059 94.6 95.8045C91.7 96.4943 89.2 97.4797 89.2 97.4797Z" fill="#9C90B7"/>
<path d="M113.5 128.717C113.8 127.534 114.1 126.45 114.4 125.268C114.2 126.45 113.9 127.633 113.5 128.717ZM114.9 123.198C115.5 120.144 116 117.286 116.2 114.724C116 117.385 115.5 120.144 114.9 123.198ZM116.4 112.655C116.4 112.162 116.5 111.669 116.5 111.275C116.4 111.669 116.4 112.162 116.4 112.655ZM116.5 109.107C116.5 108.615 116.5 108.122 116.5 107.728C116.5 108.22 116.5 108.713 116.5 109.107Z" fill="#FCFBFD"/>
<path d="M116.5 107.728C116.5 107.038 116.5 106.25 116.4 105.658C116.4 106.348 116.5 107.038 116.5 107.728Z" fill="#FDFDFE"/>
<path d="M116.2 114.823C116.3 114.133 116.3 113.443 116.4 112.753C116.3 113.344 116.3 114.034 116.2 114.823Z" fill="#FDFDFE"/>
<path d="M114.4 125.366C114.6 124.676 114.7 123.987 114.9 123.297C114.7 123.888 114.6 124.676 114.4 125.366Z" fill="#FDFDFE"/>
<path d="M115.3 98.2679C114.5 95.1147 113.6 93.538 113.6 93.538C113.7 93.6366 114.6 95.2132 115.3 98.2679Z" fill="#F9F8FA"/>
<path d="M115.9 101.027C115.7 100.042 115.5 99.1548 115.3 98.3665C115.5 99.0563 115.7 100.042 115.9 101.027Z" fill="#F4F2F7"/>
<path d="M91.3 123.888C91.3 123.297 91.4 122.607 91.4 121.917C91.4 120.932 91.5 119.848 91.5 118.666C91.5 120.636 91.4 122.41 91.3 123.888ZM91.5 116.202C91.5 115.709 91.5 115.217 91.5 114.724C91.5 114.625 91.5 114.428 91.5 114.33C91.5 115.02 91.5 115.611 91.5 116.202ZM92.2 96.3957C92.9 96.1986 93.8 95.903 94.6 95.7059C95.1 95.6073 95.7 95.4103 96.3 95.3117C95.7 95.4103 95.2 95.6073 94.6 95.7059C93.7 96.0015 92.9 96.1986 92.2 96.3957Z" fill="white"/>
<path d="M113.5 128.717L91.3 124.381C91.3 124.282 91.3 124.184 91.3 124.085C91.3 123.987 91.3 123.888 91.3 123.79C91.4 122.312 91.4 120.538 91.4 118.567C91.4 118.173 91.4 117.68 91.4 117.286C91.4 116.892 91.4 116.596 91.4 116.202C91.4 115.611 91.4 115.02 91.4 114.428C91.4 113.049 91.3 111.669 91.2 110.191C91.2 110.093 91.2 110.093 91.3 109.994C95.1 108.417 101.4 105.166 104.6 99.3519L106.4 97.3811L108.4 98.2679L107.6 94.2278L106.4 93.5381H106.5C106.9 93.5381 107.3 93.4395 107.6 93.4395C108.3 93.4395 108.9 93.4395 109.5 93.4395C110.1 93.4395 110.6 93.4395 111.1 93.4395C112.6 93.4395 113.6 93.5381 113.6 93.6366C113.6 93.6366 114.5 95.2132 115.3 98.3665C115.5 99.1548 115.7 100.042 115.9 101.027C116.1 102.407 116.3 103.885 116.4 105.658C116.4 106.348 116.5 107.038 116.5 107.728C116.5 108.22 116.5 108.615 116.5 109.107C116.5 109.797 116.5 110.487 116.5 111.177C116.5 111.669 116.5 112.162 116.4 112.556C116.4 113.246 116.3 113.936 116.2 114.625C116 117.187 115.5 120.045 114.9 123.1C114.8 123.79 114.6 124.479 114.4 125.169C114.2 126.45 113.9 127.633 113.5 128.717ZM91.8 106.742C91.9 104.574 91.6 102.899 91.6 102.899C91.6 102.702 91.6 102.407 91.6 102.111C91.6 101.717 91.6 101.421 91.5 100.929C91.2 98.0709 89.3 97.3811 89.3 97.3811C89.2 97.3811 89.2 97.4796 89.1 97.4796C89.1 97.4796 89.1 97.4796 89.1 97.3811C89.2 97.3811 90.4 96.8884 92.1 96.2971C92.8 96.1001 93.7 95.8045 94.5 95.6074C95.1 95.5088 95.6 95.3118 96.2 95.2132L100.9 99.549L102.4 98.1694L103 99.1548C103.1 99.2533 99.3 103.885 91.8 106.742Z" fill="#E3E0EB"/>
<path d="M127.3 186.461C127.3 186.461 120.9 181.534 121.5 178.578C121.6 178.282 121.4 177.986 121.1 177.986L115.5 176.804C115.2 176.705 115 176.804 114.8 177.099L111.2 181.534L112.7 182.125L113.5 181.632L113.8 182.618C121.8 185.968 125.2 187.348 127 187.545C127.5 186.855 127.3 186.461 127.3 186.461Z" fill="#5D4989"/>
<path d="M101.8 147.833C102.1 147.833 102.3 147.833 102.3 147.833L129.1 151.676L113.8 176.607L121.4 179.464C121.4 179.464 149.1 150.1 142.9 143.399C137.8 137.881 112.9 134.53 112.9 134.53L113.7 128.815L90.7 124.381C80.9 145.567 98.5 147.636 101.8 147.833Z" fill="#6D5B95"/>
<path d="M90.5 126.549L90 126.45L90.4 124.873L90.8 124.972L90.5 126.549Z" fill="#6D5B95"/>
<path d="M108.6 130.096L98.8 128.224L99.2 126.647L109 128.519L108.6 130.096Z" fill="#6D5B95"/>
<path d="M109.7 128.618L113.9 129.406L113.6 130.983L109.4 130.195L109.7 128.618Z" fill="#6D5B95"/>
<path d="M91.7 125.169L98.5 126.45L98.1 128.027L91.4 126.746L91.7 125.169Z" fill="#6D5B95"/>
<path d="M90.5 126.549L90 126.45L90.4 124.873L90.8 124.972L90.5 126.549Z" fill="#897AA9"/>
<path d="M108.6 130.096L98.8 128.224L99.2 126.647L109 128.519L108.6 130.096Z" fill="#897AA9"/>
<path d="M113.6 130.983L109.4 130.195L109.7 128.618L113.9 129.406L113.6 130.983Z" fill="#897AA9"/>
<path d="M98 128.027L91.3 126.746L91.7 125.169L98.5 126.45L98 128.027Z" fill="#897AA9"/>
<path d="M105.9 128.224H105.7L105.5 129.209L105.4 129.308L102.9 128.914L102.8 128.815L103 127.83L103.1 127.731L105.5 128.224L105.6 128.322L105.9 128.224H106.1V128.125C106.1 127.928 105.9 127.633 105.7 127.633L103.3 127.14H103.2C103 127.14 102.8 127.337 102.7 127.534L102.5 128.519V128.618C102.5 128.815 102.7 129.111 102.9 129.111L105.4 129.505H105.5C105.7 129.505 105.9 129.308 106 129.111L106.2 128.125L105.9 128.224Z" fill="white"/>
<path d="M103.9 128.125L103.1 128.027C103 128.027 102.9 128.125 102.8 128.224C102.8 128.322 102.9 128.421 103 128.519L103.8 128.618C103.9 128.618 104 128.519 104.1 128.421C104.1 128.224 104 128.125 103.9 128.125Z" fill="white"/>
<path d="M98.7 85.2607L104.5 89.9906C103.9 92.3556 104.9 94.5234 106.1 94.9176C106.1 94.9176 107 96.8884 105.3 97.2825C102 97.9723 98.2 94.8191 98.2 94.8191C100 92.9468 99.3 88.2169 98.7 85.2607Z" fill="#D0CADD"/>
<path d="M104.3 91.6658C103 91.4687 101.2 90.0891 101.1 88.8081C101 88.1184 101 87.5271 101.2 87.2315L104 89.5965L104.6 90.0891C104.4 90.5818 104.3 91.1731 104.3 91.6658Z" fill="#B8AFCB"/>
<path d="M103.9 75.8009C105.3 76.6878 107.2 79.2498 104.9 79.9396C102.5 80.6293 101.5 74.3228 103.9 75.8009Z" fill="#6D5B95"/>
<path d="M96.6 84.7681C99.1 88.0199 100.4 89.9907 103.2 90.5819C107.5 91.4688 110.7 87.133 109.2 83.1915C107.9 79.644 104.1 75.0127 99.9 75.8995C95.7 76.7864 94.1 81.6148 96.6 84.7681Z" fill="#CEC8DC"/>
<path d="M97.3 81.3191L94.3 77.8702C94.3 77.8702 90.4 80.7279 92.2 82.403C91 85.1621 95.7 88.9066 99.8 88.1183C100.3 85.6548 96.6 81.4177 96.6 81.4177C96.8 81.5162 97.1 81.4177 97.3 81.3191Z" fill="#6D5B95"/>
<path d="M97.2 88.414C98.1 89.1038 99.2 89.3009 100 89.2023C101.3 89.0052 101.5 87.7242 100.7 86.7388C100 85.852 98.4 84.8666 97.2 85.5564C96.1 86.2461 96.2 87.6257 97.2 88.414Z" fill="#CEC8DC"/>
<path d="M102.3 82.3045C102.5 82.6001 102.8 82.6986 103 82.6001C103.2 82.5016 103.2 82.2059 103 81.9103C102.8 81.6147 102.5 81.5162 102.3 81.6147C102.2 81.7133 102.2 82.0089 102.3 82.3045Z" fill="#6D5B95"/>
<path d="M105.5 80.2352C105.7 80.5308 106 80.6293 106.2 80.5308C106.4 80.4322 106.4 80.1366 106.2 79.841C106 79.5454 105.7 79.4468 105.5 79.5454C105.3 79.6439 105.3 79.9395 105.5 80.2352Z" fill="#6D5B95"/>
<path d="M104.6 81.0235C104.6 81.0235 106.3 82.1074 107.5 82.4031C107.3 83.1914 106.3 83.487 106.3 83.487L104.6 81.0235Z" fill="#B8AFCB"/>
<path d="M103.7 85.2607C103.6 85.3593 103.5 85.3593 103.3 85.4578V85.5563H103.4C104.6 84.6695 105.7 85.1622 105.7 85.1622L105.8 85.0636L105.7 84.9651C105.8 85.0636 104.8 84.6695 103.7 85.2607Z" fill="#6D5B95"/>
<path d="M100.2 81.4177C100.3 81.4177 100.3 81.4177 100.4 81.3192C100.9 80.6294 101.6 80.5309 101.6 80.5309C101.7 80.5309 101.8 80.4323 101.8 80.3338C101.8 80.2353 101.7 80.1367 101.6 80.1367C101.6 80.1367 100.7 80.1367 100.1 81.0236C100 81.2206 100 81.3192 100.2 81.4177Z" fill="#6D5B95"/>
<path d="M105.5 77.7718C105.5 77.5747 105.4 77.4761 105.3 77.5747C104.3 77.8703 104 78.6586 104 78.7571C104 78.8557 104 78.9542 104.1 78.9542C104.2 78.9542 104.3 78.9542 104.3 78.8557C104.3 78.8557 104.5 78.1659 105.4 77.9688L105.5 77.7718Z" fill="#6D5B95"/>
<path d="M96.6 81.5161C96.6 81.5161 104.4 78.2643 104.9 74.6184C105.4 70.9724 102.1 72.4505 102.1 72.4505C102.1 72.4505 103.6 72.352 103.5 73.4359C103.5 73.4359 100.9 71.6622 98.4 73.1403C98.4 73.1403 99.6 73.1403 100.2 73.9286C100.2 73.9286 97.8 74.4213 95.2 76.2936C92.4 78.3629 87.6 85.3592 96.6 81.5161Z" fill="#6D5B95"/>
<path d="M113 134.53L100.3 133.052C100.3 133.052 103.9 132.461 109.9 132.461C111 132.461 112.1 132.461 113.3 132.559L113 134.53Z" fill="#65528F"/>
<path d="M91.2 110.191C91.2 110.093 91.2 110.093 91.2 109.994C91.2 109.994 91.2 109.994 91.3 109.994C91.3 110.093 91.3 110.093 91.2 110.191Z" fill="#D5D0E0"/>
<path d="M91 107.038C90.9 106.545 90.9 105.954 90.8 105.461C90.8 105.461 91.5 104.673 91.6 102.899C91.6 102.899 91.9 104.574 91.8 106.742C91.6 106.841 91.3 106.939 91 107.038Z" fill="#D5D0E0"/>
<path d="M70.1 128.027L67.9 133.151L72.7 134.333C72.7 134.333 74.7 130.983 72.7 128.421L70.1 128.027Z" fill="#D0CADD"/>
<path d="M68.3 137.093H72.1L72.8 134.333L68 133.151L68.3 137.093Z" fill="#D0CADD"/>
<path d="M91.6 101.027C91.9 104.18 90.8 105.56 90.8 105.56C90.8 105.56 87.7 107.531 86.3 108.516C85.1 109.403 84 110.29 82.9 111.078C82.4 111.472 81.9 111.965 81.4 112.359C80.9 112.753 80.5 113.246 80.2 113.64C80.1 113.739 80 114.034 79.8 114.231C79.7 114.428 79.5 114.724 79.4 115.02C79.1 115.611 78.8 116.202 78.6 116.892C78.1 118.173 77.5 119.552 77.1 120.932C76.1 123.691 75.1 126.45 74.2 129.209L69.8 128.224C70.2 125.169 70.8 122.312 71.5 119.257C71.9 117.779 72.3 116.301 72.7 114.823C72.9 114.034 73.2 113.344 73.5 112.556C73.7 112.162 73.8 111.768 74 111.374C74.2 110.881 74.4 110.487 74.8 109.994C75.4 109.107 76 108.516 76.5 107.826C77.1 107.235 77.7 106.644 78.3 106.053C79.5 104.969 80.7 103.983 81.9 102.998C84.3 101.027 86.8 99.2533 89.4 97.5782C89.4 97.3811 91.3 98.0709 91.6 101.027Z" fill="#9C90B7"/>
<path d="M74.1 129.209L73.1 129.012L70 128.322L69.7 128.224C70.1 125.169 70.7 122.312 71.4 119.257C71.8 117.779 72.2 116.301 72.6 114.823C72.8 114.034 73.1 113.344 73.4 112.556C73.6 112.162 73.7 111.768 73.9 111.374C74.1 110.881 74.3 110.487 74.7 109.994C75.3 109.107 75.9 108.516 76.4 107.826C77 107.235 77.6 106.644 78.2 106.053C79.4 104.969 80.6 103.983 81.8 102.998C84.2 101.027 86.7 99.2533 89.3 97.5781C89.3 97.5781 91.2 98.2679 91.5 101.126C91.5 101.52 91.6 101.914 91.6 102.308C91.6 102.604 91.6 102.801 91.6 103.096C91.5 104.969 90.8 105.658 90.8 105.658C90.7 105.658 87.6 107.629 86.3 108.615C85.1 109.501 84 110.388 82.9 111.177C82.4 111.571 81.9 112.063 81.4 112.458C80.9 112.852 80.5 113.344 80.2 113.739C80.1 113.837 80 114.133 79.8 114.33C79.7 114.527 79.5 114.823 79.4 115.118C79.1 115.709 78.8 116.301 78.6 116.99C78.1 118.271 77.5 119.651 77.1 121.03C76 123.593 75.1 126.352 74.1 129.209Z" fill="#E3E0EB"/>
<path d="M101.5 96.6913L103.1 99.2533C103.1 99.2533 97.4 106.053 86.5 108.319L85.8 110.487L88.1 111.078C88.1 111.078 99.9 108.023 104.6 99.3518L107 96.6913L104.1 95.7059L101.5 96.6913Z" fill="#9C90B7"/>
<path d="M96.2 95.2132L98.9 92.9468L104.2 95.8044L104.8 92.6512L107.6 94.2278L108.4 98.2679L104.5 96.5928L101 99.6475L96.2 95.2132Z" fill="#9C90B7"/>
<path d="M100.9 99.6475L96.1 95.1147L98.8 92.8483L104.1 95.7059L104.7 92.5527L107.5 94.1293L108.3 98.1694L106.3 97.2826L104.4 96.4942L102.5 98.1694L100.9 99.6475Z" fill="#DAD5E4"/>
<path d="M169.2 49.7866C169.2 49.7866 164.2 55.7975 159.2 55.3048C154.2 54.8121 151.6 56.7829 151.6 56.7829L151.1 59.2463L153.8 58.8522C153.8 58.8522 153.8 56.9799 159 57.177C164.2 57.3741 168.2 52.9398 169.7 50.969L169.2 49.7866Z" fill="#9C90B7"/>
<path d="M204.8 39.7355L204.7 39.2428C204.6 39.0457 204.7 39.0457 204.5 38.553C204.2 37.8633 203.7 37.1735 203.3 36.8779C202.4 36.0896 201.7 35.7939 201 35.5969C199.7 35.2027 198.7 35.0056 197.7 34.9071C196.7 34.8085 195.8 34.71 194.9 34.71C193.1 34.6115 191.3 34.71 189.5 34.8085C186 35.0056 182.6 35.3998 179.1 35.991L180.4 43.1844C183.6 42.6917 186.9 42.199 190.1 41.9034C191.7 41.7063 193.3 41.6078 194.8 41.6078C195.6 41.6078 196.3 41.6078 197 41.6078C197.5 41.6078 198 41.7063 198.3 41.7063C198.3 41.9034 198.3 42.199 198.3 42.4946C198.3 43.7756 197.9 45.1552 197.5 46.6333C196.6 49.4909 195.3 52.5456 193.9 55.3047L197.4 57.5711C199.6 54.812 201.5 51.8559 203 48.6041C203.7 46.9289 204.4 45.1552 204.7 43.0859C205 42.1005 205 41.0165 204.8 39.7355Z" fill="#9C90B7"/>
<path d="M197.7 41.7063C197.5 41.7063 197.3 41.7063 197.2 41.7063C197.3 41.6077 197.5 41.6077 197.7 41.7063ZM204.9 40.4253C204.9 40.2282 204.8 39.9326 204.8 39.7355L204.7 39.2428C204.6 39.0457 204.7 39.0457 204.5 38.553C204.2 37.8632 203.7 37.1735 203.3 36.8779C202.4 36.0895 201.7 35.7939 201 35.5968C200.6 35.4983 200.2 35.3012 199.9 35.3012C200.3 35.3998 200.6 35.4983 201 35.5968C201.6 35.8925 202.4 36.0895 203.3 36.8779C203.7 37.272 204.2 37.8632 204.5 38.553C204.7 39.0457 204.7 39.0457 204.7 39.2428L204.8 39.7355C204.9 39.9326 204.9 40.2282 204.9 40.4253ZM180.3 35.8925C181.2 35.7939 182 35.5968 182.9 35.4983C182 35.5968 181.2 35.6954 180.3 35.8925ZM198.4 34.9071C198.2 34.9071 198 34.8085 197.8 34.8085C196.8 34.71 195.9 34.6115 195 34.6115C194.6 34.6115 194.3 34.6115 193.9 34.6115C192.5 34.6115 191 34.71 189.6 34.8085C189.1 34.8085 188.6 34.9071 188.2 34.9071C188.7 34.9071 189.2 34.8085 189.6 34.8085C191 34.71 192.4 34.6115 193.9 34.6115C194.3 34.6115 194.6 34.6115 195 34.6115C195.9 34.6115 196.8 34.71 197.8 34.8085C198 34.9071 198.2 34.9071 198.4 34.9071Z" fill="white"/>
<path d="M203.6 47.8157C201.9 46.2391 200.1 44.8595 198.4 43.7756C198.4 43.677 198.4 43.48 198.5 43.3814C198.5 43.0858 198.6 42.8887 198.6 42.5931C198.6 42.2975 198.6 42.0019 198.6 41.8048H198.5C198.3 41.8048 198.1 41.7063 197.8 41.7063C197.6 41.7063 197.4 41.7063 197.3 41.7063C196.9 41.7063 196.5 41.7063 196.1 41.7063C196 41.7063 196 41.7063 195.9 41.7063C195.6 41.7063 195.3 41.7063 195.1 41.7063H194.9C191.4 39.834 188.3 38.8486 186.2 38.3559C183.5 37.0749 181.4 36.2866 180.4 35.991C181.3 35.8924 182.1 35.6954 183 35.5968C184.8 35.3997 186.5 35.2027 188.3 35.0056C188.8 35.0056 189.3 34.907 189.7 34.907C191.1 34.8085 192.5 34.71 194 34.71C194.4 34.71 194.7 34.71 195.1 34.71C196 34.71 197 34.8085 197.9 34.907C198.1 34.907 198.3 34.907 198.5 35.0056C199 35.1041 199.5 35.2027 200 35.3012C200.4 35.3997 200.7 35.4983 201.1 35.5968C201.7 35.8924 202.5 36.0895 203.4 36.8778C203.8 37.272 204.3 37.8632 204.6 38.553C204.8 39.0457 204.8 39.0457 204.8 39.2428L204.9 39.7355C204.9 39.9325 205 40.2282 205 40.4252C205.1 41.4106 205.1 42.2975 204.9 43.1843C204.9 43.2829 204.9 43.3814 204.9 43.48C204.6 45.0566 204.1 46.4361 203.6 47.8157Z" fill="#E3E0EB"/>
<path d="M192.3 41.7063C192.7 41.7063 193.1 41.6077 193.4 41.6077C193.1 41.7063 192.7 41.7063 192.3 41.7063Z" fill="#EFEDF3"/>
<path d="M192.3 41.7063C190.1 40.2282 187.9 39.1443 186 38.1589C188.1 38.6516 191.2 39.7355 194.7 41.5092C194.3 41.5092 193.8 41.5092 193.4 41.6078C193.1 41.7063 192.7 41.7063 192.3 41.7063Z" fill="#D5D0E0"/>
<path d="M202.3 50.5748C202.6 49.9836 202.9 49.2938 203.2 48.6041C203.3 48.3084 203.5 48.0128 203.6 47.7172C203.5 48.0128 203.4 48.3084 203.2 48.6041C202.9 49.3924 202.6 49.9836 202.3 50.5748Z" fill="#EFEDF3"/>
<path d="M202.3 50.5748C201 48.8997 199.5 47.3231 198 46.042C198.2 45.2537 198.4 44.4654 198.5 43.7756C200.2 44.8596 201.9 46.2391 203.7 47.8157C203.6 48.1114 203.5 48.407 203.3 48.7026C202.9 49.3924 202.6 49.9836 202.3 50.5748Z" fill="#D5D0E0"/>
<path d="M156.5 41.2137C156.7 41.5093 156.7 41.8049 156.6 41.9035C156.4 42.002 156.1 41.9034 155.9 41.7064C155.7 41.4108 155.7 41.1151 155.8 41.0166C156 40.8195 156.3 40.9181 156.5 41.2137Z" fill="#6D5B95"/>
<path d="M156.7 41.7064C156.7 41.7064 157.3 43.5786 157.2 44.7611C158 44.8596 158.6 44.0713 158.6 44.0713L156.7 41.7064Z" fill="#A397BC"/>
<path d="M156.3 39.0458C156.3 38.8487 156.2 38.7502 156.1 38.7502C155 38.7502 154.6 39.5385 154.6 39.5385C154.5 39.637 154.6 39.7356 154.7 39.8341C154.8 39.9327 154.9 39.8341 155 39.7356C155 39.7356 155.4 39.1443 156.2 39.1443L156.3 39.0458Z" fill="#6D5B95"/>
<path d="M163.8 37.2721C166.2 39.0458 170.9 41.7064 173.5 40.721C173.5 40.721 175.9 42.6918 173.6 47.5202C171.1 52.9399 169.7 48.8997 169.7 48.8997C170.4 45.6479 168.1 44.6625 165.8 44.2684L163.8 37.2721Z" fill="#B9B1CC"/>
<path d="M164.6 34.0203C166.9 37.2721 168.4 39.0458 168.1 41.8049C167.6 46.0421 162.6 47.6187 159.4 45.1552C156.5 42.8888 153.3 37.9619 155.3 34.4144C157.3 30.867 162.3 30.7685 164.6 34.0203Z" fill="#B9B1CC"/>
<path d="M168.2 39.3414C167.9 41.2137 161.6 43.6771 158.8 39.7356C158.8 39.7356 155.2 39.7356 153.1 37.5677C151 35.4984 151.4 33.1334 153.3 31.951C155 30.867 159.4 22.7868 164.5 28.5021C170 28.305 168.6 37.075 168.2 39.3414Z" fill="#6D5B95"/>
<path d="M157.6 31.064C157.6 31.064 154.3 30.867 152.4 32.345C150.5 33.8231 151 38.3559 151.8 39.2428C152.5 40.1297 153.3 40.1297 153.3 40.1297C153.3 40.1297 152.2 39.5384 152.2 38.7501C152.2 38.7501 152.7 39.834 154.9 40.1297C154.9 40.1297 154.3 39.637 154.4 38.9472C154.4 38.9472 155.6 40.5238 158.4 38.9472C161.2 37.4691 157.6 31.064 157.6 31.064Z" fill="#6D5B95"/>
<path d="M160.4 39.0457C161 39.9326 161.2 40.918 161.2 41.8048C161.1 43.0858 160 43.1844 159.2 42.3961C158.4 41.7063 157.5 40.1297 158 39.0457C158.5 37.9618 159.8 38.0603 160.4 39.0457Z" fill="#B9B1CC"/>
<path d="M167 49.7866C167 49.7866 166.4 42.4947 171.2 38.356L177 38.8487C177 38.9473 173.7 46.9289 167 49.7866Z" fill="#9C90B7"/>
<path d="M167 48.407C167.1 46.1406 167.7 41.4107 171.2 38.356L174.2 38.6516C173.2 39.5385 172.3 40.5239 171.5 41.5093C169.6 43.8742 168.1 46.4362 167 48.407Z" fill="#DAD5E4"/>
<path d="M183.6 66.2426C183.6 66.2426 174.9 57.7682 165.2 51.8558C165.2 51.8558 171.6 36.9764 179.8 35.6954C179.8 35.6954 200.8 41.9034 206.9 58.9507L183.6 66.2426Z" fill="#9C90B7"/>
<path d="M184.7 117.68L181 119.257L176.9 110.782L180.7 109.206L184.7 117.68Z" fill="#B9B1CC"/>
<path d="M206.9 58.9507L204.7 82.1075C203.5 82.9944 201.5 83.6841 199.2 84.2754C194.6 85.3593 188.5 85.852 183.2 86.0491C177.3 86.3447 172.4 86.4432 171.9 86.7388C170.9 87.5272 184 114.133 184 114.133L177.8 114.921C177.8 114.921 161.4 92.7497 159.2 85.0637C158.4 82.206 157.6 78.6586 162.9 75.3083C167.6 72.3521 185 70.1842 185 70.1842L183.7 66.2427L206.9 58.9507Z" fill="#6D5B95"/>
<path d="M183.2 86.049C182.9 82.0089 183.7 77.9688 184.6 74.9141C184.9 78.0673 185.2 81.8118 185.7 85.9505C184.9 85.9505 184 86.049 183.2 86.049Z" fill="#685691"/>
<path d="M239.5 114.33L240.2 118.271L230.9 120.144L230.2 116.202L239.5 114.33Z" fill="#B9B1CC"/>
<path d="M240.4 118.764C240.9 119.355 241.4 120.242 241.3 120.538C241.3 120.538 241.2 120.636 241.1 120.636C241 120.636 241 120.636 240.9 120.538L240.8 120.439C240.6 119.947 240.5 119.158 240.4 118.764ZM240.4 118.37H240.3L240.2 118.468C240.2 118.567 240.3 120.144 240.8 120.636C240.9 120.735 241 120.735 241.2 120.735C241.4 120.735 241.5 120.636 241.6 120.538C241.7 120.242 241.5 119.848 241.2 119.355C240.9 118.961 240.6 118.567 240.4 118.37Z" fill="#9C90B7"/>
<path d="M239.4 119.749C239.5 119.355 239.9 118.863 240.2 118.666C240.2 119.257 240 120.144 239.7 120.242C239.7 120.242 239.6 120.242 239.5 120.144C239.4 120.045 239.4 119.947 239.4 119.749ZM240.3 118.37C240.2 118.37 239.3 119.06 239.2 119.749C239.2 119.947 239.2 120.144 239.3 120.242C239.5 120.439 239.6 120.439 239.7 120.439C240.2 120.242 240.5 118.961 240.3 118.37Z" fill="#9C90B7"/>
<path d="M239.7 118.37L237.4 114.625C237.3 114.527 237.3 114.33 237.5 114.231L240.2 111.669C240.5 111.374 240.9 111.472 241.1 111.768C241.9 113.147 243.1 115.118 244.1 116.793C245.3 118.764 246.5 120.439 248 122.804C248.9 124.184 247.7 125.465 247.2 124.972C244.9 122.607 243.5 120.538 240.6 119.06C240.2 118.863 239.9 118.666 239.7 118.37Z" fill="#6D5B95"/>
<path d="M206.9 58.9507C206.9 58.9507 214.4 77.9688 201.8 85.2608C201.8 85.2608 201.6 107.136 204.8 109.797C208.7 112.95 237.1 114.527 237.1 114.527L236.9 121.523C236.9 121.523 206.4 123.987 197.2 120.735C186.4 116.892 184 66.7354 184 66.7354L206.9 58.9507Z" fill="#6D5B95"/>
<path d="M201.3 76.8848L199.3 76.2936C199.3 76.2936 198.8 72.1549 198.2 70.5783L202.7 69.1987C202.7 69.1987 203.3 73.0418 203.3 75.1111L201.3 76.8848Z" fill="#685691"/>
<path d="M185.1 66.2426L185.7 68.1148L184 68.6075L183.4 66.7353L185.1 66.2426Z" fill="#6D5B95"/>
<path d="M192.9 63.7791L193.5 65.6513L186.5 67.8192L185.9 65.9469L192.9 63.7791Z" fill="#6D5B95"/>
<path d="M201.5 61.0201L202.1 62.9909L194.3 65.3558L193.7 63.385L201.5 61.0201Z" fill="#6D5B95"/>
<path d="M207.9 61.3156L203.1 62.7937L202.5 60.8229L207.3 59.3448L207.9 61.3156Z" fill="#6D5B95"/>
<path d="M184 68.6075L183.4 66.7353L185.1 66.2426L185.7 68.1148L184 68.6075Z" fill="#897AA9"/>
<path d="M186.5 67.8192L185.9 65.9469L192.8 63.7791L193.4 65.6513L186.5 67.8192Z" fill="#897AA9"/>
<path d="M194.4 65.4544L193.8 63.4836L201.6 61.0201L202.2 62.9909L194.4 65.4544Z" fill="#897AA9"/>
<path d="M203.1 62.7937L202.5 60.8229L207.3 59.3448L208 61.4141L203.1 62.7937Z" fill="#897AA9"/>
<path d="M179.5 117.976C178.7 118.074 177.7 118.074 177.5 117.877C177.5 117.877 177.4 117.779 177.5 117.68C177.5 117.582 177.6 117.582 177.7 117.582C177.8 117.582 177.8 117.582 177.9 117.582C178.4 117.483 179.1 117.779 179.5 117.976ZM179.8 118.074V117.877C179.7 117.877 178.3 117.089 177.6 117.286C177.5 117.286 177.4 117.385 177.3 117.483C177.2 117.68 177.2 117.779 177.3 117.877C177.5 118.074 178 118.173 178.5 118.173C179 118.271 179.5 118.173 179.8 118.074Z" fill="#9C90B7"/>
<path d="M179.1 116.596C179.4 116.892 179.6 117.483 179.7 117.779C179.2 117.483 178.5 116.793 178.5 116.596C178.5 116.596 178.5 116.498 178.7 116.498H178.8C178.9 116.498 179 116.498 179.1 116.596ZM179.8 118.074C179.8 117.976 179.7 116.892 179.2 116.498C179 116.399 178.9 116.301 178.7 116.301C178.4 116.301 178.4 116.498 178.3 116.596C178.2 117.089 179.2 117.877 179.8 118.074Z" fill="#9C90B7"/>
<path d="M180.2 117.582L184.7 117.483C184.9 117.483 185 117.582 185.1 117.779L186 121.326C186.1 121.72 185.8 122.016 185.4 122.016C184.8 122.016 184.1 122.016 183.4 122.016C182.1 122.016 180.7 122.016 179.4 122.016C177 122.114 175 122.213 172.2 122.311C170.5 122.311 170 120.735 170.7 120.538C173.9 119.749 176.5 119.651 179.2 117.877C179.5 117.68 179.8 117.582 180.2 117.582Z" fill="#6D5B95"/>
<path d="M182.5 65.2572C180.9 63.7792 177.7 60.9215 173.8 57.8668C177.8 60.9215 180.9 63.7792 182.5 65.2572ZM165.3 51.9544C165.2 51.9544 165.9 50.4763 167 48.5056C165.9 50.4763 165.2 51.8559 165.3 51.9544Z" fill="white"/>
<path d="M167 48.407C168.1 46.4362 169.7 43.7756 171.6 41.5092C169.6 43.8742 168.1 46.4362 167 48.407Z" fill="#F5F4F8"/>
<path d="M183.6 66.2426C183.6 66.2426 183.2 65.8485 182.5 65.2572C180.9 63.7792 177.7 60.9215 173.8 57.8668C172.9 55.6989 171 54.1223 170.9 54.0238C170.6 53.4325 170.1 52.9398 169.4 52.5457C168 51.7574 166.8 51.5603 166.1 51.5603C165.7 51.5603 165.4 51.6588 165.4 51.6588C165.4 51.7574 165.3 51.8559 165.3 52.053C165.3 52.053 165.3 52.053 165.2 52.053C165.2 52.053 165.8 50.5749 166.9 48.6041C168 46.6333 169.6 43.9727 171.5 41.7063C173.8 38.8487 176.7 36.3852 179.8 35.8925C179.8 35.8925 186.2 37.7648 193 42.3961C194.7 43.48 196.3 44.7611 197.9 46.2391C201.6 49.5895 205 53.8267 206.9 59.1478L183.6 66.2426Z" fill="#E3E0EB"/>
<path d="M183.6 66.2427L206.9 58.9507L206.7 59.0493L183.6 66.2427Z" fill="#D5D0E0"/>
<path d="M173.8 57.8667C173.1 57.2755 172.4 56.7828 171.6 56.1916C171.6 56.1916 171.5 55.1076 170.9 53.9252C171 54.1222 172.9 55.6989 173.8 57.8667Z" fill="#D5D0E0"/>
<path d="M140.1 73.0418L138.5 73.436C138.1 73.5345 137.8 73.8301 137.7 74.2243L137.3 76.3921C137.2 76.8848 137.5 77.279 137.9 77.4761L139.1 77.9688C139.1 77.9688 142.5 80.3337 145.4 78.8556L144.2 75.6038L141.8 73.436C141.3 73.0418 140.7 72.8447 140.1 73.0418Z" fill="#B9B1CC"/>
<path d="M169.4 52.4471C171.5 53.6296 171.6 56.1916 171.6 56.1916C171.6 56.1916 170 60.5274 169 62.6952C168.4 64.1733 167.7 65.6514 166.9 67.1295C166.1 68.6076 165.3 70.0857 164 71.6623L163.7 71.9579L163.4 72.2535C163.2 72.4506 162.9 72.6477 162.7 72.9433C162.6 73.0419 162.4 73.1404 162.2 73.3375C162 73.436 161.8 73.6331 161.7 73.6331L161.1 73.9287C160.3 74.3229 159.5 74.6185 158.8 74.9141C157.3 75.5053 155.8 76.0966 154.3 76.5893C151.3 77.5747 148.3 78.4615 145.2 79.2498L143.7 75.4068C146.5 74.0273 149.3 72.6477 152 71.3667C153.4 70.6769 154.7 69.9871 156.1 69.2974C156.7 69.0017 157.4 68.6076 158 68.312L158.4 68.0164C158.4 68.0164 158.4 67.9178 158.5 67.9178L158.6 67.8193L158.7 67.6222C159.3 66.7353 160 65.4543 160.6 64.1733C161.2 62.8923 161.8 61.5128 162.3 60.1332C163.4 57.3741 164.4 54.5165 165.4 51.6588C165.4 51.5603 167.2 51.1661 169.4 52.4471Z" fill="#9C90B7"/>
<path d="M145.3 79.1513L145.2 78.8556L143.8 75.2097C146.6 73.8301 149.4 72.4506 152.1 71.1696C153.5 70.4798 154.8 69.79 156.2 69.1002C156.8 68.8046 157.5 68.4105 158.1 68.1149L158.5 67.8192H158.6C158.6 67.8192 158.6 67.7207 158.7 67.7207L158.8 67.6222L158.9 67.4251C159.5 66.5382 160.2 65.2572 160.8 63.9762C161.4 62.6952 162 61.3156 162.5 59.9361C163.6 57.177 164.6 54.3193 165.6 51.4617C165.6 51.4617 165.8 51.3632 166.3 51.3632C167 51.3632 168.2 51.5602 169.6 52.3486C171.7 53.531 171.8 56.0931 171.8 56.0931C171.8 56.1916 170.2 60.4288 169.2 62.5966C168.6 64.0747 167.9 65.5528 167.1 67.0309C166.3 68.509 165.5 69.9871 164.2 71.5637L163.9 71.8593L163.6 72.155C163.4 72.352 163.1 72.5491 162.9 72.8447C162.8 72.9433 162.6 73.0418 162.4 73.2389C162.2 73.3374 162 73.5345 161.9 73.5345L161.3 73.8301C160.5 74.2243 159.7 74.5199 159 74.8155C157.5 75.4068 156 75.998 154.5 76.4907C151.4 77.4761 148.4 78.4615 145.3 79.1513Z" fill="#E3E0EB"/>
<path d="M34.7 245.092H159.1L224.9 192.669L227.8 196.216H244L260.5 121.326H244.3L166.5 121.523L175.8 132.855L34.7 245.092Z" fill="#FFD57E"/>
<path d="M121.5 240.756H40.1L175.8 132.757L173.4 129.8L172.6 128.815L170 125.662L169.7 125.268L166.5 121.326L244.3 121.129L227.8 196.019L224.9 192.472L218.5 184.687L155.6 234.745C154.1 233.365 152.1 232.479 150 232.38C150 227.354 145.9 223.314 140.8 223.314C136.9 223.314 133.5 225.778 132.2 229.227C132.1 229.227 131.9 229.227 131.8 229.227C126.1 229.227 121.4 233.76 121.4 239.475C121.4 240.066 121.4 240.362 121.5 240.756Z" fill="#FFCA5E"/>
<path d="M32.1 240.756H121.4C121.4 240.362 121.3 239.967 121.3 239.573C121.3 233.957 126 229.325 131.7 229.325C131.8 229.325 132 229.325 132.1 229.325C133.4 225.876 136.8 223.413 140.7 223.413C145.8 223.413 149.9 227.453 149.9 232.478C154.4 232.676 158 236.223 158.2 240.657H158.6C161.1 240.657 163.2 242.727 163.2 245.19C163.2 247.654 161.1 249.723 158.6 249.723H32.1C29.6 249.723 27.5 247.654 27.5 245.19C27.5 242.825 29.6 240.756 32.1 240.756Z" fill="#9C90B7"/>
<path d="M158.7 249.92H32.1C29.6 249.92 27.5 247.851 27.5 245.387C27.5 242.924 29.6 240.854 32.1 240.854H121.4C121.4 240.46 121.3 240.066 121.3 239.672C121.3 234.055 126 229.424 131.7 229.424C131.8 229.424 132 229.424 132.1 229.424C133.4 225.975 136.8 223.511 140.7 223.511C145.8 223.511 149.9 227.552 149.9 232.577C154.4 232.774 158 236.322 158.2 240.756H158.6C161.1 240.756 163.2 242.825 163.2 245.289C163.3 247.851 161.2 249.92 158.7 249.92Z" fill="#E3E0EB"/>
</svg>
