<svg viewBox="0 0 293 258" fill="none" xmlns="http://www.w3.org/2000/svg">
<path d="M268.4 236.329H292.8V236.526H268.4V236.329Z" fill="#F4F2F7"/>
<path d="M199 238.3H205.4V238.497H199V238.3Z" fill="#F4F2F7"/>
<path d="M253.5 229.53H267.6V229.727H253.5V229.53Z" fill="#F4F2F7"/>
<path d="M0 230.811H31.8V231.008H0V230.811Z" fill="#F4F2F7"/>
<path d="M38.4 230.811H43V231.008H38.3V230.811H38.4Z" fill="#F4F2F7"/>
<path d="M58.2 234.063H127.2V233.865H58.2V234.063Z" fill="#F4F2F7"/>
<path d="M244.3 88.4213C244.3 86.352 246 84.5783 248.2 84.5783C248.6 84.5783 249 84.6768 249.3 84.7754C249.2 84.3812 249.2 83.987 249.2 83.5929C249.2 79.1586 252.9 75.5127 257.4 75.5127C257.9 75.5127 258.4 75.6112 258.9 75.6112C260.2 73.5419 262.4 72.2609 265 72.2609C268.9 72.2609 272.1 75.4141 272.2 79.2572H272.3C275.9 79.2572 278.9 82.2133 278.9 85.7608C278.9 89.3082 275.9 92.2643 272.3 92.2643H248C246 92.1658 244.3 90.4906 244.3 88.4213Z" fill="#F7F6F9"/>
<path d="M27.2 71.1769C27.2 69.1076 28.9 67.3339 31.1 67.3339C31.5 67.3339 31.9 67.4324 32.2 67.531C32.1 67.1368 32.1 66.7427 32.1 66.3485C32.1 61.9142 35.8 58.2683 40.3 58.2683C40.8 58.2683 41.3 58.3668 41.8 58.3668C43.1 56.2975 45.3 55.0165 47.9 55.0165C51.8 55.0165 55 58.1697 55.1 62.0128H55.2C58.8 62.0128 61.8 64.969 61.8 68.5164C61.8 72.0638 58.8 75.02 55.2 75.02H31C28.9 74.9214 27.2 73.2463 27.2 71.1769Z" fill="#F7F6F9"/>
<path d="M126.9 15.9948H112.8C112.8 15.6992 112.9 15.3051 112.9 15.0095C112.9 9.98395 108.7 5.8453 103.6 5.8453C103.5 5.8453 103.4 5.8453 103.3 5.8453C102 2.69204 99 0.52417 95.5 0.52417C91 0.52417 87.3 4.17013 87.3 8.6044C83.3 8.80148 80 11.9547 79.8 15.8963H79.4C77.1 15.8963 75.3 17.7686 75.3 19.9364C75.3 22.2028 77.2 23.9765 79.4 23.9765H126.9C129.2 23.9765 131 22.1043 131 19.9364C131 17.7686 129.1 15.9948 126.9 15.9948Z" fill="#F7F6F9"/>
<path d="M231.5 21.8086C229.3 18.3598 225.4 15.9948 220.9 15.9948C216.4 15.9948 212.4 18.3598 210.2 21.9072C209.6 21.7101 209 21.6116 208.4 21.6116C204.7 21.6116 201.7 24.5677 201.7 28.2137H198.2C196.4 28.2137 194.9 29.6918 194.9 31.4655C194.9 33.2392 196.4 34.7173 198.2 34.7173H210.4C212.6 38.1662 216.5 40.4325 220.9 40.4325C224.4 40.4325 227.5 39.0529 229.8 36.688C230 36.688 230.2 36.688 230.4 36.688C234.7 36.688 238.1 33.2392 238.1 29.1005C238.2 25.4546 235.3 22.3013 231.5 21.8086Z" fill="#F7F6F9"/>
<path d="M157.2 68.3193C155 64.8704 151.1 62.5054 146.6 62.5054C142.1 62.5054 138.1 64.8704 135.9 68.4178C135.3 68.2207 134.7 68.1222 134.1 68.1222C130.4 68.1222 127.4 71.0784 127.4 74.7243H123.9C122.1 74.7243 120.6 76.2024 120.6 77.9761C120.6 79.7498 122.1 81.2279 123.9 81.2279H136.1C138.3 84.6768 142.2 86.9432 146.6 86.9432C150.1 86.9432 153.2 85.5636 155.5 83.1987C155.7 83.1987 155.9 83.1987 156.1 83.1987C160.4 83.1987 163.8 79.7498 163.8 75.6112C163.9 71.9652 161 68.812 157.2 68.3193Z" fill="#F7F6F9"/>
<path d="M2.90002 224.504V189.818H5.90002V173.264H10.3V115.815H16.7V108.425L30.3 102.217V94.7278H32.2V115.815H34.8V173.264H37.4V143.012H44.6V127.443H46.6V173.264H52V155.822H55.6V151.388H63.9V136.213H68.4V125.472H74V109.804H76V125.472H81.6V136.213H86.1V151.388H94.4V155.822H98V173.264H102.2V151.388H110.5V104.286H113.1V99.0635H130.8V104.286H134.6V138.381H149.7V141.731H155.3V144.293H149.7V157.596H165.5V113.056H168.9V103.596H176.2V70.1915H178.3V103.793H183.6V113.253H214.5V110.1H216.4V131.187H219V131.581H220.6V152.767H223.2V158.483H228.8V142.914H230.8V179.964H233V164.395H235V188.734H236.2V171.293H239.8V166.859H248.1V151.684H252.6V140.943H258.2V125.275H260.2V140.943H265.8V151.684H270.3V166.859H278.6V171.293H282.2V188.34H282.8V188.734H284.6V224.504H2.90002Z" fill="#F0EFF4"/>
<path d="M197.1 117.392H195V115.323H197.1V117.392Z" fill="#F7F6F9"/>
<path d="M197.1 120.939H195V118.771H197.1V120.939Z" fill="#F7F6F9"/>
<path d="M195 135.03H197.1V132.961H195V135.03Z" fill="#F7F6F9"/>
<path d="M195 138.479H197.1V136.41H195V138.479Z" fill="#F7F6F9"/>
<path d="M195 142.027H197.1V139.957H195V142.027Z" fill="#F7F6F9"/>
<path d="M195 152.57H197.1V150.501H195V152.57Z" fill="#F7F6F9"/>
<path d="M195 156.118H197.1V154.049H195V156.118Z" fill="#F7F6F9"/>
<path d="M191.6 131.483H193.7V129.414H191.6V131.483Z" fill="#F7F6F9"/>
<path d="M191.6 135.03H193.7V132.961H191.6V135.03Z" fill="#F7F6F9"/>
<path d="M191.6 138.479H193.7V136.41H191.6V138.479Z" fill="#F7F6F9"/>
<path d="M191.6 142.027H193.7V139.957H191.6V142.027Z" fill="#F7F6F9"/>
<path d="M191.6 145.574H193.7V143.505H191.6V145.574Z" fill="#F7F6F9"/>
<path d="M191.6 152.57H193.7V150.501H191.6V152.57Z" fill="#F7F6F9"/>
<path d="M191.6 156.118H193.7V154.049H191.6V156.118Z" fill="#F7F6F9"/>
<path d="M190.3 117.392H188.2V115.323H190.3V117.392Z" fill="#F7F6F9"/>
<path d="M190.3 120.939H188.2V118.771H190.3V120.939Z" fill="#F7F6F9"/>
<path d="M188.2 124.388H190.3V122.319H188.2V124.388Z" fill="#F7F6F9"/>
<path d="M188.2 127.936H190.3V125.866H188.2V127.936Z" fill="#F7F6F9"/>
<path d="M188.2 131.483H190.3V129.414H188.2V131.483Z" fill="#F7F6F9"/>
<path d="M188.2 135.03H190.3V132.961H188.2V135.03Z" fill="#F7F6F9"/>
<path d="M188.2 138.479H190.3V136.41H188.2V138.479Z" fill="#F7F6F9"/>
<path d="M188.2 142.027H190.3V139.957H188.2V142.027Z" fill="#F7F6F9"/>
<path d="M188.2 145.574H190.3V143.505H188.2V145.574Z" fill="#F7F6F9"/>
<path d="M188.2 149.121H190.3V147.052H188.2V149.121Z" fill="#F7F6F9"/>
<path d="M188.2 156.118H190.3V154.049H188.2V156.118Z" fill="#F7F6F9"/>
<path d="M186.9 117.392H184.8V115.323H186.9V117.392Z" fill="#F7F6F9"/>
<path d="M186.9 120.939H184.8V118.771H186.9V120.939Z" fill="#F7F6F9"/>
<path d="M184.8 124.388H186.9V122.319H184.8V124.388Z" fill="#F7F6F9"/>
<path d="M184.8 127.936H186.9V125.866H184.8V127.936Z" fill="#F7F6F9"/>
<path d="M184.8 131.483H186.9V129.414H184.8V131.483Z" fill="#F7F6F9"/>
<path d="M184.8 135.03H186.9V132.961H184.8V135.03Z" fill="#F7F6F9"/>
<path d="M184.8 138.479H186.9V136.41H184.8V138.479Z" fill="#F7F6F9"/>
<path d="M184.8 170.209H186.9V168.14H184.8V170.209Z" fill="#F7F6F9"/>
<path d="M183.6 117.392H181.5V115.323H183.6V117.392Z" fill="#F7F6F9"/>
<path d="M183.6 120.939H181.5V118.771H183.6V120.939Z" fill="#F7F6F9"/>
<path d="M181.4 124.388H183.5V122.319H181.4V124.388Z" fill="#F7F6F9"/>
<path d="M181.4 127.936H183.5V125.866H181.4V127.936Z" fill="#F7F6F9"/>
<path d="M181.4 131.483H183.5V129.414H181.4V131.483Z" fill="#F7F6F9"/>
<path d="M181.4 135.03H183.5V132.961H181.4V135.03Z" fill="#F7F6F9"/>
<path d="M181.4 138.479H183.5V136.41H181.4V138.479Z" fill="#F7F6F9"/>
<path d="M181.4 142.027H183.5V139.957H181.4V142.027Z" fill="#F7F6F9"/>
<path d="M181.4 163.213H183.5V161.143H181.4V163.213Z" fill="#F7F6F9"/>
<path d="M181.4 166.661H183.5V164.592H181.4V166.661Z" fill="#F7F6F9"/>
<path d="M181.4 170.209H183.5V168.14H181.4V170.209Z" fill="#F7F6F9"/>
<path d="M181.4 173.756H183.5V171.687H181.4V173.756Z" fill="#F7F6F9"/>
<path d="M181.4 187.847H183.5V185.778H181.4V187.847Z" fill="#F7F6F9"/>
<path d="M180.2 117.392H178V115.323H180.1L180.2 117.392Z" fill="#F7F6F9"/>
<path d="M180.2 120.939H178V118.771H180.1L180.2 120.939Z" fill="#F7F6F9"/>
<path d="M178 124.388H180.1V122.319H178V124.388Z" fill="#F7F6F9"/>
<path d="M178 127.936H180.1V125.866H178V127.936Z" fill="#F7F6F9"/>
<path d="M178 131.483H180.1V129.414H178V131.483Z" fill="#F7F6F9"/>
<path d="M178 135.03H180.1V132.961H178V135.03Z" fill="#F7F6F9"/>
<path d="M178 138.479H180.1V136.41H178V138.479Z" fill="#F7F6F9"/>
<path d="M178 142.027H180.1V139.957H178V142.027Z" fill="#F7F6F9"/>
<path d="M178 145.574H180.1V143.505H178V145.574Z" fill="#F7F6F9"/>
<path d="M178 149.121H180.1V147.052H178V149.121Z" fill="#F7F6F9"/>
<path d="M178 159.665H180.1V157.596H178V159.665Z" fill="#F7F6F9"/>
<path d="M178 163.213H180.1V161.143H178V163.213Z" fill="#F7F6F9"/>
<path d="M178 166.661H180.1V164.592H178V166.661Z" fill="#F7F6F9"/>
<path d="M178 170.209H180.1V168.14H178V170.209Z" fill="#F7F6F9"/>
<path d="M178 173.756H180.1V171.687H178V173.756Z" fill="#F7F6F9"/>
<path d="M178 187.847H180.1V185.778H178V187.847Z" fill="#F7F6F9"/>
<path d="M176.8 117.392H174.7V115.323H176.8V117.392Z" fill="#F7F6F9"/>
<path d="M176.8 120.939H174.7V118.771H176.8V120.939Z" fill="#F7F6F9"/>
<path d="M174.7 124.388H176.8V122.319H174.7V124.388Z" fill="#F7F6F9"/>
<path d="M174.7 127.936H176.8V125.866H174.7V127.936Z" fill="#F7F6F9"/>
<path d="M174.7 131.483H176.8V129.414H174.7V131.483Z" fill="#F7F6F9"/>
<path d="M174.7 135.03H176.8V132.961H174.7V135.03Z" fill="#F7F6F9"/>
<path d="M174.7 138.479H176.8V136.41H174.7V138.479Z" fill="#F7F6F9"/>
<path d="M174.7 142.027H176.8V139.957H174.7V142.027Z" fill="#F7F6F9"/>
<path d="M174.7 145.574H176.8V143.505H174.7V145.574Z" fill="#F7F6F9"/>
<path d="M174.7 149.121H176.8V147.052H174.7V149.121Z" fill="#F7F6F9"/>
<path d="M174.7 152.57H176.8V150.501H174.7V152.57Z" fill="#F7F6F9"/>
<path d="M174.7 156.118H176.8V154.049H174.7V156.118Z" fill="#F7F6F9"/>
<path d="M174.7 159.665H176.8V157.596H174.7V159.665Z" fill="#F7F6F9"/>
<path d="M174.7 163.213H176.8V161.143H174.7V163.213Z" fill="#F7F6F9"/>
<path d="M174.7 166.661H176.8V164.592H174.7V166.661Z" fill="#F7F6F9"/>
<path d="M174.7 170.209H176.8V168.14H174.7V170.209Z" fill="#F7F6F9"/>
<path d="M174.7 173.756H176.8V171.687H174.7V173.756Z" fill="#F7F6F9"/>
<path d="M174.7 177.304H176.8V175.234H174.7V177.304Z" fill="#F7F6F9"/>
<path d="M173.4 117.392H171.3V115.323H173.4V117.392Z" fill="#F7F6F9"/>
<path d="M173.4 120.939H171.3V118.771H173.4V120.939Z" fill="#F7F6F9"/>
<path d="M171.3 124.388H173.4V122.319H171.3V124.388Z" fill="#F7F6F9"/>
<path d="M171.3 127.936H173.4V125.866H171.3V127.936Z" fill="#F7F6F9"/>
<path d="M171.3 131.483H173.4V129.414H171.3V131.483Z" fill="#F7F6F9"/>
<path d="M171.3 135.03H173.4V132.961H171.3V135.03Z" fill="#F7F6F9"/>
<path d="M171.3 138.479H173.4V136.41H171.3V138.479Z" fill="#F7F6F9"/>
<path d="M171.3 142.027H173.4V139.957H171.3V142.027Z" fill="#F7F6F9"/>
<path d="M171.3 145.574H173.4V143.505H171.3V145.574Z" fill="#F7F6F9"/>
<path d="M171.3 149.121H173.4V147.052H171.3V149.121Z" fill="#F7F6F9"/>
<path d="M171.3 159.665H173.4V157.596H171.3V159.665Z" fill="#F7F6F9"/>
<path d="M171.3 163.213H173.4V161.143H171.3V163.213Z" fill="#F7F6F9"/>
<path d="M171.3 166.661H173.4V164.592H171.3V166.661Z" fill="#F7F6F9"/>
<path d="M171.3 170.209H173.4V168.14H171.3V170.209Z" fill="#F7F6F9"/>
<path d="M170 117.392H167.9V115.323H170V117.392Z" fill="#F7F6F9"/>
<path d="M170 120.939H167.9V118.771H170V120.939Z" fill="#F7F6F9"/>
<path d="M167.9 124.388H170V122.319H167.9V124.388Z" fill="#F7F6F9"/>
<path d="M167.9 127.936H170V125.866H167.9V127.936Z" fill="#F7F6F9"/>
<path d="M170 131.483H167.9V129.414H170V131.483Z" fill="#F7F6F9"/>
<path d="M170 135.03H167.9V132.961H170V135.03Z" fill="#F7F6F9"/>
<path d="M167.9 138.479H170V136.41H167.9V138.479Z" fill="#F7F6F9"/>
<path d="M167.9 142.027H170V139.957H167.9V142.027Z" fill="#F7F6F9"/>
<path d="M167.9 145.574H170V143.505H167.9V145.574Z" fill="#F7F6F9"/>
<path d="M167.9 149.121H170V147.052H167.9V149.121Z" fill="#F7F6F9"/>
<path d="M167.9 159.665H170V157.596H167.9V159.665Z" fill="#F7F6F9"/>
<path d="M167.9 163.213H170V161.143H167.9V163.213Z" fill="#F7F6F9"/>
<path d="M167.9 166.661H170V164.592H167.9V166.661Z" fill="#F7F6F9"/>
<path d="M131.9 108.228H129.8V106.158H131.9V108.228Z" fill="#F7F6F9"/>
<path d="M131.9 111.775H129.8V109.706H131.9V111.775Z" fill="#F7F6F9"/>
<path d="M131.9 115.323H129.8V113.253H131.9V115.323Z" fill="#F7F6F9"/>
<path d="M131.9 118.771H129.8V116.702H131.9V118.771Z" fill="#F7F6F9"/>
<path d="M131.9 122.319H129.8V120.25H131.9V122.319Z" fill="#F7F6F9"/>
<path d="M131.9 125.866H129.8V123.698H131.9V125.866Z" fill="#F7F6F9"/>
<path d="M129.7 129.414H131.8V127.344H129.7V129.414Z" fill="#F7F6F9"/>
<path d="M129.7 132.862H131.8V130.793H129.7V132.862Z" fill="#F7F6F9"/>
<path d="M129.7 143.505H131.8V141.435H129.7V143.505Z" fill="#F7F6F9"/>
<path d="M131.9 146.954H129.8V144.884H131.9V146.954Z" fill="#F7F6F9"/>
<path d="M128.5 108.228H126.4V106.158H128.5V108.228Z" fill="#F7F6F9"/>
<path d="M128.5 111.775H126.4V109.706H128.5V111.775Z" fill="#F7F6F9"/>
<path d="M128.5 115.323H126.4V113.253H128.5V115.323Z" fill="#F7F6F9"/>
<path d="M128.5 118.771H126.4V116.702H128.5V118.771Z" fill="#F7F6F9"/>
<path d="M128.5 122.319H126.4V120.25H128.5V122.319Z" fill="#F7F6F9"/>
<path d="M128.5 125.866H126.4V123.698H128.5V125.866Z" fill="#F7F6F9"/>
<path d="M128.5 129.414H126.4V127.344H128.5V129.414Z" fill="#F7F6F9"/>
<path d="M126.4 132.862H128.5V130.793H126.4V132.862Z" fill="#F7F6F9"/>
<path d="M128.5 146.954H126.4V144.884H128.5V146.954Z" fill="#F7F6F9"/>
<path d="M125.1 108.228H123V106.158H125.1V108.228Z" fill="#F7F6F9"/>
<path d="M125.1 111.775H123V109.706H125.1V111.775Z" fill="#F7F6F9"/>
<path d="M125.1 115.323H123V113.253H125.1V115.323Z" fill="#F7F6F9"/>
<path d="M125.1 118.771H123V116.702H125.1V118.771Z" fill="#F7F6F9"/>
<path d="M125.1 122.319H123V120.25H125.1V122.319Z" fill="#F7F6F9"/>
<path d="M125.1 125.866H123V123.698H125.1V125.866Z" fill="#F7F6F9"/>
<path d="M125.1 129.414H123V127.344H125.1V129.414Z" fill="#F7F6F9"/>
<path d="M125.1 132.862H123V130.793H125.1V132.862Z" fill="#F7F6F9"/>
<path d="M121.7 108.228H119.6V106.158H121.7V108.228Z" fill="#F7F6F9"/>
<path d="M121.7 111.775H119.6V109.706H121.7V111.775Z" fill="#F7F6F9"/>
<path d="M121.7 115.323H119.6V113.253H121.7V115.323Z" fill="#F7F6F9"/>
<path d="M121.7 118.771H119.6V116.702H121.7V118.771Z" fill="#F7F6F9"/>
<path d="M121.7 122.319H119.6V120.25H121.7V122.319Z" fill="#F7F6F9"/>
<path d="M121.7 125.866H119.6V123.698H121.7V125.866Z" fill="#F7F6F9"/>
<path d="M121.7 132.862H119.6V130.793H121.7V132.862Z" fill="#F7F6F9"/>
<path d="M119.6 136.41H121.7V134.341H119.6V136.41Z" fill="#F7F6F9"/>
<path d="M119.6 146.954H121.7V144.884H119.6V146.954Z" fill="#F7F6F9"/>
<path d="M119.6 150.501H121.7V148.432H119.6V150.501Z" fill="#F7F6F9"/>
<path d="M121.7 154.048H119.6V151.979H121.7V154.048Z" fill="#F7F6F9"/>
<path d="M121.7 157.596H119.6V155.527H121.7V157.596Z" fill="#F7F6F9"/>
<path d="M121.7 161.045H119.6V158.976H121.7V161.045Z" fill="#F7F6F9"/>
<path d="M121.7 164.592H119.6V162.523H121.7V164.592Z" fill="#F7F6F9"/>
<path d="M121.7 168.14H119.6V166.07H121.7V168.14Z" fill="#F7F6F9"/>
<path d="M116.2 108.228H118.3V106.158H116.2V108.228Z" fill="#F7F6F9"/>
<path d="M116.2 111.775H118.3V109.706H116.2V111.775Z" fill="#F7F6F9"/>
<path d="M116.2 115.323H118.3V113.253H116.2V115.323Z" fill="#F7F6F9"/>
<path d="M116.2 118.771H118.3V116.702H116.2V118.771Z" fill="#F7F6F9"/>
<path d="M118.3 122.319H116.2V120.25H118.3V122.319Z" fill="#F7F6F9"/>
<path d="M118.3 125.866H116.2V123.698H118.3V125.866Z" fill="#F7F6F9"/>
<path d="M118.3 136.41H116.2V134.341H118.3V136.41Z" fill="#F7F6F9"/>
<path d="M116.2 139.957H118.3V137.888H116.2V139.957Z" fill="#F7F6F9"/>
<path d="M116.2 143.505H118.3V141.435H116.2V143.505Z" fill="#F7F6F9"/>
<path d="M116.2 146.954H118.3V144.884H116.2V146.954Z" fill="#F7F6F9"/>
<path d="M116.2 150.501H118.3V148.432H116.2V150.501Z" fill="#F7F6F9"/>
<path d="M116.2 154.048H118.3V151.979H116.2V154.048Z" fill="#F7F6F9"/>
<path d="M118.3 157.596H116.2V155.527H118.3V157.596Z" fill="#F7F6F9"/>
<path d="M118.3 161.045H116.2V158.976H118.3V161.045Z" fill="#F7F6F9"/>
<path d="M118.3 164.592H116.2V162.523H118.3V164.592Z" fill="#F7F6F9"/>
<path d="M118.3 168.14H116.2V166.07H118.3V168.14Z" fill="#F7F6F9"/>
<path d="M118.3 171.687H116.2V169.618H118.3V171.687Z" fill="#F7F6F9"/>
<path d="M116.2 178.683H118.3V176.614H116.2V178.683Z" fill="#F7F6F9"/>
<path d="M112.8 108.228H114.9V106.158H112.8V108.228Z" fill="#F7F6F9"/>
<path d="M112.8 111.775H114.9V109.706H112.8V111.775Z" fill="#F7F6F9"/>
<path d="M112.8 115.323H114.9V113.253H112.8V115.323Z" fill="#F7F6F9"/>
<path d="M112.8 118.771H114.9V116.702H112.8V118.771Z" fill="#F7F6F9"/>
<path d="M112.8 122.319H114.9V120.25H112.8V122.319Z" fill="#F7F6F9"/>
<path d="M112.8 125.866H114.9V123.698H112.8V125.866Z" fill="#F7F6F9"/>
<path d="M112.8 136.41H114.9V134.341H112.8V136.41Z" fill="#F7F6F9"/>
<path d="M114.9 139.957H112.8V137.888H114.9V139.957Z" fill="#F7F6F9"/>
<path d="M112.8 143.505H114.9V141.435H112.8V143.505Z" fill="#F7F6F9"/>
<path d="M112.8 146.954H114.9V144.884H112.8V146.954Z" fill="#F7F6F9"/>
<path d="M114.9 157.596H112.8V155.527H114.9V157.596Z" fill="#F7F6F9"/>
<path d="M114.9 161.045H112.8V158.976H114.9V161.045Z" fill="#F7F6F9"/>
<path d="M114.9 164.592H112.8V162.523H114.9V164.592Z" fill="#F7F6F9"/>
<path d="M114.9 168.14H112.8V166.07H114.9V168.14Z" fill="#F7F6F9"/>
<path d="M114.9 171.687H112.8V169.618H114.9V171.687Z" fill="#F7F6F9"/>
<path d="M114.9 178.683H112.8V176.614H114.9V178.683Z" fill="#F7F6F9"/>
<path d="M112.8 182.231H114.9V180.161H112.8V182.231Z" fill="#F7F6F9"/>
<path d="M84.2 140.943H82.1V138.873H84.2V140.943Z" fill="#F7F6F9"/>
<path d="M84.2 144.49H82.1V142.421H84.2V144.49Z" fill="#F7F6F9"/>
<path d="M84.2 148.038H82.1V145.968H84.2V148.038Z" fill="#F7F6F9"/>
<path d="M84.2 151.585H82.1V149.516H84.2V151.585Z" fill="#F7F6F9"/>
<path d="M84.2 155.034H82.1V152.964H84.2V155.034Z" fill="#F7F6F9"/>
<path d="M84.2 158.581H82.1V156.512H84.2V158.581Z" fill="#F7F6F9"/>
<path d="M84.2 162.129H82.1V160.059H84.2V162.129Z" fill="#F7F6F9"/>
<path d="M82.1 172.673H84.2V170.603H82.1V172.673Z" fill="#F7F6F9"/>
<path d="M82.1 176.22H84.2V174.15H82.1V176.22Z" fill="#F7F6F9"/>
<path d="M82.1 179.767H84.2V177.698H82.1V179.767Z" fill="#F7F6F9"/>
<path d="M80.8 140.943H78.7V138.873H80.8V140.943Z" fill="#F7F6F9"/>
<path d="M80.8 144.49H78.7V142.421H80.8V144.49Z" fill="#F7F6F9"/>
<path d="M80.8 148.038H78.7V145.968H80.8V148.038Z" fill="#F7F6F9"/>
<path d="M80.8 151.585H78.7V149.516H80.8V151.585Z" fill="#F7F6F9"/>
<path d="M80.8 155.034H78.7V152.964H80.8V155.034Z" fill="#F7F6F9"/>
<path d="M80.8 158.581H78.7V156.512H80.8V158.581Z" fill="#F7F6F9"/>
<path d="M80.8 162.129H78.7V160.059H80.8V162.129Z" fill="#F7F6F9"/>
<path d="M77.4 140.943H75.3V138.873H77.4V140.943Z" fill="#F7F6F9"/>
<path d="M77.4 144.49H75.3V142.421H77.4V144.49Z" fill="#F7F6F9"/>
<path d="M77.4 148.038H75.3V145.968H77.4V148.038Z" fill="#F7F6F9"/>
<path d="M77.4 151.585H75.3V149.516H77.4V151.585Z" fill="#F7F6F9"/>
<path d="M77.4 155.034H75.3V152.964H77.4V155.034Z" fill="#F7F6F9"/>
<path d="M77.4 158.581H75.3V156.512H77.4V158.581Z" fill="#F7F6F9"/>
<path d="M77.4 162.129H75.3V160.059H77.4V162.129Z" fill="#F7F6F9"/>
<path d="M74 140.943H71.9V138.873H74V140.943Z" fill="#F7F6F9"/>
<path d="M74 144.49H71.9V142.421H74V144.49Z" fill="#F7F6F9"/>
<path d="M74 148.038H71.9V145.968H74V148.038Z" fill="#F7F6F9"/>
<path d="M74 151.585H71.9V149.516H74V151.585Z" fill="#F7F6F9"/>
<path d="M74 155.034H71.9V152.964H74V155.034Z" fill="#F7F6F9"/>
<path d="M74 158.581H71.9V156.512H74V158.581Z" fill="#F7F6F9"/>
<path d="M74 162.129H71.9V160.059H74V162.129Z" fill="#F7F6F9"/>
<path d="M74 165.676H71.9V163.607H74V165.676Z" fill="#F7F6F9"/>
<path d="M74 169.125H71.9V167.056H74V169.125Z" fill="#F7F6F9"/>
<path d="M74 172.673H71.9V170.603H74V172.673Z" fill="#F7F6F9"/>
<path d="M71.9 176.22H74V174.15H71.9V176.22Z" fill="#F7F6F9"/>
<path d="M70.7 140.943H68.6V138.873H70.7V140.943Z" fill="#F7F6F9"/>
<path d="M70.7 144.49H68.6V142.421H70.7V144.49Z" fill="#F7F6F9"/>
<path d="M70.7 148.038H68.6V145.968H70.7V148.038Z" fill="#F7F6F9"/>
<path d="M70.7 151.585H68.6V149.516H70.7V151.585Z" fill="#F7F6F9"/>
<path d="M70.7 155.034H68.6V152.964H70.7V155.034Z" fill="#F7F6F9"/>
<path d="M70.7 158.581H68.6V156.512H70.7V158.581Z" fill="#F7F6F9"/>
<path d="M70.7 162.129H68.6V160.059H70.7V162.129Z" fill="#F7F6F9"/>
<path d="M70.7 165.676H68.6V163.607H70.7V165.676Z" fill="#F7F6F9"/>
<path d="M70.7 169.125H68.6V167.056H70.7V169.125Z" fill="#F7F6F9"/>
<path d="M70.7 172.673H68.6V170.603H70.7V172.673Z" fill="#F7F6F9"/>
<path d="M68.5 176.22H70.6V174.15H68.5V176.22Z" fill="#F7F6F9"/>
<path d="M68.5 179.767H70.6V177.698H68.5V179.767Z" fill="#F7F6F9"/>
<path d="M68.5 190.311H70.6V188.242H68.5V190.311Z" fill="#F7F6F9"/>
<path d="M70.7 193.858H68.6V191.691H70.7V193.858Z" fill="#F7F6F9"/>
<path d="M67.3 140.943H65.2V138.873H67.3V140.943Z" fill="#F7F6F9"/>
<path d="M67.3 144.49H65.2V142.421H67.3V144.49Z" fill="#F7F6F9"/>
<path d="M67.3 148.038H65.2V145.968H67.3V148.038Z" fill="#F7F6F9"/>
<path d="M67.3 158.581H65.2V156.512H67.3V158.581Z" fill="#F7F6F9"/>
<path d="M67.3 162.129H65.2V160.059H67.3V162.129Z" fill="#F7F6F9"/>
<path d="M67.3 165.676H65.2V163.607H67.3V165.676Z" fill="#F7F6F9"/>
<path d="M67.3 169.125H65.2V167.056H67.3V169.125Z" fill="#F7F6F9"/>
<path d="M67.3 172.673H65.2V170.603H67.3V172.673Z" fill="#F7F6F9"/>
<path d="M67.3 176.22H65.2V174.15H67.3V176.22Z" fill="#F7F6F9"/>
<path d="M65.1 179.767H67.2V177.698H65.1V179.767Z" fill="#F7F6F9"/>
<path d="M65.1 190.311H67.2V188.242H65.1V190.311Z" fill="#F7F6F9"/>
<path d="M65.1 193.858H67.2V191.691H65.1V193.858Z" fill="#F7F6F9"/>
<path d="M67.3 197.307H65.2V195.238H67.3V197.307Z" fill="#F7F6F9"/>
<path d="M31.8 119.855H29.7V117.786H31.8V119.855Z" fill="#F7F6F9"/>
<path d="M31.8 123.403H29.7V121.333H31.8V123.403Z" fill="#F7F6F9"/>
<path d="M31.8 126.852H29.7V124.782H31.8V126.852Z" fill="#F7F6F9"/>
<path d="M31.8 130.399H29.7V128.33H31.8V130.399Z" fill="#F7F6F9"/>
<path d="M31.8 133.947H29.7V131.877H31.8V133.947Z" fill="#F7F6F9"/>
<path d="M31.8 137.494H29.7V135.424H31.8V137.494Z" fill="#F7F6F9"/>
<path d="M31.8 140.943H29.7V138.873H31.8V140.943Z" fill="#F7F6F9"/>
<path d="M31.8 144.49H29.7V142.421H31.8V144.49Z" fill="#F7F6F9"/>
<path d="M31.8 148.038H29.7V145.968H31.8V148.038Z" fill="#F7F6F9"/>
<path d="M31.8 151.585H29.7V149.516H31.8V151.585Z" fill="#F7F6F9"/>
<path d="M31.8 155.034H29.7V152.964H31.8V155.034Z" fill="#F7F6F9"/>
<path d="M31.8 158.581H29.7V156.512H31.8V158.581Z" fill="#F7F6F9"/>
<path d="M31.8 162.129H29.7V160.059H31.8V162.129Z" fill="#F7F6F9"/>
<path d="M31.8 165.676H29.7V163.607H31.8V165.676Z" fill="#F7F6F9"/>
<path d="M31.8 169.125H29.7V167.056H31.8V169.125Z" fill="#F7F6F9"/>
<path d="M31.8 172.673H29.7V170.603H31.8V172.673Z" fill="#F7F6F9"/>
<path d="M31.8 176.22H29.7V174.15H31.8V176.22Z" fill="#F7F6F9"/>
<path d="M31.8 179.767H29.7V177.698H31.8V179.767Z" fill="#F7F6F9"/>
<path d="M31.8 183.216H29.7V181.147H31.8V183.216Z" fill="#F7F6F9"/>
<path d="M31.8 186.763H29.7V184.694H31.8V186.763Z" fill="#F7F6F9"/>
<path d="M31.8 190.311H29.7V188.242H31.8V190.311Z" fill="#F7F6F9"/>
<path d="M31.8 193.858H29.7V191.691H31.8V193.858Z" fill="#F7F6F9"/>
<path d="M31.8 197.307H29.7V195.238H31.8V197.307Z" fill="#F7F6F9"/>
<path d="M28.4 119.855H26.3V117.786H28.4V119.855Z" fill="#F7F6F9"/>
<path d="M28.4 123.403H26.3V121.333H28.4V123.403Z" fill="#F7F6F9"/>
<path d="M28.4 126.852H26.3V124.782H28.4V126.852Z" fill="#F7F6F9"/>
<path d="M28.4 130.399H26.3V128.33H28.4V130.399Z" fill="#F7F6F9"/>
<path d="M28.4 133.947H26.3V131.877H28.4V133.947Z" fill="#F7F6F9"/>
<path d="M28.4 137.494H26.3V135.424H28.4V137.494Z" fill="#F7F6F9"/>
<path d="M28.4 140.943H26.3V138.873H28.4V140.943Z" fill="#F7F6F9"/>
<path d="M28.4 144.49H26.3V142.421H28.4V144.49Z" fill="#F7F6F9"/>
<path d="M28.4 148.038H26.3V145.968H28.4V148.038Z" fill="#F7F6F9"/>
<path d="M28.4 151.585H26.3V149.516H28.4V151.585Z" fill="#F7F6F9"/>
<path d="M28.4 155.034H26.3V152.964H28.4V155.034Z" fill="#F7F6F9"/>
<path d="M28.4 158.581H26.3V156.512H28.4V158.581Z" fill="#F7F6F9"/>
<path d="M28.4 162.129H26.3V160.059H28.4V162.129Z" fill="#F7F6F9"/>
<path d="M28.4 165.676H26.3V163.607H28.4V165.676Z" fill="#F7F6F9"/>
<path d="M28.4 169.125H26.3V167.056H28.4V169.125Z" fill="#F7F6F9"/>
<path d="M28.4 172.673H26.3V170.603H28.4V172.673Z" fill="#F7F6F9"/>
<path d="M28.4 176.22H26.3V174.15H28.4V176.22Z" fill="#F7F6F9"/>
<path d="M28.4 179.767H26.3V177.698H28.4V179.767Z" fill="#F7F6F9"/>
<path d="M28.4 183.216H26.3V181.147H28.4V183.216Z" fill="#F7F6F9"/>
<path d="M25 119.855H22.9V117.786H25V119.855Z" fill="#F7F6F9"/>
<path d="M25 123.403H22.9V121.333H25V123.403Z" fill="#F7F6F9"/>
<path d="M25 126.852H22.9V124.782H25V126.852Z" fill="#F7F6F9"/>
<path d="M25 130.399H22.9V128.33H25V130.399Z" fill="#F7F6F9"/>
<path d="M25 133.947H22.9V131.877H25V133.947Z" fill="#F7F6F9"/>
<path d="M25 137.494H22.9V135.424H25V137.494Z" fill="#F7F6F9"/>
<path d="M25 140.943H22.9V138.873H25V140.943Z" fill="#F7F6F9"/>
<path d="M25 144.49H22.9V142.421H25V144.49Z" fill="#F7F6F9"/>
<path d="M25 148.038H22.9V145.968H25V148.038Z" fill="#F7F6F9"/>
<path d="M25 151.585H22.9V149.516H25V151.585Z" fill="#F7F6F9"/>
<path d="M25 155.034H22.9V152.964H25V155.034Z" fill="#F7F6F9"/>
<path d="M25 158.581H22.9V156.512H25V158.581Z" fill="#F7F6F9"/>
<path d="M25 162.129H22.9V160.059H25V162.129Z" fill="#F7F6F9"/>
<path d="M25 165.676H22.9V163.607H25V165.676Z" fill="#F7F6F9"/>
<path d="M25 169.125H22.9V167.056H25V169.125Z" fill="#F7F6F9"/>
<path d="M25 172.673H22.9V170.603H25V172.673Z" fill="#F7F6F9"/>
<path d="M25 176.22H22.9V174.15H25V176.22Z" fill="#F7F6F9"/>
<path d="M25 179.767H22.9V177.698H25V179.767Z" fill="#F7F6F9"/>
<path d="M25 183.216H22.9V181.147H25V183.216Z" fill="#F7F6F9"/>
<path d="M21.6 119.855H19.5V117.786H21.6V119.855Z" fill="#F7F6F9"/>
<path d="M21.6 123.403H19.5V121.333H21.6V123.403Z" fill="#F7F6F9"/>
<path d="M21.6 126.852H19.5V124.782H21.6V126.852Z" fill="#F7F6F9"/>
<path d="M21.6 130.399H19.5V128.33H21.6V130.399Z" fill="#F7F6F9"/>
<path d="M21.6 133.947H19.5V131.877H21.6V133.947Z" fill="#F7F6F9"/>
<path d="M21.6 137.494H19.5V135.424H21.6V137.494Z" fill="#F7F6F9"/>
<path d="M21.6 140.943H19.5V138.873H21.6V140.943Z" fill="#F7F6F9"/>
<path d="M21.6 144.49H19.5V142.421H21.6V144.49Z" fill="#F7F6F9"/>
<path d="M21.6 148.038H19.5V145.968H21.6V148.038Z" fill="#F7F6F9"/>
<path d="M21.6 151.585H19.5V149.516H21.6V151.585Z" fill="#F7F6F9"/>
<path d="M21.6 155.034H19.5V152.964H21.6V155.034Z" fill="#F7F6F9"/>
<path d="M21.6 158.581H19.5V156.512H21.6V158.581Z" fill="#F7F6F9"/>
<path d="M21.6 162.129H19.5V160.059H21.6V162.129Z" fill="#F7F6F9"/>
<path d="M21.6 165.676H19.5V163.607H21.6V165.676Z" fill="#F7F6F9"/>
<path d="M21.6 169.125H19.5V167.056H21.6V169.125Z" fill="#F7F6F9"/>
<path d="M18.2 119.855H16.1V117.786H18.2V119.855Z" fill="#F7F6F9"/>
<path d="M18.2 123.403H16.1V121.333H18.2V123.403Z" fill="#F7F6F9"/>
<path d="M18.2 126.852H16.1V124.782H18.2V126.852Z" fill="#F7F6F9"/>
<path d="M18.2 130.399H16.1V128.33H18.2V130.399Z" fill="#F7F6F9"/>
<path d="M18.2 133.947H16.1V131.877H18.2V133.947Z" fill="#F7F6F9"/>
<path d="M18.2 137.494H16.1V135.424H18.2V137.494Z" fill="#F7F6F9"/>
<path d="M18.2 140.943H16.1V138.873H18.2V140.943Z" fill="#F7F6F9"/>
<path d="M18.2 144.49H16.1V142.421H18.2V144.49Z" fill="#F7F6F9"/>
<path d="M18.2 148.038H16.1V145.968H18.2V148.038Z" fill="#F7F6F9"/>
<path d="M18.2 151.585H16.1V149.516H18.2V151.585Z" fill="#F7F6F9"/>
<path d="M18.2 155.034H16.1V152.964H18.2V155.034Z" fill="#F7F6F9"/>
<path d="M18.2 158.581H16.1V156.512H18.2V158.581Z" fill="#F7F6F9"/>
<path d="M18.2 162.129H16.1V160.059H18.2V162.129Z" fill="#F7F6F9"/>
<path d="M14.8 117.786V119.855H12.7V117.786H14.8Z" fill="#F7F6F9"/>
<path d="M14.8 123.403H12.7V121.333H14.8V123.403Z" fill="#F7F6F9"/>
<path d="M14.8 126.852H12.7V124.782H14.8V126.852Z" fill="#F7F6F9"/>
<path d="M14.8 130.399H12.7V128.33H14.8V130.399Z" fill="#F7F6F9"/>
<path d="M14.8 133.947H12.7V131.877H14.8V133.947Z" fill="#F7F6F9"/>
<path d="M14.8 137.494H12.7V135.424H14.8V137.494Z" fill="#F7F6F9"/>
<path d="M14.8 140.943H12.7V138.873H14.8V140.943Z" fill="#F7F6F9"/>
<path d="M14.8 144.49H12.7V142.421H14.8V144.49Z" fill="#F7F6F9"/>
<path d="M14.8 148.038H12.7V145.968H14.8V148.038Z" fill="#F7F6F9"/>
<path d="M14.8 151.585H12.7V149.516H14.8V151.585Z" fill="#F7F6F9"/>
<path d="M14.8 155.034H12.7V152.964H14.8V155.034Z" fill="#F7F6F9"/>
<path d="M14.8 158.581H12.7V156.512H14.8V158.581Z" fill="#F7F6F9"/>
<path d="M263.7 145.574H261.6V143.505H263.7V145.574Z" fill="#F7F6F9"/>
<path d="M263.7 149.121H261.6V147.052H263.7V149.121Z" fill="#F7F6F9"/>
<path d="M263.7 152.57H261.6V150.501H263.7V152.57Z" fill="#F7F6F9"/>
<path d="M263.7 156.118H261.6V154.049H263.7V156.118Z" fill="#F7F6F9"/>
<path d="M263.7 159.665H261.6V157.596H263.7V159.665Z" fill="#F7F6F9"/>
<path d="M263.7 163.213H261.6V161.143H263.7V163.213Z" fill="#F7F6F9"/>
<path d="M263.7 166.661H261.6V164.592H263.7V166.661Z" fill="#F7F6F9"/>
<path d="M263.7 170.209H261.6V168.14H263.7V170.209Z" fill="#F7F6F9"/>
<path d="M263.7 173.756H261.6V171.687H263.7V173.756Z" fill="#F7F6F9"/>
<path d="M261.6 177.304H263.7V175.234H261.6V177.304Z" fill="#F7F6F9"/>
<path d="M261.6 180.753H263.7V178.683H261.6V180.753Z" fill="#F7F6F9"/>
<path d="M261.6 184.3H263.7V182.231H261.6V184.3Z" fill="#F7F6F9"/>
<path d="M261.6 187.847H263.7V185.778H261.6V187.847Z" fill="#F7F6F9"/>
<path d="M261.6 191.395H263.7V189.326H261.6V191.395Z" fill="#F7F6F9"/>
<path d="M261.6 194.844H263.7V192.775H261.6V194.844Z" fill="#F7F6F9"/>
<path d="M261.6 198.391H263.7V196.322H261.6V198.391Z" fill="#F7F6F9"/>
<path d="M261.6 201.939H263.7V199.869H261.6V201.939Z" fill="#F7F6F9"/>
<path d="M261.6 205.486H263.7V203.417H261.6V205.486Z" fill="#F7F6F9"/>
<path d="M263.7 208.935H261.6V206.865H263.7V208.935Z" fill="#F7F6F9"/>
<path d="M263.7 212.482H261.6V210.413H263.7V212.482Z" fill="#F7F6F9"/>
<path d="M260.3 145.574H258.2V143.505H260.3V145.574Z" fill="#F7F6F9"/>
<path d="M260.3 149.121H258.2V147.052H260.3V149.121Z" fill="#F7F6F9"/>
<path d="M260.3 152.57H258.2V150.501H260.3V152.57Z" fill="#F7F6F9"/>
<path d="M260.3 156.118H258.2V154.049H260.3V156.118Z" fill="#F7F6F9"/>
<path d="M260.3 159.665H258.2V157.596H260.3V159.665Z" fill="#F7F6F9"/>
<path d="M260.3 163.213H258.2V161.143H260.3V163.213Z" fill="#F7F6F9"/>
<path d="M260.3 166.661H258.2V164.592H260.3V166.661Z" fill="#F7F6F9"/>
<path d="M260.3 170.209H258.2V168.14H260.3V170.209Z" fill="#F7F6F9"/>
<path d="M260.3 173.756H258.2V171.687H260.3V173.756Z" fill="#F7F6F9"/>
<path d="M258.2 177.304H260.3V175.234H258.2V177.304Z" fill="#F7F6F9"/>
<path d="M258.2 180.753H260.3V178.683H258.2V180.753Z" fill="#F7F6F9"/>
<path d="M258.2 184.3H260.3V182.231H258.2V184.3Z" fill="#F7F6F9"/>
<path d="M258.2 187.847H260.3V185.778H258.2V187.847Z" fill="#F7F6F9"/>
<path d="M258.2 191.395H260.3V189.326H258.2V191.395Z" fill="#F7F6F9"/>
<path d="M258.2 194.844H260.3V192.775H258.2V194.844Z" fill="#F7F6F9"/>
<path d="M258.2 198.391H260.3V196.322H258.2V198.391Z" fill="#F7F6F9"/>
<path d="M258.2 201.939H260.3V199.869H258.2V201.939Z" fill="#F7F6F9"/>
<path d="M258.2 205.486H260.3V203.417H258.2V205.486Z" fill="#F7F6F9"/>
<path d="M256.9 145.574H254.8V143.505H256.9V145.574Z" fill="#F7F6F9"/>
<path d="M256.9 149.121H254.8V147.052H256.9V149.121Z" fill="#F7F6F9"/>
<path d="M256.9 152.57H254.8V150.501H256.9V152.57Z" fill="#F7F6F9"/>
<path d="M256.9 156.118H254.8V154.049H256.9V156.118Z" fill="#F7F6F9"/>
<path d="M256.9 159.665H254.8V157.596H256.9V159.665Z" fill="#F7F6F9"/>
<path d="M256.9 163.213H254.8V161.143H256.9V163.213Z" fill="#F7F6F9"/>
<path d="M256.9 166.661H254.8V164.592H256.9V166.661Z" fill="#F7F6F9"/>
<path d="M256.9 170.209H254.8V168.14H256.9V170.209Z" fill="#F7F6F9"/>
<path d="M256.9 173.756H254.8V171.687H256.9V173.756Z" fill="#F7F6F9"/>
<path d="M254.8 177.304H256.9V175.234H254.8V177.304Z" fill="#F7F6F9"/>
<path d="M254.8 180.753H256.9V178.683H254.8V180.753Z" fill="#F7F6F9"/>
<path d="M254.8 184.3H256.9V182.231H254.8V184.3Z" fill="#F7F6F9"/>
<path d="M254.8 187.847H256.9V185.778H254.8V187.847Z" fill="#F7F6F9"/>
<path d="M254.8 191.395H256.9V189.326H254.8V191.395Z" fill="#F7F6F9"/>
<path d="M254.8 194.844H256.9V192.775H254.8V194.844Z" fill="#F7F6F9"/>
<path d="M254.8 198.391H256.9V196.322H254.8V198.391Z" fill="#F7F6F9"/>
<path d="M254.8 201.939H256.9V199.869H254.8V201.939Z" fill="#F7F6F9"/>
<path d="M254.8 205.486H256.9V203.417H254.8V205.486Z" fill="#F7F6F9"/>
<path d="M276.4 171.293H274.3V169.224H276.4V171.293Z" fill="#F7F6F9"/>
<path d="M276.4 174.84H274.3V172.771H276.4V174.84Z" fill="#F7F6F9"/>
<path d="M274.3 178.289H276.4V176.22H274.3V178.289Z" fill="#F7F6F9"/>
<path d="M274.3 181.836H276.4V179.767H274.3V181.836Z" fill="#F7F6F9"/>
<path d="M274.3 185.384H276.4V183.315H274.3V185.384Z" fill="#F7F6F9"/>
<path d="M274.3 188.931H276.4V186.764H274.3V188.931Z" fill="#F7F6F9"/>
<path d="M274.3 192.38H276.4V190.311H274.3V192.38Z" fill="#F7F6F9"/>
<path d="M274.3 195.928H276.4V193.858H274.3V195.928Z" fill="#F7F6F9"/>
<path d="M274.3 199.475H276.4V197.406H274.3V199.475Z" fill="#F7F6F9"/>
<path d="M276.4 203.022H274.3V200.953H276.4V203.022Z" fill="#F7F6F9"/>
<path d="M276.4 206.471H274.3V204.402H276.4V206.471Z" fill="#F7F6F9"/>
<path d="M276.4 210.019H274.3V207.95H276.4V210.019Z" fill="#F7F6F9"/>
<path d="M276.4 213.566H274.3V211.398H276.4V213.566Z" fill="#F7F6F9"/>
<path d="M273 171.293H270.9V169.224H273V171.293Z" fill="#F7F6F9"/>
<path d="M273 174.84H270.9V172.771H273V174.84Z" fill="#F7F6F9"/>
<path d="M270.9 178.289H273V176.22H270.9V178.289Z" fill="#F7F6F9"/>
<path d="M270.9 181.836H273V179.767H270.9V181.836Z" fill="#F7F6F9"/>
<path d="M270.9 185.384H273V183.315H270.9V185.384Z" fill="#F7F6F9"/>
<path d="M270.9 188.931H273V186.764H270.9V188.931Z" fill="#F7F6F9"/>
<path d="M270.9 192.38H273V190.311H270.9V192.38Z" fill="#F7F6F9"/>
<path d="M270.9 195.928H273V193.858H270.9V195.928Z" fill="#F7F6F9"/>
<path d="M270.9 199.475H273V197.406H270.9V199.475Z" fill="#F7F6F9"/>
<path d="M273 203.022H270.9V200.953H273V203.022Z" fill="#F7F6F9"/>
<path d="M273 206.471H270.9V204.402H273V206.471Z" fill="#F7F6F9"/>
<path d="M273 210.019H270.9V207.95H273V210.019Z" fill="#F7F6F9"/>
<path d="M273 213.566H270.9V211.398H273V213.566Z" fill="#F7F6F9"/>
<path d="M269.6 171.293H267.5V169.224H269.6V171.293Z" fill="#F7F6F9"/>
<path d="M269.6 174.84H267.5V172.771H269.6V174.84Z" fill="#F7F6F9"/>
<path d="M267.5 178.289H269.6V176.22H267.5V178.289Z" fill="#F7F6F9"/>
<path d="M267.5 181.836H269.6V179.767H267.5V181.836Z" fill="#F7F6F9"/>
<path d="M267.5 185.384H269.6V183.315H267.5V185.384Z" fill="#F7F6F9"/>
<path d="M267.5 188.931H269.6V186.764H267.5V188.931Z" fill="#F7F6F9"/>
<path d="M267.5 192.38H269.6V190.311H267.5V192.38Z" fill="#F7F6F9"/>
<path d="M267.5 195.928H269.6V193.858H267.5V195.928Z" fill="#F7F6F9"/>
<path d="M267.5 199.475H269.6V197.406H267.5V199.475Z" fill="#F7F6F9"/>
<path d="M269.6 203.022H267.5V200.953H269.6V203.022Z" fill="#F7F6F9"/>
<path d="M269.6 206.471H267.5V204.402H269.6V206.471Z" fill="#F7F6F9"/>
<path d="M269.6 210.019H267.5V207.95H269.6V210.019Z" fill="#F7F6F9"/>
<path d="M269.6 213.566H267.5V211.398H269.6V213.566Z" fill="#F7F6F9"/>
<path d="M269.6 217.114H267.5V215.044H269.6V217.114Z" fill="#F7F6F9"/>
<path d="M250.8 172.278H248.7V170.209H250.8V172.278Z" fill="#F7F6F9"/>
<path d="M250.8 175.826H248.7V173.756H250.8V175.826Z" fill="#F7F6F9"/>
<path d="M250.8 179.373H248.7V177.304H250.8V179.373Z" fill="#F7F6F9"/>
<path d="M250.8 182.921H248.7V180.851H250.8V182.921Z" fill="#F7F6F9"/>
<path d="M248.7 186.369H250.8V184.3H248.7V186.369Z" fill="#F7F6F9"/>
<path d="M248.7 189.917H250.8V187.848H248.7V189.917Z" fill="#F7F6F9"/>
<path d="M248.7 193.464H250.8V191.395H248.7V193.464Z" fill="#F7F6F9"/>
<path d="M248.7 197.012H250.8V194.942H248.7V197.012Z" fill="#F7F6F9"/>
<path d="M248.7 200.461H250.8V198.391H248.7V200.461Z" fill="#F7F6F9"/>
<path d="M248.7 204.008H250.8V201.939H248.7V204.008Z" fill="#F7F6F9"/>
<path d="M248.7 214.552H250.8V212.482H248.7V214.552Z" fill="#F7F6F9"/>
<path d="M247.4 172.278H245.3V170.209H247.4V172.278Z" fill="#F7F6F9"/>
<path d="M247.4 175.826H245.3V173.756H247.4V175.826Z" fill="#F7F6F9"/>
<path d="M247.4 179.373H245.3V177.304H247.4V179.373Z" fill="#F7F6F9"/>
<path d="M247.4 182.921H245.3V180.851H247.4V182.921Z" fill="#F7F6F9"/>
<path d="M247.4 186.369H245.3V184.3H247.4V186.369Z" fill="#F7F6F9"/>
<path d="M245.3 189.917H247.4V187.848H245.3V189.917Z" fill="#F7F6F9"/>
<path d="M245.3 193.464H247.4V191.395H245.3V193.464Z" fill="#F7F6F9"/>
<path d="M245.3 197.012H247.4V194.942H245.3V197.012Z" fill="#F7F6F9"/>
<path d="M245.3 200.461H247.4V198.391H245.3V200.461Z" fill="#F7F6F9"/>
<path d="M245.3 211.103H247.4V209.034H245.3V211.103Z" fill="#F7F6F9"/>
<path d="M245.3 214.552H247.4V212.482H245.3V214.552Z" fill="#F7F6F9"/>
<path d="M244 172.278H241.9V170.209H244V172.278Z" fill="#F7F6F9"/>
<path d="M244 175.826H241.9V173.756H244V175.826Z" fill="#F7F6F9"/>
<path d="M244 179.373H241.9V177.304H244V179.373Z" fill="#F7F6F9"/>
<path d="M244 182.921H241.9V180.851H244V182.921Z" fill="#F7F6F9"/>
<path d="M244 186.369H241.9V184.3H244V186.369Z" fill="#F7F6F9"/>
<path d="M244 189.917H241.9V187.848H244V189.917Z" fill="#F7F6F9"/>
<path d="M241.9 193.464H244V191.395H241.9V193.464Z" fill="#F7F6F9"/>
<path d="M241.9 197.012H244V194.942H241.9V197.012Z" fill="#F7F6F9"/>
<path d="M241.9 207.555H244V205.486H241.9V207.555Z" fill="#F7F6F9"/>
<path d="M241.9 211.103H244V209.034H241.9V211.103Z" fill="#F7F6F9"/>
<path d="M241.9 214.552H244V212.482H241.9V214.552Z" fill="#F7F6F9"/>
<path d="M212.5 118.771H210.4V116.702H212.5V118.771Z" fill="#F7F6F9"/>
<path d="M210.4 122.319H212.5V120.25H210.4V122.319Z" fill="#F7F6F9"/>
<path d="M210.4 125.866H212.5V123.698H210.4V125.866Z" fill="#F7F6F9"/>
<path d="M210.4 129.414H212.5V127.344H210.4V129.414Z" fill="#F7F6F9"/>
<path d="M210.4 132.862H212.5V130.793H210.4V132.862Z" fill="#F7F6F9"/>
<path d="M210.4 136.41H212.5V134.341H210.4V136.41Z" fill="#F7F6F9"/>
<path d="M210.4 139.957H212.5V137.888H210.4V139.957Z" fill="#F7F6F9"/>
<path d="M210.4 143.505H212.5V141.435H210.4V143.505Z" fill="#F7F6F9"/>
<path d="M210.4 146.954H212.5V144.884H210.4V146.954Z" fill="#F7F6F9"/>
<path d="M210.4 150.501H212.5V148.432H210.4V150.501Z" fill="#F7F6F9"/>
<path d="M210.4 154.048H212.5V151.979H210.4V154.048Z" fill="#F7F6F9"/>
<path d="M210.4 157.596H212.5V155.527H210.4V157.596Z" fill="#F7F6F9"/>
<path d="M210.4 161.045H212.5V158.976H210.4V161.045Z" fill="#F7F6F9"/>
<path d="M210.4 164.592H212.5V162.523H210.4V164.592Z" fill="#F7F6F9"/>
<path d="M210.4 168.14H212.5V166.07H210.4V168.14Z" fill="#F7F6F9"/>
<path d="M210.4 171.687H212.5V169.618H210.4V171.687Z" fill="#F7F6F9"/>
<path d="M210.4 175.136H212.5V173.067H210.4V175.136Z" fill="#F7F6F9"/>
<path d="M210.4 182.231H212.5V180.161H210.4V182.231Z" fill="#F7F6F9"/>
<path d="M210.4 185.778H212.5V183.709H210.4V185.778Z" fill="#F7F6F9"/>
<path d="M210.4 189.227H212.5V187.158H210.4V189.227Z" fill="#F7F6F9"/>
<path d="M210.4 192.774H212.5V190.705H210.4V192.774Z" fill="#F7F6F9"/>
<path d="M212.5 196.322H210.4V194.253H212.5V196.322Z" fill="#F7F6F9"/>
<path d="M209.1 118.771H207V116.702H209.1V118.771Z" fill="#F7F6F9"/>
<path d="M207 122.319H209.1V120.25H207V122.319Z" fill="#F7F6F9"/>
<path d="M207 125.866H209.1V123.698H207V125.866Z" fill="#F7F6F9"/>
<path d="M207 129.414H209.1V127.344H207V129.414Z" fill="#F7F6F9"/>
<path d="M207 132.862H209.1V130.793H207V132.862Z" fill="#F7F6F9"/>
<path d="M207 136.41H209.1V134.341H207V136.41Z" fill="#F7F6F9"/>
<path d="M207 139.957H209.1V137.888H207V139.957Z" fill="#F7F6F9"/>
<path d="M207 143.505H209.1V141.435H207V143.505Z" fill="#F7F6F9"/>
<path d="M207 146.954H209.1V144.884H207V146.954Z" fill="#F7F6F9"/>
<path d="M207 150.501H209.1V148.432H207V150.501Z" fill="#F7F6F9"/>
<path d="M207 154.048H209.1V151.979H207V154.048Z" fill="#F7F6F9"/>
<path d="M207 157.596H209.1V155.527H207V157.596Z" fill="#F7F6F9"/>
<path d="M207 161.045H209.1V158.976H207V161.045Z" fill="#F7F6F9"/>
<path d="M207 164.592H209.1V162.523H207V164.592Z" fill="#F7F6F9"/>
<path d="M207 168.14H209.1V166.07H207V168.14Z" fill="#F7F6F9"/>
<path d="M207 171.687H209.1V169.618H207V171.687Z" fill="#F7F6F9"/>
<path d="M207 192.774H209.1V190.705H207V192.774Z" fill="#F7F6F9"/>
<path d="M207 196.322H209.1V194.253H207V196.322Z" fill="#F7F6F9"/>
<path d="M205.8 118.771H203.7V116.702H205.8V118.771Z" fill="#F7F6F9"/>
<path d="M203.6 122.319H205.7V120.25H203.6V122.319Z" fill="#F7F6F9"/>
<path d="M203.6 125.866H205.7V123.698H203.6V125.866Z" fill="#F7F6F9"/>
<path d="M203.6 129.414H205.7V127.344H203.6V129.414Z" fill="#F7F6F9"/>
<path d="M203.6 132.862H205.7V130.793H203.6V132.862Z" fill="#F7F6F9"/>
<path d="M203.6 136.41H205.7V134.341H203.6V136.41Z" fill="#F7F6F9"/>
<path d="M203.6 139.957H205.7V137.888H203.6V139.957Z" fill="#F7F6F9"/>
<path d="M203.6 143.505H205.7V141.435H203.6V143.505Z" fill="#F7F6F9"/>
<path d="M203.6 146.954H205.7V144.884H203.6V146.954Z" fill="#F7F6F9"/>
<path d="M203.6 150.501H205.7V148.432H203.6V150.501Z" fill="#F7F6F9"/>
<path d="M203.6 154.048H205.7V151.979H203.6V154.048Z" fill="#F7F6F9"/>
<path d="M203.6 157.596H205.7V155.527H203.6V157.596Z" fill="#F7F6F9"/>
<path d="M203.6 161.045H205.7V158.976H203.6V161.045Z" fill="#F7F6F9"/>
<path d="M203.6 164.592H205.7V162.523H203.6V164.592Z" fill="#F7F6F9"/>
<path d="M203.6 168.14H205.7V166.07H203.6V168.14Z" fill="#F7F6F9"/>
<path d="M203.6 171.687H205.7V169.618H203.6V171.687Z" fill="#F7F6F9"/>
<path d="M203.6 178.683H205.7V176.614H203.6V178.683Z" fill="#F7F6F9"/>
<path d="M203.6 182.231H205.7V180.161H203.6V182.231Z" fill="#F7F6F9"/>
<path d="M203.6 185.778H205.7V183.709H203.6V185.778Z" fill="#F7F6F9"/>
<path d="M203.6 189.227H205.7V187.158H203.6V189.227Z" fill="#F7F6F9"/>
<path d="M203.6 196.322H205.7V194.253H203.6V196.322Z" fill="#F7F6F9"/>
<path d="M222.7 163.213H224.8V161.143H222.7V163.213Z" fill="#F7F6F9"/>
<path d="M222.7 166.661H224.8V164.592H222.7V166.661Z" fill="#F7F6F9"/>
<path d="M222.7 170.209H224.8V168.14H222.7V170.209Z" fill="#F7F6F9"/>
<path d="M222.7 173.756H224.8V171.687H222.7V173.756Z" fill="#F7F6F9"/>
<path d="M222.7 177.304H224.8V175.234H222.7V177.304Z" fill="#F7F6F9"/>
<path d="M222.7 180.753H224.8V178.683H222.7V180.753Z" fill="#F7F6F9"/>
<path d="M222.7 184.3H224.8V182.231H222.7V184.3Z" fill="#F7F6F9"/>
<path d="M222.7 191.395H224.8V189.326H222.7V191.395Z" fill="#F7F6F9"/>
<path d="M222.7 194.844H224.8V192.775H222.7V194.844Z" fill="#F7F6F9"/>
<path d="M224.8 198.391H222.7V196.322H224.8V198.391Z" fill="#F7F6F9"/>
<path d="M224.8 201.939H222.7V199.869H224.8V201.939Z" fill="#F7F6F9"/>
<path d="M222.7 205.486H224.8V203.417H222.7V205.486Z" fill="#F7F6F9"/>
<path d="M222.7 208.935H224.8V206.865H222.7V208.935Z" fill="#F7F6F9"/>
<path d="M222.7 212.482H224.8V210.413H222.7V212.482Z" fill="#F7F6F9"/>
<path d="M222.7 216.03H224.8V213.961H222.7V216.03Z" fill="#F7F6F9"/>
<path d="M219.3 163.213H221.4V161.143H219.3V163.213Z" fill="#F7F6F9"/>
<path d="M219.3 166.661H221.4V164.592H219.3V166.661Z" fill="#F7F6F9"/>
<path d="M219.3 170.209H221.4V168.14H219.3V170.209Z" fill="#F7F6F9"/>
<path d="M219.3 173.756H221.4V171.687H219.3V173.756Z" fill="#F7F6F9"/>
<path d="M219.3 177.304H221.4V175.234H219.3V177.304Z" fill="#F7F6F9"/>
<path d="M219.3 180.753H221.4V178.683H219.3V180.753Z" fill="#F7F6F9"/>
<path d="M219.3 191.395H221.4V189.326H219.3V191.395Z" fill="#F7F6F9"/>
<path d="M221.4 194.844H219.3V192.775H221.4V194.844Z" fill="#F7F6F9"/>
<path d="M221.4 198.391H219.3V196.322H221.4V198.391Z" fill="#F7F6F9"/>
<path d="M221.4 201.939H219.3V199.869H221.4V201.939Z" fill="#F7F6F9"/>
<path d="M221.4 205.486H219.3V203.417H221.4V205.486Z" fill="#F7F6F9"/>
<path d="M219.3 208.935H221.4V206.865H219.3V208.935Z" fill="#F7F6F9"/>
<path d="M219.3 212.482H221.4V210.413H219.3V212.482Z" fill="#F7F6F9"/>
<path d="M219.3 216.03H221.4V213.961H219.3V216.03Z" fill="#F7F6F9"/>
<path d="M215.9 163.213H218V161.143H215.9V163.213Z" fill="#F7F6F9"/>
<path d="M215.9 166.661H218V164.592H215.9V166.661Z" fill="#F7F6F9"/>
<path d="M215.9 170.209H218V168.14H215.9V170.209Z" fill="#F7F6F9"/>
<path d="M215.9 173.756H218V171.687H215.9V173.756Z" fill="#F7F6F9"/>
<path d="M215.9 177.304H218V175.234H215.9V177.304Z" fill="#F7F6F9"/>
<path d="M215.9 180.753H218V178.683H215.9V180.753Z" fill="#F7F6F9"/>
<path d="M215.9 187.847H218V185.778H215.9V187.847Z" fill="#F7F6F9"/>
<path d="M218.1 191.395H216V189.326H218.1V191.395Z" fill="#F7F6F9"/>
<path d="M218.1 194.844H216V192.775H218.1V194.844Z" fill="#F7F6F9"/>
<path d="M218.1 198.391H216V196.322H218.1V198.391Z" fill="#F7F6F9"/>
<path d="M218.1 201.939H216V199.869H218.1V201.939Z" fill="#F7F6F9"/>
<path d="M218.1 205.486H216V203.417H218.1V205.486Z" fill="#F7F6F9"/>
<path d="M218.1 208.935H216V206.865H218.1V208.935Z" fill="#F7F6F9"/>
<path d="M215.9 212.482H218V210.413H215.9V212.482Z" fill="#F7F6F9"/>
<path d="M215.9 216.03H218V213.961H215.9V216.03Z" fill="#F7F6F9"/>
<path d="M146.7 143.505H144.6V141.435H146.7V143.505Z" fill="#F7F6F9"/>
<path d="M146.7 146.954H144.6V144.884H146.7V146.954Z" fill="#F7F6F9"/>
<path d="M146.7 150.501H144.6V148.432H146.7V150.501Z" fill="#F7F6F9"/>
<path d="M146.7 154.048H144.6V151.979H146.7V154.048Z" fill="#F7F6F9"/>
<path d="M144.5 157.596H146.6V155.527H144.5V157.596Z" fill="#F7F6F9"/>
<path d="M144.5 161.045H146.6V158.976H144.5V161.045Z" fill="#F7F6F9"/>
<path d="M144.5 164.592H146.6V162.523H144.5V164.592Z" fill="#F7F6F9"/>
<path d="M144.5 168.14H146.6V166.07H144.5V168.14Z" fill="#F7F6F9"/>
<path d="M144.5 171.687H146.6V169.618H144.5V171.687Z" fill="#F7F6F9"/>
<path d="M144.5 175.136H146.6V173.067H144.5V175.136Z" fill="#F7F6F9"/>
<path d="M144.5 178.683H146.6V176.614H144.5V178.683Z" fill="#F7F6F9"/>
<path d="M144.5 182.231H146.6V180.161H144.5V182.231Z" fill="#F7F6F9"/>
<path d="M144.5 185.778H146.6V183.709H144.5V185.778Z" fill="#F7F6F9"/>
<path d="M144.5 192.774H146.6V190.705H144.5V192.774Z" fill="#F7F6F9"/>
<path d="M144.5 196.322H146.6V194.253H144.5V196.322Z" fill="#F7F6F9"/>
<path d="M144.5 199.869H146.6V197.8H144.5V199.869Z" fill="#F7F6F9"/>
<path d="M144.5 203.318H146.6V201.249H144.5V203.318Z" fill="#F7F6F9"/>
<path d="M144.5 210.413H146.6V208.344H144.5V210.413Z" fill="#F7F6F9"/>
<path d="M144.5 213.96H146.6V211.891H144.5V213.96Z" fill="#F7F6F9"/>
<path d="M144.5 217.409H146.6V215.34H144.5V217.409Z" fill="#F7F6F9"/>
<path d="M143.3 143.505H141.2V141.435H143.3V143.505Z" fill="#F7F6F9"/>
<path d="M143.3 146.954H141.2V144.884H143.3V146.954Z" fill="#F7F6F9"/>
<path d="M143.3 150.501H141.2V148.432H143.3V150.501Z" fill="#F7F6F9"/>
<path d="M143.3 154.048H141.2V151.979H143.3V154.048Z" fill="#F7F6F9"/>
<path d="M143.3 157.596H141.2V155.527H143.3V157.596Z" fill="#F7F6F9"/>
<path d="M141.2 161.045H143.3V158.976H141.2V161.045Z" fill="#F7F6F9"/>
<path d="M141.2 164.592H143.3V162.523H141.2V164.592Z" fill="#F7F6F9"/>
<path d="M141.2 168.14H143.3V166.07H141.2V168.14Z" fill="#F7F6F9"/>
<path d="M141.2 171.687H143.3V169.618H141.2V171.687Z" fill="#F7F6F9"/>
<path d="M141.2 175.136H143.3V173.067H141.2V175.136Z" fill="#F7F6F9"/>
<path d="M141.2 178.683H143.3V176.614H141.2V178.683Z" fill="#F7F6F9"/>
<path d="M141.2 182.231H143.3V180.161H141.2V182.231Z" fill="#F7F6F9"/>
<path d="M141.2 185.778H143.3V183.709H141.2V185.778Z" fill="#F7F6F9"/>
<path d="M141.2 196.322H143.3V194.253H141.2V196.322Z" fill="#F7F6F9"/>
<path d="M141.2 199.869H143.3V197.8H141.2V199.869Z" fill="#F7F6F9"/>
<path d="M141.2 206.866H143.3V204.796H141.2V206.866Z" fill="#F7F6F9"/>
<path d="M141.2 210.413H143.3V208.344H141.2V210.413Z" fill="#F7F6F9"/>
<path d="M141.2 213.96H143.3V211.891H141.2V213.96Z" fill="#F7F6F9"/>
<path d="M141.2 217.409H143.3V215.34H141.2V217.409Z" fill="#F7F6F9"/>
<path d="M139.9 143.505H137.8V141.435H139.9V143.505Z" fill="#F7F6F9"/>
<path d="M139.9 146.954H137.8V144.884H139.9V146.954Z" fill="#F7F6F9"/>
<path d="M139.9 150.501H137.8V148.432H139.9V150.501Z" fill="#F7F6F9"/>
<path d="M139.9 154.048H137.8V151.979H139.9V154.048Z" fill="#F7F6F9"/>
<path d="M139.9 157.596H137.8V155.527H139.9V157.596Z" fill="#F7F6F9"/>
<path d="M139.9 161.045H137.8V158.976H139.9V161.045Z" fill="#F7F6F9"/>
<path d="M137.8 164.592H139.9V162.523H137.8V164.592Z" fill="#F7F6F9"/>
<path d="M137.8 168.14H139.9V166.07H137.8V168.14Z" fill="#F7F6F9"/>
<path d="M137.8 171.687H139.9V169.618H137.8V171.687Z" fill="#F7F6F9"/>
<path d="M137.8 175.136H139.9V173.067H137.8V175.136Z" fill="#F7F6F9"/>
<path d="M137.8 178.683H139.9V176.614H137.8V178.683Z" fill="#F7F6F9"/>
<path d="M137.8 182.231H139.9V180.161H137.8V182.231Z" fill="#F7F6F9"/>
<path d="M137.8 185.778H139.9V183.709H137.8V185.778Z" fill="#F7F6F9"/>
<path d="M137.8 189.227H139.9V187.158H137.8V189.227Z" fill="#F7F6F9"/>
<path d="M137.8 196.322H139.9V194.253H137.8V196.322Z" fill="#F7F6F9"/>
<path d="M137.8 203.318H139.9V201.249H137.8V203.318Z" fill="#F7F6F9"/>
<path d="M137.8 206.866H139.9V204.796H137.8V206.866Z" fill="#F7F6F9"/>
<path d="M137.8 210.413H139.9V208.344H137.8V210.413Z" fill="#F7F6F9"/>
<path d="M137.8 213.96H139.9V211.891H137.8V213.96Z" fill="#F7F6F9"/>
<path d="M137.8 217.409H139.9V215.34H137.8V217.409Z" fill="#F7F6F9"/>
<path d="M158.3 163.508H160.4V161.439H158.3V163.508Z" fill="#F7F6F9"/>
<path d="M158.3 167.056H160.4V164.986H158.3V167.056Z" fill="#F7F6F9"/>
<path d="M158.3 170.603H160.4V168.534H158.3V170.603Z" fill="#F7F6F9"/>
<path d="M158.3 174.151H160.4V171.983H158.3V174.151Z" fill="#F7F6F9"/>
<path d="M158.3 177.599H160.4V175.53H158.3V177.599Z" fill="#F7F6F9"/>
<path d="M158.3 181.147H160.4V179.077H158.3V181.147Z" fill="#F7F6F9"/>
<path d="M158.3 191.69H160.4V189.621H158.3V191.69Z" fill="#F7F6F9"/>
<path d="M158.3 195.238H160.4V193.169H158.3V195.238Z" fill="#F7F6F9"/>
<path d="M158.3 198.785H160.4V196.716H158.3V198.785Z" fill="#F7F6F9"/>
<path d="M158.3 202.333H160.4V200.263H158.3V202.333Z" fill="#F7F6F9"/>
<path d="M158.3 205.782H160.4V203.712H158.3V205.782Z" fill="#F7F6F9"/>
<path d="M158.3 209.329H160.4V207.26H158.3V209.329Z" fill="#F7F6F9"/>
<path d="M158.3 212.876H160.4V210.807H158.3V212.876Z" fill="#F7F6F9"/>
<path d="M155 163.508H157.1V161.439H155V163.508Z" fill="#F7F6F9"/>
<path d="M155 167.056H157.1V164.986H155V167.056Z" fill="#F7F6F9"/>
<path d="M155 170.603H157.1V168.534H155V170.603Z" fill="#F7F6F9"/>
<path d="M155 174.151H157.1V171.983H155V174.151Z" fill="#F7F6F9"/>
<path d="M155 177.599H157.1V175.53H155V177.599Z" fill="#F7F6F9"/>
<path d="M155 181.147H157.1V179.077H155V181.147Z" fill="#F7F6F9"/>
<path d="M155 191.69H157.1V189.621H155V191.69Z" fill="#F7F6F9"/>
<path d="M155 195.238H157.1V193.169H155V195.238Z" fill="#F7F6F9"/>
<path d="M155 198.785H157.1V196.716H155V198.785Z" fill="#F7F6F9"/>
<path d="M155 202.333H157.1V200.263H155V202.333Z" fill="#F7F6F9"/>
<path d="M155 205.782H157.1V203.712H155V205.782Z" fill="#F7F6F9"/>
<path d="M155 209.329H157.1V207.26H155V209.329Z" fill="#F7F6F9"/>
<path d="M155 216.424H157.1V214.355H155V216.424Z" fill="#F7F6F9"/>
<path d="M44.6 148.038H42.5V145.968H44.6V148.038Z" fill="#F7F6F9"/>
<path d="M44.6 151.585H42.5V149.516H44.6V151.585Z" fill="#F7F6F9"/>
<path d="M44.6 155.034H42.5V152.964H44.6V155.034Z" fill="#F7F6F9"/>
<path d="M44.6 158.581H42.5V156.512H44.6V158.581Z" fill="#F7F6F9"/>
<path d="M44.6 162.129H42.5V160.059H44.6V162.129Z" fill="#F7F6F9"/>
<path d="M44.6 165.676H42.5V163.607H44.6V165.676Z" fill="#F7F6F9"/>
<path d="M44.6 169.125H42.5V167.056H44.6V169.125Z" fill="#F7F6F9"/>
<path d="M44.6 172.673H42.5V170.603H44.6V172.673Z" fill="#F7F6F9"/>
<path d="M44.6 176.22H42.5V174.15H44.6V176.22Z" fill="#F7F6F9"/>
<path d="M44.6 179.767H42.5V177.698H44.6V179.767Z" fill="#F7F6F9"/>
<path d="M44.6 183.216H42.5V181.147H44.6V183.216Z" fill="#F7F6F9"/>
<path d="M44.6 190.311H42.5V188.242H44.6V190.311Z" fill="#F7F6F9"/>
<path d="M44.6 193.858H42.5V191.691H44.6V193.858Z" fill="#F7F6F9"/>
<path d="M42.4 197.307H44.5V195.238H42.4V197.307Z" fill="#F7F6F9"/>
<path d="M42.4 200.855H44.5V198.785H42.4V200.855Z" fill="#F7F6F9"/>
<path d="M42.4 204.402H44.5V202.333H42.4V204.402Z" fill="#F7F6F9"/>
<path d="M42.4 207.949H44.5V205.88H42.4V207.949Z" fill="#F7F6F9"/>
<path d="M42.4 211.398H44.5V209.329H42.4V211.398Z" fill="#F7F6F9"/>
<path d="M42.4 214.946H44.5V212.876H42.4V214.946Z" fill="#F7F6F9"/>
<path d="M41.2 148.038H39V145.968H41.1V148.038H41.2Z" fill="#F7F6F9"/>
<path d="M41.2 151.585H39V149.516H41.1V151.585H41.2Z" fill="#F7F6F9"/>
<path d="M41.2 155.034H39V152.964H41.1V155.034H41.2Z" fill="#F7F6F9"/>
<path d="M41.2 158.581H39V156.512H41.1V158.581H41.2Z" fill="#F7F6F9"/>
<path d="M41.2 162.129H39V160.059H41.1V162.129H41.2Z" fill="#F7F6F9"/>
<path d="M41.2 165.676H39V163.607H41.1V165.676H41.2Z" fill="#F7F6F9"/>
<path d="M41.2 169.125H39V167.056H41.1V169.125H41.2Z" fill="#F7F6F9"/>
<path d="M41.2 172.673H39V170.603H41.1V172.673H41.2Z" fill="#F7F6F9"/>
<path d="M41.2 176.22H39V174.15H41.1V176.22H41.2Z" fill="#F7F6F9"/>
<path d="M41.2 179.767H39V177.698H41.1V179.767H41.2Z" fill="#F7F6F9"/>
<path d="M41.2 183.216H39V181.147H41.1V183.216H41.2Z" fill="#F7F6F9"/>
<path d="M41.2 186.763H39V184.694H41.1V186.763H41.2Z" fill="#F7F6F9"/>
<path d="M41.2 190.311H39V188.242H41.1V190.311H41.2Z" fill="#F7F6F9"/>
<path d="M41.2 193.858H39V191.691H41.1V193.858H41.2Z" fill="#F7F6F9"/>
<path d="M41.2 197.307H39V195.238H41.1V197.307H41.2Z" fill="#F7F6F9"/>
<path d="M39 200.855H41.1V198.785H39V200.855Z" fill="#F7F6F9"/>
<path d="M39 204.402H41.1V202.333H39V204.402Z" fill="#F7F6F9"/>
<path d="M39 207.949H41.1V205.88H39V207.949Z" fill="#F7F6F9"/>
<path d="M39 211.398H41.1V209.329H39V211.398Z" fill="#F7F6F9"/>
<path d="M39 214.946H41.1V212.876H39V214.946Z" fill="#F7F6F9"/>
<path d="M61.3 161.735H59.2V159.665H61.3V161.735Z" fill="#F7F6F9"/>
<path d="M61.3 165.282H59.2V163.213H61.3V165.282Z" fill="#F7F6F9"/>
<path d="M61.3 168.829H59.2V166.76H61.3V168.829Z" fill="#F7F6F9"/>
<path d="M61.3 172.278H59.2V170.209H61.3V172.278Z" fill="#F7F6F9"/>
<path d="M61.3 175.826H59.2V173.756H61.3V175.826Z" fill="#F7F6F9"/>
<path d="M61.3 179.373H59.2V177.304H61.3V179.373Z" fill="#F7F6F9"/>
<path d="M61.3 182.921H59.2V180.851H61.3V182.921Z" fill="#F7F6F9"/>
<path d="M59.1 186.369H61.2V184.3H59.1V186.369Z" fill="#F7F6F9"/>
<path d="M59.1 189.917H61.2V187.848H59.1V189.917Z" fill="#F7F6F9"/>
<path d="M59.1 193.464H61.2V191.395H59.1V193.464Z" fill="#F7F6F9"/>
<path d="M57.9 161.735H55.8V159.665H57.9V161.735Z" fill="#F7F6F9"/>
<path d="M57.9 165.282H55.8V163.213H57.9V165.282Z" fill="#F7F6F9"/>
<path d="M57.9 168.829H55.8V166.76H57.9V168.829Z" fill="#F7F6F9"/>
<path d="M57.9 172.278H55.8V170.209H57.9V172.278Z" fill="#F7F6F9"/>
<path d="M57.9 175.826H55.8V173.756H57.9V175.826Z" fill="#F7F6F9"/>
<path d="M57.9 179.373H55.8V177.304H57.9V179.373Z" fill="#F7F6F9"/>
<path d="M57.9 182.921H55.8V180.851H57.9V182.921Z" fill="#F7F6F9"/>
<path d="M55.7 186.369H57.8V184.3H55.7V186.369Z" fill="#F7F6F9"/>
<path d="M55.7 189.917H57.8V187.848H55.7V189.917Z" fill="#F7F6F9"/>
<path d="M288.4 249.139C288.4 253.672 224.5 257.318 145.6 257.318C66.7 257.318 2.79999 253.672 2.79999 249.139C2.79999 244.606 66.7 240.96 145.6 240.96C224.4 240.96 288.4 244.606 288.4 249.139Z" fill="#FAFAFB"/>
<path d="M142.2 117.688L143.4 119.166L25.8 211.596L30.8 217.705L31.5 218.592L149.2 126.26L150.4 127.739L152.6 117.786L142.2 117.688Z" fill="#9C90B7"/>
<path d="M41.2 210.807C40 209.526 38.3 208.836 36.4 208.836H36.3C36.3 207.161 35.7 205.683 34.7 204.501L87.4 163.114C87.1 163.902 86.8 164.592 86.6 165.381C84.4 171.194 82.2 176.614 80.2 180.26L70.1 188.242L68.6 189.424L65.6 191.789L65.2 192.085L43.2 209.329L42.5 209.92L41.2 210.807ZM102 163.114C103.3 160.158 104.5 157.103 105.6 154.344C106.4 152.472 107.1 150.698 107.7 149.122L117.9 150.6L116.2 151.979L116.1 152.078L102 163.114ZM132.7 139.071C129 137.987 124.9 137.1 121.5 136.41L143.5 119.166L142.3 117.688H152.7L150.5 127.64L149.3 126.162L149.2 126.26L149 126.359L140.3 133.158L140.1 133.257L132.7 139.071Z" fill="#E3E0EB"/>
<path d="M8.40002 218.001C8.40002 215.931 10.1 214.158 12.3 214.158C12.7 214.158 13.1 214.256 13.4 214.355C13.3 213.96 13.3 213.566 13.3 213.172C13.3 208.738 17 205.092 21.5 205.092C22 205.092 22.5 205.19 23 205.19C24.3 203.121 26.5 201.84 29.1 201.84C33 201.84 36.2 204.993 36.3 208.836H36.4C40.1 208.836 43 211.793 43 215.34C43 218.887 40 221.844 36.4 221.844H12.2C10.1 221.745 8.40002 220.07 8.40002 218.001Z" fill="#9C90B7"/>
<path d="M36.5 221.844H12.2C10.1 221.745 8.40002 220.07 8.40002 218.001C8.40002 215.931 10.1 214.158 12.3 214.158C12.7 214.158 13.1 214.256 13.4 214.355C13.3 213.96 13.3 213.566 13.3 213.172C13.3 208.738 17 205.092 21.5 205.092C22 205.092 22.5 205.19 23 205.19C24.3 203.121 26.5 201.84 29.1 201.84C33 201.84 36.2 204.993 36.3 208.836H36.4C40.1 208.836 43 211.793 43 215.34C43 218.887 40.1 221.844 36.5 221.844Z" fill="#EFEDF3"/>
<path d="M255.1 176.22L258 179.767L203.3 223.322L215.2 237.807L216.8 239.778L271.5 196.223L274.4 199.771L279.6 176.023L255.1 176.22Z" fill="#9C90B7"/>
<path d="M232.1 227.657C231.4 224.504 228.8 222.139 225.6 221.745C223.4 218.296 219.5 215.931 215 215.931C214.1 215.931 213.1 216.03 212.2 216.227L236.8 196.716H244L245.5 189.72L258 179.767L255.1 176.22H279.7L276.4 191.296L276.2 192.479L275.9 193.858L275.4 195.928L275.1 197.307L274.6 199.377L274.5 199.771L273 197.997L272.4 197.307L271.5 196.223L269.6 197.8L267.5 199.475L262.6 203.417L261.5 204.304L260.2 205.289L260 205.486L250.8 212.877L248.7 214.552L236.1 224.603L236 224.701L235.8 224.898L232.1 227.657Z" fill="#D0CADD"/>
<path d="M225.5 221.745C223.3 218.296 219.4 215.931 214.9 215.931C210.4 215.931 206.4 218.296 204.2 221.844C203.6 221.647 203 221.548 202.4 221.548C198.7 221.548 195.7 224.504 195.7 228.15H192.2C190.4 228.15 188.9 229.628 188.9 231.402C188.9 233.176 190.4 234.654 192.2 234.654H204.4C206.6 238.103 210.5 240.369 214.9 240.369C218.4 240.369 221.6 238.989 223.8 236.625C224 236.625 224.2 236.625 224.4 236.625C228.7 236.625 232.1 233.176 232.1 229.037C232.2 225.391 229.3 222.238 225.5 221.745Z" fill="#9C90B7"/>
<path d="M215 240.566C210.6 240.566 206.7 238.3 204.5 234.851H192.3C190.5 234.851 189 233.373 189 231.599C189 229.825 190.5 228.347 192.3 228.347H195.8C195.8 224.701 198.8 221.745 202.5 221.745C203.1 221.745 203.7 221.844 204.3 222.041C206.5 218.493 210.4 216.128 215 216.128C219.5 216.128 223.4 218.493 225.6 221.942C229.4 222.435 232.3 225.588 232.3 229.53C232.3 233.767 228.8 237.117 224.6 237.117C224.4 237.117 224.2 237.117 224 237.117C221.6 239.187 218.5 240.566 215 240.566Z" fill="#EFEDF3"/>
<path d="M143.4 74.4287L142.3 73.3447C142 73.0491 141.6 72.9506 141.2 72.9506L139.6 73.2462C139.1 73.3447 138.7 73.7389 138.6 74.2316L137.8 80.8337L140.3 81.7206C143.3 80.4396 143.1 76.498 143.1 76.498L143.5 75.7097C143.9 75.414 143.8 74.8228 143.4 74.4287Z" fill="#CEC8DC"/>
<path d="M113.7 94.1365C113.7 94.1365 116.1 94.2351 117.4 94.2351C118.8 94.2351 120.2 94.2351 121.6 94.1365C123 94.038 124.3 93.9395 125.6 93.7424C126.2 93.6438 126.8 93.5453 127.3 93.4468C127.5 93.3482 127.7 93.3482 127.8 93.2497C127.9 93.2497 127.9 93.2497 127.9 93.2497C128.1 93.0526 128.6 92.5599 129 92.0672C129.4 91.5745 129.8 90.9833 130.2 90.4906C131 89.4067 131.8 88.2242 132.6 87.0417L137.4 80.0454L141.2 82.0162C140.6 83.3957 140 84.6768 139.4 85.9578C138.8 87.2388 138.1 88.6183 137.5 89.8993C136.8 91.1804 136.1 92.4614 135.4 93.7424C135 94.4322 134.6 95.0234 134.2 95.7132C133.8 96.4029 133.3 96.9942 132.6 97.881C132.2 98.3737 131.4 98.8664 130.9 99.162C130.4 99.4577 129.9 99.6547 129.4 99.8518C128.5 100.147 127.7 100.345 126.9 100.542C125.3 100.936 123.8 101.133 122.2 101.231C119.1 101.527 116.2 101.626 113.2 101.527L113.7 94.1365Z" fill="#9C90B7"/>
<path d="M120.2 101.33C120.8 101.33 121.5 101.231 122.1 101.133C121.5 101.231 120.8 101.231 120.2 101.33ZM129.4 99.7534C129.6 99.6549 129.9 99.5563 130.1 99.4578C129.8 99.5563 129.6 99.6549 129.4 99.7534Z" fill="#FCFBFD"/>
<path d="M132.1 98.1767C132.2 98.0782 132.3 97.9796 132.4 97.8811C132.6 97.684 132.8 97.4869 132.9 97.2899C132.7 97.4869 132.6 97.684 132.4 97.8811C132.4 97.9796 132.3 98.0782 132.1 98.1767ZM134.8 94.7278C134.9 94.6293 134.9 94.5308 135 94.3337C134.9 94.4322 134.8 94.5308 134.8 94.7278ZM121.6 94.1366C121.9 94.1366 122.2 94.1366 122.4 94.0381C122.1 94.0381 121.8 94.0381 121.6 94.1366ZM126.9 93.5454C127 93.5454 127.1 93.5454 127.2 93.4468C127.1 93.4468 127 93.4468 126.9 93.5454ZM129.5 91.279C129.7 90.9833 129.9 90.6877 130.1 90.4906C129.9 90.7863 129.7 90.9833 129.5 91.279Z" fill="white"/>
<path d="M139.7 85.0709C139.7 84.9724 139.8 84.8738 139.8 84.8738C139.8 84.8738 139.8 84.9724 139.7 85.0709Z" fill="#FDFDFE"/>
<path d="M120.2 101.33C118.7 99.6547 116.7 99.0635 115.3 98.7679C114.5 95.7132 113.7 94.1365 113.6 94.038C113.6 94.038 114.2 94.038 114.9 94.1365C115.5 94.1365 116.2 94.1365 116.8 94.1365C116.9 94.1365 117 94.1365 117.1 94.1365C117.2 94.1365 117.3 94.1365 117.3 94.1365C118.7 94.1365 120.1 94.1365 121.5 94.038C121.8 94.038 122.1 94.038 122.3 93.9395C123.2 93.8409 124 93.8409 124.8 93.7424C125 93.7424 125.2 93.7424 125.4 93.6438C125.5 93.6438 125.6 93.6438 125.7 93.6438C126.1 93.5453 126.5 93.5453 126.8 93.4468C126.9 93.4468 127 93.4468 127.1 93.3482H127.2C127.4 93.3482 127.5 93.2497 127.6 93.2497H127.7C127.9 93.0526 128.4 92.5599 128.8 92.0672C129 91.7716 129.2 91.5745 129.4 91.2789C129.6 90.9833 129.8 90.6877 130 90.4906C130.6 89.7023 131.2 88.8154 131.8 87.9286C132 87.6329 132.2 87.3373 132.4 87.0417L137.2 80.0454L141 82.0162C140.6 83.0016 140.2 83.8884 139.8 84.8738C139.8 84.9724 139.7 85.0709 139.7 85.0709C139.6 85.3665 139.4 85.6622 139.3 85.9578C139.2 86.2534 139 86.549 138.9 86.8446C138.4 87.83 137.9 88.914 137.4 89.8993C136.7 91.1804 136.1 92.4614 135.3 93.7424C135.2 93.9395 135.1 94.1365 135 94.3336C134.9 94.4322 134.9 94.5307 134.8 94.7278C134.6 95.0234 134.4 95.4176 134.2 95.7132C133.9 96.2059 133.6 96.6986 133.1 97.2898C132.9 97.4869 132.8 97.684 132.6 97.881C132.5 97.9796 132.4 98.0781 132.3 98.1767C131.9 98.5708 131.3 98.8664 131 99.0635C130.7 99.162 130.5 99.3591 130.3 99.4577C130 99.5562 129.8 99.6547 129.6 99.7533C129.2 99.9504 128.7 100.049 128.3 100.147C127.9 100.246 127.4 100.345 127 100.443C126.4 100.542 125.8 100.64 125.2 100.739C124.2 100.936 123.3 101.034 122.3 101.133C121.5 101.231 120.8 101.231 120.2 101.33Z" fill="#E3E0EB"/>
<path d="M115.9 101.527C115.7 100.542 115.5 99.6548 115.3 98.8665C116.7 99.1621 118.6 99.7534 120.2 101.429C119.6 101.429 118.9 101.527 118.3 101.527C117.5 101.429 116.7 101.527 115.9 101.527Z" fill="#D5D0E0"/>
<path d="M74.3 224.307C74.3 224.307 67.6 219.774 68 216.719C68 216.424 67.9 216.128 67.5 216.128L61.8 215.241C61.5 215.241 61.3 215.34 61.1 215.537L57.8 220.168L59.3 220.661L60.1 220.07L60.5 221.055C68.6 223.913 72.2 225.095 74 225.194C74.5 224.701 74.3 224.307 74.3 224.307Z" fill="#5D4989"/>
<path d="M111.8 138.972C111.8 138.972 111.5 139.859 110.9 141.337C110.3 143.012 109.3 145.377 108.2 148.136C107.4 150.008 106.6 152.078 105.7 154.344C101.5 164.494 96.2 177.107 92.6 183.512C85.8 195.731 68 218.789 68 218.789L60.9 216.227C60.9 216.227 73.7 192.38 80.1 180.359C82.1 176.713 84.3 171.293 86.6 165.381C87.7 162.523 88.7 159.665 89.8 156.709C90.3 155.428 90.7 154.049 91.2 152.768C92.4 149.417 93.5 146.067 94.4 143.209C94.5 142.815 94.6 142.519 94.8 142.125C95.2 140.943 95.6 139.76 95.9 138.775C97.3 134.439 98.1 131.68 98.2 131.582L104.5 134.932L111.8 138.972Z" fill="#6D5B95"/>
<path d="M89.8 156.709C90.3 155.428 90.7 154.049 91.2 152.768C92 150.403 92.8 148.038 93.5 145.87C96.8 147.742 100.5 148.136 101.8 148.235C102.1 148.235 102.3 148.235 102.3 148.235L107.8 149.023C107.1 150.698 106.4 152.373 105.7 154.246C99.9 155.527 94 156.315 89.8 156.709Z" fill="#65528F"/>
<path d="M89.2 97.9797C90.2 101.33 90.8 105.272 91.2 109.213C91.5 112.268 91.6 115.224 91.6 117.885C91.6 120.545 91.5 122.91 91.4 124.782C91.3 127.147 91.1 128.527 91.1 128.527L113.5 129.611C120.2 105.666 113.7 94.1366 113.7 94.1366C113.7 94.1366 110.9 93.841 107.7 94.0381C107.3 94.0381 106.9 94.0381 106.4 94.1366C103.7 94.3337 99.3 95.2206 96.4 95.9103C95.8 96.0089 95.2 96.2059 94.6 96.3045C91.7 96.9943 89.2 97.9797 89.2 97.9797Z" fill="#9C90B7"/>
<path d="M113.5 129.217C113.8 128.034 114.1 126.95 114.4 125.768C114.2 126.95 113.9 128.133 113.5 129.217ZM114.9 123.698C115.5 120.644 116 117.786 116.2 115.224C116 117.885 115.5 120.644 114.9 123.698ZM116.4 113.155C116.4 112.662 116.5 112.169 116.5 111.775C116.4 112.169 116.4 112.662 116.4 113.155ZM116.5 109.607C116.5 109.115 116.5 108.622 116.5 108.228C116.5 108.72 116.5 109.213 116.5 109.607Z" fill="#FCFBFD"/>
<path d="M116.5 108.228C116.5 107.538 116.5 106.75 116.4 106.158C116.4 106.848 116.5 107.538 116.5 108.228Z" fill="#FDFDFE"/>
<path d="M116.2 115.323C116.3 114.633 116.3 113.943 116.4 113.253C116.3 113.844 116.3 114.534 116.2 115.323Z" fill="#FDFDFE"/>
<path d="M114.4 125.866C114.6 125.176 114.7 124.487 114.9 123.797C114.7 124.388 114.6 125.176 114.4 125.866Z" fill="#FDFDFE"/>
<path d="M115.3 98.7679C114.5 95.6147 113.6 94.038 113.6 94.038C113.7 94.1366 114.6 95.7132 115.3 98.7679Z" fill="#F9F8FA"/>
<path d="M115.9 101.527C115.7 100.542 115.5 99.6548 115.3 98.8665C115.5 99.5563 115.7 100.542 115.9 101.527Z" fill="#F4F2F7"/>
<path d="M91.3 124.388C91.3 123.797 91.4 123.107 91.4 122.417C91.4 121.432 91.5 120.348 91.5 119.166C91.5 121.136 91.4 122.91 91.3 124.388ZM91.5 116.702C91.5 116.209 91.5 115.717 91.5 115.224C91.5 115.125 91.5 114.928 91.5 114.83C91.5 115.52 91.5 116.111 91.5 116.702ZM92.2 96.8956C92.9 96.6985 93.8 96.4029 94.6 96.2058C95.1 96.1072 95.7 95.9102 96.3 95.8116C95.7 95.9102 95.2 96.1072 94.6 96.2058C93.7 96.5014 92.9 96.6985 92.2 96.8956Z" fill="white"/>
<path d="M113.5 129.217L91.3 124.881C91.3 124.782 91.3 124.684 91.3 124.585C91.3 124.487 91.3 124.388 91.3 124.29C91.4 122.812 91.4 121.038 91.4 119.067C91.4 118.673 91.4 118.18 91.4 117.786C91.4 117.392 91.4 117.096 91.4 116.702C91.4 116.111 91.4 115.52 91.4 114.928C91.4 113.549 91.3 112.169 91.2 110.691C91.2 110.593 91.2 110.593 91.3 110.494C95.1 108.917 101.4 105.666 104.6 99.8519L106.4 97.8811L108.4 98.7679L107.6 94.7278L106.4 94.0381H106.5C106.9 94.0381 107.3 93.9395 107.6 93.9395C108.3 93.9395 108.9 93.9395 109.5 93.9395C110.1 93.9395 110.6 93.9395 111.1 93.9395C112.6 93.9395 113.6 94.0381 113.6 94.1366C113.6 94.1366 114.5 95.7132 115.3 98.8665C115.5 99.6548 115.7 100.542 115.9 101.527C116.1 102.907 116.3 104.385 116.4 106.158C116.4 106.848 116.5 107.538 116.5 108.228C116.5 108.72 116.5 109.115 116.5 109.607C116.5 110.297 116.5 110.987 116.5 111.677C116.5 112.169 116.5 112.662 116.4 113.056C116.4 113.746 116.3 114.436 116.2 115.125C116 117.687 115.5 120.545 114.9 123.6C114.8 124.29 114.6 124.979 114.4 125.669C114.2 126.95 113.9 128.133 113.5 129.217ZM91.8 107.242C91.9 105.074 91.6 103.399 91.6 103.399C91.6 103.202 91.6 102.907 91.6 102.611C91.6 102.217 91.6 101.921 91.5 101.429C91.2 98.5709 89.3 97.8811 89.3 97.8811C89.2 97.8811 89.2 97.9796 89.1 97.9796C89.1 97.9796 89.1 97.9796 89.1 97.8811C89.2 97.8811 90.4 97.3884 92.1 96.7971C92.8 96.6001 93.7 96.3045 94.5 96.1074C95.1 96.0088 95.6 95.8118 96.2 95.7132L100.9 100.049L102.4 98.6694L103 99.6548C103.1 99.7533 99.3 104.385 91.8 107.242Z" fill="#E3E0EB"/>
<path d="M127.3 186.961C127.3 186.961 120.9 182.034 121.5 179.078C121.6 178.782 121.4 178.486 121.1 178.486L115.5 177.304C115.2 177.205 115 177.304 114.8 177.599L111.2 182.034L112.7 182.625L113.5 182.132L113.8 183.118C121.8 186.468 125.2 187.848 127 188.045C127.5 187.355 127.3 186.961 127.3 186.961Z" fill="#5D4989"/>
<path d="M101.8 148.333C102.1 148.333 102.3 148.333 102.3 148.333L129.1 152.176L113.8 177.107L121.4 179.964C121.4 179.964 149.1 150.6 142.9 143.899C137.8 138.381 112.9 135.03 112.9 135.03L113.7 129.315L90.7 124.881C80.9 146.067 98.5 148.136 101.8 148.333Z" fill="#6D5B95"/>
<path d="M90.5 127.049L90 126.95L90.4 125.373L90.8 125.472L90.5 127.049Z" fill="#6D5B95"/>
<path d="M108.6 130.596L98.8 128.724L99.2 127.147L109 129.019L108.6 130.596Z" fill="#6D5B95"/>
<path d="M109.7 129.118L113.9 129.906L113.6 131.483L109.4 130.695L109.7 129.118Z" fill="#6D5B95"/>
<path d="M91.7 125.669L98.5 126.95L98.1 128.527L91.4 127.246L91.7 125.669Z" fill="#6D5B95"/>
<path d="M90.5 127.049L90 126.95L90.4 125.373L90.8 125.472L90.5 127.049Z" fill="#897AA9"/>
<path d="M108.6 130.596L98.8 128.724L99.2 127.147L109 129.019L108.6 130.596Z" fill="#897AA9"/>
<path d="M113.6 131.483L109.4 130.695L109.7 129.118L113.9 129.906L113.6 131.483Z" fill="#897AA9"/>
<path d="M98 128.527L91.3 127.246L91.7 125.669L98.5 126.95L98 128.527Z" fill="#897AA9"/>
<path d="M105.9 128.724H105.7L105.5 129.709L105.4 129.808L102.9 129.414L102.8 129.315L103 128.33L103.1 128.231L105.5 128.724L105.6 128.822L105.9 128.724H106.1V128.625C106.1 128.428 105.9 128.133 105.7 128.133L103.3 127.64H103.2C103 127.64 102.8 127.837 102.7 128.034L102.5 129.019V129.118C102.5 129.315 102.7 129.611 102.9 129.611L105.4 130.005H105.5C105.7 130.005 105.9 129.808 106 129.611L106.2 128.625L105.9 128.724Z" fill="white"/>
<path d="M103.9 128.625L103.1 128.527C103 128.527 102.9 128.625 102.8 128.724C102.8 128.822 102.9 128.921 103 129.019L103.8 129.118C103.9 129.118 104 129.019 104.1 128.921C104.1 128.724 104 128.625 103.9 128.625Z" fill="white"/>
<path d="M98.7 85.7607L104.5 90.4906C103.9 92.8556 104.9 95.0234 106.1 95.4176C106.1 95.4176 107 97.3884 105.3 97.7825C102 98.4723 98.2 95.3191 98.2 95.3191C100 93.4468 99.3 88.7169 98.7 85.7607Z" fill="#D0CADD"/>
<path d="M104.3 92.1657C103 91.9686 101.2 90.589 101.1 89.308C101 88.6183 101 88.027 101.2 87.7314L104 90.0964L104.6 90.5891C104.4 91.0818 104.3 91.673 104.3 92.1657Z" fill="#B8AFCB"/>
<path d="M103.9 76.3009C105.3 77.1878 107.2 79.7498 104.9 80.4396C102.5 81.1293 101.5 74.8228 103.9 76.3009Z" fill="#6D5B95"/>
<path d="M96.6 85.2681C99.1 88.5199 100.4 90.4907 103.2 91.0819C107.5 91.9688 110.7 87.633 109.2 83.6915C107.9 80.144 104.1 75.5127 99.9 76.3995C95.7 77.2864 94.1 82.1148 96.6 85.2681Z" fill="#CEC8DC"/>
<path d="M97.3 81.8191L94.3 78.3702C94.3 78.3702 90.4 81.2279 92.2 82.903C91 85.6621 95.7 89.4066 99.8 88.6183C100.3 86.1548 96.6 81.9177 96.6 81.9177C96.8 82.0162 97.1 81.9177 97.3 81.8191Z" fill="#6D5B95"/>
<path d="M97.2 88.914C98.1 89.6038 99.2 89.8009 100 89.7023C101.3 89.5052 101.5 88.2242 100.7 87.2388C100 86.352 98.4 85.3666 97.2 86.0564C96.1 86.7461 96.2 88.1257 97.2 88.914Z" fill="#CEC8DC"/>
<path d="M102.3 82.8045C102.5 83.1001 102.8 83.1986 103 83.1001C103.2 83.0016 103.2 82.7059 103 82.4103C102.8 82.1147 102.5 82.0162 102.3 82.1147C102.2 82.2133 102.2 82.5089 102.3 82.8045Z" fill="#6D5B95"/>
<path d="M105.5 80.7352C105.7 81.0308 106 81.1293 106.2 81.0308C106.4 80.9322 106.4 80.6366 106.2 80.341C106 80.0454 105.7 79.9468 105.5 80.0454C105.3 80.1439 105.3 80.4395 105.5 80.7352Z" fill="#6D5B95"/>
<path d="M104.6 81.5234C104.6 81.5234 106.3 82.6073 107.5 82.903C107.3 83.6913 106.3 83.9869 106.3 83.9869L104.6 81.5234Z" fill="#B8AFCB"/>
<path d="M103.7 85.7606C103.6 85.8592 103.5 85.8593 103.3 85.9578V86.0562H103.4C104.6 85.1694 105.7 85.6621 105.7 85.6621L105.8 85.5635L105.7 85.4651C105.8 85.5636 104.8 85.1694 103.7 85.7606Z" fill="#6D5B95"/>
<path d="M100.2 81.9177C100.3 81.9177 100.3 81.9177 100.4 81.8192C100.9 81.1294 101.6 81.0309 101.6 81.0309C101.7 81.0309 101.8 80.9323 101.8 80.8338C101.8 80.7353 101.7 80.6367 101.6 80.6367C101.6 80.6367 100.7 80.6367 100.1 81.5236C100 81.7206 100 81.8192 100.2 81.9177Z" fill="#6D5B95"/>
<path d="M105.5 78.2718C105.5 78.0747 105.4 77.9761 105.3 78.0747C104.3 78.3703 104 79.1586 104 79.2571C104 79.3557 104 79.4542 104.1 79.4542C104.2 79.4542 104.3 79.4542 104.3 79.3557C104.3 79.3557 104.5 78.6659 105.4 78.4688L105.5 78.2718Z" fill="#6D5B95"/>
<path d="M96.6 82.0161C96.6 82.0161 104.4 78.7643 104.9 75.1184C105.4 71.4724 102.1 72.9505 102.1 72.9505C102.1 72.9505 103.6 72.852 103.5 73.9359C103.5 73.9359 100.9 72.1622 98.4 73.6403C98.4 73.6403 99.6 73.6403 100.2 74.4286C100.2 74.4286 97.8 74.9213 95.2 76.7936C92.4 78.8629 87.6 85.8592 96.6 82.0161Z" fill="#6D5B95"/>
<path d="M113 135.03L100.3 133.552C100.3 133.552 103.9 132.961 109.9 132.961C111 132.961 112.1 132.961 113.3 133.059L113 135.03Z" fill="#65528F"/>
<path d="M91.2 110.691C91.2 110.593 91.2 110.593 91.2 110.494C91.2 110.494 91.2 110.494 91.3 110.494C91.3 110.593 91.3 110.593 91.2 110.691Z" fill="#D5D0E0"/>
<path d="M91 107.538C90.9 107.045 90.9 106.454 90.8 105.961C90.8 105.961 91.5 105.173 91.6 103.399C91.6 103.399 91.9 105.074 91.8 107.242C91.6 107.341 91.3 107.439 91 107.538Z" fill="#D5D0E0"/>
<path d="M70.1 128.527L67.9 133.651L72.7 134.833C72.7 134.833 74.7 131.483 72.7 128.921L70.1 128.527Z" fill="#D0CADD"/>
<path d="M68.3 137.593H72.1L72.8 134.833L68 133.651L68.3 137.593Z" fill="#D0CADD"/>
<path d="M91.6 101.527C91.9 104.68 90.8 106.06 90.8 106.06C90.8 106.06 87.7 108.031 86.3 109.016C85.1 109.903 84 110.79 82.9 111.578C82.4 111.972 81.9 112.465 81.4 112.859C80.9 113.253 80.5 113.746 80.2 114.14C80.1 114.239 80 114.534 79.8 114.731C79.7 114.928 79.5 115.224 79.4 115.52C79.1 116.111 78.8 116.702 78.6 117.392C78.1 118.673 77.5 120.052 77.1 121.432C76.1 124.191 75.1 126.95 74.2 129.709L69.8 128.724C70.2 125.669 70.8 122.812 71.5 119.757C71.9 118.279 72.3 116.801 72.7 115.323C72.9 114.534 73.2 113.844 73.5 113.056C73.7 112.662 73.8 112.268 74 111.874C74.2 111.381 74.4 110.987 74.8 110.494C75.4 109.607 76 109.016 76.5 108.326C77.1 107.735 77.7 107.144 78.3 106.553C79.5 105.469 80.7 104.483 81.9 103.498C84.3 101.527 86.8 99.7533 89.4 98.0782C89.4 97.8811 91.3 98.5709 91.6 101.527Z" fill="#9C90B7"/>
<path d="M74.1 129.709L73.1 129.512L70 128.822L69.7 128.724C70.1 125.669 70.7 122.812 71.4 119.757C71.8 118.279 72.2 116.801 72.6 115.323C72.8 114.534 73.1 113.844 73.4 113.056C73.6 112.662 73.7 112.268 73.9 111.874C74.1 111.381 74.3 110.987 74.7 110.494C75.3 109.607 75.9 109.016 76.4 108.326C77 107.735 77.6 107.144 78.2 106.553C79.4 105.469 80.6 104.483 81.8 103.498C84.2 101.527 86.7 99.7533 89.3 98.0781C89.3 98.0781 91.2 98.7679 91.5 101.626C91.5 102.02 91.6 102.414 91.6 102.808C91.6 103.104 91.6 103.301 91.6 103.596C91.5 105.469 90.8 106.158 90.8 106.158C90.7 106.158 87.6 108.129 86.3 109.115C85.1 110.001 84 110.888 82.9 111.677C82.4 112.071 81.9 112.563 81.4 112.958C80.9 113.352 80.5 113.844 80.2 114.239C80.1 114.337 80 114.633 79.8 114.83C79.7 115.027 79.5 115.323 79.4 115.618C79.1 116.209 78.8 116.801 78.6 117.49C78.1 118.771 77.5 120.151 77.1 121.53C76 124.093 75.1 126.852 74.1 129.709Z" fill="#E3E0EB"/>
<path d="M101.5 97.1913L103.1 99.7533C103.1 99.7533 97.4 106.553 86.5 108.819L85.8 110.987L88.1 111.578C88.1 111.578 99.9 108.523 104.6 99.8518L107 97.1913L104.1 96.2059L101.5 97.1913Z" fill="#9C90B7"/>
<path d="M96.2 95.7132L98.9 93.4468L104.2 96.3044L104.8 93.1512L107.6 94.7278L108.4 98.7679L104.5 97.0928L101 100.148L96.2 95.7132Z" fill="#9C90B7"/>
<path d="M100.9 100.148L96.1 95.6147L98.8 93.3483L104.1 96.2059L104.7 93.0527L107.5 94.6293L108.3 98.6694L106.3 97.7826L104.4 96.9942L102.5 98.6694L100.9 100.148Z" fill="#DAD5E4"/>
<path d="M169.2 50.2866C169.2 50.2866 164.2 56.2975 159.2 55.8048C154.2 55.3121 151.6 57.2829 151.6 57.2829L151.1 59.7463L153.8 59.3522C153.8 59.3522 153.8 57.4799 159 57.677C164.2 57.8741 168.2 53.4398 169.7 51.469L169.2 50.2866Z" fill="#9C90B7"/>
<path d="M204.8 40.2355L204.7 39.7428C204.6 39.5457 204.7 39.5457 204.5 39.053C204.2 38.3633 203.7 37.6735 203.3 37.3779C202.4 36.5896 201.7 36.2939 201 36.0969C199.7 35.7027 198.7 35.5056 197.7 35.4071C196.7 35.3085 195.8 35.21 194.9 35.21C193.1 35.1115 191.3 35.21 189.5 35.3085C186 35.5056 182.6 35.8998 179.1 36.491L180.4 43.6844C183.6 43.1917 186.9 42.699 190.1 42.4034C191.7 42.2063 193.3 42.1078 194.8 42.1078C195.6 42.1078 196.3 42.1078 197 42.1078C197.5 42.1078 198 42.2063 198.3 42.2063C198.3 42.4034 198.3 42.699 198.3 42.9946C198.3 44.2756 197.9 45.6552 197.5 47.1333C196.6 49.9909 195.3 53.0456 193.9 55.8047L197.4 58.0711C199.6 55.312 201.5 52.3559 203 49.1041C203.7 47.4289 204.4 45.6552 204.7 43.5859C205 42.6005 205 41.5165 204.8 40.2355Z" fill="#9C90B7"/>
<path d="M197.7 42.2062C197.5 42.2062 197.3 42.2062 197.2 42.2062C197.3 42.1076 197.5 42.1076 197.7 42.2062ZM204.9 40.9253C204.9 40.7282 204.8 40.4326 204.8 40.2355L204.7 39.7428C204.6 39.5457 204.7 39.5457 204.5 39.053C204.2 38.3632 203.7 37.6734 203.3 37.3778C202.4 36.5894 201.7 36.2939 201 36.0968C200.6 35.9983 200.2 35.8012 199.9 35.8012C200.3 35.8998 200.6 35.9983 201 36.0968C201.6 36.3925 202.4 36.5894 203.3 37.3778C203.7 37.7719 204.2 38.3632 204.5 39.053C204.7 39.5457 204.7 39.5457 204.7 39.7428L204.8 40.2355C204.9 40.4326 204.9 40.7282 204.9 40.9253ZM180.3 36.3925C181.2 36.2939 182 36.0967 182.9 35.9982C182 36.0967 181.2 36.1954 180.3 36.3925ZM198.4 35.4071C198.2 35.4071 198 35.3084 197.8 35.3084C196.8 35.2099 195.9 35.1115 195 35.1115C194.6 35.1115 194.3 35.1115 193.9 35.1115C192.5 35.1115 191 35.2099 189.6 35.3084C189.1 35.3084 188.6 35.4071 188.2 35.4071C188.7 35.4071 189.2 35.3084 189.6 35.3084C191 35.2099 192.4 35.1115 193.9 35.1115C194.3 35.1115 194.6 35.1115 195 35.1115C195.9 35.1115 196.8 35.2099 197.8 35.3084C198 35.407 198.2 35.4071 198.4 35.4071Z" fill="white"/>
<path d="M203.6 48.3157C201.9 46.7391 200.1 45.3595 198.4 44.2756C198.4 44.177 198.4 43.98 198.5 43.8814C198.5 43.5858 198.6 43.3887 198.6 43.0931C198.6 42.7975 198.6 42.5019 198.6 42.3048H198.5C198.3 42.3048 198.1 42.2063 197.8 42.2063C197.6 42.2063 197.4 42.2063 197.3 42.2063C196.9 42.2063 196.5 42.2063 196.1 42.2063C196 42.2063 196 42.2063 195.9 42.2063C195.6 42.2063 195.3 42.2063 195.1 42.2063H194.9C191.4 40.334 188.3 39.3486 186.2 38.8559C183.5 37.5749 181.4 36.7866 180.4 36.491C181.3 36.3924 182.1 36.1954 183 36.0968C184.8 35.8997 186.5 35.7027 188.3 35.5056C188.8 35.5056 189.3 35.407 189.7 35.407C191.1 35.3085 192.5 35.21 194 35.21C194.4 35.21 194.7 35.21 195.1 35.21C196 35.21 197 35.3085 197.9 35.407C198.1 35.407 198.3 35.407 198.5 35.5056C199 35.6041 199.5 35.7027 200 35.8012C200.4 35.8997 200.7 35.9983 201.1 36.0968C201.7 36.3924 202.5 36.5895 203.4 37.3778C203.8 37.772 204.3 38.3632 204.6 39.053C204.8 39.5457 204.8 39.5457 204.8 39.7428L204.9 40.2355C204.9 40.4325 205 40.7282 205 40.9252C205.1 41.9106 205.1 42.7975 204.9 43.6843C204.9 43.7829 204.9 43.8814 204.9 43.98C204.6 45.5566 204.1 46.9361 203.6 48.3157Z" fill="#E3E0EB"/>
<path d="M192.3 42.2063C192.7 42.2063 193.1 42.1077 193.4 42.1077C193.1 42.2063 192.7 42.2063 192.3 42.2063Z" fill="#EFEDF3"/>
<path d="M192.3 42.2063C190.1 40.7282 187.9 39.6443 186 38.6589C188.1 39.1516 191.2 40.2355 194.7 42.0092C194.3 42.0092 193.8 42.0092 193.4 42.1078C193.1 42.2063 192.7 42.2063 192.3 42.2063Z" fill="#D5D0E0"/>
<path d="M202.3 51.0748C202.6 50.4836 202.9 49.7938 203.2 49.1041C203.3 48.8084 203.5 48.5128 203.6 48.2172C203.5 48.5128 203.4 48.8084 203.2 49.1041C202.9 49.8924 202.6 50.4836 202.3 51.0748Z" fill="#EFEDF3"/>
<path d="M202.3 51.0748C201 49.3997 199.5 47.8231 198 46.542C198.2 45.7537 198.4 44.9654 198.5 44.2756C200.2 45.3596 201.9 46.7391 203.7 48.3157C203.6 48.6114 203.5 48.907 203.3 49.2026C202.9 49.8924 202.6 50.4836 202.3 51.0748Z" fill="#D5D0E0"/>
<path d="M156.5 41.7137C156.7 42.0093 156.7 42.3049 156.6 42.4035C156.4 42.502 156.1 42.4034 155.9 42.2064C155.7 41.9108 155.7 41.6151 155.8 41.5166C156 41.3195 156.3 41.4181 156.5 41.7137Z" fill="#6D5B95"/>
<path d="M156.7 42.2064C156.7 42.2064 157.3 44.0786 157.2 45.2611C158 45.3596 158.6 44.5713 158.6 44.5713L156.7 42.2064Z" fill="#A397BC"/>
<path d="M156.3 39.5458C156.3 39.3487 156.2 39.2502 156.1 39.2502C155 39.2502 154.6 40.0385 154.6 40.0385C154.5 40.137 154.6 40.2356 154.7 40.3341C154.8 40.4327 154.9 40.3341 155 40.2356C155 40.2356 155.4 39.6443 156.2 39.6443L156.3 39.5458Z" fill="#6D5B95"/>
<path d="M163.8 37.7721C166.2 39.5458 170.9 42.2064 173.5 41.221C173.5 41.221 175.9 43.1918 173.6 48.0202C171.1 53.4399 169.7 49.3997 169.7 49.3997C170.4 46.1479 168.1 45.1625 165.8 44.7684L163.8 37.7721Z" fill="#B9B1CC"/>
<path d="M164.6 34.5203C166.9 37.7721 168.4 39.5458 168.1 42.3049C167.6 46.5421 162.6 48.1187 159.4 45.6552C156.5 43.3888 153.3 38.4619 155.3 34.9144C157.3 31.367 162.3 31.2685 164.6 34.5203Z" fill="#B9B1CC"/>
<path d="M168.2 39.8414C167.9 41.7137 161.6 44.1771 158.8 40.2356C158.8 40.2356 155.2 40.2356 153.1 38.0677C151 35.9984 151.4 33.6334 153.3 32.451C155 31.367 159.4 23.2868 164.5 29.0021C170 28.805 168.6 37.575 168.2 39.8414Z" fill="#6D5B95"/>
<path d="M157.6 31.564C157.6 31.564 154.3 31.367 152.4 32.845C150.5 34.3231 151 38.8559 151.8 39.7428C152.5 40.6297 153.3 40.6297 153.3 40.6297C153.3 40.6297 152.2 40.0384 152.2 39.2501C152.2 39.2501 152.7 40.334 154.9 40.6297C154.9 40.6297 154.3 40.137 154.4 39.4472C154.4 39.4472 155.6 41.0238 158.4 39.4472C161.2 37.9691 157.6 31.564 157.6 31.564Z" fill="#6D5B95"/>
<path d="M160.4 39.5457C161 40.4326 161.2 41.418 161.2 42.3048C161.1 43.5858 160 43.6844 159.2 42.8961C158.4 42.2063 157.5 40.6297 158 39.5457C158.5 38.4618 159.8 38.5603 160.4 39.5457Z" fill="#B9B1CC"/>
<path d="M167 50.2866C167 50.2866 166.4 42.9947 171.2 38.856L177 39.3487C177 39.4473 173.7 47.4289 167 50.2866Z" fill="#9C90B7"/>
<path d="M167 48.907C167.1 46.6406 167.7 41.9107 171.2 38.856L174.2 39.1516C173.2 40.0385 172.3 41.0239 171.5 42.0093C169.6 44.3742 168.1 46.9362 167 48.907Z" fill="#DAD5E4"/>
<path d="M183.6 66.7426C183.6 66.7426 174.9 58.2682 165.2 52.3558C165.2 52.3558 171.6 37.4764 179.8 36.1954C179.8 36.1954 200.8 42.4034 206.9 59.4507L183.6 66.7426Z" fill="#9C90B7"/>
<path d="M184.7 118.18L181 119.757L176.9 111.282L180.7 109.706L184.7 118.18Z" fill="#B9B1CC"/>
<path d="M206.9 59.4507L204.7 82.6075C203.5 83.4944 201.5 84.1841 199.2 84.7754C194.6 85.8593 188.5 86.352 183.2 86.5491C177.3 86.8447 172.4 86.9432 171.9 87.2388C170.9 88.0272 184 114.633 184 114.633L177.8 115.421C177.8 115.421 161.4 93.2497 159.2 85.5637C158.4 82.706 157.6 79.1586 162.9 75.8083C167.6 72.8521 185 70.6842 185 70.6842L183.7 66.7427L206.9 59.4507Z" fill="#6D5B95"/>
<path d="M183.2 86.549C182.9 82.5089 183.7 78.4688 184.6 75.4141C184.9 78.5673 185.2 82.3118 185.7 86.4505C184.9 86.4505 184 86.549 183.2 86.549Z" fill="#685691"/>
<path d="M239.5 114.83L240.2 118.771L230.9 120.644L230.2 116.702L239.5 114.83Z" fill="#B9B1CC"/>
<path d="M240.4 119.264C240.9 119.855 241.4 120.742 241.3 121.038C241.3 121.038 241.2 121.136 241.1 121.136C241 121.136 241 121.136 240.9 121.038L240.8 120.939C240.6 120.447 240.5 119.658 240.4 119.264ZM240.4 118.87H240.3L240.2 118.968C240.2 119.067 240.3 120.644 240.8 121.136C240.9 121.235 241 121.235 241.2 121.235C241.4 121.235 241.5 121.136 241.6 121.038C241.7 120.742 241.5 120.348 241.2 119.855C240.9 119.461 240.6 119.067 240.4 118.87Z" fill="#9C90B7"/>
<path d="M239.4 120.249C239.5 119.855 239.9 119.363 240.2 119.166C240.2 119.757 240 120.644 239.7 120.742C239.7 120.742 239.6 120.742 239.5 120.644C239.4 120.545 239.4 120.447 239.4 120.249ZM240.3 118.87C240.2 118.87 239.3 119.56 239.2 120.249C239.2 120.447 239.2 120.644 239.3 120.742C239.5 120.939 239.6 120.939 239.7 120.939C240.2 120.742 240.5 119.461 240.3 118.87Z" fill="#9C90B7"/>
<path d="M239.7 118.87L237.4 115.125C237.3 115.027 237.3 114.83 237.5 114.731L240.2 112.169C240.5 111.874 240.9 111.972 241.1 112.268C241.9 113.647 243.1 115.618 244.1 117.293C245.3 119.264 246.5 120.939 248 123.304C248.9 124.684 247.7 125.965 247.2 125.472C244.9 123.107 243.5 121.038 240.6 119.56C240.2 119.363 239.9 119.166 239.7 118.87Z" fill="#6D5B95"/>
<path d="M206.9 59.4507C206.9 59.4507 214.4 78.4688 201.8 85.7608C201.8 85.7608 201.6 107.636 204.8 110.297C208.7 113.45 237.1 115.027 237.1 115.027L236.9 122.023C236.9 122.023 206.4 124.487 197.2 121.235C186.4 117.392 184 67.2354 184 67.2354L206.9 59.4507Z" fill="#6D5B95"/>
<path d="M201.3 77.3848L199.3 76.7936C199.3 76.7936 198.8 72.6549 198.2 71.0783L202.7 69.6987C202.7 69.6987 203.3 73.5418 203.3 75.6111L201.3 77.3848Z" fill="#685691"/>
<path d="M185.1 66.7426L185.7 68.6148L184 69.1075L183.4 67.2353L185.1 66.7426Z" fill="#6D5B95"/>
<path d="M192.9 64.2791L193.5 66.1513L186.5 68.3192L185.9 66.4469L192.9 64.2791Z" fill="#6D5B95"/>
<path d="M201.5 61.5201L202.1 63.4909L194.3 65.8558L193.7 63.885L201.5 61.5201Z" fill="#6D5B95"/>
<path d="M207.9 61.8157L203.1 63.2938L202.5 61.3229L207.3 59.8448L207.9 61.8157Z" fill="#6D5B95"/>
<path d="M184 69.1075L183.4 67.2353L185.1 66.7426L185.7 68.6148L184 69.1075Z" fill="#897AA9"/>
<path d="M186.5 68.3192L185.9 66.4469L192.8 64.2791L193.4 66.1513L186.5 68.3192Z" fill="#897AA9"/>
<path d="M194.4 65.9544L193.8 63.9836L201.6 61.5201L202.2 63.4909L194.4 65.9544Z" fill="#897AA9"/>
<path d="M203.1 63.2938L202.5 61.3229L207.3 59.8448L208 61.9142L203.1 63.2938Z" fill="#897AA9"/>
<path d="M179.5 118.476C178.7 118.574 177.7 118.574 177.5 118.377C177.5 118.377 177.4 118.279 177.5 118.18C177.5 118.082 177.6 118.082 177.7 118.082C177.8 118.082 177.8 118.082 177.9 118.082C178.4 117.983 179.1 118.279 179.5 118.476ZM179.8 118.574V118.377C179.7 118.377 178.3 117.589 177.6 117.786C177.5 117.786 177.4 117.885 177.3 117.983C177.2 118.18 177.2 118.279 177.3 118.377C177.5 118.574 178 118.673 178.5 118.673C179 118.771 179.5 118.673 179.8 118.574Z" fill="#9C90B7"/>
<path d="M179.1 117.096C179.4 117.392 179.6 117.983 179.7 118.279C179.2 117.983 178.5 117.293 178.5 117.096C178.5 117.096 178.5 116.998 178.7 116.998H178.8C178.9 116.998 179 116.998 179.1 117.096ZM179.8 118.574C179.8 118.476 179.7 117.392 179.2 116.998C179 116.899 178.9 116.801 178.7 116.801C178.4 116.801 178.4 116.998 178.3 117.096C178.2 117.589 179.2 118.377 179.8 118.574Z" fill="#9C90B7"/>
<path d="M180.2 118.082L184.7 117.983C184.9 117.983 185 118.082 185.1 118.279L186 121.826C186.1 122.22 185.8 122.516 185.4 122.516C184.8 122.516 184.1 122.516 183.4 122.516C182.1 122.516 180.7 122.516 179.4 122.516C177 122.614 175 122.713 172.2 122.811C170.5 122.811 170 121.235 170.7 121.038C173.9 120.249 176.5 120.151 179.2 118.377C179.5 118.18 179.8 118.082 180.2 118.082Z" fill="#6D5B95"/>
<path d="M182.5 65.7572C180.9 64.2792 177.7 61.4215 173.8 58.3668C177.8 61.4215 180.9 64.2792 182.5 65.7572ZM165.3 52.4544C165.2 52.4544 165.9 50.9763 167 49.0056C165.9 50.9763 165.2 52.3559 165.3 52.4544Z" fill="white"/>
<path d="M167 48.907C168.1 46.9362 169.7 44.2756 171.6 42.0092C169.6 44.3742 168.1 46.9362 167 48.907Z" fill="#F5F4F8"/>
<path d="M183.6 66.7426C183.6 66.7426 183.2 66.3485 182.5 65.7572C180.9 64.2792 177.7 61.4215 173.8 58.3668C172.9 56.1989 171 54.6223 170.9 54.5238C170.6 53.9325 170.1 53.4398 169.4 53.0457C168 52.2574 166.8 52.0603 166.1 52.0603C165.7 52.0603 165.4 52.1588 165.4 52.1588C165.4 52.2574 165.3 52.3559 165.3 52.553C165.3 52.553 165.3 52.553 165.2 52.553C165.2 52.553 165.8 51.0749 166.9 49.1041C168 47.1333 169.6 44.4727 171.5 42.2063C173.8 39.3487 176.7 36.8852 179.8 36.3925C179.8 36.3925 186.2 38.2648 193 42.8961C194.7 43.98 196.3 45.2611 197.9 46.7391C201.6 50.0895 205 54.3267 206.9 59.6478L183.6 66.7426Z" fill="#E3E0EB"/>
<path d="M183.6 66.7427L206.9 59.4507L206.7 59.5493L183.6 66.7427Z" fill="#D5D0E0"/>
<path d="M173.8 58.3667C173.1 57.7755 172.4 57.2828 171.6 56.6916C171.6 56.6916 171.5 55.6076 170.9 54.4252C171 54.6222 172.9 56.1989 173.8 58.3667Z" fill="#D5D0E0"/>
<path d="M140.1 73.5418L138.5 73.936C138.1 74.0345 137.8 74.3301 137.7 74.7243L137.3 76.8921C137.2 77.3848 137.5 77.779 137.9 77.9761L139.1 78.4688C139.1 78.4688 142.5 80.8337 145.4 79.3556L144.2 76.1038L141.8 73.936C141.3 73.5418 140.7 73.3447 140.1 73.5418Z" fill="#B9B1CC"/>
<path d="M169.4 52.947C171.5 54.1295 171.6 56.6915 171.6 56.6915C171.6 56.6915 170 61.0273 169 63.1951C168.4 64.6732 167.7 66.1513 166.9 67.6294C166.1 69.1075 165.3 70.5856 164 72.1622L163.7 72.4578L163.4 72.7534C163.2 72.9505 162.9 73.1476 162.7 73.4432C162.6 73.5418 162.4 73.6403 162.2 73.8374C162 73.9359 161.8 74.133 161.7 74.133L161.1 74.4286C160.3 74.8228 159.5 75.1184 158.8 75.414C157.3 76.0052 155.8 76.5965 154.3 77.0892C151.3 78.0746 148.3 78.9614 145.2 79.7497L143.7 75.9067C146.5 74.5272 149.3 73.1476 152 71.8666C153.4 71.1768 154.7 70.487 156.1 69.7973C156.7 69.5016 157.4 69.1075 158 68.8119L158.4 68.5163C158.4 68.5163 158.4 68.4177 158.5 68.4177L158.6 68.3192L158.7 68.1221C159.3 67.2352 160 65.9542 160.6 64.6732C161.2 63.3922 161.8 62.0127 162.3 60.6331C163.4 57.874 164.4 55.0164 165.4 52.1587C165.4 52.0602 167.2 51.666 169.4 52.947Z" fill="#9C90B7"/>
<path d="M145.3 79.6513L145.2 79.3556L143.8 75.7097C146.6 74.3301 149.4 72.9506 152.1 71.6696C153.5 70.9798 154.8 70.29 156.2 69.6002C156.8 69.3046 157.5 68.9105 158.1 68.6149L158.5 68.3192H158.6C158.6 68.3192 158.6 68.2207 158.7 68.2207L158.8 68.1222L158.9 67.9251C159.5 67.0382 160.2 65.7572 160.8 64.4762C161.4 63.1952 162 61.8156 162.5 60.4361C163.6 57.677 164.6 54.8193 165.6 51.9617C165.6 51.9617 165.8 51.8632 166.3 51.8632C167 51.8632 168.2 52.0602 169.6 52.8486C171.7 54.031 171.8 56.5931 171.8 56.5931C171.8 56.6916 170.2 60.9288 169.2 63.0966C168.6 64.5747 167.9 66.0528 167.1 67.5309C166.3 69.009 165.5 70.4871 164.2 72.0637L163.9 72.3593L163.6 72.655C163.4 72.852 163.1 73.0491 162.9 73.3447C162.8 73.4433 162.6 73.5418 162.4 73.7389C162.2 73.8374 162 74.0345 161.9 74.0345L161.3 74.3301C160.5 74.7243 159.7 75.0199 159 75.3155C157.5 75.9068 156 76.498 154.5 76.9907C151.4 77.9761 148.4 78.9615 145.3 79.6513Z" fill="#E3E0EB"/>
<path d="M34.7 245.592H159.1L224.9 193.169L227.8 196.716H244L260.5 121.826H244.3L166.5 122.023L175.8 133.355L34.7 245.592Z" fill="#FFD57E"/>
<path d="M121.5 241.256H40.1L175.8 133.257L173.4 130.3L172.6 129.315L170 126.162L169.7 125.768L166.5 121.826L244.3 121.629L227.8 196.519L224.9 192.972L218.5 185.187L155.6 235.245C154.1 233.865 152.1 232.979 150 232.88C150 227.854 145.9 223.814 140.8 223.814C136.9 223.814 133.5 226.278 132.2 229.727C132.1 229.727 131.9 229.727 131.8 229.727C126.1 229.727 121.4 234.26 121.4 239.975C121.4 240.566 121.4 240.862 121.5 241.256Z" fill="#FFCA5E"/>
<path d="M32.1 241.256H121.4C121.4 240.862 121.3 240.467 121.3 240.073C121.3 234.457 126 229.825 131.7 229.825C131.8 229.825 132 229.825 132.1 229.825C133.4 226.376 136.8 223.913 140.7 223.913C145.8 223.913 149.9 227.953 149.9 232.978C154.4 233.176 158 236.723 158.2 241.157H158.6C161.1 241.157 163.2 243.227 163.2 245.69C163.2 248.154 161.1 250.223 158.6 250.223H32.1C29.6 250.223 27.5 248.154 27.5 245.69C27.5 243.325 29.6 241.256 32.1 241.256Z" fill="#9C90B7"/>
<path d="M158.7 250.42H32.1C29.6 250.42 27.5 248.351 27.5 245.887C27.5 243.424 29.6 241.354 32.1 241.354H121.4C121.4 240.96 121.3 240.566 121.3 240.172C121.3 234.555 126 229.924 131.7 229.924C131.8 229.924 132 229.924 132.1 229.924C133.4 226.475 136.8 224.011 140.7 224.011C145.8 224.011 149.9 228.052 149.9 233.077C154.4 233.274 158 236.822 158.2 241.256H158.6C161.1 241.256 163.2 243.325 163.2 245.789C163.3 248.351 161.2 250.42 158.7 250.42Z" fill="#E3E0EB"/>
</svg>
