<svg viewBox="0 0 311 221" fill="none" xmlns="http://www.w3.org/2000/svg">
<path d="M310.013 213.14C310.013 208.805 243.413 205.356 161.213 205.356C79.013 205.356 12.413 208.903 12.413 213.14C12.413 217.476 79.013 220.925 161.213 220.925C243.413 221.024 310.013 217.476 310.013 213.14Z" fill="#F9F8FA"/>
<path d="M30.9129 209.495C13.6129 209.396 -0.4871 195.403 0.0129003 178.455C0.3129 169.192 3.8129 160.323 14.5129 155.396C42.7129 142.586 3.3129 59.1236 53.2129 50.8463C103.113 42.4704 101.113 -21.0875 159.513 26.4085C190.713 51.7331 208.213 45.3281 223.513 38.8245C236.913 33.2077 248.713 27.4924 266.413 43.0617C304.413 76.4665 241.513 118.838 288.713 140.616C319.813 155.002 309.613 180.82 299.113 196.783C293.413 205.454 283.513 210.578 273.013 210.48L30.9129 209.495Z" fill="#F0EFF4"/>
<path d="M283.713 208.706C289.913 206.538 295.213 202.4 298.913 196.98C295.313 202.498 289.913 206.538 283.713 208.706ZM200.613 44.6384C209.213 44.6384 216.313 41.8793 223.013 39.0216C216.313 41.8793 209.113 44.6384 200.613 44.6384ZM223.713 38.726C230.513 35.8684 236.913 33.0107 243.913 33.0107C237.013 33.0107 230.613 35.8684 223.713 38.726ZM159.413 26.4086C157.713 25.029 156.113 23.8466 154.613 22.6641C156.113 23.748 157.813 25.029 159.413 26.4086Z" fill="#F7F6F9"/>
<path d="M273.113 210.579C276.813 210.579 280.413 209.987 283.713 208.706C280.313 209.889 276.713 210.579 273.113 210.579Z" fill="#F0EFF4"/>
<path d="M273.113 210.579C273.013 210.579 273.013 210.579 273.113 210.579C273.013 210.579 273.013 210.579 273.013 210.579L230.613 210.381C243.113 191.363 248.013 167.024 240.013 153.623C241.813 153.426 243.613 152.933 245.313 152.342L247.313 151.553C246.713 150.075 243.713 136.181 246.313 127.411C248.113 121.4 244.813 119.627 243.113 119.134C239.113 116.868 232.713 117.065 230.613 117.065C230.113 117.065 229.613 116.769 229.413 116.375L222.413 102.678C228.613 82.8716 235.113 63.6565 215.313 63.6565C214.413 63.6565 213.413 63.6565 212.313 63.755C208.913 64.0506 205.713 64.1492 202.713 64.1492C197.013 64.1492 191.913 63.6565 187.313 62.7696C186.713 57.1529 181.913 52.8171 176.013 52.6201C176.013 52.6201 176.013 52.6201 175.913 52.6201C175.913 52.6201 175.913 52.6201 175.813 52.6201C175.813 52.6201 175.813 52.6201 175.713 52.6201H164.413C153.113 44.1457 144.613 31.6312 134.013 17.1459C131.513 13.697 128.713 11.135 125.813 9.16418C133.513 9.75541 142.713 13.697 154.613 22.5656C156.213 23.748 157.813 25.029 159.413 26.3101C159.413 26.3101 159.413 26.3101 159.513 26.4086C159.613 26.4086 159.613 26.5071 159.713 26.5071C176.613 40.2041 189.513 44.5398 200.213 44.5398H200.313C200.413 44.5398 200.413 44.5398 200.513 44.5398C209.113 44.5398 216.213 41.7807 222.913 38.9231C223.013 38.8246 223.213 38.8246 223.313 38.726C223.313 38.726 223.313 38.726 223.413 38.726C223.413 38.726 223.413 38.726 223.513 38.726C223.513 38.726 223.613 38.726 223.613 38.6275C230.413 35.7698 236.813 32.9122 243.813 32.9122C250.413 32.9122 257.513 35.4742 266.013 42.8647L266.113 42.9632C275.913 51.5361 279.013 60.7988 279.013 70.0615C279.013 85.9264 269.913 102.087 269.913 115.981C269.913 125.441 274.113 133.915 288.413 140.517C304.013 147.71 309.213 157.761 309.213 168.108C309.213 178.356 304.013 188.703 298.713 196.685L298.613 196.783C294.913 202.301 289.513 206.341 283.413 208.509C280.313 209.889 276.713 210.579 273.113 210.579ZM229.213 144.951C228.613 144.754 227.913 144.557 227.213 144.36C218.813 142.291 216.213 136.28 216.313 128.495C218.213 130.959 220.013 132.831 221.013 133.127C221.113 133.127 221.213 133.127 221.413 133.127C222.413 133.127 224.713 132.535 227.213 131.747C227.413 132.732 227.813 133.718 228.413 134.703C230.213 137.561 229.913 141.502 229.213 144.951ZM220.813 124.849C220.813 124.849 219.313 123.273 217.213 121.203C218.013 116.572 219.413 111.645 221.013 106.718L224.913 120.711C225.213 121.795 225.813 122.78 227.313 122.78C227.513 122.78 227.613 122.78 227.813 122.78L220.813 124.849Z" fill="#E8E6EE"/>
<path d="M118.813 63.5579C118.813 63.5579 113.513 63.1637 108.713 60.8973C103.913 58.7295 99.6129 54.5908 102.013 50.4522C105.613 44.8354 95.4129 40.007 98.8129 36.8537C102.313 34.0946 103.113 36.361 101.713 30.1531C100.613 23.8465 105.013 22.2699 107.613 16.5546C110.513 10.8393 117.113 15.0765 115.413 22.5655C114.713 26.9998 115.413 26.2115 116.513 25.4232C117.313 24.8319 118.413 24.2407 119.413 25.7188C121.313 28.5764 113.813 40.8939 117.113 39.8099C120.213 38.4304 122.813 40.3026 122.413 43.7515C121.313 51.8317 118.713 63.3608 118.813 63.5579Z" fill="#D3CEDF"/>
<path d="M121.313 66.8097C117.113 62.0798 112.413 54.7879 110.113 46.412V46.3135H110.013C107.913 45.0325 105.913 43.2588 104.113 41.4851C103.513 40.8938 102.913 40.3026 102.313 39.6128V39.5143L102.513 39.4157C103.113 40.007 103.713 40.5982 104.213 41.1895C105.913 42.8646 107.713 44.5398 109.613 45.7223C109.713 45.8208 109.813 45.8208 109.913 45.9193C109.913 45.8208 109.813 45.6237 109.813 45.5252C108.913 41.9778 108.313 38.2333 108.213 34.1932V34.0946H108.113C106.613 31.8282 105.313 29.2662 104.513 26.4086V26.31H104.613V26.4086C105.413 28.9706 106.513 31.3355 107.813 33.5034C107.913 33.7005 108.013 33.799 108.113 33.8975C108.113 33.7005 108.113 33.5034 108.113 33.4048C108.113 29.5618 108.413 25.5217 109.313 21.2845V21.186H109.413V21.2845C108.213 27.0983 108.013 32.518 108.413 37.5435C108.413 37.642 108.413 37.7406 108.413 37.8391C108.513 37.7406 108.513 37.7406 108.613 37.642C111.113 35.2771 113.213 32.7151 115.013 30.0545H115.113L115.213 30.153V30.2516C113.313 33.1092 111.113 35.7698 108.513 38.1347L108.413 38.2333V38.3318C108.713 41.1895 109.213 43.7515 109.913 46.215V46.3135C110.513 48.4814 111.313 50.7478 112.413 53.1127C112.513 53.2113 112.513 53.4083 112.613 53.5069C112.613 53.4083 112.713 53.2113 112.713 53.1127C113.813 49.2697 115.313 45.8208 117.313 42.6675H117.413L117.513 42.7661V42.8646C115.413 46.1164 113.813 49.8609 112.713 53.901V53.9996V54.0981C114.613 58.2368 117.213 62.3754 121.013 66.8097V66.9082L121.313 66.8097Z" fill="#B4ABC9"/>
<path d="M106.413 82.97C106.413 82.97 106.913 77.3533 105.413 71.9336C104.013 66.514 100.513 61.3899 96.0129 63.2621C92.9129 64.7402 90.5129 62.5724 88.5129 60.5031C86.4129 58.3352 84.7129 56.2659 82.8129 57.8425C79.4129 61.1928 81.6129 62.2768 75.5129 59.9118C69.3129 57.7439 67.0129 62.1782 60.8129 63.9519C54.5129 66.1198 57.7129 73.7073 65.5129 73.1161C73.5129 72.919 64.9129 74.8898 68.1129 77.846C69.3129 79.0285 73.1129 78.2401 76.5129 77.5504C80.3129 76.762 83.6129 75.8752 82.7129 77.6489C80.8129 80.7036 82.3129 83.7583 85.8129 83.8569C94.1129 83.8569 106.213 82.7729 106.413 82.97Z" fill="#D3CEDF"/>
<path d="M109.213 86.0248V85.9263C105.113 80.8022 98.6129 74.7913 90.5129 71.0468H90.4129V70.9483C89.5129 68.4848 88.0129 66.1198 86.5129 63.952C86.0129 63.2622 85.5129 62.4739 84.9129 61.7841H84.8129C84.7129 61.7841 84.7129 61.8827 84.7129 61.9812C85.2129 62.671 85.7129 63.3607 86.2129 64.0505C87.6129 66.1198 89.0129 68.1892 89.9129 70.4556C90.0129 70.5541 90.0129 70.7512 90.1129 70.8497C90.0129 70.7512 89.9129 70.7512 89.7129 70.6527C86.3129 69.076 82.6129 67.9921 78.5129 67.2038H78.4129V67.1052C76.4129 65.1344 74.0129 63.4593 71.3129 62.0797H71.2129V62.1783L71.3129 62.2768C73.7129 63.4593 76.0129 65.0359 77.9129 66.8096C78.0129 66.9082 78.2129 67.1052 78.3129 67.2038C78.1129 67.2038 77.9129 67.1052 77.8129 67.1052C73.9129 66.4155 69.8129 66.2184 65.3129 66.514H65.2129V66.6125L65.3129 66.7111C71.4129 66.3169 76.9129 66.9082 81.9129 68.1892C82.0129 68.1892 82.1129 68.2877 82.2129 68.2877C82.1129 68.3863 82.0129 68.3862 82.0129 68.4848C79.2129 70.7512 76.3129 72.6234 73.2129 74.1015V74.2001L73.3129 74.2986H73.4129C76.6129 72.8205 79.6129 70.8497 82.5129 68.4848L82.6129 68.3862H82.7129C85.5129 69.1746 88.0129 70.0614 90.4129 71.1453H90.5129C92.6129 72.1307 94.7129 73.3132 96.9129 74.7913C97.0129 74.8898 97.1129 74.9884 97.3129 74.9884C97.2129 74.9884 97.0129 74.9884 96.9129 75.0869C92.9129 75.5796 89.0129 76.7621 85.6129 78.3387L85.5129 78.4373L85.6129 78.5358H85.7129C89.3129 76.8606 93.4129 75.6782 97.6129 75.1855H97.7129H97.8129C101.613 77.846 105.413 81.1964 109.213 85.9263H109.313L109.213 86.0248Z" fill="#B4ABC9"/>
<path d="M102.813 71.8352C102.713 71.8352 106.613 66.7111 108.213 60.5032C109.913 54.3937 109.413 47.1018 103.513 46.1164C95.2129 44.9339 98.8129 31.7297 93.1129 32.4194C87.6129 33.4048 89.2129 35.9669 84.4129 29.7589C79.2129 23.6494 74.2129 26.5071 66.8129 24.3392C59.1129 22.467 57.9129 31.8282 66.3129 36.2625C74.7129 41.1894 64.7129 37.642 66.2129 42.4705C67.4129 46.5106 85.2129 49.4667 81.5129 51.6346C77.8129 53.4083 77.5129 57.2514 81.1129 59.6163C89.6129 64.8389 102.813 71.6381 102.813 71.8352Z" fill="#B4ABC9"/>
<path d="M104.013 76.6636V76.565C102.813 69.076 99.6129 59.025 93.4129 50.1565V50.0579V49.9594C93.9129 47.0032 93.8129 43.85 93.5129 40.6967C93.4129 39.7113 93.3129 38.6274 93.2129 37.642H93.0129C92.9129 37.642 92.8129 37.642 92.8129 37.7405V37.8391C92.9129 38.8245 93.0129 39.8098 93.1129 40.8938C93.4129 43.7514 93.5129 46.7076 93.1129 49.4667C93.1129 49.6638 93.1129 49.7623 93.0129 49.9594C92.9129 49.8609 92.8129 49.6638 92.7129 49.5652C90.1129 45.9193 86.9129 42.3719 83.1129 39.0215L83.0129 38.923V38.8245V38.7259C82.0129 35.4741 80.6129 32.3209 78.6129 29.3647L78.5129 29.2661C78.4129 29.2661 78.4129 29.3647 78.4129 29.3647V29.4632C80.2129 32.2223 81.6129 35.08 82.6129 38.0361C82.7129 38.2332 82.7129 38.4303 82.8129 38.6274C82.6129 38.5288 82.5129 38.3318 82.3129 38.2332C78.6129 35.1785 74.5129 32.2223 69.7129 29.6603H69.6129L69.5129 29.7588C69.5129 29.8574 69.5129 29.8574 69.6129 29.8574C76.2129 33.4048 81.6129 37.4449 86.0129 41.8792C86.1129 41.9777 86.2129 42.0763 86.3129 42.1748C86.2129 42.1748 86.0129 42.1748 85.9129 42.1748C81.7129 42.5689 77.5129 42.5689 73.5129 41.9777L73.4129 42.0763V42.1748L73.5129 42.2733C77.7129 42.8646 82.0129 42.8646 86.4129 42.3719H86.5129L86.6129 42.4704C89.1129 45.0324 91.1129 47.4959 93.0129 50.0579V50.1565L93.1129 50.255H93.2129C94.8129 52.5214 96.3129 55.0834 97.7129 57.8426C97.8129 58.0396 97.9129 58.1382 97.9129 58.3352C97.7129 58.2367 97.6129 58.2367 97.4129 58.1382C92.9129 56.0688 88.3129 54.6893 83.8129 54.0981C83.7129 54.0981 83.7129 54.0981 83.7129 54.1966V54.2951H83.8129C88.6129 54.9849 93.4129 56.463 98.1129 58.7294H98.2129V58.8279C100.613 63.8535 102.613 69.5687 103.813 76.565C103.813 76.6636 103.813 76.6636 103.913 76.6636H104.013Z" fill="#A69BBE"/>
<path d="M175.613 52.5215H109.413C103.013 52.5215 97.813 57.6456 97.813 63.8535V199.049C97.813 205.356 103.013 210.381 109.413 210.381H175.613C182.013 210.381 187.213 205.257 187.213 199.049V63.9521C187.213 57.6456 182.013 52.5215 175.613 52.5215Z" fill="#8778A8"/>
<path d="M175.613 52.5215H109.413C103.013 52.5215 97.813 57.6456 97.813 63.8535V199.049C97.813 202.695 99.613 205.947 102.313 208.017L186.313 59.3207C184.513 55.3792 180.413 52.5215 175.613 52.5215Z" fill="#7C6C9F"/>
<path d="M155.413 58.1382H130.813C130.113 58.1382 129.613 58.6309 129.613 59.3207C129.613 60.0105 130.213 60.5032 130.813 60.5032H155.413C156.113 60.5032 156.613 60.0105 156.613 59.3207C156.713 58.6309 156.113 58.1382 155.413 58.1382Z" fill="white"/>
<path d="M175.613 56.8571H165.913L162.413 63.3607C161.113 65.8242 158.513 67.3023 155.713 67.3023H129.313C126.513 67.3023 123.913 65.8242 122.613 63.3607L119.113 56.8571H109.413C105.413 56.8571 102.113 60.0104 102.113 63.952V199.148C102.113 203.089 105.413 206.243 109.413 206.243H175.613C179.613 206.243 182.913 203.089 182.913 199.148V63.952C182.913 60.0104 179.613 56.8571 175.613 56.8571Z" fill="#F0EFF4"/>
<path d="M104.413 204.37C104.113 204.173 103.913 203.878 103.713 203.582C103.913 203.878 104.213 204.075 104.413 204.37ZM102.313 200.626C102.213 200.133 102.213 199.739 102.213 199.246V63.9519C102.213 63.3607 102.313 62.6709 102.413 62.0797C102.213 62.6709 102.213 63.2621 102.213 63.9519V199.148C102.213 199.641 102.213 200.133 102.313 200.626ZM103.413 59.9118C104.713 58.0395 106.913 56.7585 109.413 56.7585C106.913 56.8571 104.713 58.0395 103.413 59.9118ZM180.513 58.6308C179.213 57.4483 177.513 56.7585 175.613 56.7585C177.513 56.8571 179.213 57.5468 180.513 58.6308Z" fill="#7A6A9E"/>
<path d="M104.413 204.37C104.113 204.173 103.913 203.878 103.713 203.582C103.013 202.695 102.513 201.71 102.313 200.626C102.213 200.133 102.213 199.739 102.213 199.246V63.9519C102.213 63.3607 102.313 62.6709 102.413 62.0797C102.613 61.2913 103.013 60.6016 103.413 59.9118C104.713 58.0395 106.913 56.7585 109.413 56.7585H119.113L119.413 57.2512L122.613 63.2621C123.913 65.7256 126.513 67.2037 129.313 67.2037H155.713C158.513 67.2037 161.113 65.7256 162.413 63.2621L165.013 58.4337L165.913 56.7585H175.613C177.513 56.7585 179.213 57.4483 180.513 58.6308C182.013 59.9118 182.913 61.784 182.913 63.8534V65.3315L176.313 77.0576H114.813C112.013 77.0576 109.713 79.324 109.713 82.0831V106.422C109.713 109.181 112.013 111.448 114.813 111.448H156.913L104.413 204.37Z" fill="#E2DEEA"/>
<path d="M215.313 77.1562H114.813C112.013 77.1562 109.713 79.4227 109.713 82.1818V106.521C109.713 109.28 112.013 111.546 114.813 111.546H215.313C218.113 111.546 220.413 109.28 220.413 106.521V82.1818C220.413 79.4227 218.113 77.1562 215.313 77.1562Z" fill="white"/>
<path d="M158.613 88.5869L159.313 90.6562C159.313 90.7548 159.513 90.8533 159.613 90.8533H161.813C162.113 90.8533 162.313 91.2475 162.013 91.4446L160.213 92.7256C160.113 92.8241 160.013 92.9226 160.113 93.1197L160.813 95.189C160.913 95.4847 160.513 95.7803 160.313 95.5832L158.513 94.3022C158.413 94.2036 158.213 94.2036 158.113 94.3022L156.313 95.5832C156.013 95.7803 155.613 95.4847 155.813 95.189L156.513 93.1197C156.513 93.0212 156.513 92.8241 156.413 92.7256L154.613 91.4446C154.313 91.2475 154.513 90.8533 154.813 90.8533H157.013C157.213 90.8533 157.313 90.7548 157.313 90.6562L158.013 88.5869C158.013 88.2913 158.513 88.2913 158.613 88.5869Z" fill="#FFCA5E"/>
<path d="M170.813 88.5869L171.513 90.6562C171.513 90.7548 171.713 90.8533 171.813 90.8533H174.013C174.313 90.8533 174.513 91.2475 174.213 91.4446L172.413 92.7256C172.313 92.8241 172.213 92.9226 172.313 93.1197L173.013 95.189C173.113 95.4847 172.713 95.7803 172.513 95.5832L170.713 94.3022C170.613 94.2036 170.413 94.2036 170.313 94.3022L168.513 95.5832C168.213 95.7803 167.813 95.4847 168.013 95.189L168.713 93.1197C168.713 93.0212 168.713 92.8241 168.613 92.7256L166.813 91.4446C166.513 91.2475 166.713 90.8533 167.013 90.8533H169.213C169.413 90.8533 169.513 90.7548 169.513 90.6562L170.213 88.5869C170.213 88.2913 170.713 88.2913 170.813 88.5869Z" fill="#FFCA5E"/>
<path d="M183.113 88.5869L183.813 90.6562C183.813 90.7548 184.013 90.8533 184.113 90.8533H186.313C186.613 90.8533 186.813 91.2475 186.513 91.4446L184.713 92.7256C184.613 92.8241 184.513 92.9226 184.613 93.1197L185.313 95.189C185.413 95.4847 185.013 95.7803 184.813 95.5832L183.013 94.3022C182.913 94.2036 182.713 94.2036 182.613 94.3022L180.813 95.5832C180.513 95.7803 180.113 95.4847 180.313 95.189L181.013 93.1197C181.013 93.0212 181.013 92.8241 180.913 92.7256L179.113 91.4446C178.813 91.2475 179.013 90.8533 179.313 90.8533H181.513C181.713 90.8533 181.813 90.7548 181.813 90.6562L182.513 88.5869C182.513 88.2913 183.013 88.2913 183.113 88.5869Z" fill="#FFCA5E"/>
<path d="M195.313 88.5869L196.013 90.6562C196.013 90.7548 196.213 90.8533 196.313 90.8533H198.513C198.813 90.8533 199.013 91.2475 198.713 91.4446L196.913 92.7256C196.813 92.8241 196.713 92.9226 196.813 93.1197L197.513 95.189C197.613 95.4847 197.213 95.7803 197.013 95.5832L195.213 94.3022C195.113 94.2036 194.913 94.2036 194.813 94.3022L193.013 95.5832C192.713 95.7803 192.313 95.4847 192.513 95.189L193.213 93.1197C193.213 93.0212 193.213 92.8241 193.113 92.7256L191.313 91.4446C191.013 91.2475 191.213 90.8533 191.513 90.8533H193.713C193.913 90.8533 194.013 90.7548 194.013 90.6562L194.713 88.5869C194.713 88.2913 195.213 88.2913 195.313 88.5869Z" fill="#FFCA5E"/>
<path d="M207.513 88.5869L208.213 90.6562C208.213 90.7548 208.413 90.8533 208.513 90.8533H210.713C211.013 90.8533 211.213 91.2475 210.913 91.4446L209.113 92.7256C209.013 92.8241 208.913 92.9226 209.013 93.1197L209.713 95.189C209.813 95.4847 209.413 95.7803 209.213 95.5832L207.413 94.3022C207.313 94.2036 207.113 94.2036 207.013 94.3022L205.213 95.5832C204.913 95.7803 204.513 95.4847 204.713 95.189L205.413 93.1197C205.413 93.0212 205.413 92.8241 205.313 92.7256L203.513 91.4446C203.213 91.2475 203.413 90.8533 203.713 90.8533H205.913C206.113 90.8533 206.213 90.7548 206.213 90.6562L206.913 88.5869C207.013 88.2913 207.413 88.2913 207.513 88.5869Z" fill="#FFCA5E"/>
<path d="M189.913 99.1306H154.313V100.116H189.913V99.1306Z" fill="#E2DEEA"/>
<path d="M189.913 83.1672H154.313V85.0394H189.913V83.1672Z" fill="#B4ABC9"/>
<path d="M189.913 102.776H154.313V103.762H189.913V102.776Z" fill="#E2DEEA"/>
<path d="M170.613 106.225H154.313V107.211H170.613V106.225Z" fill="#E2DEEA"/>
<path d="M146.513 94.8933C146.513 87.2073 140.113 80.9993 132.313 80.9993C124.513 80.9993 118.113 87.2073 118.113 94.8933C118.113 102.579 124.513 108.787 132.313 108.787C140.113 108.787 146.513 102.579 146.513 94.8933Z" fill="#D3CEDF"/>
<path d="M146.513 94.8933C146.513 87.2073 140.113 80.9993 132.313 80.9993C124.513 80.9993 118.113 87.2073 118.113 94.8933C118.113 102.579 124.513 108.787 132.313 108.787C140.113 108.787 146.513 102.579 146.513 94.8933Z" fill="#5D4989"/>
<path d="M139.413 103.269L138.213 90.4591C138.213 87.2073 136.913 84.1526 133.313 85.0394C131.713 84.2511 129.713 84.4482 128.413 85.6307C127.013 86.9117 126.213 88.8824 126.213 90.8532L124.813 103.368L139.413 103.269Z" fill="#8778A8"/>
<path d="M134.413 96.6672V99.5248C134.413 99.5248 134.013 101.693 132.113 102.087C130.113 101.594 129.813 99.5248 129.813 99.5248V96.6672H134.413Z" fill="#CDC7DA"/>
<path d="M134.413 96.2728V98.0465C133.713 98.4407 132.913 98.6378 132.113 98.6378C131.313 98.6378 130.513 98.4407 129.813 98.0465V96.2728H134.413Z" fill="#B4ABC9"/>
<path d="M136.813 90.5575C134.713 90.459 133.313 88.8824 133.313 88.8824C132.013 89.9663 127.513 90.5575 127.513 90.5575V92.3312C127.513 93.6123 128.113 95.2874 129.013 96.4699C129.713 97.4553 130.913 98.0465 132.213 98.0465C133.513 98.0465 134.713 97.4553 135.413 96.4699C136.313 95.2874 136.913 93.6123 136.913 92.3312L136.813 90.5575Z" fill="#CDC7DA"/>
<path d="M143.513 104.255C141.713 101.2 134.113 99.5247 134.113 99.5247L132.113 100.313L130.113 99.5247C130.113 99.5247 122.513 101.2 120.713 104.255L118.513 120.612L122.013 120.514L124.113 106.915C124.113 106.915 125.413 111.349 125.313 113.911C125.213 116.473 124.413 120.711 124.413 120.711H131.913H132.313H139.813C139.813 120.711 139.013 116.473 138.913 113.911C138.813 111.349 140.113 106.915 140.113 106.915L142.213 120.514L145.713 120.612L143.513 104.255Z" fill="#CDC7DA"/>
<path d="M138.213 100.806C137.613 102.481 136.013 105.141 132.013 105.339C128.013 105.141 126.413 102.481 125.813 100.806C124.613 101.2 123.413 101.791 122.413 102.481L123.813 106.915L123.913 107.014V106.915C123.913 106.915 124.013 107.112 124.013 107.408V107.605C124.413 108.886 125.113 111.941 125.013 113.911C124.913 116.473 124.113 120.711 124.113 120.711H131.613H132.013H139.513C139.513 120.711 138.713 116.473 138.613 113.911C138.513 111.349 139.813 106.915 139.813 106.915V107.112C139.813 107.014 139.913 107.014 139.913 106.915L141.313 102.481C140.613 101.791 139.413 101.2 138.213 100.806Z" fill="#B4ABC9"/>
<path d="M230.413 116.966C229.913 116.966 229.413 116.671 229.213 116.276L221.913 102.087C221.913 102.087 221.013 98.6379 220.013 98.6379L219.913 103.171L224.813 120.612C225.113 121.696 225.713 122.681 227.213 122.681C230.213 122.78 235.813 123.667 239.413 124.652C243.113 125.638 246.213 124.652 246.213 124.652C246.413 116.671 233.613 117.065 230.413 116.966Z" fill="#CDC7DA"/>
<path d="M241.313 115.193V119.233H235.013V116.966C235.013 116.966 230.913 115.981 231.113 112.335C231.313 108.689 233.013 106.915 234.013 106.62C234.913 106.324 239.513 108.098 239.613 108.393C239.713 108.59 240.213 112.433 240.213 112.433L241.313 115.193Z" fill="#CDC7DA"/>
<path d="M234.813 109.674C234.813 109.674 235.913 108.097 236.913 108.886C237.913 109.674 237.413 111.152 236.113 111.941C236.113 111.941 237.413 116.276 240.013 115.981C242.613 115.685 245.913 113.024 245.613 108.886C245.313 104.747 239.813 101.791 236.713 102.382C233.713 102.973 230.713 106.324 234.813 109.674Z" fill="#8F81AE"/>
<path d="M245.613 106.324C245.613 106.324 249.013 102.087 252.313 105.733C255.713 109.379 257.813 113.419 259.313 114.207C260.813 114.995 258.013 116.868 254.313 115.685C250.613 114.601 245.813 110.068 245.613 106.324Z" fill="#8F81AE"/>
<path d="M235.113 119.233V116.966C235.113 116.966 237.713 117.065 238.713 116.079C238.713 116.079 237.913 117.853 236.313 117.853V119.233H235.113Z" fill="#B6ADCA"/>
<path d="M232.313 151.553C232.313 151.553 233.813 174.119 235.713 178.849C237.613 183.579 249.413 205.06 249.413 205.06L255.513 203.779L246.713 178.159C246.613 179.736 245.513 172.345 247.613 164.856C248.913 160.422 248.413 155.692 246.513 151.849L231.113 151.652H232.313V151.553Z" fill="#9B8EB6"/>
<path d="M246.513 150.568C246.513 150.568 245.913 156.874 238.613 163.969C231.213 171.163 228.213 175.991 228.213 175.991L227.113 207.031H221.013C221.013 207.031 217.413 174.316 217.513 173.133C217.613 171.951 227.813 150.568 229.013 148.696C230.113 146.823 246.513 150.568 246.513 150.568Z" fill="#B4ABC9"/>
<path d="M242.013 118.937C242.013 118.937 248.613 119.43 246.213 127.411C243.613 136.181 246.613 150.075 247.213 151.553L245.213 152.342C239.313 154.51 232.813 154.411 226.913 151.948C226.913 151.948 232.113 140.714 228.413 134.802C226.013 130.959 226.713 127.214 229.513 123.765C231.313 121.597 233.613 119.232 234.513 119.232L242.013 118.937Z" fill="#CBC5D9"/>
<path d="M221.013 207.031H222.313L219.713 173.331C220.113 172.641 221.613 169.98 226.213 161.407C227.813 158.451 228.913 155.593 229.713 152.933C228.913 152.736 228.113 152.44 227.313 152.145C224.113 158.648 217.713 172.247 217.613 173.232C217.413 174.316 221.013 207.031 221.013 207.031Z" fill="#A69BBE"/>
<path d="M233.713 132.634C230.613 133.718 232.913 141.7 229.613 152.835C228.713 152.539 227.813 152.243 226.913 151.849C226.913 151.849 232.113 140.616 228.413 134.703C227.213 132.831 226.813 130.959 227.013 129.087L240.013 126.229C240.113 126.229 237.913 131.057 233.713 132.634Z" fill="#C0B8D1"/>
<path d="M205.613 112.63C205.613 112.63 217.513 132.043 221.013 133.127C222.513 133.619 232.213 129.973 236.313 129.283C238.513 128.889 240.013 127.017 239.813 124.751C239.613 122.287 236.613 120.119 234.213 120.711L220.813 124.751C220.813 124.751 209.513 113.32 206.913 110.66C206.913 110.66 205.913 107.408 204.313 107.408C202.913 107.506 205.113 111.546 205.613 112.63Z" fill="#CDC7DA"/>
<path d="M215.113 209.002C216.813 208.509 220.013 207.819 221.113 207.031H227.113C227.013 208.214 227.013 209.298 227.013 210.086C227.013 210.579 226.613 210.973 226.013 210.973H214.113C213.313 210.973 213.013 209.987 213.713 209.593C214.113 209.396 214.613 209.199 215.113 209.002Z" fill="#8F81AE"/>
<path d="M244.213 208.312C245.713 207.425 248.713 206.046 249.613 205.06L255.413 203.779C255.613 204.962 255.813 206.046 256.013 206.736C256.113 207.228 255.813 207.721 255.313 207.819L243.813 210.48C243.013 210.677 242.513 209.79 243.113 209.199C243.313 208.903 243.713 208.608 244.213 208.312Z" fill="#8F81AE"/>
<path d="M234.213 120.711C234.413 120.711 234.613 120.612 234.913 120.612C234.613 120.711 234.413 120.711 234.213 120.711Z" fill="#BEB6D0"/>
<path d="M221.113 126.524C218.013 126.426 206.913 110.758 206.913 110.758C209.413 113.419 220.813 124.849 220.813 124.849L234.213 120.809C234.413 120.809 234.613 120.711 234.913 120.711H235.013C237.113 120.711 239.213 122.287 239.713 124.258C239.113 123.864 238.113 123.667 236.913 123.667C234.413 123.667 231.113 124.356 228.013 125.145C225.013 125.835 222.313 126.524 221.113 126.524Z" fill="#C0B8D1"/>
<path d="M245.513 106.028L244.613 106.225C244.613 106.225 245.713 107.999 245.513 109.674L246.613 109.477C246.713 109.477 246.613 106.423 245.513 106.028Z" fill="white"/>
<path d="M166.913 119.43H66.413C63.613 119.43 61.313 121.696 61.313 124.455V148.794C61.313 151.553 63.613 153.82 66.413 153.82H166.913C169.713 153.82 172.013 151.553 172.013 148.794V124.455C172.013 121.696 169.713 119.43 166.913 119.43Z" fill="white"/>
<path d="M110.213 130.86L110.913 132.929C110.913 133.028 111.113 133.127 111.213 133.127H113.413C113.713 133.127 113.913 133.521 113.613 133.718L111.813 134.999C111.713 135.097 111.613 135.196 111.713 135.393L112.413 137.462C112.513 137.758 112.113 138.053 111.913 137.856L110.113 136.575C110.013 136.477 109.813 136.477 109.713 136.575L107.913 137.856C107.613 138.053 107.213 137.758 107.413 137.462L108.113 135.393C108.113 135.294 108.113 135.097 108.013 134.999L106.213 133.718C105.913 133.521 106.113 133.127 106.413 133.127H108.613C108.813 133.127 108.913 133.028 108.913 132.929L109.613 130.86C109.613 130.565 110.113 130.565 110.213 130.86Z" fill="#FFCA5E"/>
<path d="M122.413 130.86L123.113 132.929C123.113 133.028 123.313 133.127 123.413 133.127H125.613C125.913 133.127 126.113 133.521 125.813 133.718L124.013 134.999C123.913 135.097 123.813 135.196 123.913 135.393L124.613 137.462C124.713 137.758 124.313 138.053 124.113 137.856L122.313 136.575C122.213 136.477 122.013 136.477 121.913 136.575L120.113 137.856C119.813 138.053 119.413 137.758 119.613 137.462L120.313 135.393C120.313 135.294 120.313 135.097 120.213 134.999L118.413 133.718C118.113 133.521 118.313 133.127 118.613 133.127H120.813C121.013 133.127 121.113 133.028 121.113 132.929L121.813 130.86C121.913 130.565 122.313 130.565 122.413 130.86Z" fill="#FFCA5E"/>
<path d="M134.713 130.86L135.413 132.929C135.413 133.028 135.613 133.127 135.713 133.127H137.913C138.213 133.127 138.413 133.521 138.113 133.718L136.313 134.999C136.213 135.097 136.113 135.196 136.213 135.393L136.913 137.462C137.013 137.758 136.613 138.053 136.413 137.856L134.613 136.575C134.513 136.477 134.313 136.477 134.213 136.575L132.413 137.856C132.113 138.053 131.713 137.758 131.913 137.462L132.613 135.393C132.613 135.294 132.613 135.097 132.513 134.999L130.713 133.718C130.413 133.521 130.613 133.127 130.913 133.127H133.113C133.313 133.127 133.413 133.028 133.413 132.929L134.113 130.86C134.113 130.565 134.613 130.565 134.713 130.86Z" fill="#FFCA5E"/>
<path d="M146.913 130.86L147.613 132.929C147.613 133.028 147.813 133.127 147.913 133.127H150.113C150.413 133.127 150.613 133.521 150.313 133.718L148.513 134.999C148.413 135.097 148.313 135.196 148.413 135.393L149.113 137.462C149.213 137.758 148.813 138.053 148.613 137.856L146.813 136.575C146.713 136.477 146.513 136.477 146.413 136.575L144.613 137.856C144.313 138.053 143.913 137.758 144.113 137.462L144.813 135.393C144.813 135.294 144.813 135.097 144.713 134.999L142.913 133.718C142.613 133.521 142.813 133.127 143.113 133.127H145.313C145.513 133.127 145.613 133.028 145.613 132.929L146.313 130.86C146.313 130.565 146.813 130.565 146.913 130.86Z" fill="#FFCA5E"/>
<path d="M159.213 130.86L159.913 132.929C159.913 133.028 160.113 133.127 160.213 133.127H162.413C162.713 133.127 162.913 133.521 162.613 133.718L160.813 134.999C160.713 135.097 160.613 135.196 160.713 135.393L161.413 137.462C161.513 137.758 161.113 138.053 160.913 137.856L159.113 136.575C159.013 136.477 158.813 136.477 158.713 136.575L156.913 137.856C156.613 138.053 156.213 137.758 156.413 137.462L157.113 135.393C157.113 135.294 157.113 135.097 157.013 134.999L155.213 133.718C154.913 133.521 155.113 133.127 155.413 133.127H157.613C157.813 133.127 157.913 133.028 157.913 132.929L158.613 130.86C158.613 130.565 159.113 130.565 159.213 130.86Z" fill="#FFCA5E"/>
<path d="M141.513 141.305H105.913V142.291H141.513V141.305Z" fill="#E2DEEA"/>
<path d="M141.513 125.441H105.913V127.313H141.513V125.441Z" fill="#8778A8"/>
<path d="M141.513 145.05H105.913V146.035H141.513V145.05Z" fill="#E2DEEA"/>
<path d="M122.213 148.4H105.913V149.386H122.213V148.4Z" fill="#E2DEEA"/>
<path d="M98.1129 137.068C98.1129 129.382 91.7129 123.174 83.9129 123.174C76.0129 123.174 69.7129 129.382 69.7129 137.068C69.7129 144.754 76.1129 150.962 83.9129 150.962C91.8129 151.061 98.1129 144.754 98.1129 137.068Z" fill="#D3CEDF"/>
<path d="M53.6129 190.279C53.6129 190.279 77.7129 170.473 81.9129 177.469C86.1129 184.466 79.9129 207.031 79.9129 207.031L53.6129 190.279Z" fill="#A89DBF"/>
<path d="M66.2129 198.36L79.9129 207.13C79.9129 207.13 85.6129 186.436 82.4129 178.553C83.9129 188.9 72.6129 195.502 66.2129 198.36Z" fill="#9B8EB6"/>
<path d="M65.9129 188.112C65.9129 188.112 80.8129 199.838 82.0129 204.075C84.0129 210.874 72.3129 210.184 67.2129 210.184C62.1129 210.184 30.0129 209.297 30.0129 209.297L30.3129 204.469L60.0129 203.09C60.0129 203.09 43.6129 200.725 44.2129 191.462C44.8129 182.101 65.9129 188.112 65.9129 188.112Z" fill="#B4ABC9"/>
<path d="M81.3129 207.918C78.6129 210.578 71.1129 210.086 67.3129 210.086C62.2129 210.086 30.1129 209.199 30.1129 209.199L30.4129 204.37L60.1129 202.991C60.1129 202.991 71.9129 208.608 81.1129 207.918C81.1129 207.918 81.2129 207.918 81.3129 207.918Z" fill="#A89DBF"/>
<path d="M30.213 209.199C30.213 209.199 28.913 212.056 29.913 214.027C30.913 215.9 26.613 214.52 25.913 210.775C25.213 207.031 25.513 202.498 30.413 204.567L30.213 209.199Z" fill="#8F81AE"/>
<path d="M46.913 159.042C46.913 159.042 57.713 128.397 58.113 128.495C59.413 129.086 61.613 129.579 61.613 129.579L57.113 163.181L46.913 159.042Z" fill="#8778A8"/>
<path d="M58.113 155.594C55.613 154.411 52.613 153.13 48.913 153.327C47.413 157.466 46.913 159.043 46.913 159.043L57.113 163.181L58.113 155.594Z" fill="#7C6C9F"/>
<path d="M60.5129 150.962C59.7129 153.82 56.5129 153.327 56.5129 153.327V156.086H51.0129V152.342C53.8129 152.933 56.9129 150.962 55.6129 149.977C54.2129 148.991 53.9129 147.316 54.7129 146.528C55.4129 145.739 57.1129 146.331 57.1129 146.331C58.7129 146.331 59.9129 146.134 60.6129 145.739C60.9129 147.415 60.9129 149.385 60.5129 150.962Z" fill="#CDC7DA"/>
<path d="M57.1129 146.331C57.1129 146.331 55.4129 145.74 54.7129 146.528C54.0129 147.316 54.3129 148.992 55.6129 149.977C57.0129 150.962 53.9129 153.032 51.0129 152.342C48.2129 151.652 46.6129 145.937 49.0129 142.094C51.2129 138.645 59.1129 137.068 60.7129 140.714C62.4129 144.459 62.5129 146.232 57.1129 146.331Z" fill="#8F81AE"/>
<path d="M56.513 156.086V153.327C56.513 153.327 54.713 153.13 53.913 152.736C53.913 152.736 54.913 153.918 55.513 154.115V156.086H56.513Z" fill="#B4ABC9"/>
<path d="M58.0129 156.086C58.0129 156.086 49.0129 153.031 46.4129 159.929C43.9129 166.827 48.2129 183.382 43.6129 189.097C50.7129 192.349 58.9129 192.644 66.3129 189.885L67.3129 189.491C67.3129 189.491 64.1129 168.404 64.0129 169.093C63.9129 169.685 74.7129 173.035 76.8129 171.951C79.0129 170.769 92.0129 156.382 92.0129 156.382L87.6129 155.791L75.8129 163.378C75.8129 163.378 61.0129 156.283 58.0129 156.086Z" fill="#8778A8"/>
<path d="M92.0129 156.48C92.0129 156.48 96.5129 154.608 96.8129 153.721H90.3129C89.6129 153.721 89.0129 154.017 88.6129 154.608L87.6129 155.889L92.0129 156.48Z" fill="#CDC7DA"/>
<path d="M67.2129 189.491C67.2129 189.491 64.4129 170.966 63.9129 169.192C64.0129 169.291 64.0129 169.291 64.2129 169.389C64.0129 169.192 63.9129 169.093 63.9129 169.093C63.9129 169.093 57.0129 167.418 54.5129 164.659C54.5129 164.659 56.8129 169.389 59.9129 170.473C62.6129 171.458 61.6129 185.648 63.7129 190.674C64.5129 190.477 65.4129 190.181 66.2129 189.885L67.2129 189.491Z" fill="#7C6C9F"/>
<path d="M58.413 128.692C58.413 128.692 59.513 124.652 61.313 124.356V129.579L58.413 128.692Z" fill="#CDC7DA"/>
<path d="M98.1129 137.068C98.1129 129.382 91.7129 123.174 83.9129 123.174C76.0129 123.174 69.7129 129.382 69.7129 137.068C69.7129 144.754 76.1129 150.962 83.9129 150.962C91.8129 151.061 98.1129 144.754 98.1129 137.068Z" fill="#5D4989"/>
<path d="M99.5129 157.466L98.6129 149.484C98.4129 148.203 97.7129 147.021 96.6129 146.331L93.8129 144.557L91.5129 143.67L89.1129 142.783L87.1129 141.995L86.2129 141.7L84.0129 142.783L81.8129 141.7L81.0129 141.897L79.1129 142.586L76.6129 143.572L74.2129 144.459L71.4129 146.232C70.3129 146.922 69.5129 148.105 69.4129 149.386L68.5129 157.367H74.3129V164.068H93.7129V157.367H99.5129V157.466Z" fill="#D3CEDF"/>
<path d="M84.0129 127.51C80.8129 127.51 78.2129 130.072 78.2129 133.225V135.886H89.8129V133.225C89.8129 130.072 87.3129 127.51 84.0129 127.51Z" fill="#8778A8"/>
<path d="M86.313 140.123V142.094C86.313 142.094 86.313 142.192 86.313 142.291C86.013 143.473 85.013 145.74 84.013 145.74C83.013 145.74 82.013 143.375 81.813 142.192V142.094V140.123H86.313Z" fill="#CDC7DA"/>
<path d="M86.3129 139.729V141.502C85.6129 141.897 84.8129 142.094 84.0129 142.094C83.2129 142.094 82.4129 141.897 81.7129 141.502V139.729H86.3129Z" fill="#B4ABC9"/>
<path d="M81.0129 135.886C81.0129 135.097 80.4129 134.506 79.6129 134.506C78.8129 134.506 78.2129 135.097 78.2129 135.886C78.2129 136.674 78.8129 137.265 79.6129 137.265C80.4129 137.265 81.0129 136.674 81.0129 135.886Z" fill="#CDC7DA"/>
<path d="M89.8129 135.886C89.8129 135.097 89.2129 134.506 88.4129 134.506C87.6129 134.506 87.0129 135.097 87.0129 135.886C87.0129 136.674 87.6129 137.265 88.4129 137.265C89.2129 137.265 89.8129 136.674 89.8129 135.886Z" fill="#CDC7DA"/>
<path d="M88.7129 133.521C87.0129 132.634 86.4129 131.846 86.4129 131.846H81.8129C81.4129 132.831 79.5129 133.521 79.5129 133.521V135.787C79.5129 137.068 80.1129 138.645 81.0129 139.926C81.4129 140.419 81.8129 140.813 82.4129 141.108C82.9129 141.404 83.5129 141.502 84.2129 141.502C85.4129 141.502 86.6129 140.911 87.4129 139.926C88.3129 138.743 88.9129 137.167 88.9129 135.787L88.7129 133.521Z" fill="#CDC7DA"/>
<path d="M215.313 161.407H114.813C112.013 161.407 109.713 163.674 109.713 166.433V190.772C109.713 193.531 112.013 195.798 114.813 195.798H215.313C218.113 195.798 220.413 193.531 220.413 190.772V166.433C220.413 163.674 218.113 161.407 215.313 161.407Z" fill="white"/>
<path d="M158.613 172.838L159.313 174.907C159.313 175.006 159.513 175.104 159.613 175.104H161.813C162.113 175.104 162.313 175.499 162.013 175.696L160.213 176.977C160.113 177.075 160.013 177.174 160.113 177.371L160.813 179.44C160.913 179.736 160.513 180.031 160.313 179.834L158.513 178.553C158.413 178.455 158.213 178.455 158.113 178.553L156.313 179.834C156.013 180.031 155.613 179.736 155.813 179.44L156.513 177.371C156.513 177.272 156.513 177.075 156.413 176.977L154.613 175.696C154.313 175.499 154.513 175.104 154.813 175.104H157.013C157.213 175.104 157.313 175.006 157.313 174.907L158.013 172.838C158.013 172.542 158.513 172.542 158.613 172.838Z" fill="#FFCA5E"/>
<path d="M170.813 172.838L171.513 174.907C171.513 175.006 171.713 175.104 171.813 175.104H174.013C174.313 175.104 174.513 175.499 174.213 175.696L172.413 176.977C172.313 177.075 172.213 177.174 172.313 177.371L173.013 179.44C173.113 179.736 172.713 180.031 172.513 179.834L170.713 178.553C170.613 178.455 170.413 178.455 170.313 178.553L168.513 179.834C168.213 180.031 167.813 179.736 168.013 179.44L168.713 177.371C168.713 177.272 168.713 177.075 168.613 176.977L166.813 175.696C166.513 175.499 166.713 175.104 167.013 175.104H169.213C169.413 175.104 169.513 175.006 169.513 174.907L170.213 172.838C170.213 172.542 170.713 172.542 170.813 172.838Z" fill="#FFCA5E"/>
<path d="M183.113 172.838L183.813 174.907C183.813 175.006 184.013 175.104 184.113 175.104H186.313C186.613 175.104 186.813 175.499 186.513 175.696L184.713 176.977C184.613 177.075 184.513 177.174 184.613 177.371L185.313 179.44C185.413 179.736 185.013 180.031 184.813 179.834L183.013 178.553C182.913 178.455 182.713 178.455 182.613 178.553L180.813 179.834C180.513 180.031 180.113 179.736 180.313 179.44L181.013 177.371C181.013 177.272 181.013 177.075 180.913 176.977L179.113 175.696C178.813 175.499 179.013 175.104 179.313 175.104H181.513C181.713 175.104 181.813 175.006 181.813 174.907L182.513 172.838C182.513 172.542 183.013 172.542 183.113 172.838Z" fill="#FFCA5E"/>
<path d="M182.713 172.641C182.613 172.641 182.513 172.739 182.413 172.838L181.713 174.907C181.713 175.006 181.513 175.104 181.413 175.104H179.213C178.913 175.104 178.713 175.498 179.013 175.696L180.813 176.977C180.913 177.075 181.013 177.174 180.913 177.371L180.213 179.44C180.113 179.736 180.513 180.031 180.713 179.834L182.513 178.553H182.713V172.641Z" fill="#FFCA5E"/>
<path d="M195.313 172.838L196.013 174.907C196.013 175.006 196.213 175.104 196.313 175.104H198.513C198.813 175.104 199.013 175.499 198.713 175.696L196.913 176.977C196.813 177.075 196.713 177.174 196.813 177.371L197.513 179.44C197.613 179.736 197.213 180.031 197.013 179.834L195.213 178.553C195.113 178.455 194.913 178.455 194.813 178.553L193.013 179.834C192.713 180.031 192.313 179.736 192.513 179.44L193.213 177.371C193.213 177.272 193.213 177.075 193.113 176.977L191.313 175.696C191.013 175.499 191.213 175.104 191.513 175.104H193.713C193.913 175.104 194.013 175.006 194.013 174.907L194.713 172.838C194.713 172.542 195.213 172.542 195.313 172.838Z" fill="#FFCA5E"/>
<path d="M207.513 172.838L208.213 174.907C208.213 175.006 208.413 175.104 208.513 175.104H210.713C211.013 175.104 211.213 175.499 210.913 175.696L209.113 176.977C209.013 177.075 208.913 177.174 209.013 177.371L209.713 179.44C209.813 179.736 209.413 180.031 209.213 179.834L207.413 178.553C207.313 178.455 207.113 178.455 207.013 178.553L205.213 179.834C204.913 180.031 204.513 179.736 204.713 179.44L205.413 177.371C205.413 177.272 205.413 177.075 205.313 176.977L203.513 175.696C203.213 175.499 203.413 175.104 203.713 175.104H205.913C206.113 175.104 206.213 175.006 206.213 174.907L206.913 172.838C207.013 172.542 207.413 172.542 207.513 172.838Z" fill="#FFCA5E"/>
<path d="M189.913 183.382H154.313V184.367H189.913V183.382Z" fill="#E2DEEA"/>
<path d="M189.913 167.418H154.313V169.29H189.913V167.418Z" fill="#A89DBF"/>
<path d="M189.913 187.028H154.313V188.013H189.913V187.028Z" fill="#E2DEEA"/>
<path d="M170.613 190.476H154.313V191.462H170.613V190.476Z" fill="#E2DEEA"/>
<path d="M146.513 178.75C146.513 171.064 140.113 164.856 132.313 164.856C124.513 164.856 118.113 171.064 118.113 178.75C118.113 186.436 124.513 192.644 132.313 192.644C140.113 192.644 146.513 186.436 146.513 178.75Z" fill="#D3CEDF"/>
<path d="M146.513 178.75C146.513 171.064 140.113 164.856 132.313 164.856C124.513 164.856 118.113 171.064 118.113 178.75C118.113 186.436 124.513 192.644 132.313 192.644C140.113 192.644 146.513 186.436 146.513 178.75Z" fill="#5D4989"/>
<path d="M126.613 175.696C126.613 175.696 125.813 172.542 127.013 171.163C128.313 169.783 130.813 168.305 132.813 169.094C132.813 169.094 134.413 168.108 135.913 168.896C137.413 169.685 139.513 170.375 139.713 169.389C139.713 169.389 139.813 173.035 138.213 173.626L137.513 176.385H126.913L126.613 175.696Z" fill="#8778A8"/>
<path d="M143.513 188.112C141.713 185.057 134.113 183.382 134.113 183.382L132.113 184.17L130.113 183.382C130.113 183.382 122.513 185.057 120.713 188.112L118.513 204.469L122.013 204.371L124.113 190.772C124.113 190.772 125.413 195.206 125.313 197.768C125.213 200.331 124.413 204.568 124.413 204.568H131.913H132.313H139.813C139.813 204.568 139.013 200.331 138.913 197.768C138.813 195.206 140.113 190.772 140.113 190.772L142.213 204.371L145.713 204.469L143.513 188.112Z" fill="#8778A8"/>
<path d="M134.413 180.524V183.382C134.413 183.382 134.013 185.549 132.113 185.944C130.113 185.451 129.813 183.382 129.813 183.382V180.524H134.413Z" fill="#CDC7DA"/>
<path d="M134.413 180.13V181.904C133.713 182.298 132.913 182.495 132.113 182.495C131.313 182.495 130.513 182.298 129.813 181.904V180.13H134.413Z" fill="#B4ABC9"/>
<path d="M136.813 174.415C134.713 174.316 133.313 172.739 133.313 172.739C132.013 173.823 127.513 174.415 127.513 174.415V176.188C127.513 177.469 128.113 179.144 129.013 180.327C129.713 181.312 130.913 181.904 132.213 181.904C133.513 181.904 134.713 181.312 135.413 180.327C136.313 179.144 136.913 177.469 136.913 176.188L136.813 174.415Z" fill="#CDC7DA"/>
<path d="M128.713 176.385C128.713 177.075 128.113 177.666 127.413 177.666C126.713 177.666 126.113 177.075 126.113 176.385C126.113 175.696 126.713 175.104 127.413 175.104C128.113 175.104 128.713 175.696 128.713 176.385Z" fill="#CDC7DA"/>
<path d="M138.113 176.385C138.113 177.075 137.513 177.666 136.813 177.666C136.113 177.666 135.513 177.075 135.513 176.385C135.513 175.696 136.113 175.104 136.813 175.104C137.513 175.104 138.113 175.696 138.113 176.385Z" fill="#CDC7DA"/>
<path d="M217.413 20.3976C217.413 9.16416 208.113 0 196.613 0C185.113 0 175.813 9.16416 175.813 20.3976C175.813 31.6311 185.113 40.7953 196.613 40.7953C208.113 40.7953 217.413 31.6311 217.413 20.3976Z" fill="#D3CEDF"/>
<path d="M196.613 0C196.513 0 196.313 0 196.213 0C202.013 3.35034 205.813 9.45978 205.813 16.4561C205.813 26.9998 197.113 35.5727 186.313 35.5727C184.913 35.5727 183.513 35.3756 182.213 35.1785C185.913 38.726 191.013 40.8938 196.613 40.8938C208.113 40.8938 217.413 31.7297 217.413 20.4962C217.413 9.16416 208.113 0 196.613 0Z" fill="#CAC3D8"/>
<path d="M50.013 84.8423C54.413 84.8423 54.613 78.5358 50.213 78.2402H50.113V78.1416C50.113 73.6088 46.313 69.9629 41.713 69.9629C40.213 69.9629 38.913 70.357 37.713 70.9483C36.213 68.2877 33.313 66.4155 30.013 66.4155C25.213 66.4155 21.313 70.2585 21.313 74.9884C21.313 75.284 21.313 75.4811 21.313 75.7767C20.413 75.4811 19.513 75.3825 18.513 75.3825C15.013 75.3825 11.913 77.1562 10.113 79.8168C8.613 81.9847 10.313 84.9408 12.913 84.9408H50.013V84.8423Z" fill="#D3CEDF"/>
<path d="M184.013 33.0107C189.713 33.0107 190.013 24.7334 184.313 24.3392H184.113V24.2407C184.113 18.3283 179.213 13.4999 173.113 13.4999C171.213 13.4999 169.413 13.9926 167.813 14.7809C165.913 11.2335 162.113 8.86853 157.713 8.86853C151.413 8.86853 146.313 13.894 146.313 20.102C146.313 20.3976 146.313 20.7918 146.313 21.0874C145.113 20.7918 143.913 20.5947 142.613 20.5947C138.013 20.5947 133.913 22.8611 131.513 26.4085C129.513 29.2662 131.713 33.1092 135.213 33.1092H184.013V33.0107Z" fill="#D3CEDF"/>
<path d="M252.813 52.62C247.513 52.62 247.313 44.934 252.513 44.6384H252.613V44.5398C252.613 39.1202 257.113 34.6859 262.713 34.6859C264.513 34.6859 266.113 35.08 267.613 35.8684C269.413 32.6166 272.913 30.4487 276.913 30.4487C282.713 30.4487 287.413 35.08 287.413 40.6968C287.413 40.9924 287.413 41.288 287.413 41.5836C288.513 41.288 289.613 41.0909 290.813 41.0909C295.013 41.0909 298.813 43.1603 301.013 46.4121C302.813 49.0726 300.813 52.62 297.613 52.62H252.813Z" fill="#D3CEDF"/>
<path d="M271.313 195.798L272.313 195.502C272.413 193.728 271.713 190.772 267.613 186.239C260.113 177.864 253.713 165.842 255.313 161.21C255.313 161.21 248.013 172.05 252.913 179.145C257.613 185.747 270.013 187.225 271.313 195.798Z" fill="#B4ABC9"/>
<path d="M271.713 195.601L272.313 195.403C272.413 193.63 271.713 190.674 267.613 186.141C260.113 177.765 253.713 165.743 255.313 161.112C255.313 161.112 251.413 171.064 256.513 177.666C261.513 184.268 270.413 185.648 271.713 195.601Z" fill="#9B8EB6"/>
<path d="M274.313 188.604C273.913 190.378 273.413 191.757 272.913 192.743L273.413 192.841C275.613 189.984 279.213 184.17 280.013 176.878C281.213 166.236 282.713 152.933 282.713 152.933C282.713 152.933 271.613 161.9 274.113 174.316C275.413 180.524 275.113 185.254 274.313 188.604Z" fill="#B4ABC9"/>
<path d="M278.213 169.291C277.613 178.159 275.913 187.914 273.713 191.856C274.013 191.659 274.413 191.363 274.713 191.068C276.813 187.914 279.413 182.988 280.013 176.977C281.213 166.334 282.713 153.032 282.713 153.032C282.713 153.032 279.013 157.663 278.213 169.291Z" fill="#9B8EB6"/>
<path d="M276.313 192.743C275.413 193.827 274.513 194.517 273.813 195.009L274.113 195.206C276.713 194.024 281.313 191.462 284.613 186.831C289.413 180.13 295.513 171.655 295.513 171.655C295.513 171.655 284.713 173.725 281.613 182.889C280.113 187.717 278.113 190.772 276.313 192.743Z" fill="#B4ABC9"/>
<path d="M286.213 181.115C282.413 186.831 277.613 192.841 274.613 194.615C274.913 194.615 275.213 194.517 275.613 194.517C278.213 193.137 281.813 190.772 284.513 186.929C289.313 180.228 295.413 171.754 295.413 171.754C295.413 171.754 291.113 173.626 286.213 181.115Z" fill="#9B8EB6"/>
<path d="M272.213 192.349C272.913 194.221 273.413 195.502 273.713 196.487L274.113 196.389C273.513 193.039 272.413 187.323 271.313 183.579C269.813 178.061 271.013 175.301 269.713 165.645C268.513 155.988 262.613 143.178 262.613 143.178C262.613 143.178 258.813 156.678 264.213 169.488C269.613 182.396 269.213 184.071 272.213 192.349Z" fill="#B4ABC9"/>
<path d="M273.613 196.487L273.713 195.108C273.013 191.758 272.113 186.831 271.213 183.579C269.713 178.061 270.913 175.301 269.613 165.645C268.413 155.988 262.513 143.178 262.513 143.178C262.513 143.178 264.313 162.393 267.013 170.769C269.613 178.553 273.113 194.221 273.613 196.487Z" fill="#9B8EB6"/>
<path d="M262.413 194.517L264.813 208.214C265.013 209.495 266.213 210.381 267.513 210.381H281.213C282.513 210.381 283.713 209.396 283.913 208.214L286.313 194.517C286.513 193.236 285.513 192.152 284.213 192.152H264.513C263.213 192.152 262.213 193.334 262.413 194.517Z" fill="white"/>
<path d="M286.313 193.827C286.313 193.728 286.213 193.531 286.213 193.433C286.213 193.334 286.113 193.236 286.013 193.137V193.038C285.913 192.94 285.913 192.841 285.813 192.743L285.713 192.644C285.613 192.546 285.613 192.546 285.513 192.447L285.313 192.349C285.213 192.349 285.213 192.25 285.113 192.25C285.013 192.25 284.913 192.152 284.913 192.152L284.713 192.053C284.613 192.053 284.413 192.053 284.313 192.053H278.013H264.513C263.313 192.053 262.413 193.038 262.413 194.122H280.013C280.013 194.221 280.013 194.319 280.013 194.418L277.613 208.115C277.413 209.396 276.213 210.283 274.913 210.283H281.113C282.413 210.283 283.613 209.297 283.813 208.115L286.213 194.418C286.313 194.319 286.313 194.024 286.313 193.827Z" fill="#F0EFF4"/>
<path d="M81.413 94.4006H50.413C48.213 94.4006 46.413 96.1743 46.413 98.3422V114.306V122.189L54.313 115.192C54.913 114.601 55.813 114.306 56.613 114.306H81.413C82.913 114.306 84.213 113.123 84.213 111.645V97.0612C84.113 95.5831 82.913 94.4006 81.413 94.4006Z" fill="#8778A8"/>
<path d="M70.8129 100.51C69.5129 99.2291 67.3129 99.2291 66.0129 100.51L65.5129 101.003L65.0129 100.51C64.3129 99.8204 63.5129 99.5247 62.6129 99.5247C61.7129 99.5247 60.8129 99.8204 60.2129 100.51C58.9129 101.791 58.9129 103.959 60.2129 105.24L60.7129 105.733L65.5129 110.463L70.3129 105.733L70.8129 105.24C71.5129 104.55 71.8129 103.762 71.8129 102.875C71.8129 101.988 71.4129 101.101 70.8129 100.51Z" fill="#A89DBF"/>
<path d="M265.513 62.2767H234.413C232.213 62.2767 230.413 64.0504 230.413 66.2183V82.2802V90.1634L238.313 83.1671C238.913 82.5758 239.813 82.2802 240.613 82.2802H265.513C267.013 82.2802 268.313 81.0977 268.313 79.5211V64.9373C268.213 63.4592 267.013 62.2767 265.513 62.2767Z" fill="#8778A8"/>
<path d="M258.113 73.1161C258.713 73.1161 259.113 72.6234 259.113 72.0322C259.113 71.441 258.613 70.9483 258.013 70.9483H255.913C255.813 70.9483 255.713 70.9483 255.613 70.9483C254.513 70.9483 254.413 70.9483 254.013 70.8497C253.113 70.6527 254.213 69.5687 253.613 67.5979C253.013 65.6271 251.013 65.7257 251.113 66.6125C251.213 67.5979 251.313 69.7658 250.813 70.4556C249.613 72.0322 247.613 72.2293 247.613 72.2293V77.5504H249.713C250.713 78.6343 252.513 78.8314 252.713 78.8314H255.113H255.213H256.713C257.213 78.8314 257.713 78.4373 257.713 77.846C257.713 77.5504 257.613 77.2548 257.313 77.0577C257.913 77.0577 258.313 76.565 258.313 75.9738C258.313 75.4811 258.013 75.0869 257.613 74.9884H257.813C258.413 74.9884 258.913 74.4957 258.913 73.9045C258.813 73.6088 258.513 73.2147 258.113 73.1161Z" fill="#B4ABC9"/>
<path d="M241.613 78.6343H245.313V70.8497H241.613V78.6343Z" fill="#B4ABC9"/>
<path d="M194.313 149.188C193.413 147.71 192.913 145.937 193.013 144.163C193.113 138.743 197.713 134.408 203.313 134.506C209.013 134.605 213.513 139.335 213.213 144.951C212.913 149.878 208.913 153.82 203.913 154.214C202.413 154.312 200.913 154.115 199.613 153.623C199.013 153.426 198.313 153.327 197.613 153.524L193.713 154.707L194.713 151.553C194.813 150.667 194.813 149.878 194.313 149.188Z" fill="#8778A8"/>
<path d="M202.913 138.94L201.913 142.094C201.813 142.291 201.713 142.389 201.513 142.389H198.113C197.713 142.389 197.513 142.882 197.813 143.178L200.513 145.148C200.713 145.247 200.713 145.444 200.713 145.641L199.713 148.794C199.613 149.188 200.013 149.484 200.413 149.287L203.113 147.316C203.313 147.218 203.513 147.218 203.613 147.316L206.313 149.287C206.613 149.484 207.113 149.188 207.013 148.794L206.013 145.641C205.913 145.444 206.013 145.247 206.213 145.148L208.913 143.178C209.213 142.98 209.113 142.389 208.613 142.389H205.213C205.013 142.389 204.813 142.291 204.813 142.094L203.813 138.94C203.613 138.546 203.013 138.546 202.913 138.94Z" fill="#D3CEDF"/>
</svg>
